<?xml version="1.0" encoding="utf-8"?>
<!-- Generator: Adobe Illustrator 16.0.0, SVG Export Plug-In . SVG Version: 6.00 Build 0)  -->
<!DOCTYPE svg PUBLIC "-//W3C//DTD SVG 1.1//EN" "http://www.w3.org/Graphics/SVG/1.1/DTD/svg11.dtd">
<svg version="1.1" id="圖層_1" xmlns="http://www.w3.org/2000/svg" xmlns:xlink="http://www.w3.org/1999/xlink" x="0px" y="0px"
	 width="300px" height="130px" viewBox="0 0 300 130" enable-background="new 0 0 300 130" xml:space="preserve">
<path fill="#769C95" d="M164.927,49.522c1.061,2.464,1.547,5.272,2.135,7.915c-2.918,1.03-3.911,2.046-6.271,4.068
	c-0.033,3.368-0.458,5.981,2.076,8.637c3.693,3.872,10.604,3.278,15.318,1.988c1.45,5.339,2.499,9.046,4.531,14.245
	c1.072,2.742,3.898,8.858,4.556,11.243l0.97,2.433c-0.241,1.835-0.275,3.935-1.379,5.307c-10.344,2.774-26.729,1.893-37.629,3.632
	c-25.833,4.121-51.613,7.424-77.805,8.186c-6.052,0.145-29.77,3.211-32.841,1.875l-0.402-1.621
	c-2.565-0.846-24.426,0.787-29.896,0.552c-1.423-1.23-3.927-3.138-4.249-4.983c-1.359-7.812,13.843-10.949,19.122-12.464
	c-5.644-2.646-7.97-1.689-13.812-6.291c5.076-17.553,18.509-14.667,32.493-13.941c1.653-0.589,6.52-1.738,8.417-2.238
	c1.793-1.734,3.9-3.497,6.52-3.408c2.665-0.594,5.406-1.709,8.066-2.47c28.755-8.22,58.066-16.643,87.708-20.872
	C156.438,50.757,161.332,50.498,164.927,49.522z"/>
<path fill="#FABBA5" d="M9.352,94.242c5.076-17.553,18.509-14.667,32.493-13.941c-0.542,2.593-1.956,13.449-0.384,15.257
	c-1.966,0.018-1.142-0.31-2.584,0.948c-0.029,1.808-0.315,1.022,0.983,2.398l-0.848,0.373c-0.818,3.984-1.285,13.99-0.826,18.152
	c-2.565-0.846-24.426,0.787-29.896,0.552c-1.423-1.23-3.927-3.138-4.249-4.983c-1.359-7.812,13.843-10.949,19.122-12.464
	C17.52,97.887,15.193,98.844,9.352,94.242z"/>
<path fill="#F3F2EF" d="M50.261,78.063c1.793-1.734,3.9-3.497,6.52-3.408l0.347,0.811c1.15,2.638,2.03,2.599,1.738,4.855
	c-1.45,1.028-1.849,0.888-3.628,1.052c-1.416-1.223-1.156-1.13-1.298-3.173C52.099,77.862,52.131,77.881,50.261,78.063z"/>
<path fill="#F3F2EF" d="M180.177,98.111c-2.908-1.551-4.603-2.104-6.223-4.907l0.815-1.475c1.766,0.151,3.389,0.741,5.109,1.243
	c1.466,1.491,1.014,0.903,1.272,3.472L180.177,98.111z"/>
<path fill="#FFFFFF" d="M41.46,95.558c1.906-0.916,3.719-2.126,5.696-1.734l0.556,0.81c-1.817,3.088-4.446,3.6-7.854,4.271
	c-1.298-1.376-1.012-0.59-0.983-2.398C40.319,95.249,39.495,95.576,41.46,95.558z"/>
<path fill="#649187" d="M181.151,96.444c1.225,0.254,5.096,1.147,6.121,1.173c-0.772,1.568-1.095,1.547-2.626,2.404
	c-2.549,0.236-2.925,0.129-4.47-1.911L181.151,96.444z"/>
<path fill="#F3F2EF" d="M149.371,87.469l0.757,0.431c0.983,4.385-2.064,7.216-5.98,8.351c-0.817-1.964-1.509-2.249-1.973-4.525
	l0.827-1.167C145.749,89.596,146.884,88.906,149.371,87.469z"/>
<path fill="#FFFFFF" d="M109.313,73.287l0.933,0.343c0.445,1.841,0.342,2.161,0.278,4.021c-1.398,1.888-2.174,1.443-5.119,2.132
	l-0.641,0.349C103.198,76.81,106.854,74.387,109.313,73.287z"/>
<path fill="#FFFFFF" d="M77.139,80.327c1.541,0.024,3.247,0.325,4.173,1.575c-0.642,1.664-2.483,2.592-4.041,3.645
	c-1.32,0.659-0.804,0.532-2.307,0.599l-0.686-1.517c0.138-1.807,0.204-1.807,0.858-3.528L77.139,80.327z"/>
<path fill="#F3F2EF" d="M74.777,107.254c1.757,0.572,3.457,1.126,4.287,2.639c-0.648,1.625-2.364,2.319-3.966,3.297
	c-1.312,0.867-1.415,1.196-2.905,1.09C72.061,112.953,74.057,109.158,74.777,107.254z"/>
<path fill="#FFFFFF" d="M61.807,101.068c1.373,0.178,1.288,0.236,2.623,0.719c1.22,1.538,0.982,0.703,0.889,2.541
	c-1.562,1.742-0.839,1.209-3.621,1.646l-0.739,0.807c-1.38-0.969-0.807-0.351-1.54-2.105
	C59.729,102.271,59.5,103.113,61.807,101.068z"/>
<path fill="#FFFFFF" d="M90.334,93.935l0.76-0.367l0.655,0.75c0.201,2.319,0.453,1.662-0.423,3.565
	c-1.958,1.189-1.413,0.794-4.248,0.504c-0.214,0.119,0.002,0.046-1.001,0.213c0.337-1.675,0.891-2.477,1.695-3.96L90.334,93.935z"/>
<path fill="#FFFFFF" d="M159.218,72.708l0.521,0.34c0.976,2.042,2.148,2.075,2.56,4.609l-2.302,1.137
	c-1.991-1.103-3.247-1.773-3.81-4.082C157.094,73.054,156.885,73.566,159.218,72.708z"/>
<path fill="#FFFFFF" d="M129.088,58.61c1.172,1.128,1.29,1.934,1.212,3.337c-1.528,1.656-2.475,1.645-4.78,2.24
	c-0.935-0.991-0.873-0.914-1.109-2.262C125.262,60.239,127.312,59.518,129.088,58.61z"/>
<path fill="#FFFFFF" d="M101.631,108.506c2.256-0.241,3.868-0.646,5.638,0.577c-0.118,1.847-0.286,1.475-1.653,3.256
	c-1.303-0.02-2.359-0.2-3.638-0.383C100.939,110.47,101.279,110.923,101.631,108.506z"/>
<path fill="#FFFFFF" d="M126.986,103.853c1.203-0.042,1.896-0.011,3.099,0.031c1.79,1.324,1.292,0.478,1.684,2.536
	c-0.559,1.087-0.218,0.544-1.058,1.609c-1.234,0.24-1.529,0.278-2.784,0.314l-1.047-1.003
	C126.673,105.545,126.63,105.604,126.986,103.853z"/>
<path fill="#FFFFFF" d="M115.861,92.97c1.505-0.016,1.911-0.247,3.049,0.603c-0.224,1.572-2.021,3.222-3.219,4.66
	c-1.461-0.127-0.988,0.04-2.278-0.546C113.249,96.009,114.675,94.683,115.861,92.97z"/>
<path fill="#FFFFFF" d="M150.904,61.149c0.931,0.023,1.051,0.138,1.968,0.389l0.379,1.151c-0.634,1.887-0.866,1.934-2.206,3.357
	c-1.45-0.59-1.846-0.598-2.882-1.768C148.553,62.569,149.199,62.574,150.904,61.149z"/>
<path fill="#FACEB5" d="M206.63,11.777c14.028-3.74,20.491-10.787,32.816,3.058c2.702,3.505,3.972,6.99,5.73,11.042
	c2.244,2.604,3.867,4.48,5.771,7.334c1.709,2.563,2.733,5.716,4.555,7.806c-1.244,2.194-2.455,3.893-2.874,6.354
	c0.855,6.128,0.976,10.661,0.021,16.847c8.578-2.515,39.761-9.657,44.063,0.761c0.01,1.576-0.192,2.39-1.242,3.619
	c-3.335,3.901-40.356,13.612-48.144,16.253c-4.587,1.558-8.957,3.7-13.451,5.497c-7.915,3.163-16.442,6.042-24.703,8.155
	c-5.268,1.349-10.808,1.817-16.236,1.816c-1.572,0-3.135-0.054-4.694-0.269l-0.97-2.433c-0.657-2.385-3.483-8.5-4.556-11.243
	c-2.032-5.199-3.081-8.906-4.531-14.245c-4.715,1.29-11.625,1.884-15.318-1.988c-2.534-2.655-2.109-5.269-2.076-8.637
	c2.359-2.022,3.353-3.038,6.271-4.068c-0.588-2.642-1.074-5.451-2.135-7.915c-1.593-21.766,8.886-33.445,28.484-41.874
	C197.494,5.893,203.123,9.778,206.63,11.777z"/>
<path fill="#C57F4E" d="M206.63,11.777c14.028-3.74,20.491-10.787,32.816,3.058c2.702,3.505,3.972,6.99,5.73,11.042l-0.204,4.246
	l-0.765,0.206c-1.629-1.084-3.041-2.044-4.753-2.99l-0.307,0.292c-3.998,12.706-4.885,15.898-16.611,7.671
	c-1.316,9.851-5.354,12.614-12.89,5.741c-2.62,3.001-5.946,7.444-8.672,9.9c-2.72-5.658-4.786-4.695-7.469-9.793
	c-3.794,6.133-5.396,10.311-12.259,12.889l-2.043,0.637c-3.167,1.654-8.541,2.665-12.144,2.76c-0.588-2.642-1.074-5.451-2.135-7.915
	c-1.593-21.766,8.886-33.445,28.484-41.874C197.494,5.893,203.123,9.778,206.63,11.777z"/>
<path fill="#C07956" d="M239.446,14.835c2.702,3.505,3.972,6.99,5.73,11.042l-0.204,4.246l-0.765,0.206
	c-1.629-1.084-3.041-2.044-4.753-2.99l-0.307,0.292c-0.98-1.372-1.502-1.911-2.635-3.129c2.104-0.631,1.325-0.045,2.583-1.572
	c0.489-2.402,0.199-3.295-0.147-5.785L239.446,14.835z"/>
<path fill="#C57F4E" d="M236.514,24.501c-1.455-1.905-3.368-6.599-2.374-8.933c1.892-0.483,2.652,0.452,4.81,1.575
	c0.347,2.49,0.637,3.383,0.147,5.785C237.839,24.457,238.618,23.871,236.514,24.501z"/>
<path fill="#CE9576" d="M180.879,44.694l0.369,9.345l-2.043,0.637C178.226,52.146,180.065,47.391,180.879,44.694z"/>
<path fill="#FABBA5" d="M234.652,47.739l0.393-0.237c0.436-0.973,0.391-1.198,0.38-2.242l-0.02-1.042l0.86-0.89
	c4.971-1.053,13.218-0.46,16.362,4.044c0.855,6.128,0.976,10.661,0.021,16.847c-1.67,3.249-2.045,3.603-4.705,6.241
	c-3.38,0.393-9.07,0.943-11.294-2.668c-2.029-3.299,0.869-8.791,0.468-11.157C239.03,52.906,237.577,50.332,234.652,47.739z"/>
<path fill="#393E40" d="M234.652,47.739c2.925,2.592,4.378,5.167,2.466,8.896c-1.814,0.153-2.337,0.356-3.942-0.522
	C230.971,52.854,232.343,50.57,234.652,47.739z"/>
<path fill="#393E40" d="M223.473,62.553c1.474,0.595,1.656,1.122,2.641,2.399c0.873,4.608-3.472,6.752-7.395,7.421
	c-1.361-0.643-2.828-1.435-3.267-2.933c2.127-1.958,4.769-0.71,7.171-2.186C223.123,66.946,223.362,63.453,223.473,62.553z"/>
<path fill="#393E40" d="M198.471,55.565c4.116,1.404,5.271,5.907,3.356,9.61C195.145,63.923,195.89,60.364,198.471,55.565z"/>
<path fill="#393E40" d="M217.869,53.815c1.568,0.166,1.498,0.094,2.847,0.875c1.471,2.283,1.404,5.201,1.877,8.176
	c-1.376,0.112-1.301,0.112-2.638-0.247C217.459,60.056,217.951,57.454,217.869,53.815z"/>
<g>
</g>
<g>
</g>
<g>
</g>
<g>
</g>
<g>
</g>
<g>
</g>
<g>
</g>
<g>
</g>
<g>
</g>
<g>
</g>
<g>
</g>
<g>
</g>
<g>
</g>
<g>
</g>
<g>
</g>
</svg>
