<?xml version="1.0" encoding="utf-8"?>
<!-- Generator: Adobe Illustrator 16.0.0, SVG Export Plug-In . SVG Version: 6.00 Build 0)  -->
<!DOCTYPE svg PUBLIC "-//W3C//DTD SVG 1.1//EN" "http://www.w3.org/Graphics/SVG/1.1/DTD/svg11.dtd">
<svg version="1.1" id="圖層_1" xmlns="http://www.w3.org/2000/svg" xmlns:xlink="http://www.w3.org/1999/xlink" x="0px" y="0px"
	 width="240px" height="90px" viewBox="0 0 240 90" enable-background="new 0 0 240 90" xml:space="preserve">
<g>
	<path fill="#3D405B" d="M155.65,34.648c0,0.664-0.131,1.25-0.391,1.761s-0.619,0.933-1.079,1.268
		c-0.454,0.334-0.953,0.579-1.497,0.734c-0.544,0.156-1.12,0.233-1.729,0.233h-1.425v3.853c0,0.209,0.034,0.393,0.104,0.551
		c0.068,0.158,0.21,0.279,0.426,0.363c0.107,0.042,0.297,0.081,0.568,0.117c0.272,0.036,0.521,0.057,0.749,0.063v0.636h-5.458
		v-0.636c0.144-0.012,0.352-0.033,0.623-0.063c0.271-0.03,0.462-0.069,0.569-0.117c0.179-0.078,0.309-0.191,0.39-0.34
		c0.08-0.149,0.121-0.341,0.121-0.574v-9.176c0-0.209-0.03-0.397-0.09-0.564c-0.06-0.167-0.2-0.292-0.421-0.376
		c-0.228-0.077-0.453-0.133-0.677-0.166c-0.225-0.033-0.417-0.055-0.578-0.067v-0.636h5.807c1.183,0,2.144,0.286,2.881,0.856
		C155.281,32.938,155.65,33.699,155.65,34.648z M152.926,36.817c0.203-0.287,0.338-0.584,0.403-0.892s0.099-0.584,0.099-0.829
		c0-0.34-0.04-0.687-0.121-1.04s-0.22-0.66-0.417-0.923c-0.209-0.281-0.483-0.499-0.824-0.654c-0.341-0.155-0.765-0.233-1.272-0.233
		h-1.264v5.619h0.914c0.646,0,1.17-0.1,1.573-0.3S152.723,37.116,152.926,36.817z"/>
	<path fill="#3D405B" d="M166.35,44.067l-2.885,0.197l-0.136-0.125v-1.12h-0.053c-0.144,0.149-0.305,0.31-0.483,0.479
		c-0.179,0.17-0.385,0.324-0.617,0.461c-0.269,0.162-0.528,0.284-0.778,0.368c-0.251,0.083-0.605,0.125-1.064,0.125
		c-0.782,0-1.377-0.255-1.785-0.766s-0.613-1.251-0.613-2.224v-4.225c0-0.215-0.04-0.396-0.121-0.542
		c-0.081-0.146-0.2-0.273-0.356-0.381c-0.108-0.071-0.243-0.124-0.406-0.156c-0.162-0.033-0.333-0.055-0.514-0.067V35.5l2.948-0.215
		l0.135,0.125v6.139c0,0.639,0.143,1.12,0.43,1.442c0.287,0.323,0.63,0.484,1.03,0.484c0.329,0,0.621-0.05,0.879-0.152
		c0.256-0.102,0.472-0.221,0.645-0.358c0.161-0.125,0.304-0.258,0.426-0.398s0.217-0.27,0.282-0.39v-5.003
		c0-0.197-0.042-0.372-0.125-0.523c-0.084-0.152-0.2-0.282-0.35-0.389c-0.107-0.072-0.268-0.115-0.479-0.13
		c-0.212-0.015-0.45-0.028-0.713-0.041V35.5l3.217-0.215l0.135,0.125v7.009c0,0.203,0.042,0.376,0.126,0.52
		c0.083,0.143,0.2,0.265,0.35,0.367c0.107,0.066,0.235,0.109,0.385,0.13s0.313,0.034,0.493,0.04V44.067z"/>
	<path fill="#3D405B" d="M176.403,39.801c0,1.326-0.418,2.44-1.255,3.342c-0.836,0.902-1.807,1.354-2.912,1.354
		c-0.483,0-0.96-0.075-1.43-0.224c-0.469-0.149-0.909-0.35-1.321-0.601l-0.663,1.031l-0.556-0.126
		c0.03-0.442,0.051-0.974,0.063-1.596s0.019-1.223,0.019-1.803v-8.751c0-0.203-0.047-0.406-0.14-0.61
		c-0.093-0.203-0.21-0.35-0.354-0.439c-0.113-0.078-0.304-0.136-0.569-0.175c-0.266-0.039-0.479-0.064-0.641-0.076v-0.573
		l3.244-0.197l0.125,0.134v5.825l0.063,0.018c0.37-0.395,0.774-0.69,1.214-0.887s0.871-0.296,1.295-0.296
		c1.087,0,1.995,0.43,2.724,1.291C176.039,37.301,176.403,38.421,176.403,39.801z M174.53,39.864c0-0.442-0.048-0.893-0.144-1.353
		c-0.096-0.46-0.245-0.86-0.447-1.201c-0.204-0.346-0.47-0.627-0.798-0.842c-0.329-0.215-0.723-0.323-1.183-0.323
		c-0.419,0-0.784,0.083-1.098,0.247c-0.314,0.165-0.597,0.387-0.848,0.667v5.144c0.036,0.144,0.106,0.311,0.211,0.502
		c0.104,0.191,0.246,0.374,0.426,0.547c0.179,0.167,0.382,0.303,0.609,0.408c0.227,0.104,0.505,0.157,0.833,0.157
		c0.729,0,1.317-0.353,1.766-1.058C174.307,42.054,174.53,41.089,174.53,39.864z"/>
	<path fill="#3D405B" d="M181.852,44.228h-4.311v-0.591c0.138-0.012,0.284-0.025,0.439-0.041c0.155-0.015,0.283-0.037,0.386-0.067
		c0.167-0.054,0.292-0.148,0.376-0.282s0.125-0.31,0.125-0.525V32.481c0-0.215-0.046-0.417-0.139-0.605
		c-0.093-0.188-0.214-0.336-0.362-0.444c-0.108-0.072-0.305-0.138-0.592-0.197c-0.287-0.06-0.517-0.096-0.69-0.108v-0.573
		l3.325-0.197l0.125,0.134v12.125c0,0.209,0.039,0.381,0.116,0.515c0.078,0.134,0.203,0.237,0.377,0.309
		c0.131,0.06,0.261,0.104,0.39,0.134c0.128,0.03,0.273,0.051,0.435,0.063V44.228z"/>
	<path fill="#3D405B" d="M187.247,44.228h-4.266v-0.591c0.138-0.012,0.279-0.024,0.426-0.036c0.146-0.012,0.273-0.036,0.381-0.071
		c0.167-0.054,0.291-0.147,0.372-0.282c0.08-0.134,0.121-0.309,0.121-0.524v-5.451c0-0.191-0.044-0.366-0.13-0.524
		c-0.087-0.158-0.208-0.291-0.363-0.398c-0.113-0.072-0.278-0.133-0.493-0.184s-0.412-0.082-0.591-0.094v-0.591l3.118-0.197
		l0.125,0.125v7.205c0,0.209,0.04,0.382,0.12,0.52c0.08,0.138,0.206,0.239,0.379,0.305c0.13,0.054,0.258,0.097,0.382,0.13
		c0.125,0.033,0.265,0.055,0.419,0.067V44.228z M186.127,31.799c0,0.341-0.112,0.638-0.336,0.892
		c-0.225,0.254-0.501,0.38-0.829,0.38c-0.305,0-0.569-0.121-0.793-0.363c-0.225-0.242-0.336-0.518-0.336-0.829
		c0-0.329,0.111-0.615,0.336-0.86c0.224-0.245,0.488-0.368,0.793-0.368c0.341,0,0.62,0.115,0.838,0.345
		S186.127,31.494,186.127,31.799z"/>
	<path fill="#3D405B" d="M192.426,44.461c-1.278,0-2.279-0.424-3.002-1.272c-0.723-0.848-1.084-1.986-1.084-3.414
		c0-0.621,0.097-1.202,0.291-1.743c0.194-0.541,0.477-1.032,0.847-1.474c0.353-0.424,0.795-0.766,1.326-1.026
		c0.532-0.26,1.111-0.39,1.738-0.39c0.866,0,1.571,0.208,2.115,0.623c0.543,0.416,0.815,0.981,0.815,1.698
		c0,0.299-0.072,0.563-0.215,0.793c-0.144,0.23-0.38,0.345-0.708,0.345c-0.353,0-0.626-0.089-0.82-0.268s-0.291-0.378-0.291-0.599
		c0-0.268,0.036-0.543,0.107-0.826s0.113-0.49,0.125-0.621c-0.106-0.185-0.267-0.308-0.478-0.371
		c-0.212-0.063-0.439-0.094-0.684-0.094c-0.286,0-0.559,0.061-0.818,0.184c-0.259,0.123-0.511,0.348-0.755,0.676
		c-0.221,0.299-0.399,0.702-0.536,1.21c-0.138,0.508-0.206,1.114-0.206,1.819c0,1.111,0.246,2.018,0.738,2.72
		c0.492,0.702,1.138,1.053,1.937,1.053c0.579,0,1.063-0.141,1.454-0.423s0.753-0.706,1.087-1.271l0.573,0.376
		c-0.395,0.705-0.914,1.264-1.56,1.676C193.779,44.255,193.112,44.461,192.426,44.461z"/>
	<path fill="#3D405B" d="M205.24,44.228h-4.311v-0.591c0.138-0.012,0.284-0.025,0.439-0.041c0.155-0.015,0.283-0.037,0.386-0.067
		c0.167-0.054,0.292-0.148,0.376-0.282s0.125-0.31,0.125-0.525V32.481c0-0.215-0.046-0.417-0.139-0.605
		c-0.093-0.188-0.214-0.336-0.362-0.444c-0.108-0.072-0.305-0.138-0.592-0.197c-0.287-0.06-0.517-0.096-0.69-0.108v-0.573
		l3.325-0.197l0.125,0.134v12.125c0,0.209,0.039,0.381,0.116,0.515c0.078,0.134,0.203,0.237,0.377,0.309
		c0.131,0.06,0.261,0.104,0.39,0.134c0.128,0.03,0.273,0.051,0.435,0.063V44.228z"/>
	<path fill="#3D405B" d="M210.635,44.228h-4.266v-0.591c0.138-0.012,0.279-0.024,0.426-0.036c0.146-0.012,0.273-0.036,0.381-0.071
		c0.167-0.054,0.291-0.147,0.372-0.282c0.08-0.134,0.121-0.309,0.121-0.524v-5.451c0-0.191-0.044-0.366-0.13-0.524
		c-0.087-0.158-0.208-0.291-0.363-0.398c-0.113-0.072-0.278-0.133-0.493-0.184s-0.412-0.082-0.591-0.094v-0.591l3.118-0.197
		l0.125,0.125v7.205c0,0.209,0.04,0.382,0.12,0.52c0.08,0.138,0.206,0.239,0.379,0.305c0.13,0.054,0.258,0.097,0.382,0.13
		c0.125,0.033,0.265,0.055,0.419,0.067V44.228z M209.515,31.799c0,0.341-0.112,0.638-0.336,0.892
		c-0.225,0.254-0.501,0.38-0.829,0.38c-0.305,0-0.569-0.121-0.793-0.363c-0.225-0.242-0.336-0.518-0.336-0.829
		c0-0.329,0.111-0.615,0.336-0.86c0.224-0.245,0.488-0.368,0.793-0.368c0.341,0,0.62,0.115,0.838,0.345
		S209.515,31.494,209.515,31.799z"/>
	<path fill="#3D405B" d="M217.562,39.9c0.245,0.215,0.434,0.463,0.564,0.744c0.132,0.281,0.197,0.625,0.197,1.031
		c0,0.818-0.306,1.487-0.918,2.007c-0.612,0.52-1.405,0.779-2.38,0.779c-0.514,0-0.986-0.093-1.42-0.278s-0.742-0.355-0.928-0.511
		l-0.179,0.583h-0.672l-0.09-3.074h0.618c0.048,0.234,0.149,0.507,0.305,0.818c0.155,0.312,0.344,0.594,0.564,0.845
		c0.233,0.264,0.513,0.486,0.838,0.666s0.691,0.27,1.098,0.27c0.573,0,1.016-0.13,1.326-0.392c0.311-0.261,0.466-0.635,0.466-1.122
		c0-0.251-0.049-0.467-0.147-0.65c-0.099-0.182-0.243-0.342-0.435-0.479c-0.197-0.137-0.439-0.261-0.726-0.372
		c-0.287-0.11-0.606-0.22-0.959-0.327c-0.281-0.083-0.593-0.199-0.937-0.345c-0.344-0.146-0.638-0.318-0.883-0.515
		c-0.263-0.209-0.478-0.466-0.646-0.771c-0.167-0.305-0.251-0.663-0.251-1.075c0-0.723,0.27-1.335,0.807-1.837
		c0.538-0.501,1.258-0.752,2.16-0.752c0.346,0,0.7,0.045,1.062,0.134c0.361,0.09,0.655,0.197,0.883,0.323l0.206-0.466h0.646
		l0.134,2.841h-0.618c-0.125-0.636-0.396-1.153-0.811-1.552c-0.416-0.399-0.922-0.598-1.52-0.598c-0.489,0-0.875,0.123-1.155,0.37
		c-0.281,0.247-0.422,0.544-0.422,0.893c0,0.269,0.047,0.493,0.14,0.672c0.092,0.179,0.231,0.332,0.416,0.457
		c0.18,0.12,0.405,0.231,0.677,0.336s0.607,0.223,1.008,0.354c0.395,0.125,0.767,0.272,1.116,0.439
		C217.047,39.512,217.335,39.697,217.562,39.9z"/>
	<path fill="#3D405B" d="M225.116,43.843c-0.389,0.161-0.756,0.297-1.103,0.408s-0.771,0.166-1.272,0.166
		c-0.74,0-1.262-0.187-1.563-0.56c-0.302-0.373-0.452-0.9-0.452-1.582v-5.986h-1.596v-0.86h1.631v-2.751h1.631v2.751h2.536v0.86
		h-2.518v4.938c0,0.371,0.014,0.68,0.04,0.927c0.027,0.248,0.091,0.465,0.192,0.65c0.096,0.173,0.239,0.305,0.431,0.394
		c0.19,0.09,0.448,0.135,0.771,0.135c0.149,0,0.369-0.014,0.658-0.041c0.29-0.027,0.494-0.061,0.614-0.103V43.843z"/>
	<path fill="#3D405B" d="M231.827,39.9c0.245,0.215,0.434,0.463,0.564,0.744c0.132,0.281,0.197,0.625,0.197,1.031
		c0,0.818-0.306,1.487-0.918,2.007c-0.612,0.52-1.405,0.779-2.38,0.779c-0.514,0-0.986-0.093-1.42-0.278s-0.742-0.355-0.928-0.511
		l-0.179,0.583h-0.672l-0.09-3.074h0.618c0.048,0.234,0.149,0.507,0.305,0.818c0.155,0.312,0.344,0.594,0.564,0.845
		c0.233,0.264,0.513,0.486,0.838,0.666s0.691,0.27,1.098,0.27c0.573,0,1.016-0.13,1.326-0.392c0.311-0.261,0.466-0.635,0.466-1.122
		c0-0.251-0.049-0.467-0.147-0.65c-0.099-0.182-0.243-0.342-0.435-0.479c-0.197-0.137-0.439-0.261-0.726-0.372
		c-0.287-0.11-0.606-0.22-0.959-0.327c-0.281-0.083-0.593-0.199-0.937-0.345c-0.344-0.146-0.638-0.318-0.883-0.515
		c-0.263-0.209-0.478-0.466-0.646-0.771c-0.167-0.305-0.251-0.663-0.251-1.075c0-0.723,0.27-1.335,0.807-1.837
		c0.538-0.501,1.258-0.752,2.16-0.752c0.346,0,0.7,0.045,1.062,0.134c0.361,0.09,0.655,0.197,0.883,0.323l0.206-0.466h0.646
		l0.134,2.841h-0.618c-0.125-0.636-0.396-1.153-0.811-1.552c-0.416-0.399-0.922-0.598-1.52-0.598c-0.489,0-0.875,0.123-1.155,0.37
		c-0.281,0.247-0.422,0.544-0.422,0.893c0,0.269,0.047,0.493,0.14,0.672c0.092,0.179,0.231,0.332,0.416,0.457
		c0.18,0.12,0.405,0.231,0.677,0.336s0.607,0.223,1.008,0.354c0.395,0.125,0.767,0.272,1.116,0.439
		C231.313,39.512,231.601,39.697,231.827,39.9z"/>
</g>
<g>
	<path fill="#E07A5F" d="M101.177,64.557c0,5.327-0.612,13.282-3.923,18.322c-0.72-0.684-2.448-1.944-3.419-2.34
		c3.023-4.644,3.312-11.303,3.312-16.018v-8.243h11.086v-6.731h4.284v2.16h11.807v3.132h-11.807v1.439h10.438l0.684-0.144
		l3.024,0.684c-0.54,2.196-1.296,4.68-2.017,6.227l-3.563-0.936c0.252-0.72,0.469-1.62,0.685-2.556h-9.683v1.764l8.387-0.648
		l0.18,2.771l-8.567,0.684c0.036,0.828,0.288,1.188,1.476,1.188h6.947c1.26,0,3.419-0.072,4.283-0.288
		c0.144,1.116,0.252,2.304,0.396,3.167c-0.863,0.252-2.771,0.288-4.355,0.288h-7.595c-3.852,0-5.04-1.188-5.184-4.067l-5.543,0.468
		l-0.216-2.844l5.759-0.432v-2.052h-6.875V64.557z M126.698,78.451v3.6h-26.528v-3.6h8.243v-1.836h-5.903v-6.839h3.239v3.744h2.664
		v-4.248h3.6v9.179h2.34v-9.179h3.671v4.248h2.484v-3.744h3.275v6.839h-5.76v1.836H126.698z"/>
	<path fill="#E07A5F" d="M146.932,80.754c-0.504-0.684-1.368-1.656-2.231-2.556c-1.008,1.764-2.484,3.419-4.644,4.896
		c-0.504-0.756-1.584-1.8-2.376-2.34c3.239-1.979,4.607-4.571,5.184-6.911h-4.176v-3.312h4.571v-0.468v-2.52h-0.756
		c-0.468,1.116-1.008,2.124-1.584,2.988c-0.611-0.504-1.907-1.44-2.663-1.872l0.144-0.216l-1.764,0.684v9.575
		c0,1.908-0.288,2.916-1.332,3.563c-1.008,0.648-2.483,0.792-4.607,0.792c-0.107-1.008-0.575-2.664-1.043-3.779
		c1.188,0.036,2.303,0.036,2.699,0.036c0.396,0,0.54-0.144,0.54-0.612V70.46l-2.556,0.936l-1.008-4.104
		c1.044-0.288,2.231-0.648,3.563-1.08v-5.939h-2.952v-3.959h2.952V49.51h3.743v6.803h2.34v3.959h-2.34v4.68l2.34-0.792l0.468,2.448
		c0.648-1.584,1.188-3.384,1.512-5.184l3.204,0.684c-0.145,0.72-0.324,1.44-0.54,2.16h5.724v3.275h-2.737v2.592v0.396h3.06v3.312
		h-3.419c-0.072,0.36-0.145,0.756-0.252,1.152c1.151,0.936,2.52,2.196,3.131,2.988L146.932,80.754z M143.764,61.281
		c-3.419,0-4.175-1.26-4.175-4.5v-7.199h3.527v2.771h5.724v3.06h-5.724v1.368c0,1.044,0.107,1.404,0.792,1.404h3.239
		c0.648,0,1.692-0.072,2.268-0.216c0.036,0.9,0.145,2.232,0.288,3.06c-0.576,0.216-1.584,0.252-2.52,0.252H143.764z M163.778,79.243
		c-0.432,0.792-0.863,2.375-0.972,3.312h-3.384c-2.987,0-5.436-0.72-7.199-3.671c-0.504,1.656-1.26,3.023-2.231,4.283
		c-0.504-0.54-1.836-1.583-2.592-1.979c2.592-2.916,3.132-7.523,3.241-13.139l3.167,0.144c-0.072,2.268-0.252,4.319-0.54,6.263
		c0.433,1.26,0.937,2.232,1.548,2.952V65.996h-4.932v-3.419h7.775c-1.691-1.476-4.571-3.456-6.731-4.896l2.412-2.268
		c0.684,0.396,1.439,0.864,2.195,1.332c0.721-0.864,1.404-1.908,2.052-2.952h-7.127v-3.276h9.287l0.612-0.216l2.411,1.62
		c-1.188,2.268-2.88,4.716-4.499,6.695c1.008,0.684,1.907,1.332,2.556,1.872l-2.016,2.088h1.764l0.504-0.108l2.016,0.468
		c-0.36,2.268-0.864,4.896-1.296,6.551l-2.448-0.612c0.145-0.756,0.288-1.8,0.469-2.88h-1.764v4.607h4.104v3.348h-4.104v5.184
		c0.504,0.072,1.079,0.108,1.619,0.108H163.778z"/>
	<path fill="#E07A5F" d="M184.48,62.289v1.26h11.519v2.591H184.48v1.296h14.146v2.988h-32.288v-2.988h13.858V66.14h-11.339v-2.591
		h11.339v-1.26H169.65v-2.483h10.547v-1.368h-13.822v-2.951h13.822v-1.332h-10.151V51.67h10.151v-2.268h4.283v2.268h10.043v3.816
		h4.104v2.951h-4.104v3.852H184.48z M170.838,71.54h23.865v11.663h-4.319v-1.044h-15.406v1.08h-4.14V71.54z M174.978,74.275v1.296
		h15.406v-1.296H174.978z M190.384,79.458v-1.404h-15.406v1.404H190.384z M184.48,55.486h5.795v-1.332h-5.795V55.486z
		 M184.48,59.805h5.795v-1.368h-5.795V59.805z"/>
	<path fill="#E07A5F" d="M210.834,56.781c-0.792,4.68-2.521,8.315-6.731,10.727c-0.468-1.008-1.656-2.556-2.556-3.24
		c3.168-1.764,4.535-4.211,5.184-7.487h-4.319v-3.708h4.787c0.072-1.116,0.107-2.268,0.144-3.527h4.104
		c-0.036,1.224-0.107,2.375-0.18,3.527h7.451c0,0-0.036,1.008-0.072,1.512c-0.288,6.407-0.611,9.215-1.476,10.258
		c-0.72,0.828-1.476,1.152-2.448,1.296c-0.827,0.144-2.304,0.144-3.815,0.108c-0.107-1.188-0.54-2.735-1.115-3.779
		c1.224,0.144,2.268,0.144,2.771,0.144c0.504,0.036,0.792-0.072,1.08-0.396c0.396-0.468,0.647-1.908,0.827-5.436H210.834z
		 M214.361,74.599c-2.16,3.096-5.724,5.867-8.891,7.559c-0.828-0.756-2.664-2.124-3.636-2.771c3.275-1.404,6.479-3.672,8.207-6.119
		L214.361,74.599z M220.66,72.583v10.583h-4.463V72.583h-13.786v-3.78h13.786v-2.591h4.463v2.591h13.751v3.78H220.66z
		 M233.654,65.313h-13.426V52.246h13.426V65.313z M225.628,73.124c3.167,1.691,7.487,4.391,9.646,6.299l-3.419,2.916
		c-1.944-1.908-6.12-4.751-9.396-6.624L225.628,73.124z M229.407,55.917h-5.147v5.723h5.147V55.917z"/>
</g>
<g>
	<path fill="#E07A5F" d="M29.549,5.932l0.096-0.03c0.487,0.065,2.014,1.645,2.353,2.125c3.169,4.486,6.855,8.463,10.219,12.789
		c3.746,4.818,7.369,10.684,12.542,13.873c2.163,0.753,4.611,0.831,6.878,1.001c3.157,0.073,6.681,0.667,9.814,0.595
		c6.8-0.158,13.148-0.095,19.942,0.318c-0.895,2.425-2.326,4.128-3.558,6.349c-8.22,14.82-16.639,29.482-24.636,44.441l-0.497,0.469
		c-3.322,0.976-10.028-3.477-13.203-4.769c-4.485-1.824-9.048-4.658-13.425-6.502l-0.247-0.103
		c-1.152,0.851-1.647,1.208-2.632,2.248c-8.675-2.099-5.13-6.728-9.522-11.121c-3.767-3.768-8.757-7.547-12.63-11.435
		c-2.316-2.325-4.745-4.148-7.043-6.748c1.143-3.386,3.267-5.977,4.807-9.083c2.963-5.978,6.524-11.374,9.864-17.088l7.149-12.476
		c0.787-1.351,2.03-3.337,2.962-4.663C29.083,6.049,29.34,5.984,29.549,5.932z"/>
	<path fill="#EFF2ED" d="M45.235,37.912c0.42,0.334,0.306,0.112,0.414,0.636c-1.326,2.801-2.624,5.999-4.354,8.552
		c-3.013,4.442-7.754,16.538-11.895,19.448l-0.272-0.143c-0.075-0.507,0.177-1.117,0.449-1.521
		C35.403,56.235,39.573,46.617,45.235,37.912z"/>
	<path fill="#EFF2ED" d="M40.203,67.185c2.078-4.35,4.02-7.778,6.603-11.805c2.024-3.154,3.665-7.337,6.285-10.072
		c-0.867,5.159-5.149,10.401-7.694,14.888c-1.752,3.088-2.504,4.898-4.784,7.644L40.203,67.185z"/>
	<path fill="#E4AA47" d="M24.912,26.536c0.835,0.3,2.162,1.064,2.873,1.622l-0.038,0.232c-0.502,0.059-1.214-0.46-1.705-0.747
		l-0.259,0.171l-0.154,0.819c-0.289,0.533-0.456,0.979-0.679,1.54l-0.284,0.119l-0.051,0.185l0.087,0.168l-0.164,0.089l-0.001,0.151
		C24.428,29.537,25.576,28.545,24.912,26.536z"/>
	<path fill="#E4AA47" d="M39.482,73.67c0.345,0.264,0.646,0.746,0.636,1.194c-0.028,1.132,0.562,0.927,0.96,1.678
		c-0.491,0.323-0.742,0.252-1.37,0.312l-0.402-0.006l-0.154-0.246c0.529-0.717,0.784-0.967,0.536-1.873
		c-0.445-0.323-0.355-0.165-0.598-0.611L39.482,73.67z"/>
	<path fill="#F4CD60" d="M22.286,38.285c0.633,0.056,1.378,0.295,1.692,0.906l-0.231,0.719l-0.43-0.025
		C22.606,38.92,22.411,39.715,22.286,38.285z"/>
	<path fill="#F1DEBB" d="M38.373,69.948c0.315-0.563,1.435-2.369,1.83-2.764l0.409,0.655C39.93,68.597,39.13,69.271,38.373,69.948z"
		/>
	<path fill="#F4CD60" d="M26.952,24.681c0.622,0.113,1.168,0.862,1.438,1.425c-0.42-0.083-0.628-0.172-1.029-0.314
		C26.884,25.195,27.046,25.538,26.952,24.681z"/>
	<path fill="#F4CD60" d="M26.212,54.932c0.144,0.18,0.06,0.049,0.156,0.442c-0.436,0.481-0.651,0.66-1.153,1.073l-0.176-0.189
		C25.184,55.694,25.717,55.378,26.212,54.932z"/>
	<path fill="#F4CD60" d="M70.472,60.456l0.243,0.273c-0.144,0.54-0.473,0.67-0.963,1.117l-0.137-0.157
		C69.718,61.145,70.048,60.943,70.472,60.456z"/>
	<path fill="#E4AA47" d="M42.217,75.621c0.892,0.021,1.159,0.059,1.948,0.458C43.114,76.242,43.021,76.37,42.217,75.621z"/>
	<path fill="#E4AA47" d="M14.069,30.926c0.862,0.166,1.034,0.394,1.494,1.119C14.692,31.762,14.589,31.65,14.069,30.926z"/>
	<path fill="#3D405B" d="M34.64,4.402c2.571,1.317,2.351,1.846,4.092,3.788c1.145,1.274,5.81,9.086,6.86,9.461
		c0.676-1.215-1.017-0.976-0.669-2.534c0.114-0.515-2.77-3.038-2.813-4.505c-0.01-0.379-3.693-4.023-4.076-4.639
		c-0.646-0.819,0.628-2.739,1.412-3.138c0.745,0.384,16.72,25.78,17.785,28.096c1.906-0.696,4.979-1.605,6.923-2.255
		c4.708-1.575,16.06-5.823,20.522-6.063c-0.011,1.098,0.008,2.044,0.056,3.142c0.122,1.105,0.66,2.043,1.809,2.167l0.12,2.584
		c-0.587,0.222-1.053,0.32-1.474,0.792c0.908,0.498,3.304-0.086,4.289-0.301c-0.252,0.823-0.693,2.999-1.407,3.453
		c-1.333,0.848-13.364,0.418-15.769,0.415c-1.996,0.023-4.852-0.3-6.928-0.44l-3.414-0.125c-4.219-0.162-6.435,1.229-4.975-4.144
		c-0.466,0.68-1.404,1.671-1.458,2.399c-0.039,0.517,0.061,0.26-0.226,0.671c-3.042-0.754-11.571-13.159-14.023-16.009
		c-2.752-3.199-5.952-7.5-8.824-10.613C33.308,5.587,33.595,5.208,34.64,4.402z"/>
	<path fill="#3D405B" d="M84.729,30.972l0.458,0.324c0.908,0.498,3.303-0.086,4.289-0.301c-0.252,0.823-0.693,2.999-1.407,3.453
		c-1.333,0.848-13.364,0.418-15.769,0.415l0.116-0.483c1.161,0.001,0.72-0.431,1.169-0.758c1.702-1.236,6.636-0.898,8.045-2.357
		l0.077-0.083C82.892,31.303,83.545,31.062,84.729,30.972z"/>
	<path fill="#FFFFFF" d="M81.708,31.181c1.184,0.122,1.837-0.12,3.021-0.208C83.811,31.994,82.774,31.752,81.708,31.181z"/>
	<path fill="#FFFFFF" d="M72.416,34.38c0.276-0.368,0.911-1.642,1.313-1.644c2.291-0.013,4.547-1.463,6.707-1.821
		c0.519,0.292,0.634,0.295,1.194,0.35c-1.41,1.459-6.344,1.122-8.045,2.357C73.136,33.949,73.576,34.381,72.416,34.38z"/>
	<path fill="#FFFFFF" d="M84.731,25.753c0.122,1.105,0.66,2.043,1.809,2.167c-1.697,0.008-4.226,0.326-5.96,0.502l0.121-0.076
		l0.202-0.122c1.284-0.794,1.981-0.81,3.424-1.223C84.81,26.504,84.657,26.669,84.731,25.753z"/>
	<path fill="#FFFFFF" d="M70.545,30.559c1.914-0.84,7.962-3.06,9.863-2.659c-0.475,1.608-7.238,2.044-9.223,3.39
		c-0.338-0.049-0.252-0.043-0.575-0.205L70.545,30.559z"/>
	<path fill="#FFFFFF" d="M71.186,31.291c-0.803,0.817-1.342,1.701-2.69,0.885c-0.356-0.55-0.283-0.26-0.271-0.887
		c0.476-0.639,1.586-0.848,2.32-0.729l0.066,0.527C70.934,31.247,70.848,31.242,71.186,31.291z"/>
</g>
<g>
</g>
<g>
</g>
<g>
</g>
<g>
</g>
<g>
</g>
<g>
</g>
<g>
</g>
<g>
</g>
<g>
</g>
<g>
</g>
<g>
</g>
<g>
</g>
<g>
</g>
<g>
</g>
<g>
</g>
</svg>
