<?xml version="1.0" encoding="utf-8"?>
<!-- Generator: Adobe Illustrator 16.0.0, SVG Export Plug-In . SVG Version: 6.00 Build 0)  -->
<!DOCTYPE svg PUBLIC "-//W3C//DTD SVG 1.1//EN" "http://www.w3.org/Graphics/SVG/1.1/DTD/svg11.dtd">
<svg version="1.1" id="圖層_1" xmlns="http://www.w3.org/2000/svg" xmlns:xlink="http://www.w3.org/1999/xlink" x="0px" y="0px"
	 width="160px" height="70px" viewBox="0 0 160 70" enable-background="new 0 0 160 70" xml:space="preserve">
<path fill="#769C95" d="M88.211,29.347c0.562,1.305,0.819,2.792,1.13,4.192c-1.545,0.545-2.071,1.083-3.321,2.154
	c-0.018,1.784-0.243,3.168,1.1,4.575c1.956,2.05,5.616,1.736,8.113,1.053c0.768,2.828,1.324,4.792,2.4,7.545
	c0.568,1.452,2.065,4.691,2.413,5.954l0.514,1.289c-0.128,0.972-0.146,2.084-0.73,2.811c-5.479,1.469-14.157,1.002-19.93,1.923
	c-13.682,2.183-27.335,3.932-41.208,4.335c-3.205,0.077-15.767,1.701-17.393,0.993l-0.213-0.858
	c-1.358-0.448-12.937,0.417-15.833,0.292c-0.754-0.651-2.08-1.662-2.25-2.639c-0.72-4.137,7.331-5.799,10.127-6.602
	c-2.989-1.401-4.221-0.895-7.315-3.332c2.688-9.296,9.803-7.768,17.209-7.383c0.875-0.312,3.453-0.92,4.458-1.186
	c0.95-0.918,2.065-1.852,3.453-1.805c1.411-0.314,2.863-0.905,4.272-1.308c15.229-4.354,30.753-8.814,46.452-11.054
	C83.715,30.001,86.307,29.864,88.211,29.347z"/>
<path fill="#FABBA5" d="M5.814,53.032c2.688-9.296,9.803-7.768,17.209-7.383c-0.288,1.374-1.036,7.123-0.204,8.081
	c-1.041,0.009-0.604-0.164-1.368,0.502c-0.016,0.958-0.167,0.541,0.521,1.27l-0.449,0.197c-0.433,2.11-0.681,7.41-0.437,9.614
	c-1.358-0.448-12.937,0.417-15.833,0.292c-0.754-0.651-2.08-1.662-2.25-2.639c-0.72-4.137,7.331-5.799,10.127-6.602
	C10.14,54.963,8.908,55.47,5.814,53.032z"/>
<path fill="#F3F2EF" d="M27.48,44.463c0.95-0.918,2.065-1.852,3.453-1.805l0.184,0.43c0.609,1.397,1.075,1.376,0.921,2.571
	c-0.768,0.544-0.979,0.47-1.922,0.557c-0.75-0.648-0.612-0.599-0.688-1.681C28.454,44.357,28.471,44.367,27.48,44.463z"/>
<path fill="#F3F2EF" d="M96.288,55.082c-1.54-0.821-2.438-1.114-3.295-2.599l0.432-0.781c0.935,0.08,1.795,0.393,2.706,0.658
	c0.776,0.79,0.537,0.479,0.674,1.839L96.288,55.082z"/>
<path fill="#FFFFFF" d="M22.819,53.729c1.01-0.485,1.97-1.126,3.017-0.918l0.294,0.429c-0.962,1.636-2.354,1.907-4.159,2.262
	c-0.688-0.729-0.536-0.313-0.521-1.27C22.215,53.565,21.778,53.739,22.819,53.729z"/>
<path fill="#649187" d="M96.804,54.199c0.649,0.134,2.699,0.607,3.242,0.621c-0.409,0.831-0.58,0.819-1.391,1.273
	c-1.35,0.125-1.549,0.068-2.367-1.012L96.804,54.199z"/>
<path fill="#F3F2EF" d="M79.972,49.445l0.401,0.229c0.521,2.322-1.093,3.822-3.167,4.423c-0.433-1.04-0.799-1.191-1.045-2.397
	l0.438-0.618C78.054,50.572,78.655,50.207,79.972,49.445z"/>
<path fill="#FFFFFF" d="M58.756,41.934l0.494,0.182c0.236,0.975,0.181,1.145,0.147,2.13c-0.741,1-1.152,0.764-2.711,1.129
	l-0.339,0.185C55.518,43.8,57.454,42.517,58.756,41.934z"/>
<path fill="#FFFFFF" d="M41.716,45.663c0.816,0.013,1.72,0.172,2.21,0.834c-0.34,0.881-1.315,1.373-2.14,1.93
	c-0.699,0.349-0.426,0.282-1.222,0.317l-0.363-0.803c0.073-0.958,0.108-0.958,0.455-1.869L41.716,45.663z"/>
<path fill="#F3F2EF" d="M40.465,59.924c0.931,0.303,1.831,0.597,2.271,1.398c-0.343,0.861-1.252,1.228-2.101,1.746
	c-0.694,0.459-0.749,0.633-1.539,0.577C39.026,62.942,40.083,60.933,40.465,59.924z"/>
<path fill="#FFFFFF" d="M33.596,56.648c0.727,0.094,0.682,0.125,1.389,0.38c0.646,0.814,0.52,0.373,0.471,1.346
	c-0.827,0.923-0.444,0.641-1.918,0.872l-0.392,0.427c-0.731-0.514-0.427-0.186-0.815-1.115
	C32.496,57.285,32.374,57.73,33.596,56.648z"/>
<path fill="#FFFFFF" d="M48.705,52.87l0.402-0.195l0.347,0.397c0.107,1.229,0.24,0.88-0.224,1.888
	c-1.037,0.629-0.748,0.421-2.25,0.267c-0.113,0.063,0.001,0.024-0.53,0.113c0.179-0.887,0.472-1.312,0.897-2.097L48.705,52.87z"/>
<path fill="#FFFFFF" d="M85.187,41.627l0.276,0.18c0.517,1.082,1.138,1.099,1.355,2.441L85.6,44.851
	c-1.055-0.584-1.72-0.939-2.018-2.162C84.063,41.811,83.952,42.082,85.187,41.627z"/>
<path fill="#FFFFFF" d="M69.23,34.161c0.621,0.597,0.683,1.024,0.642,1.768c-0.81,0.877-1.311,0.871-2.532,1.187
	c-0.496-0.525-0.462-0.484-0.588-1.198C67.203,35.023,68.289,34.641,69.23,34.161z"/>
<path fill="#FFFFFF" d="M54.688,60.587c1.195-0.128,2.048-0.342,2.986,0.305c-0.063,0.978-0.151,0.781-0.875,1.725
	c-0.69-0.011-1.25-0.106-1.927-0.203C54.321,61.627,54.501,61.867,54.688,60.587z"/>
<path fill="#FFFFFF" d="M68.117,58.123c0.637-0.022,1.004-0.006,1.641,0.016c0.948,0.701,0.684,0.253,0.892,1.343
	c-0.296,0.576-0.115,0.288-0.56,0.853c-0.653,0.127-0.81,0.147-1.474,0.167l-0.555-0.531C67.951,59.019,67.928,59.05,68.117,58.123z
	"/>
<path fill="#FFFFFF" d="M62.225,52.358c0.797-0.008,1.012-0.13,1.615,0.319c-0.119,0.833-1.071,1.707-1.705,2.468
	c-0.773-0.067-0.523,0.021-1.206-0.29C60.841,53.968,61.596,53.266,62.225,52.358z"/>
<path fill="#FFFFFF" d="M80.784,35.505c0.493,0.012,0.557,0.073,1.042,0.207l0.201,0.609c-0.335,1-0.458,1.024-1.168,1.778
	c-0.768-0.313-0.978-0.317-1.526-0.937C79.539,36.258,79.881,36.26,80.784,35.505z"/>
<path fill="#FACEB5" d="M110.298,9.357c7.43-1.981,10.853-5.713,17.381,1.619c1.431,1.856,2.104,3.702,3.035,5.848
	c1.188,1.379,2.048,2.373,3.056,3.885c0.905,1.357,1.448,3.027,2.413,4.134c-0.659,1.162-1.3,2.062-1.522,3.365
	c0.453,3.246,0.517,5.646,0.012,8.923c4.543-1.332,21.058-5.114,23.337,0.403c0.005,0.835-0.103,1.266-0.658,1.917
	c-1.767,2.066-21.374,7.209-25.498,8.608c-2.43,0.825-4.744,1.959-7.124,2.911c-4.192,1.675-8.708,3.2-13.083,4.319
	c-2.79,0.714-5.724,0.962-8.6,0.961c-0.833,0-1.66-0.029-2.486-0.143l-0.514-1.289c-0.348-1.263-1.845-4.502-2.413-5.954
	c-1.076-2.753-1.632-4.717-2.4-7.545c-2.497,0.683-6.157,0.998-8.113-1.053c-1.342-1.407-1.117-2.791-1.1-4.575
	c1.25-1.071,1.775-1.609,3.321-2.154c-0.311-1.399-0.569-2.887-1.13-4.192C87.367,17.82,92.917,11.634,103.297,7.17
	C105.459,6.24,108.44,8.298,110.298,9.357z"/>
<path fill="#C57F4E" d="M110.298,9.357c7.43-1.981,10.853-5.713,17.381,1.619c1.431,1.856,2.104,3.702,3.035,5.848l-0.108,2.249
	l-0.405,0.109c-0.862-0.574-1.61-1.083-2.517-1.584l-0.163,0.155c-2.117,6.729-2.587,8.42-8.797,4.063
	c-0.697,5.217-2.836,6.681-6.827,3.041c-1.388,1.589-3.149,3.943-4.593,5.244c-1.44-2.997-2.535-2.487-3.956-5.187
	c-2.009,3.248-2.857,5.461-6.493,6.826l-1.082,0.337c-1.677,0.876-4.523,1.411-6.432,1.462c-0.311-1.399-0.569-2.887-1.13-4.192
	C87.367,17.82,92.917,11.634,103.297,7.17C105.459,6.24,108.44,8.298,110.298,9.357z"/>
<path fill="#C07956" d="M127.679,10.976c1.431,1.856,2.104,3.702,3.035,5.848l-0.108,2.249l-0.405,0.109
	c-0.862-0.574-1.61-1.083-2.517-1.584l-0.163,0.155c-0.519-0.727-0.795-1.012-1.395-1.658c1.114-0.334,0.702-0.024,1.368-0.833
	c0.259-1.272,0.105-1.745-0.078-3.064L127.679,10.976z"/>
<path fill="#C57F4E" d="M126.125,16.096c-0.771-1.009-1.784-3.495-1.257-4.731c1.001-0.256,1.404,0.24,2.547,0.834
	c0.184,1.319,0.337,1.792,0.078,3.064C126.827,16.072,127.24,15.762,126.125,16.096z"/>
<path fill="#CE9576" d="M96.66,26.79l0.195,4.95l-1.082,0.337C95.254,30.737,96.229,28.219,96.66,26.79z"/>
<path fill="#FABBA5" d="M125.14,28.403l0.208-0.126c0.231-0.515,0.207-0.634,0.202-1.188l-0.011-0.552l0.456-0.471
	c2.632-0.558,7-0.244,8.666,2.142c0.453,3.246,0.517,5.646,0.012,8.923c-0.885,1.721-1.083,1.908-2.492,3.306
	c-1.79,0.208-4.804,0.5-5.981-1.413c-1.075-1.747,0.46-4.656,0.248-5.909C127.458,31.14,126.688,29.776,125.14,28.403z"/>
<path fill="#393E40" d="M125.14,28.403c1.549,1.373,2.318,2.736,1.306,4.712c-0.961,0.081-1.238,0.188-2.088-0.277
	C123.189,31.112,123.917,29.902,125.14,28.403z"/>
<path fill="#393E40" d="M119.218,36.249c0.781,0.315,0.877,0.594,1.399,1.271c0.462,2.441-1.839,3.576-3.917,3.93
	c-0.721-0.34-1.498-0.76-1.73-1.553c1.126-1.037,2.525-0.376,3.798-1.158C119.033,38.576,119.16,36.726,119.218,36.249z"/>
<path fill="#393E40" d="M105.977,32.548c2.18,0.744,2.792,3.128,1.778,5.09C104.215,36.975,104.61,35.09,105.977,32.548z"/>
<path fill="#393E40" d="M116.25,31.621c0.831,0.088,0.793,0.05,1.508,0.463c0.779,1.209,0.744,2.754,0.994,4.331
	c-0.729,0.059-0.689,0.059-1.397-0.131C116.033,34.926,116.294,33.548,116.25,31.621z"/>
<g>
</g>
<g>
</g>
<g>
</g>
<g>
</g>
<g>
</g>
<g>
</g>
<g>
</g>
<g>
</g>
<g>
</g>
<g>
</g>
<g>
</g>
<g>
</g>
<g>
</g>
<g>
</g>
<g>
</g>
</svg>
