<?xml version="1.0" encoding="utf-8"?>
<!-- Generator: Adobe Illustrator 16.0.0, SVG Export Plug-In . SVG Version: 6.00 Build 0)  -->
<!DOCTYPE svg PUBLIC "-//W3C//DTD SVG 1.1//EN" "http://www.w3.org/Graphics/SVG/1.1/DTD/svg11.dtd">
<svg version="1.1" id="圖層_1" xmlns="http://www.w3.org/2000/svg" xmlns:xlink="http://www.w3.org/1999/xlink" x="0px" y="0px"
	 width="180px" height="70px" viewBox="0 0 180 70" enable-background="new 0 0 180 70" xml:space="preserve">
<g>
	<path fill="#3D405B" d="M117.309,26.605c0,0.495-0.097,0.934-0.291,1.315c-0.194,0.382-0.463,0.698-0.807,0.947
		c-0.339,0.25-0.712,0.433-1.118,0.549s-0.837,0.174-1.292,0.174h-1.064v2.879c0,0.156,0.025,0.293,0.077,0.412
		s0.158,0.208,0.318,0.271c0.08,0.031,0.222,0.061,0.425,0.087c0.203,0.027,0.389,0.042,0.559,0.047v0.476h-4.077v-0.476
		c0.107-0.009,0.262-0.024,0.465-0.047c0.203-0.022,0.345-0.051,0.425-0.087c0.134-0.058,0.231-0.143,0.291-0.254
		c0.06-0.111,0.09-0.254,0.09-0.428v-6.856c0-0.156-0.022-0.296-0.067-0.422c-0.045-0.125-0.149-0.218-0.314-0.281
		c-0.17-0.058-0.338-0.1-0.506-0.124s-0.311-0.042-0.432-0.05v-0.476h4.338c0.884,0,1.602,0.213,2.153,0.64
		S117.309,25.896,117.309,26.605z M115.274,28.226c0.151-0.214,0.252-0.436,0.301-0.666c0.049-0.23,0.074-0.437,0.074-0.62
		c0-0.254-0.03-0.513-0.091-0.776c-0.06-0.264-0.164-0.493-0.311-0.69c-0.156-0.209-0.362-0.373-0.616-0.489
		c-0.254-0.116-0.571-0.174-0.951-0.174h-0.944v4.198h0.683c0.482,0,0.874-0.075,1.175-0.224S115.122,28.449,115.274,28.226z"/>
	<path fill="#3D405B" d="M125.303,33.642l-2.156,0.147l-0.101-0.094v-0.837h-0.04c-0.107,0.111-0.228,0.231-0.361,0.358
		c-0.134,0.127-0.288,0.242-0.461,0.345c-0.201,0.12-0.395,0.212-0.582,0.274s-0.452,0.094-0.795,0.094
		c-0.584,0-1.028-0.191-1.333-0.572c-0.305-0.381-0.458-0.935-0.458-1.662V28.54c0-0.161-0.03-0.295-0.091-0.405
		s-0.149-0.204-0.266-0.284c-0.081-0.054-0.182-0.093-0.303-0.117c-0.122-0.024-0.25-0.041-0.384-0.05v-0.442l2.203-0.161l0.1,0.094
		v4.586c0,0.478,0.107,0.837,0.321,1.078c0.214,0.241,0.471,0.361,0.77,0.361c0.246,0,0.464-0.038,0.656-0.113
		c0.192-0.076,0.353-0.165,0.482-0.268c0.121-0.093,0.227-0.192,0.318-0.297c0.091-0.104,0.162-0.202,0.211-0.291v-3.738
		c0-0.147-0.031-0.278-0.094-0.392c-0.063-0.113-0.15-0.21-0.261-0.291c-0.081-0.054-0.2-0.086-0.358-0.097
		c-0.158-0.011-0.336-0.021-0.532-0.03v-0.442l2.403-0.161l0.101,0.094v5.237c0,0.152,0.031,0.281,0.094,0.388
		c0.063,0.107,0.15,0.198,0.261,0.274c0.081,0.049,0.176,0.082,0.288,0.097c0.111,0.016,0.234,0.025,0.368,0.03V33.642z"/>
	<path fill="#3D405B" d="M132.815,30.455c0,0.991-0.313,1.824-0.938,2.498s-1.35,1.011-2.176,1.011
		c-0.361,0-0.718-0.056-1.068-0.167c-0.351-0.112-0.68-0.261-0.988-0.449l-0.495,0.77l-0.416-0.094
		c0.022-0.331,0.038-0.728,0.047-1.193c0.009-0.464,0.014-0.913,0.014-1.347v-6.539c0-0.151-0.035-0.303-0.104-0.455
		c-0.069-0.152-0.157-0.262-0.264-0.329c-0.085-0.058-0.227-0.102-0.425-0.13c-0.199-0.029-0.358-0.048-0.479-0.057v-0.429
		l2.423-0.147l0.094,0.1v4.352l0.047,0.014c0.277-0.295,0.579-0.516,0.907-0.663s0.651-0.221,0.968-0.221
		c0.812,0,1.491,0.321,2.035,0.964C132.543,28.587,132.815,29.424,132.815,30.455z M131.416,30.502c0-0.33-0.036-0.667-0.107-1.011
		s-0.183-0.643-0.335-0.897c-0.152-0.259-0.35-0.469-0.596-0.629s-0.54-0.241-0.884-0.241c-0.313,0-0.586,0.061-0.82,0.184
		c-0.234,0.123-0.445,0.289-0.633,0.499v3.843c0.027,0.107,0.08,0.232,0.158,0.375c0.078,0.143,0.184,0.279,0.318,0.408
		c0.134,0.125,0.286,0.227,0.455,0.305c0.17,0.078,0.377,0.117,0.623,0.117c0.544,0,0.984-0.263,1.319-0.79
		C131.249,32.138,131.416,31.417,131.416,30.502z"/>
	<path fill="#3D405B" d="M136.886,33.763h-3.22v-0.442c0.103-0.009,0.212-0.019,0.328-0.03c0.116-0.011,0.212-0.028,0.288-0.05
		c0.125-0.04,0.219-0.11,0.281-0.211s0.094-0.231,0.094-0.392v-7.651c0-0.161-0.035-0.312-0.104-0.452
		c-0.069-0.141-0.16-0.251-0.271-0.332c-0.08-0.054-0.228-0.103-0.442-0.147c-0.214-0.045-0.386-0.072-0.516-0.081v-0.429
		l2.484-0.147l0.094,0.1v9.059c0,0.156,0.029,0.285,0.087,0.385c0.058,0.101,0.152,0.178,0.281,0.231
		c0.098,0.045,0.195,0.078,0.291,0.101c0.096,0.022,0.204,0.038,0.325,0.047V33.763z"/>
	<path fill="#3D405B" d="M140.917,33.763h-3.187v-0.442c0.103-0.009,0.208-0.018,0.318-0.027c0.109-0.009,0.204-0.026,0.285-0.053
		c0.125-0.04,0.217-0.11,0.278-0.211c0.06-0.1,0.09-0.23,0.09-0.391v-4.073c0-0.143-0.032-0.273-0.097-0.391
		c-0.064-0.118-0.155-0.217-0.271-0.297c-0.085-0.054-0.208-0.099-0.368-0.137s-0.308-0.062-0.442-0.07v-0.442l2.33-0.147
		l0.094,0.094v5.383c0,0.156,0.03,0.286,0.09,0.388c0.06,0.103,0.154,0.179,0.283,0.228c0.098,0.041,0.193,0.073,0.286,0.097
		c0.093,0.025,0.198,0.042,0.313,0.05V33.763z M140.08,24.476c0,0.254-0.084,0.477-0.251,0.667
		c-0.167,0.189-0.374,0.284-0.619,0.284c-0.228,0-0.425-0.09-0.592-0.271c-0.167-0.181-0.251-0.387-0.251-0.619
		c0-0.246,0.084-0.46,0.251-0.643c0.167-0.183,0.365-0.274,0.592-0.274c0.254,0,0.463,0.086,0.626,0.258
		S140.08,24.249,140.08,24.476z"/>
	<path fill="#3D405B" d="M144.787,33.937c-0.955,0-1.703-0.317-2.243-0.951c-0.54-0.634-0.81-1.484-0.81-2.551
		c0-0.464,0.073-0.898,0.218-1.302c0.145-0.404,0.356-0.771,0.633-1.102c0.263-0.317,0.593-0.572,0.991-0.767
		c0.397-0.194,0.83-0.291,1.299-0.291c0.647,0,1.174,0.155,1.58,0.465s0.609,0.733,0.609,1.269c0,0.224-0.054,0.421-0.161,0.593
		s-0.284,0.258-0.529,0.258c-0.264,0-0.468-0.067-0.613-0.2c-0.145-0.134-0.218-0.283-0.218-0.447c0-0.2,0.027-0.406,0.081-0.617
		c0.054-0.211,0.085-0.366,0.094-0.464c-0.08-0.138-0.199-0.23-0.357-0.277c-0.158-0.047-0.328-0.07-0.511-0.07
		c-0.214,0-0.417,0.046-0.611,0.137c-0.193,0.092-0.382,0.26-0.564,0.505c-0.165,0.224-0.298,0.525-0.401,0.904
		s-0.153,0.833-0.153,1.359c0,0.83,0.184,1.508,0.551,2.032s0.85,0.787,1.447,0.787c0.432,0,0.794-0.105,1.086-0.316
		s0.563-0.527,0.812-0.949l0.428,0.281c-0.295,0.527-0.683,0.944-1.165,1.252C145.798,33.783,145.3,33.937,144.787,33.937z"/>
	<path fill="#3D405B" d="M154.361,33.763h-3.221v-0.442c0.103-0.009,0.212-0.019,0.328-0.03c0.116-0.011,0.212-0.028,0.288-0.05
		c0.125-0.04,0.219-0.11,0.281-0.211s0.094-0.231,0.094-0.392v-7.651c0-0.161-0.034-0.312-0.104-0.452s-0.16-0.251-0.271-0.332
		c-0.08-0.054-0.228-0.103-0.441-0.147c-0.215-0.045-0.387-0.072-0.516-0.081v-0.429l2.483-0.147l0.094,0.1v9.059
		c0,0.156,0.029,0.285,0.087,0.385c0.059,0.101,0.152,0.178,0.281,0.231c0.099,0.045,0.195,0.078,0.292,0.101
		c0.096,0.022,0.204,0.038,0.324,0.047V33.763z"/>
	<path fill="#3D405B" d="M158.392,33.763h-3.188v-0.442c0.103-0.009,0.209-0.018,0.318-0.027c0.109-0.009,0.204-0.026,0.284-0.053
		c0.125-0.04,0.218-0.11,0.278-0.211c0.061-0.1,0.09-0.23,0.09-0.391v-4.073c0-0.143-0.032-0.273-0.097-0.391
		s-0.155-0.217-0.271-0.297c-0.084-0.054-0.207-0.099-0.368-0.137c-0.16-0.038-0.308-0.062-0.441-0.07v-0.442l2.33-0.147
		l0.094,0.094v5.383c0,0.156,0.029,0.286,0.09,0.388c0.06,0.103,0.153,0.179,0.282,0.228c0.098,0.041,0.192,0.073,0.286,0.097
		c0.093,0.025,0.197,0.042,0.313,0.05V33.763z M157.555,24.476c0,0.254-0.084,0.477-0.251,0.667
		c-0.168,0.189-0.374,0.284-0.619,0.284c-0.229,0-0.426-0.09-0.593-0.271c-0.168-0.181-0.251-0.387-0.251-0.619
		c0-0.246,0.083-0.46,0.251-0.643c0.167-0.183,0.364-0.274,0.593-0.274c0.254,0,0.463,0.086,0.626,0.258
		C157.473,24.049,157.555,24.249,157.555,24.476z"/>
	<path fill="#3D405B" d="M163.567,30.529c0.183,0.161,0.323,0.346,0.422,0.556c0.098,0.21,0.147,0.467,0.147,0.77
		c0,0.612-0.229,1.111-0.687,1.5c-0.458,0.388-1.05,0.583-1.777,0.583c-0.384,0-0.738-0.069-1.062-0.208
		c-0.323-0.138-0.555-0.265-0.693-0.381l-0.134,0.435h-0.502l-0.067-2.296h0.463c0.035,0.175,0.111,0.378,0.228,0.611
		c0.115,0.233,0.256,0.443,0.422,0.631c0.174,0.197,0.382,0.363,0.626,0.498c0.243,0.134,0.517,0.201,0.82,0.201
		c0.428,0,0.758-0.098,0.99-0.293s0.349-0.475,0.349-0.838c0-0.188-0.037-0.349-0.11-0.485c-0.074-0.136-0.183-0.255-0.325-0.358
		c-0.147-0.103-0.328-0.195-0.542-0.278c-0.215-0.083-0.453-0.164-0.717-0.244c-0.21-0.063-0.443-0.148-0.699-0.258
		c-0.257-0.109-0.477-0.238-0.66-0.385c-0.196-0.156-0.356-0.348-0.481-0.576s-0.188-0.496-0.188-0.803
		c0-0.54,0.2-0.998,0.603-1.373c0.401-0.375,0.939-0.563,1.613-0.563c0.259,0,0.523,0.033,0.794,0.101
		c0.27,0.067,0.489,0.147,0.659,0.241l0.154-0.348h0.481l0.101,2.123h-0.462c-0.094-0.475-0.296-0.862-0.606-1.16
		c-0.31-0.298-0.688-0.447-1.135-0.447c-0.365,0-0.653,0.092-0.863,0.276c-0.21,0.185-0.314,0.407-0.314,0.667
		c0,0.201,0.034,0.369,0.104,0.502s0.173,0.248,0.312,0.341c0.134,0.089,0.302,0.173,0.505,0.251
		c0.203,0.078,0.454,0.167,0.754,0.265c0.294,0.094,0.572,0.203,0.833,0.328C163.183,30.239,163.397,30.377,163.567,30.529z"/>
	<path fill="#3D405B" d="M169.212,33.475c-0.29,0.121-0.564,0.222-0.823,0.305s-0.576,0.124-0.951,0.124
		c-0.554,0-0.943-0.14-1.168-0.418c-0.226-0.279-0.338-0.673-0.338-1.182v-4.473h-1.192v-0.643h1.219v-2.056h1.219v2.056h1.895
		v0.643h-1.882v3.689c0,0.277,0.011,0.508,0.03,0.693c0.021,0.185,0.068,0.347,0.145,0.485c0.071,0.129,0.178,0.228,0.321,0.294
		c0.143,0.067,0.335,0.101,0.575,0.101c0.112,0,0.276-0.01,0.492-0.03c0.217-0.02,0.369-0.046,0.459-0.077V33.475z"/>
	<path fill="#3D405B" d="M174.227,30.529c0.183,0.161,0.323,0.346,0.422,0.556c0.098,0.21,0.147,0.467,0.147,0.77
		c0,0.612-0.229,1.111-0.687,1.5c-0.458,0.388-1.05,0.583-1.777,0.583c-0.384,0-0.738-0.069-1.062-0.208
		c-0.323-0.138-0.555-0.265-0.693-0.381l-0.134,0.435h-0.502l-0.067-2.296h0.463c0.035,0.175,0.111,0.378,0.228,0.611
		c0.115,0.233,0.256,0.443,0.422,0.631c0.174,0.197,0.382,0.363,0.626,0.498c0.243,0.134,0.517,0.201,0.82,0.201
		c0.428,0,0.758-0.098,0.99-0.293s0.349-0.475,0.349-0.838c0-0.188-0.037-0.349-0.11-0.485c-0.074-0.136-0.183-0.255-0.325-0.358
		c-0.147-0.103-0.328-0.195-0.542-0.278c-0.215-0.083-0.453-0.164-0.717-0.244c-0.21-0.063-0.443-0.148-0.699-0.258
		c-0.257-0.109-0.477-0.238-0.66-0.385c-0.196-0.156-0.356-0.348-0.481-0.576s-0.188-0.496-0.188-0.803
		c0-0.54,0.2-0.998,0.603-1.373c0.401-0.375,0.939-0.563,1.613-0.563c0.259,0,0.523,0.033,0.794,0.101
		c0.27,0.067,0.489,0.147,0.659,0.241l0.154-0.348h0.481l0.101,2.123h-0.462c-0.094-0.475-0.296-0.862-0.606-1.16
		c-0.31-0.298-0.688-0.447-1.135-0.447c-0.365,0-0.653,0.092-0.863,0.276c-0.21,0.185-0.314,0.407-0.314,0.667
		c0,0.201,0.034,0.369,0.104,0.502s0.173,0.248,0.312,0.341c0.134,0.089,0.302,0.173,0.505,0.251
		c0.203,0.078,0.454,0.167,0.754,0.265c0.294,0.094,0.572,0.203,0.833,0.328C173.842,30.239,174.057,30.377,174.227,30.529z"/>
</g>
<g>
	<path fill="#E07A5F" d="M76.61,48.949c0,3.981-0.458,9.926-2.933,13.693c-0.538-0.511-1.829-1.453-2.556-1.749
		c2.26-3.47,2.475-8.447,2.475-11.971v-6.161h8.286v-5.03h3.201v1.614h8.824v2.34h-8.824v1.076h7.801l0.511-0.107l2.26,0.511
		c-0.403,1.641-0.968,3.497-1.506,4.654l-2.664-0.7c0.188-0.538,0.35-1.21,0.511-1.91h-7.236v1.318l6.268-0.484l0.134,2.071
		l-6.402,0.511c0.027,0.619,0.215,0.888,1.103,0.888h5.192c0.941,0,2.556-0.054,3.201-0.215c0.107,0.834,0.188,1.722,0.296,2.367
		c-0.646,0.188-2.071,0.215-3.255,0.215h-5.676c-2.878,0-3.766-0.888-3.874-3.04l-4.143,0.35l-0.161-2.125l4.304-0.323v-1.533H76.61
		V48.949z M95.683,59.333v2.69H75.857v-2.69h6.16V57.96h-4.412v-5.111h2.421v2.798h1.991v-3.174h2.69v6.86h1.749v-6.86H89.2v3.174
		h1.856v-2.798h2.448v5.111H89.2v1.372H95.683z"/>
	<path fill="#E07A5F" d="M110.798,61.054c-0.376-0.511-1.022-1.237-1.668-1.91c-0.753,1.318-1.856,2.556-3.47,3.659
		c-0.376-0.565-1.184-1.345-1.775-1.749c2.421-1.479,3.443-3.417,3.874-5.165h-3.12v-2.475h3.416v-0.35v-1.883h-0.565
		c-0.35,0.833-0.753,1.587-1.184,2.232c-0.457-0.376-1.426-1.076-1.991-1.399l0.108-0.161l-1.318,0.511v7.156
		c0,1.426-0.215,2.179-0.995,2.663c-0.753,0.484-1.856,0.592-3.443,0.592c-0.081-0.753-0.431-1.991-0.78-2.825
		c0.888,0.027,1.722,0.027,2.018,0.027s0.403-0.107,0.403-0.457V53.36l-1.91,0.7l-0.753-3.067c0.78-0.215,1.668-0.484,2.663-0.807
		v-4.438h-2.206v-2.959h2.206v-5.084h2.798v5.084h1.749v2.959h-1.749v3.497l1.749-0.592l0.35,1.829
		c0.484-1.184,0.888-2.529,1.129-3.874l2.395,0.511c-0.108,0.538-0.242,1.076-0.404,1.614h4.277v2.448h-2.044v1.937v0.296h2.287
		v2.475h-2.556c-0.054,0.269-0.107,0.565-0.188,0.861c0.861,0.699,1.883,1.641,2.34,2.233L110.798,61.054z M108.431,46.5
		c-2.556,0-3.121-0.941-3.121-3.362v-5.38h2.636v2.071h4.277v2.287h-4.277v1.022c0,0.78,0.081,1.049,0.592,1.049h2.421
		c0.484,0,1.264-0.054,1.694-0.161c0.027,0.672,0.108,1.667,0.215,2.287c-0.43,0.161-1.184,0.188-1.883,0.188H108.431z
		 M123.388,59.924c-0.323,0.592-0.646,1.775-0.727,2.475h-2.528c-2.233,0-4.063-0.538-5.38-2.744
		c-0.377,1.237-0.941,2.26-1.668,3.201c-0.376-0.403-1.372-1.184-1.937-1.479c1.937-2.179,2.34-5.622,2.421-9.819l2.367,0.107
		c-0.054,1.695-0.188,3.228-0.403,4.681c0.323,0.941,0.699,1.667,1.157,2.206v-8.527h-3.686v-2.556h5.811
		c-1.264-1.103-3.417-2.583-5.031-3.659l1.803-1.695c0.511,0.296,1.076,0.646,1.641,0.995c0.538-0.646,1.049-1.426,1.534-2.206
		h-5.327v-2.448h6.94l0.458-0.161l1.802,1.21c-0.888,1.695-2.152,3.524-3.362,5.003c0.753,0.511,1.426,0.996,1.91,1.399
		l-1.506,1.561h1.318l0.376-0.081l1.506,0.35c-0.269,1.694-0.646,3.658-0.968,4.896l-1.83-0.458c0.108-0.565,0.215-1.345,0.35-2.152
		h-1.318v3.443h3.067v2.501h-3.067v3.874c0.376,0.054,0.807,0.081,1.21,0.081H123.388z"/>
	<path fill="#E07A5F" d="M138.853,47.254v0.941h8.608v1.937h-8.608v0.968h10.572v2.233h-24.13v-2.233h10.357v-0.968h-8.474v-1.937
		h8.474v-0.941h-7.882v-1.856h7.882v-1.022h-10.33v-2.206h10.33v-0.995h-7.586v-1.856h7.586v-1.695h3.201v1.695h7.505v2.852h3.066
		v2.206h-3.066v2.878H138.853z M128.657,54.167h17.836v8.716h-3.229v-0.78h-11.514v0.807h-3.094V54.167z M131.751,56.212v0.968
		h11.514v-0.968H131.751z M143.265,60.086v-1.049h-11.514v1.049H143.265z M138.853,42.169h4.331v-0.995h-4.331V42.169z
		 M138.853,45.397h4.331v-1.022h-4.331V45.397z"/>
	<path fill="#E07A5F" d="M158.541,43.138c-0.592,3.497-1.883,6.214-5.03,8.016c-0.35-0.753-1.237-1.91-1.91-2.421
		c2.367-1.318,3.39-3.147,3.874-5.595h-3.229v-2.771h3.578c0.054-0.834,0.08-1.695,0.107-2.636h3.066
		c-0.026,0.915-0.08,1.775-0.134,2.636h5.568c0,0-0.027,0.753-0.054,1.13c-0.216,4.788-0.458,6.887-1.104,7.667
		c-0.538,0.619-1.103,0.861-1.829,0.968c-0.619,0.107-1.722,0.107-2.852,0.081c-0.081-0.888-0.403-2.044-0.834-2.825
		c0.915,0.108,1.695,0.108,2.071,0.108c0.377,0.027,0.592-0.054,0.808-0.296c0.296-0.35,0.483-1.426,0.618-4.062H158.541z
		 M161.178,56.454c-1.614,2.313-4.277,4.385-6.646,5.649c-0.618-0.565-1.99-1.587-2.717-2.072c2.448-1.049,4.843-2.744,6.134-4.573
		L161.178,56.454z M165.885,54.948v7.909h-3.336v-7.909h-10.303v-2.825h10.303v-1.937h3.336v1.937h10.276v2.825H165.885z
		 M175.597,49.514h-10.034v-9.765h10.034V49.514z M169.598,55.351c2.367,1.264,5.595,3.282,7.209,4.708l-2.556,2.179
		c-1.452-1.426-4.573-3.551-7.021-4.95L169.598,55.351z M172.422,42.492h-3.847v4.277h3.847V42.492z"/>
</g>
<g>
	<path fill="#E07A5F" d="M23.09,5.148l0.072-0.022c0.364,0.049,1.504,1.229,1.758,1.588c2.368,3.352,5.122,6.323,7.635,9.555
		c2.799,3.6,5.506,7.983,9.372,10.365c1.616,0.563,3.445,0.62,5.139,0.748c2.358,0.055,4.992,0.499,7.333,0.444
		c5.081-0.118,9.824-0.071,14.899,0.238c-0.668,1.813-1.738,3.084-2.658,4.744c-6.142,11.074-12.431,22.028-18.407,33.205
		l-0.372,0.351c-2.482,0.729-7.492-2.598-9.864-3.563c-3.352-1.363-6.761-3.48-10.031-4.858l-0.184-0.076
		c-0.861,0.635-1.231,0.902-1.967,1.679c-6.481-1.567-3.833-5.026-7.115-8.309c-2.814-2.815-6.542-5.639-9.437-8.544
		c-1.73-1.737-3.545-3.099-5.262-5.042c0.854-2.53,2.441-4.465,3.591-6.787c2.214-4.466,4.875-8.498,7.37-12.767l5.342-9.321
		c0.588-1.009,1.517-2.494,2.213-3.484C22.742,5.236,22.933,5.188,23.09,5.148z"/>
	<path fill="#EFF2ED" d="M34.81,29.043c0.314,0.25,0.229,0.084,0.309,0.475c-0.991,2.093-1.96,4.482-3.253,6.39
		c-2.251,3.319-5.793,12.356-8.887,14.531l-0.204-0.106c-0.057-0.379,0.132-0.835,0.335-1.136
		C27.464,42.734,30.58,35.547,34.81,29.043z"/>
	<path fill="#EFF2ED" d="M31.05,50.915c1.553-3.25,3.003-5.812,4.934-8.82c1.512-2.356,2.738-5.481,4.696-7.525
		c-0.648,3.854-3.848,7.771-5.749,11.123c-1.309,2.308-1.871,3.66-3.575,5.712L31.05,50.915z"/>
	<path fill="#E4AA47" d="M19.625,20.543c0.624,0.224,1.615,0.795,2.147,1.211l-0.029,0.174c-0.375,0.043-0.907-0.345-1.274-0.558
		l-0.194,0.128l-0.115,0.612c-0.216,0.398-0.341,0.731-0.508,1.15l-0.212,0.089l-0.039,0.138l0.065,0.126l-0.123,0.067l-0.001,0.113
		C19.263,22.786,20.121,22.044,19.625,20.543z"/>
	<path fill="#E4AA47" d="M30.512,55.76c0.257,0.197,0.482,0.558,0.475,0.892c-0.021,0.846,0.419,0.692,0.717,1.253
		c-0.367,0.242-0.555,0.188-1.023,0.233l-0.3-0.004l-0.115-0.184c0.395-0.536,0.586-0.723,0.401-1.4
		c-0.333-0.241-0.266-0.123-0.447-0.456L30.512,55.76z"/>
	<path fill="#F4CD60" d="M17.663,29.321c0.473,0.042,1.03,0.221,1.265,0.677l-0.173,0.537l-0.321-0.019
		C17.902,29.796,17.756,30.39,17.663,29.321z"/>
	<path fill="#F1DEBB" d="M29.682,52.979c0.236-0.42,1.072-1.77,1.367-2.065l0.305,0.49C30.846,51.969,30.249,52.474,29.682,52.979z"
		/>
	<path fill="#F4CD60" d="M21.149,19.157c0.464,0.084,0.873,0.644,1.075,1.064c-0.314-0.062-0.469-0.128-0.769-0.234
		C21.098,19.542,21.22,19.798,21.149,19.157z"/>
	<path fill="#F4CD60" d="M20.597,41.76c0.108,0.134,0.044,0.037,0.117,0.331c-0.326,0.359-0.487,0.493-0.862,0.802l-0.131-0.141
		C19.828,42.329,20.226,42.093,20.597,41.76z"/>
	<path fill="#F4CD60" d="M53.666,45.887l0.182,0.204c-0.107,0.404-0.354,0.501-0.72,0.834l-0.102-0.117
		C53.103,46.401,53.349,46.251,53.666,45.887z"/>
	<path fill="#E4AA47" d="M32.554,57.218c0.667,0.015,0.866,0.043,1.456,0.342C33.225,57.682,33.156,57.778,32.554,57.218z"/>
	<path fill="#E4AA47" d="M11.523,23.823c0.645,0.125,0.773,0.294,1.116,0.835C11.989,24.448,11.912,24.364,11.523,23.823z"/>
	<path fill="#3D405B" d="M26.893,4.006c1.921,0.984,1.756,1.379,3.058,2.831c0.855,0.952,4.34,6.789,5.125,7.069
		c0.505-0.908-0.76-0.729-0.5-1.894c0.085-0.385-2.069-2.27-2.102-3.366c-0.008-0.283-2.759-3.006-3.045-3.466
		c-0.483-0.612,0.469-2.046,1.055-2.345c0.556,0.287,12.492,19.262,13.288,20.992c1.424-0.52,3.721-1.199,5.173-1.685
		c3.518-1.176,12-4.35,15.333-4.53c-0.008,0.82,0.006,1.527,0.042,2.347c0.091,0.826,0.493,1.527,1.351,1.619l0.089,1.931
		c-0.438,0.165-0.786,0.239-1.101,0.592c0.678,0.371,2.469-0.065,3.205-0.225c-0.188,0.615-0.518,2.24-1.051,2.58
		c-0.996,0.634-9.985,0.313-11.782,0.31c-1.492,0.018-3.625-0.225-5.176-0.329l-2.55-0.093c-3.152-0.121-4.809,0.918-3.718-3.097
		c-0.348,0.508-1.049,1.249-1.089,1.793c-0.029,0.386,0.045,0.194-0.169,0.501c-2.273-0.564-8.646-9.832-10.478-11.962
		c-2.056-2.39-4.447-5.604-6.593-7.929C25.898,4.891,26.112,4.608,26.893,4.006z"/>
	<path fill="#3D405B" d="M64.318,23.858l0.342,0.243c0.678,0.371,2.468-0.065,3.205-0.225c-0.188,0.615-0.518,2.24-1.051,2.58
		c-0.996,0.634-9.985,0.313-11.782,0.31l0.086-0.361c0.868,0.001,0.538-0.322,0.874-0.566c1.272-0.923,4.958-0.671,6.011-1.762
		l0.057-0.063C62.945,24.105,63.434,23.925,64.318,23.858z"/>
	<path fill="#FFFFFF" d="M62.061,24.014c0.885,0.091,1.373-0.089,2.257-0.156C63.632,24.621,62.857,24.441,62.061,24.014z"/>
	<path fill="#FFFFFF" d="M55.118,26.404c0.207-0.274,0.681-1.226,0.981-1.228c1.711-0.01,3.397-1.093,5.011-1.36
		c0.388,0.218,0.474,0.22,0.893,0.261c-1.053,1.09-4.74,0.838-6.011,1.762C55.656,26.082,55.985,26.405,55.118,26.404z"/>
	<path fill="#FFFFFF" d="M64.32,19.958c0.091,0.826,0.493,1.527,1.351,1.619c-1.268,0.006-3.157,0.243-4.453,0.375l0.09-0.057
		l0.151-0.091c0.959-0.594,1.48-0.604,2.559-0.914C64.378,20.519,64.264,20.643,64.32,19.958z"/>
	<path fill="#FFFFFF" d="M53.721,23.549c1.43-0.627,5.949-2.287,7.369-1.986c-0.354,1.202-5.408,1.527-6.891,2.533
		c-0.253-0.037-0.188-0.033-0.429-0.153L53.721,23.549z"/>
	<path fill="#FFFFFF" d="M54.199,24.096c-0.6,0.61-1.002,1.271-2.01,0.661c-0.266-0.411-0.212-0.194-0.202-0.663
		c0.355-0.478,1.185-0.633,1.733-0.544l0.049,0.394C54.011,24.063,53.946,24.059,54.199,24.096z"/>
</g>
<g>
</g>
<g>
</g>
<g>
</g>
<g>
</g>
<g>
</g>
<g>
</g>
<g>
</g>
<g>
</g>
<g>
</g>
<g>
</g>
<g>
</g>
<g>
</g>
<g>
</g>
<g>
</g>
<g>
</g>
</svg>
