<?xml version="1.0" encoding="utf-8"?>
<!-- Generator: Adobe Illustrator 16.0.0, SVG Export Plug-In . SVG Version: 6.00 Build 0)  -->
<!DOCTYPE svg PUBLIC "-//W3C//DTD SVG 1.1//EN" "http://www.w3.org/Graphics/SVG/1.1/DTD/svg11.dtd">
<svg version="1.1" xmlns="http://www.w3.org/2000/svg" xmlns:xlink="http://www.w3.org/1999/xlink" x="0px" y="0px" width="300px"
	 height="150px" viewBox="0 0 300 150" enable-background="new 0 0 300 150" xml:space="preserve">
<g id="圖層_2" display="none">
	<rect x="-19" y="264" display="inline" fill="#511FDB" width="564" height="295"/>
</g>
<g id="圖層_1">
	<g>
		<polygon fill="#FFFFFF" points="42.538,30.923 46.719,54.077 48.228,57.347 76.852,65.863 78.891,65.863 84.693,62.461 
			93.766,59.049 94.228,48.272 94.997,30.923 92.689,17.692 84.693,19.692 76.852,16.539 70.295,23.919 59.04,23.538 53.09,30.29 		
			"/>
		<polygon fill="#FFFFFF" points="76.228,67.183 76.852,70.058 126.688,56.249 119.235,54.838 105.15,55.556 90.942,60.111 		"/>
		<polygon fill="#FFFFFF" points="94.917,32.734 98.036,29.961 100.458,30.692 101.15,34.23 97.604,39.194 94.593,40.042 		"/>
		<path fill="#E07A5F" d="M30.875,55.45l4.342,0.492c1.068-0.007,2.762,0.065,3.733-0.212c1.778-0.021,3.761,0.279,5.546,0.499
			c10.834,0.511,24.031,4.232,33.332,9.731l0.162,1.223l-0.008,0.224l-0.49,0.271l-0.056,0.305c0.819,0.074,0.901-0.018,1.669-0.385
			c1.82,0.218,17.518-5.528,20.416-6.209c8.969-2.11,18.862-4.247,27.931-5.578c-1.163,5.97-2.248,11.939-3.259,17.937
			c-0.099,0.588-0.618-0.015-0.537,0.943c0.657,0.14,1.055,0.206,1.722,0.289c4.272,1.774,6.322,4.93,8.056,9.028
			c0.726,1.717,1.137,2.888,2.352,4.314c0.852,1.331,1.196,2.12,1.849,3.555c0.252,1.025,0.731,2.776,0.871,3.755
			c0.303,1.693,0.638,3.94,1.06,5.565c0.055,1.447,0.099,2.459,0.489,3.852c0.062,1.886,0.157,3.84,0.134,5.722
			c-5.035,3.472-13.534,3.358-19.513,3.511c0.064,1.116,0.242,1.106-0.199,1.941c-1.376,0.767-7.198,1.987-9.03,2.413l-18.329,4.24
			c-4.873,1.174-17.185,5.104-21.887,4.291c-8.76-1.514-18.156-4.214-27.044-5.611c-3.328-0.611-14.256-2.264-16.084-3.881
			c-0.138,1.22-0.484,2.337-0.803,3.522c-3.411,0.667-7.589,1.056-11.16,1.254c-2.688,0.15-9.292,0.523-11.538-1.49
			c-0.89-0.797-0.586-2.497-0.482-3.655l0.57-3.365c0.723-2.24,1.637-4.612,2.447-6.837c0.544-1.341,1.053-2.568,1.661-3.882
			c0.912-1.906,1.637-3.666,2.732-5.481c0.435-1.112,0.559-1.332,1.243-2.312c1.126-1.962,1.732-3.4,2.619-5.468
			c0.468-1.14,0.786-1.651,1.415-2.696c1.811-3.285,4.439-8.613,6.521-11.605c0.539-0.201,0.74-0.287,1.299-0.396
			c0.546,0.417,0.507,0.408,0.864,1.007l1.038,0.856c0.017-0.577-0.24-3.487-0.281-4.237c0.301-1.12,0.356-1.499,0.452-2.658
			c0.597-1.082,0.704-1.306,1.586-2.154C28.784,67.074,30.526,57.185,30.875,55.45z"/>
		<path fill="#3D405B" d="M12.771,95.428c1.085,0.888,15.46,1.382,18.264,1.418c-0.229,0.964-0.426,1.84-0.727,2.789l-0.857,5.159
			l-0.532,2.698c0.178,1.497-0.312,4.887-0.893,6.312c-0.308,1.009-0.637,2.2-0.985,3.18l1.222,0.327l-0.161,0.364
			c-0.138,1.22-0.484,2.337-0.803,3.522c-3.411,0.667-7.589,1.056-11.16,1.254c-2.688,0.15-9.292,0.523-11.538-1.49
			c-0.89-0.797-0.586-2.497-0.482-3.655l0.57-3.365c0.723-2.24,1.637-4.612,2.447-6.837c0.544-1.341,1.053-2.568,1.661-3.882
			c0.912-1.906,1.637-3.666,2.732-5.481C11.964,96.628,12.088,96.409,12.771,95.428z"/>
		<path fill="#3D405B" d="M12.771,95.428c1.085,0.888,15.46,1.382,18.264,1.418c-0.229,0.964-0.426,1.84-0.727,2.789l-0.857,5.159
			c-0.933-0.602-17.343,0.271-20.655-1.573c0.912-1.906,1.637-3.666,2.732-5.481C11.964,96.628,12.088,96.409,12.771,95.428z"/>
		<path fill="#FFFFFF" d="M12.771,95.428c1.085,0.888,15.46,1.382,18.264,1.418c-0.229,0.964-0.426,1.84-0.727,2.789
			c-3.936-0.064-15.327-0.341-18.78-1.895C11.964,96.628,12.088,96.409,12.771,95.428z"/>
		<path fill="#3D405B" d="M4.119,117.305c7.926,0.54,15.035,0.172,22.922-0.321l1.222,0.327l-0.161,0.364
			c-0.138,1.22-0.484,2.337-0.803,3.522c-3.411,0.667-7.589,1.056-11.16,1.254c-2.688,0.15-9.292,0.523-11.538-1.49
			C3.711,120.163,4.015,118.463,4.119,117.305z"/>
		<path fill="#FFFFFF" d="M7.136,107.104c0.544-1.341,1.053-2.568,1.661-3.882c3.312,1.843,19.722,0.971,20.655,1.573l-0.532,2.698
			C23.021,109.084,13.007,108.533,7.136,107.104z"/>
		<path fill="#FFFFFF" d="M4.689,113.94c9.001,0.982,14.45,0.781,23.337-0.136c-0.308,1.009-0.637,2.2-0.985,3.18
			c-7.887,0.493-14.996,0.861-22.922,0.321L4.689,113.94z"/>
		<path fill="#3D405B" d="M135.785,88.321c0.852,1.331,1.196,2.12,1.849,3.555c0.252,1.025,0.731,2.776,0.871,3.755
			c0.303,1.693,0.638,3.94,1.06,5.565c0.055,1.447,0.099,2.459,0.489,3.852c0.062,1.886,0.157,3.84,0.134,5.722
			c-5.035,3.472-13.534,3.358-19.513,3.511c-0.18-4.538,1.267-18.07,2.63-22.137c3.082,0.332,6.402-1.733,9.347-3.028
			C134.187,89.323,134.311,88.953,135.785,88.321z"/>
		<path fill="#FFFFFF" d="M139.564,101.197c0.055,1.447,0.099,2.459,0.489,3.852l-0.432-0.13
			c-4.295,2.415-11.377,3.194-16.303,3.662c-1.008-0.596-1.399-0.861-1.762-2.052c0.275-0.496,0.186-0.553,0.82-0.688
			C125.382,105.2,138.463,103.915,139.564,101.197z"/>
		<path fill="#FFFFFF" d="M135.212,93.334c0.558,1.303,1.279,1.99,1.64,2.906c-2.509,1.481-11.587,4.72-13.889,3.454
			c-0.281-0.604-0.12-1.849-0.084-2.573C127.142,96.675,131.402,95.269,135.212,93.334z"/>
		<path fill="#FFFFFF" d="M137.634,91.876c0.252,1.025,0.731,2.776,0.871,3.755l-1.653,0.609c-0.361-0.916-1.082-1.603-1.64-2.906
			C136.029,92.893,136.842,92.367,137.634,91.876z"/>
		<path fill="#FFFFFF" d="M26.246,72.888c0.764,0.697,0.864,0.849,1.249,1.811c0.064-0.212,0.167-0.529,0.221-0.738l0.291,0.708
			c1.885,0.214,2.77-0.997,4.573,0.259c0.148,0.386,0.28,0.732,0.414,1.124c1.964-0.87,2.576-0.278,4.275,1.031l0.304,0.769
			c-0.487,0.714-0.998,1.221-0.936,2.035l0.298,0.564c0.434,0.35,0.834,0.66,1.235,1.052c-1.122,0.904-5.411,3.889-5.946,4.69
			l-0.027,0.482c2.04,1.434,5.129-3.101,7.165-2.824l0.156,0.358c-0.701,1.728-3.386,2.467-4.652,4.1
			c1.555,1.129,3.971-1.274,5.742-1.203c-0.027,2.356-4.647,3.059-6.239,4.07c-1.386,0.881-2.542,2.44-3.777,3.463
			c0.189,0.667,0.512,1.553,0.446,2.205c-2.804-0.036-17.179-0.53-18.264-1.418c1.126-1.962,1.732-3.4,2.619-5.468
			c0.468-1.14,0.786-1.651,1.415-2.696c1.811-3.285,4.439-8.613,6.521-11.605c0.539-0.201,0.74-0.287,1.299-0.396
			c0.546,0.417,0.507,0.408,0.864,1.007l1.038,0.856C26.543,76.549,26.287,73.638,26.246,72.888z"/>
		<path fill="#3D405B" d="M23.325,75.658c0.539-0.201,0.74-0.287,1.299-0.396c0.546,0.417,0.507,0.408,0.864,1.007l1.038,0.856
			l0.966-0.481c0.604,0.379,0.333,0.148,0.693,0.871c-1.358,2.031-2.407,3.599-3.463,5.831c-0.699,1.478-1.273,3.321-2.04,4.649
			l-1.078,2.574c1.833,2.043,6.362,3.875,8.984,4.071c0.189,0.667,0.512,1.553,0.446,2.205c-2.804-0.036-17.179-0.53-18.264-1.418
			c1.126-1.962,1.732-3.4,2.619-5.468c0.468-1.14,0.786-1.651,1.415-2.696C18.615,83.979,21.244,78.651,23.325,75.658z"/>
		<path fill="#3D405B" d="M25.489,76.27l1.038,0.856l0.966-0.481c0.604,0.379,0.333,0.148,0.693,0.871
			c-1.358,2.031-2.407,3.599-3.463,5.831c-0.699,1.478-1.273,3.321-2.04,4.649c-0.487-0.648-0.517-2.73-0.418-3.536
			c0.319-1.33,0.738-2.18,1.282-3.422C24.398,79.893,25.42,77.716,25.489,76.27z"/>
		<path fill="#FFFFFF" d="M16.805,87.264c1.186,0.79,2.292,1.143,3.634,1.606c0.009,0.686,0.013,1.371,0.041,2.056
			c-1.699-0.309-3.4-0.608-5.09-0.966C15.858,88.82,16.176,88.309,16.805,87.264z"/>
		<path fill="#FFFFFF" d="M22.265,84.459l-0.339-0.107c-0.983-1.132-1.419-1.894-0.245-3.156c0.756-0.377,1.028-0.264,1.866-0.159
			C23.002,82.28,22.584,83.129,22.265,84.459z"/>
		<path fill="#3D405B" d="M26.246,72.888c0.764,0.697,0.864,0.849,1.249,1.811c0.064-0.212,0.167-0.529,0.221-0.738l0.291,0.708
			c1.885,0.214,2.77-0.997,4.573,0.259c0.148,0.386,0.28,0.732,0.414,1.124c-0.023,0.225,0.322,1.855,0.564,2.094l0.565-0.061
			c-3.062,1.507-3.6,4.257-6.172,5.347l-0.341-0.209c0.392-2.876,3.318-5.384,3.551-6.796l-0.29-0.312
			c-1.485-0.061-1.759,0.352-2.685,1.401c-0.36-0.723-0.088-0.492-0.693-0.871l-0.966,0.481
			C26.543,76.549,26.287,73.638,26.246,72.888z"/>
		<path fill="#3D405B" d="M32.993,76.052c1.964-0.87,2.576-0.278,4.275,1.031l0.304,0.769c-0.487,0.714-0.998,1.221-0.936,2.035
			l0.298,0.564c-0.01,0.007-0.434,0.284-0.45,0.29c-2.125,0.72-4.634,4.377-6.572,4.362l-0.245-0.306
			c0.088-2.627,5.764-4.536,5.789-6.132c-0.563-0.523-0.558-0.461-1.334-0.58l-0.565,0.061
			C33.314,77.907,32.97,76.277,32.993,76.052z"/>
		<path fill="#FFFFFF" d="M125.377,74.979c4.272,1.774,6.322,4.93,8.056,9.028c0.726,1.717,1.137,2.888,2.352,4.314
			c-1.474,0.632-1.598,1.001-3.133,0.795c-2.945,1.294-6.265,3.359-9.347,3.028c0.227-0.632,0.423-1.606,0.581-2.291
			c-0.221-0.493-0.35-0.658-0.657-1.108c-1.388-0.635-6.83-0.297-8.679-0.305c-3.262,0.469-1.542-1.71-4.635-1.422l-0.261-2.957
			C107.994,75.741,119.998,75.468,125.377,74.979z"/>
		<path fill="#3D405B" d="M125.377,74.979c4.272,1.774,6.322,4.93,8.056,9.028c0.726,1.717,1.137,2.888,2.352,4.314
			c-1.474,0.632-1.598,1.001-3.133,0.795c1.696-2.486,0.859-3.588-0.682-6.101c-1.729-2.824-4.086-4.913-6.839-6.709
			c-2.931,0.703-11.708,1.273-12.898,4.217c1.156,0.189,2.844-1.114,4.551-0.9c1.004,0.126,3.67,0.26,4.39,1.06
			c-1.179,1.299-6.305,0.482-9.255,2.498c-0.462,0.196-1.82,0.786-2.265,0.879C107.994,75.741,119.998,75.468,125.377,74.979z"/>
		<path fill="#3D405B" d="M111.918,83.182c1.856,0.209,4.411-0.8,5.747-0.005c0.061,0.169,0.189,0.482,0.213,0.644l0.211,0.63
			l0.523,0.24l-0.973,0.289c-2.686,0.284-3.227,0.205-5.688,1.347l0.459,0.23c-0.012,0.444-0.032,0.898-0.029,1.342l2.167,0.541
			c-3.262,0.469-1.542-1.71-4.635-1.422l-0.261-2.957C110.099,83.968,111.457,83.378,111.918,83.182z"/>
		<path fill="#F3F2EF" d="M111.952,86.327l-0.683-0.045l0.12-0.396c1.47-1.055,4.563-1.592,6.489-2.065l0.211,0.63l0.523,0.24
			l-0.973,0.289C114.955,85.264,114.414,85.185,111.952,86.327z"/>
		<path fill="#3D405B" d="M117.641,84.98c0.052,0.802-0.148,1.182,0.679,1.517c-1.758,0.267-4.424,0.57-5.937,1.402
			c-0.003-0.443,0.017-0.898,0.029-1.342l-0.459-0.23C114.414,85.185,114.955,85.264,117.641,84.98z"/>
		<path fill="#3D405B" d="M118.613,84.691c0.988,0.079,1.19,0.028,2,0.529l0.218,0.414c-0.649,1.023-1.334,0.829-2.512,0.864
			c-0.827-0.335-0.626-0.715-0.679-1.517L118.613,84.691z"/>
		<path fill="#FFFFFF" d="M35.217,55.942c1.068-0.007,2.762,0.065,3.733-0.212c1.778-0.021,3.761,0.279,5.546,0.499
			c10.834,0.511,24.031,4.232,33.332,9.731l0.162,1.223l-0.615-0.096c-0.165,0.586-0.121,0.6-0.527,1.037
			c-3.081,0.407-16.695-5.395-20.753-6.451c-4.354-1.132-9.399-2.48-13.809-3.646C39.831,57.379,37.582,56.336,35.217,55.942z"/>
		<path fill="#3D405B" d="M44.496,56.229c10.834,0.511,24.031,4.232,33.332,9.731l0.162,1.223l-0.615-0.096
			c-2.703-0.697-8.712-3.756-11.839-4.873c-7.204-2.57-14.437-4.239-21.979-5.448L44.496,56.229z"/>
		<path fill="#393E40" d="M38.95,55.73c1.778-0.021,3.761,0.279,5.546,0.499l-0.939,0.538C42.21,56.558,40.14,56.27,38.95,55.73z"/>
		<path fill="#3D405B" d="M39.43,80.137c0.965,1.887,3.634,6.707,3.017,8.649c-0.322,1.012-1.281,1.814-2.229,2.218
			c-3.644,1.556-4.62,1.423-7.539,4.204c-0.257,2.598-3.461,20.06-4.416,22.102l-1.222-0.327c0.348-0.979,0.677-2.17,0.985-3.18
			c0.582-1.425,1.071-4.815,0.893-6.312l0.532-2.698l0.857-5.159c0.301-0.948,0.499-1.825,0.727-2.789
			c0.066-0.652-0.256-1.538-0.446-2.205c1.235-1.023,2.392-2.583,3.777-3.463c1.592-1.012,6.212-1.714,6.239-4.07
			c-1.771-0.071-4.187,2.332-5.742,1.203c1.267-1.633,3.951-2.373,4.652-4.1l-0.156-0.358c-2.036-0.277-5.125,4.258-7.165,2.824
			l0.027-0.482c0.535-0.802,4.824-3.787,5.946-4.69C38.391,81.309,39.189,80.401,39.43,80.137z"/>
		<path fill="#3D405B" d="M109.915,87.018c3.094-0.288,1.373,1.891,4.635,1.422c1.85,0.008,7.291-0.33,8.679,0.305
			c0.307,0.45,0.436,0.615,0.657,1.108c-3.917,0.25-8.32,0.449-12.194,0.029c-0.677-0.657-1.336-1.201-2.034-1.896
			C109.612,87.256,109.508,87.562,109.915,87.018z"/>
		<path fill="#3D405B" d="M28.284,68.076c0.731,1.515-0.161,4.119-0.568,5.885c-0.055,0.209-0.157,0.526-0.221,0.738
			c-0.385-0.962-0.484-1.114-1.249-1.811c0.301-1.12,0.356-1.499,0.452-2.658C27.294,69.148,27.401,68.924,28.284,68.076z"/>
		<path fill="#3D405B" d="M37.572,77.852c0.592,1.074,1.313,1.432,1.858,2.285c-0.241,0.264-1.039,1.171-1.26,1.366
			c-0.401-0.392-0.801-0.702-1.235-1.052l-0.298-0.564C36.574,79.073,37.084,78.566,37.572,77.852z"/>
		<path fill="#F3F2EF" d="M74.75,70.058c0.636,0.148,0.39-0.027,0.812,0.432c0.155,2.045-0.407,7.177-0.583,9.506l-1.833,22.307
			c-0.257,3.473-0.798,6.376-1.214,9.928c-0.458,3.889-0.563,8.333-1.506,12.21c-0.112,0.46-0.684,0.941-1.047,1.256
			c-0.59-0.051-0.341,0.065-0.755-0.338c-0.563-3.502,0.47-8.682,0.699-12.404c0.682-11.109,2.328-22.144,3.564-33.185
			C73.107,77.804,73.804,70.965,74.75,70.058z"/>
		<path fill="#F3F2EF" d="M82.161,71.192c0.506,0.237,0.336,0.119,0.704,0.546c-0.202,9.357-0.943,19.366-1.985,28.65
			c-0.521,4.648-0.616,18.419-2.868,21.911l-0.326-0.137C76.98,119.462,81.213,73.645,82.161,71.192z"/>
		<path fill="#3D405B" d="M73.317,2.943c4.422-0.54,10.512-0.312,13.962,2.744c5.107,4.521,6.442,9.836,7.098,16.358
			c0.299,2.975,0.803,5.946,1.022,9.012c2.281-3.484,6.856-1.589,6.438,2.452c-0.267,2.58-3,6.224-5.686,5.844
			c-0.544-1.22,4.308-3.652,4.078-5.851c-0.162-1.552-0.649-2.688-2.352-2.763c-1.071,0.424-1.777,1.533-1.961,2.645
			c-0.962,5.836-0.388,11.889-1.177,17.778c-0.212,1.578,0.021,3.135-0.712,4.604c-0.661,0.512-0.297,0.393-1.125,0.378
			c-0.272-0.463-0.333-0.972-0.273-1.502c0.661-6.29,1.408-12.768,1.45-19.096c0.035-5.303-0.978-11.044-1.994-16.214
			c-5.025,3.447-10.09,2.778-15.026-0.471c-2.896,4.3-4.674,6.968-10.402,7.627c-2.983,0.343-4.811,0.648-7.808-0.169
			c-4.66,6.65-7.801,6.395-15.254,6.193c0.487,2.635,4.503,21.455,3.01,22.427c-0.955-0.511-0.613-1.437-1.354-1.824
			c-1.239-0.654-2.78-0.774-4.096-1.186c-5.252-1.643-5.917-10.372-0.253-12.036c0.986-0.29,1.019,0.018,1.883,0.523l0.263-0.165
			c-0.306-5.871-3.542-9.871-3.768-15.345C38.669,10.141,53.842,7.063,65.132,4.382C67.864,3.733,70.473,3.038,73.317,2.943z"/>
		<path fill="#FFFFFF" d="M40.801,41.625c0.612-0.046,1.482-0.138,1.929,0.286c1.674,1.591,1.969,6.844,2.158,8.972
			c-0.566,0.17-0.649,0.017-1.331-0.18C39.065,49.35,36.062,44.565,40.801,41.625z"/>
		<path fill="#FFFFFF" d="M64.647,8.493c0.53,0.265,1.083,0.411,1.208,1.051c0.681,3.52-1.836,9.972-3.271,12.812
			c-0.91,0.043-0.63,0.208-1.176-0.184C61.459,21.175,64.31,9.226,64.647,8.493z"/>
		<path fill="#FFFFFF" d="M57.132,10.877l0.198,0.244c-0.538,3.65-1.197,12.429-3.954,15.105c-1.13-1.145,1.402-11.602,2.309-13.373
			C55.946,12.343,56.742,11.34,57.132,10.877z"/>
		<path fill="#FFFFFF" d="M49.523,14.107c0.261,1.625-2.712,7.305-3.28,9.204c-0.345,1.155-0.327,3.589-0.787,4.385l-0.928,0.126
			C42.343,24.423,46.288,16.34,49.523,14.107z"/>
		<path fill="#FFFFFF" d="M70.531,6.177c0.705,0.074,0.686,0.076,1.343,0.349c2.177,2.602,1.604,10.897-0.434,13.684
			c-0.536,0.208-0.62,0.221-1.178,0.356c-0.664-0.52,0.915-3.667,0.963-4.72C71.371,12.613,71.076,9.359,70.531,6.177z"/>
		<path fill="#FFFFFF" d="M77.808,5.896c0.225,0.133,0.778,0.459,0.856,0.671c0.49,1.347,1.983,7.899,1.756,8.809l-0.524,0.251
			c-2.188-1.658-3.173-6.416-3.031-9.09C76.88,6.264,77.55,6.029,77.808,5.896z"/>
		<path fill="#FFFFFF" d="M84.178,7.632c2.412,0.82,5.604,5.079,4.935,7.702c-0.396,0.092-0.308,0.062-0.727,0.037
			C87.19,14.256,84.781,9.265,84.178,7.632z"/>
		<path fill="#FFFFFF" d="M82.941,11.464c1.728,0.701,1.821,3.532,1.728,5.075C83.691,15.742,83.162,12.732,82.941,11.464z"/>
		<path fill="#3D405B" d="M81.532,63.673c6.528-4.839,24.346-9.276,32.537-9.46l0.5,0.326c0.091,0.65,0.112,0.43-0.003,1.059
			c-11.376,0.726-20.495,3.321-30.728,8.227c-0.255,0.122-1.427,0.021-1.775-0.001L81.532,63.673z"/>
		<path fill="#3D405B" d="M71.222,32.924c1.653,1.095,1.65,4.714,2.787,6.333c1.381,1.969,4.808,2.622,3.841,5.787
			c-0.896,2.93-3.028,3.715-5.86,2.957c-0.585-0.599-1.002-1.007-0.882-1.862c1.357-0.696,3.371,0.933,4.767-0.943
			c0.013-0.115,0.104-0.956,0.104-0.956C73.671,40.791,69.419,38.012,71.222,32.924z"/>
		<path fill="#3D405B" d="M65.532,50.986c2.92,0.152,2.459,3.229,5.266,4.554c3.484,1.644,4.835-1.55,7.343-2.36
			c0.63,0.339,0.432,0.25,0.75,1.149C75.838,59.584,65.588,57.666,65.532,50.986z"/>
		<path fill="#3D405B" d="M55.642,38.55c3.509-0.037,4.428,3.418,2.155,5.684c-1.502,0.371-2.256-0.673-3.22-1.634
			C54.848,40.844,54.947,40.187,55.642,38.55z"/>
		<path fill="#3D405B" d="M83.413,33.251c3.221,0.224,4.244,3.188,1.821,5.426C81.984,39.228,81.375,35.28,83.413,33.251z"/>
		<path fill="#3D405B" d="M81.532,63.673l0.531,0.151l0.931,0.398c-0.412,1.124-2.503,1.803-3.889,3.376
			c-0.768,0.367-0.85,0.459-1.669,0.385l0.056-0.305l0.49-0.271l0.008-0.224l-0.162-1.223
			C79.307,65.146,80.164,64.647,81.532,63.673z"/>
		<path fill="#3D405B" d="M117.777,54.329c1.133-0.483,5.318-0.059,6.477,0.588c-0.522,0.753-5.817,0.55-7.005,0.64
			c-0.598-0.148-0.408-0.042-0.856-0.485C116.855,54.47,116.895,54.621,117.777,54.329z"/>
		<path fill="#3D405B" d="M26.697,70.23c-0.096,1.16-0.151,1.538-0.452,2.658c0.041,0.75,0.298,3.661,0.281,4.237l-1.038-0.856
			c-0.357-0.599-0.318-0.59-0.864-1.007c-0.559,0.109-0.761,0.194-1.299,0.396C24.49,73.997,25.578,71.991,26.697,70.23z"/>
		<path fill="#3D405B" d="M114.069,54.213c1.35-0.122,2.375-0.28,3.708,0.115c-0.882,0.292-0.922,0.142-1.385,0.743
			c0.448,0.443,0.259,0.336,0.856,0.485c-0.92,0.041-1.759,0.047-2.682,0.042c0.115-0.629,0.094-0.409,0.003-1.059L114.069,54.213z"
			/>
	</g>
	<g>
		<ellipse fill="#FFFFFF" cx="249.426" cy="74.797" rx="20.632" ry="13.674"/>
		<path fill="#E07A5F" d="M270.489,71.248c1.581-1.318,5.264-2.236,7.278-3.034c1.747-0.694,4.059-1.768,5.827-2.247
			c-0.059,1.89-0.121,3.271,0.06,5.165c0.374,1.005,0.236,0.942,1.391,1.024c1.454-0.68,2.279-0.943,3.849-1.365
			c0.608,3.181,0.646,7.354,0.816,10.638c0.126,2.426,1.282,7.938,0.816,9.924c1.034-0.568,1.554-1.004,2.735-0.757
			c1.561,0.918,1.893,9.206,0.888,10.956c-0.194,0.338-0.467,0.372-0.81,0.533l-0.525,0.101c-0.146,0.449,0.381,5.547,0.373,6.678
			c-3.128,2.64-7.755,3.505-11.648,4.472c-0.673,0.167-2.369,0.476-2.873,0.791c0.084,1.966-25.418,4.861-26.082,4.621
			c-0.552-0.675-20.836-1.229-20.836-1.229c-3.89-0.47-14.51-1.846-17.524-3.357c-0.442-1.691-0.967-5.208-1.383-7.186l-2.068-0.675
			c-0.657-3.031-3.228-8.386-2.849-11.627c0.075-0.643,1.188-1.139,1.75-1.415l1.561-0.11c-0.257-3.085-3.55-17.391-1.547-18.997
			l0.923,0.143c0.688-0.501,0.743-0.501,1.578-0.735c0.402-1.072,0.644-1.844,1.298-2.803c4.844,0.195,10.146,1.683,14.903,2.78
			c7.254,1.671,14.405,3.108,21.277,6.013c1.52-0.643,3.767-2.049,5.51-2.861c4.805-2.237,9.187-3.631,14.256-5.129
			C270.027,71.57,269.983,71.569,270.489,71.248z"/>
		<path fill="#FEFEFB" d="M209.741,93.259l1.562-0.11c1.19,1.773,1.229,3.792,1.434,5.895c-0.019,0.458-0.048,0.608,0.007,1.054
			c1.007-0.385,2.078-0.957,3.086-0.715c0.42,0.39,0.436,0.373,0.704,0.867l0.332-0.494c0.38,0.378,0.447,0.775,0.778,1.23
			l-0.739,0.678l0.562,0.311c0.579,0.276,0.343,0.066,0.638,0.752c-0.052,1.012-0.465,2.091-1.051,2.913
			c-1.282,1.229-2.363,1.233-4.143,1.336l-2.069-0.675c-0.657-3.031-3.227-8.386-2.848-11.627
			C208.067,94.031,209.181,93.535,209.741,93.259z"/>
		<path fill="#3D405B" d="M216.533,100.25l0.332-0.494c0.38,0.378,0.447,0.775,0.778,1.23l-0.739,0.678l0.562,0.311
			c-0.593,0.387-1.177,0.846-1.855,0.982c-0.519-0.438-0.434-0.302-1.231-0.413c-0.155-0.486-0.125-0.296-0.074-0.816
			c0.517-0.652,1.248-0.798,2.083-1.376L216.533,100.25z"/>
		<path fill="#F4F8E5" d="M216.904,101.664l0.562,0.311c-0.593,0.387-1.177,0.846-1.855,0.982c-0.519-0.438-0.434-0.302-1.231-0.413
			C215.592,102.352,215.794,102.244,216.904,101.664z"/>
		<path fill="#FFFFFF" d="M212.258,73.559c1.291,1.355,4.812,2.087,6.701,2.572c9.524,2.454,19.254,5.51,28.887,7.401
			c0.862,6.043,1.288,12.505,2.151,18.576c0.42,2.949,1.794,13.143,1.008,15.528l-0.229,0.071c-0.345-0.571-0.642-1.648-0.69-2.322
			c-0.746-10.229-1.908-20.216-3.3-30.377c-7.177-2.48-14.531-4.384-21.846-6.433c-4.995-1.399-9.396-2.329-14.262-4.281
			C211.366,73.793,211.422,73.793,212.258,73.559z"/>
		<path fill="#FFFFFF" d="M283.724,71.131c0.374,1.005,0.235,0.942,1.389,1.024c-0.921,0.517-1.778,0.813-2.748,1.221
			c-7.426,3.127-14.914,6.145-22.091,9.821c-1.326,0.68-2.118,1.015-3.245,2.036c-0.129,5.711,0.96,13.744,1.48,19.565
			c0.321,3.568,0.95,7.407,0.997,11.099c0.01,0.655-0.111,0.672-0.492,1.041l-0.328-0.04c-0.279-0.426-0.451-0.867-0.49-1.383
			c-0.775-10.447-2.607-20.657-2.488-31.155c2.271-0.768,5.52-2.644,7.803-3.708c4.686-2.181,9.532-4.12,14.158-6.393
			c1.089-0.536,5.551-2,5.948-2.274L283.724,71.131z"/>
		<path fill="#3D405B" d="M290.595,91.352c1.033-0.568,1.553-1.004,2.735-0.757c1.56,0.918,1.893,9.206,0.888,10.956
			c-0.194,0.338-0.467,0.372-0.81,0.533c-2.098-0.166-5.84-1.156-7.104-2.965c-0.273-2.04,1.663-1.235,2.711-2.66l-0.008-1.214
			l-0.237-0.204c0.623-0.591,1.769,0.489,2.568-0.915c0.044-0.74-0.055-0.843-0.369-1.498c-0.357,0.133-0.688,0.265-1.055,0.368
			C289.996,92.138,289.893,91.879,290.595,91.352z"/>
		<path fill="#FEFEFB" d="M290.97,92.628c0.473-0.398,0.737-0.732,1.336-0.764c1.594,1.008,1.577,7.195,1.029,8.736
			c-1.401,0.526-4.789-0.794-5.487-1.72c0.901-0.718,2.286-0.23,2.935-1.484c-0.208-1.175-0.727-1.635-1.774-2.151l-0.237-0.204
			c0.623-0.591,1.769,0.489,2.568-0.915C291.383,93.386,291.284,93.283,290.97,92.628z"/>
		<path fill="#3D405B" d="M289.915,92.996c0.367-0.103,0.697-0.235,1.055-0.368c0.314,0.655,0.413,0.758,0.369,1.498
			c-0.8,1.404-1.945,0.324-2.568,0.915l0.237,0.204l0.008,1.214c-1.524-0.063-3.833-0.204-2.238-2.381
			c0.481-0.657,2.669-0.089,3.104-0.348L289.915,92.996z"/>
		<path fill="#3D405B" d="M217.466,101.975c-0.593,0.387-1.177,0.846-1.855,0.982l-0.313,0.283c0.269,0.722,0.633,0.578,0.773,1.366
			l-0.229,0.721c-1.016,0.091-2.375,0.331-3.245-0.108c-1.436-1.785-3.336-7.751-3.318-10.009c0.339-0.393,1.03-0.51,1.567-0.672
			c0.687,1.366,0.324,4.174,1.372,5.541c0.173,0.015,0.375,0.056,0.524,0.019c1.007-0.385,2.078-0.957,3.086-0.715
			c0.42,0.39,0.436,0.373,0.704,0.867l0.332-0.494c0.38,0.378,0.447,0.775,0.778,1.23c0.203-4.16-2.349-3.67-4.907-1.943
			c-0.205-2.103-0.243-4.122-1.434-5.895l-1.562,0.11c-0.561,0.276-1.674,0.772-1.748,1.415c-0.379,3.241,2.19,8.596,2.848,11.627
			l2.069,0.675c1.779-0.103,2.86-0.107,4.143-1.336c0.586-0.821,0.999-1.9,1.051-2.913
			C217.809,102.041,218.045,102.251,217.466,101.975z"/>
		<path fill="#3D405B" d="M236.913,19.773c0.373-3.189,0.654-4.586,3.256-6.826c5.562-4.79,17.56-1.169,14.681,7.468
			c8.192,2.082,12.469,9.542,13.473,17.494c0.058,0.446,0.041,4.176,0.267,4.438c0.733,0.845,2.458,1.058,2.68,2.361
			c0.309,1.787-0.435,3.758-2.013,4.716c-0.585,0.355-2.648,0.765-2.727,0.934c-2.06,4.448-4.059,7.945-8.111,11.032
			c4.9,1.029,10.366,5.069,12.14,9.857c-0.505,0.321-0.462,0.323-1.056,0.311c-3.679-5.307-5.994-7.28-12.326-9.091
			c-2.161,1.14-5.873,2.472-8.226,3.235l-0.423,0.563c-1.01,0.135-2.017,0.296-3.032,0.33l0.369-0.617
			c-1.115,0.001-2.784,0.11-3.798-0.157l-0.379-0.147c-1.953-0.292-3.755-0.568-5.729-0.73c-1.438,0.974-2.179,1.424-3.474,2.615
			c-1.569,1.443-2.393,4.669-3.895,5.401l-0.213-0.124c-0.034-3.527,4.085-6.71,6.511-8.666
			c-7.329-2.758-12.454-6.197-15.123-13.862c-6.313-0.231-6.922-10.165-1.26-7.321C218.795,32.003,226.15,22.397,236.913,19.773z"/>
		<path fill="#FEFEFB" d="M219.672,40.215c7.824-1.089,19.526-5.147,24.681-11.564c0.959-1.194,1.521-3.394,2.736-3.752
			c1.844,0.458,2.427,3.953,3.589,5.395c3.419,4.241,11.282,8.038,16.551,8.749c-0.213,13.741-8.341,25.563-22.984,25.628
			c-4.788,0.021-12.789-2.298-16.509-5.381c-1.365-0.868-2.79-2.292-3.813-3.539C220.11,51.133,219.668,46.138,219.672,40.215z"/>
		<path fill="#3D405B" d="M243.688,49.776l0.797-0.139c0.424,1.078,0.447,1.478,0.586,2.595c-0.434,1.376-0.472,1.887-2.121,1.92
			c-0.488,0.01-0.285,0.086-0.641-0.264c0.034-0.735-0.081-0.42,0.299-0.996c0.589-0.184,0.627-0.121,1.06-0.513
			c-0.704-0.774-0.942-0.912-0.808-1.972C243.215,49.979,243.178,49.986,243.688,49.776z"/>
		<path fill="#3D405B" d="M230.595,44.733c1.542-0.124,3.008-0.169,3.591,1.556c-0.153,0.637,0.009,0.376-0.533,0.793
			c-0.928,0.057-0.707-0.005-1.665-0.464c-1.352-0.154-2.455,0.986-3.581,0.171C228.352,45.606,229.692,45.036,230.595,44.733z"/>
		<path fill="#3D405B" d="M254.001,45.839c0.643,0.01,0.604,0.021,1.202,0.276c0.472,0.578,0.444,0.549,0.575,1.292
			c-0.202,0.674-0.004,0.434-0.569,0.773c-0.608,0.004-0.757-0.158-1.27-0.489l-0.177-0.117l-0.276,0.081
			c-0.472,0.665-0.507,0.802-1.271,0.882c-0.597-0.357-0.371-0.115-0.667-0.783C251.707,46.147,252.607,46.126,254.001,45.839z"/>
		<path fill="#3D405B" d="M245.318,56.695c1.658,0.658-0.694,4.804-3.961,2.031c-0.478-0.917-0.394-0.516-0.355-1.516
			c0.763-0.762,1.595,1.068,3.013,0.953C244.732,57.711,244.836,57.429,245.318,56.695z"/>
		<path fill="#FEFEFB" d="M245.264,21.599c2.324,0.602,4.522,0.934,6.884,0.216c0.896-0.273,1.536-0.699,2.439-0.902l0.237,0.198
			c-0.152,4.492-15.667,2.147-14.91-1.401c1.01-0.462,1.791,0.357,2.604,0.909C243.381,20.947,244.385,21.362,245.264,21.599z"/>
		<path fill="#FEFEFB" d="M256.488,24.843c0.658,0.315,0.66,0.163,0.964,0.874c1.267,2.945,3.133,3.506,5.146,5.392l-0.102,0.357
			c-2.415-0.101-5.638-2.99-6.416-5.268C255.877,25.606,256.195,25.313,256.488,24.843z"/>
		<path fill="#FEFEFB" d="M216.288,43.399c1.233,0.063,2.907,0.802,2.374,2.262c-0.728-0.073-1.167-0.255-1.655,0.312l0.076,0.499
			c0.83,1.002,1.358-0.101,2.129,1.345c0.073,0.5,0.074,0.478-0.009,0.976c-0.385,0.154-0.687,0.281-1.09,0.039
			C215.843,47.472,215.499,45.55,216.288,43.399z"/>
		<path fill="#FEFEFB" d="M250.835,25.642c0.162-0.012,1.086-0.055,1.151,0.063c1.06,1.925,2.088,3.798,3.596,5.437
			c0.294,0.32-0.012,0.854-0.136,1.218C253.625,32.117,250.884,27.321,250.835,25.642z"/>
		<path fill="#FEFEFB" d="M268.219,43.7c3.263,1.093,1.67,4.276-0.765,5.376c-0.377-0.077-0.216,0.021-0.453-0.338
			c0.105-0.776,0.093-0.827,0.528-1.451c1.814-0.914,1.072-1.059,0.455-2.443C267.984,44.845,268.195,43.82,268.219,43.7z"/>
		<path fill="#FEFEFB" d="M243.951,18.932l0.104-0.875c0.083-0.74,0.081-0.688,0.538-1.258l0.284-0.021
			c0.301,0.577,0.17,0.87,0.053,1.521l-0.354,0.774l-0.306,0.083L243.951,18.932z"/>
		<path fill="#FEFEFB" d="M233.339,25.616c0.437,0.084,0.233,0,0.568,0.349c-0.14,1.175-3.019,2.719-4,3.281
			c-0.322-0.005-0.137,0.02-0.549-0.128l-0.003-0.386C230.063,27.689,232.265,26.33,233.339,25.616z"/>
		<path fill="#FEFEFB" d="M235.186,31.264l0.278,0.136c0.438,0.618,0.405,0.317,0.323,0.907c-0.531,0.864-2.786,1.232-4.116,1.762
			c-0.185-0.104-0.285-0.238-0.443-0.397l0.092-0.331C232.068,32.777,234.194,31.794,235.186,31.264z"/>
		<path fill="#FEFEFB" d="M242.191,23.798c0.771,0.196,0.625,0.041,1.092,0.539c-0.252,1.534-2.05,1.291-2.561,2.599
			c-0.105,0.272-0.051,0.157-0.216,0.457l-0.39,0.703c-0.365-0.097-0.382-0.164-0.717-0.384
			C239.325,26.902,241.606,24.617,242.191,23.798z"/>
		<path fill="#FEFEFB" d="M238.004,22.982c0.708,0.141,0.62,0.009,1.039,0.436c-0.25,0.565-1.238,1.084-1.809,1.455
			c-0.505,0.249-0.251,0.214-0.782,0.147l-0.017-0.367C236.929,23.736,237.16,23.615,238.004,22.982z"/>
		<path fill="#FEFEFB" d="M248.072,15.576c0.442,0.126,0.419,0.166,0.739,0.511c0.302,1.039,0.007,1.625-0.354,2.649l-0.356,0.196
			l-0.202-0.134C247.732,17.89,247.965,16.537,248.072,15.576z"/>
		<path fill="#F4F8E5" d="M252.574,16.694c0.96,0.448,1.198,0.691,1.194,1.748c-0.482,0.095-0.752,0.201-1.217,0.043
			C252.271,17.894,252.47,17.442,252.574,16.694z"/>
		<path fill="#3D405B" d="M241.688,65.675l0.379,0.147l0.108,0.327l0.942,0.396c0.372,2.985-2.171,3.45-4.51,2.708
			c-0.843-0.897-1.315-1.747-1.908-2.798l0.297-0.505C239.105,65.998,239.957,67.597,241.688,65.675z"/>
		<path fill="#3D405B" d="M254.992,63.86c0.25,0.28,0.123,0.17,0.361,0.346l0.354-0.386c1.978,1.7-1.149,4.681-3.067,4.599
			c-1.339-0.734-1.649-1.158-2.498-2.368C251.744,65.718,254.215,65.367,254.992,63.86z"/>
		<path fill="#3D405B" d="M248.527,66.266c1.189,2.048,1.344,4.693-2.104,4.013c-1.355-0.267-1.083-2.5-0.929-3.683
			C246.511,66.562,247.518,66.4,248.527,66.266z"/>
	</g>
	<g>
		<polygon fill="#FFFFFF" points="146.386,103.756 155.801,103.265 166.11,106.958 173.13,111.336 181.028,106.463 197.431,102.491 
			200.552,102.725 205.497,107.055 175.166,115.971 143.889,108.571 		"/>
		<path fill="#E07A5F" d="M184.84,108.785c3.487-1.087,17.558-5.756,20.137-4.093c0.841,0.541,1.142,1.715,1.232,2.646
			c0.209,2.15-0.114,5.389-0.633,7.508l-0.082,1.15c1.602,0.091,1.897,0.539,3.071,1.631c0.759,4.108,0.377,6.271-4.035,7.419
			c-0.164,2.947-0.501,11.814-1.373,14.086c-1.354,0.814-3.147,1.159-4.657,1.671c-4.581,1.552-9.285,3.284-13.728,5.178
			c-3.726,1.588-6.233,2.364-10.354,1.953l-2.877-0.678c-1.044-0.352-3.11-0.685-4.261-0.962
			c-5.496-1.325-10.896-1.752-16.443-2.913c-0.547-1.825-2.714-13.967-2.757-14.033c0.329-0.782,0.008-1.555-0.206-2.394
			c-0.713-0.134-0.828-0.665-1.361-1.307l-0.217-0.259c-0.416,0.145-0.82,0.287-1.232,0.445c0.382,0.426,0.52,0.493,1.007,0.751
			c0.086,0.42,0.089,0.274-0.05,0.708c-2.789-1.012-6.182-3.728-5.092-7.269c0.624-2.03,1.682-2.102,3.378-2.882
			c0.332-0.433,0.282-0.745,0.32-1.303l0.014-0.233c-0.21-0.832-0.552-4.716-0.665-5.807c0.841-0.338,1.18-0.422,1.883-0.996
			c-0.247-0.102-0.136-0.018-0.306-0.287l0.545-0.503c0.003-0.31,0.038-0.312,0.134-0.62c0.471-0.14,0.581-0.174,0.945-0.504
			c-0.595-0.471-0.323-0.345-1.192-0.357l-0.163-0.42l0.205-0.422c2.722-0.158,7.627,0.826,10.194,1.735
			c1.158,0.409,3.347,1.354,4.422,1.452c0.417,0.161,1.141,0.485,1.542,0.516c0.281,0.37,3.132,1.764,3.598,1.933
			c0.946,0.247,1.957,0.494,2.891,0.762c0.898,0.171,1.781,0.338,2.685,0.489c1.11,0.188,2.24,0.581,3.06-0.309l0.275,0.037
			C178.485,111.082,180.706,109.855,184.84,108.785z"/>
		<path fill="#3D405B" d="M205.494,115.996c1.602,0.091,1.897,0.539,3.071,1.631c0.759,4.108,0.377,6.271-4.035,7.419
			c-1.032,0.071-1.494-0.167-2.426-0.538c0.306-2.14,0.583-5.699,1.051-7.828c0.245-0.23,0.453-0.426,0.624-0.588L205.494,115.996z"
			/>
		<path fill="#FFFFFF" d="M204.61,117.458c3.392,0.003,2.887,1.703,2.584,4.387c-0.563,0.675-0.862,0.939-1.529,1.52
			c-0.773,0.192-1.157,0.271-1.946,0.354l-0.135-0.249C203.59,122.331,204.031,118.369,204.61,117.458z"/>
		<path fill="#3D405B" d="M146.027,105.689c2.722-0.158,7.627,0.826,10.194,1.735c1.158,0.409,3.347,1.354,4.422,1.452
			c0.417,0.161,1.141,0.485,1.542,0.516c0.281,0.37,3.132,1.764,3.598,1.933c-1.577,0.125-6.479-1.017-8.327-1.306
			c-3.772-0.593-7.623-1.209-11.357-2.006c0.003-0.31,0.038-0.312,0.134-0.62c0.471-0.14,0.581-0.174,0.945-0.504
			c-0.595-0.471-0.323-0.345-1.192-0.357l-0.163-0.42L146.027,105.689z"/>
		<path fill="#F3F2EF" d="M146.027,105.689c2.722-0.158,7.627,0.826,10.194,1.735c1.158,0.409,3.347,1.354,4.422,1.452
			c-0.917-0.004-1.51-0.092-2.374-0.37c-2.23,0.101-8.227-0.912-10.701-1.347c-0.229-0.041-0.243-0.265-0.353-0.542l-0.039,0.271
			c-0.595-0.471-0.323-0.345-1.192-0.357l-0.163-0.42L146.027,105.689z"/>
		<path fill="#3D405B" d="M146.027,105.689c2.722-0.158,7.627,0.826,10.194,1.735c1.158,0.409,3.347,1.354,4.422,1.452
			c-0.917-0.004-1.51-0.092-2.374-0.37c-2.298-1.072-8.464-2.205-11.054-1.889l-0.039,0.271c-0.595-0.471-0.323-0.345-1.192-0.357
			l-0.163-0.42L146.027,105.689z"/>
		<path fill="#FFFFFF" d="M144.642,115.604l0.309-0.149c0.507,0.599,0.496,1.571,0.531,2.379l-0.196,0.338
			c0.214,0.935,0.572,2.176,0.947,3.062c-0.477,0.368-0.634,0.322-0.663,0.854c-0.052,0.96,0.447,2.373,0.727,3.298
			c-0.416,0.145-0.82,0.287-1.232,0.445c0.382,0.426,0.52,0.493,1.007,0.751c0.086,0.42,0.089,0.274-0.05,0.708
			c-2.789-1.012-6.182-3.728-5.092-7.269c0.624-2.03,1.682-2.102,3.378-2.882c0.332-0.433,0.282-0.745,0.32-1.303L144.642,115.604z"
			/>
		<path fill="#3D405B" d="M144.642,115.604l0.309-0.149c0.507,0.599,0.496,1.571,0.531,2.379l-0.196,0.338
			c-5.166,1.036-3.102,5.209-0.221,7.659c0.382,0.426,0.52,0.493,1.007,0.751c0.086,0.42,0.089,0.274-0.05,0.708
			c-2.789-1.012-6.182-3.728-5.092-7.269c0.624-2.03,1.682-2.102,3.378-2.882c0.332-0.433,0.282-0.745,0.32-1.303L144.642,115.604z"
			/>
		<path fill="#FFFFFF" d="M172.946,145.42c0.055-4.104-2.495-25-1.651-27.481c0.457-0.165,0.284-0.141,0.781-0.126
			c0.25,0.55,0.362,3.567,0.426,4.36c0.506,6.322,1.057,12.652,1.257,18.994c0.038,1.198,0.026,2.366,0.123,3.563l0.018,0.204
			l-0.305,0.431C173.31,145.404,173.234,145.427,172.946,145.42z"/>
		<path fill="#3D405B" d="M167.197,109.776c-3.046-0.933-6.196-1.688-9.283-2.419c-1.513-0.356-5.508-1.676-6.813-1.608
			c-0.771-0.282-1.594-0.565-2.353-0.867c0.438-0.346,1.046-0.492,1.55-0.398c5.684,1.053,11.542,2.921,17.132,4.512
			c0.199,0.111,0.11,0.023,0.24,0.298L167.197,109.776z"/>
		<path fill="#3D405B" d="M146.233,121.235c0.633,0.72,1.405,4.575,1.642,5.719c-0.713-0.134-0.828-0.665-1.361-1.307l-0.217-0.259
			c-0.279-0.925-0.779-2.337-0.727-3.298C145.599,121.557,145.757,121.603,146.233,121.235z"/>
		<path fill="#FFFFFF" d="M176.285,115.969c0.421,0.096,0.621,0.172,1.027,0.323c0.325,0.833,0.258,3.436,0.373,4.468
			c0.532,4.764,0.819,9.515,1.073,14.289c0.173,3.258,1.267,6.212,0.589,9.625l-0.372,0.112c-0.945-1.233-1.152-11.735-1.332-13.785
			C177.219,126.149,176.365,120.803,176.285,115.969z"/>
		<path fill="#3D405B" d="M189.652,105.742c1.622-0.519,4.781-1.038,6.49-1.318l-10.756,2.962c-1.15,0.313-3.217,0.945-4.172,0.875
			C182.432,107.496,187.791,106.202,189.652,105.742z"/>
		<path fill="#FFFFFF" d="M149.534,103.903c-0.413-1.637,2.15-7.74,3.115-9.262c2.941-4.635,6.03-12.086,10.857-14.864
			c2.423-1.395,6.896-2.222,9.446-3.226c2.703-1.066,8.364,0.275,10.594,1.726c6.431,4.186,11.222,16.328,13.227,23.486l2.576,0.196
			c-2.612,0.817-4.817,1.102-7.295,1.729c-5.007,1.268-14.881,4.05-17.637,8.58c-0.819,0.89-1.949,0.497-3.06,0.309l0.818-0.348
			c1.073-1.814-10.557-6.325-11.323-6.902C158.201,103.333,150.849,104.445,149.534,103.903z"/>
		<path fill="#3D405B" d="M149.534,103.903c-0.413-1.637,2.15-7.74,3.115-9.262c2.941-4.635,6.03-12.086,10.857-14.864
			c2.423-1.395,6.896-2.222,9.446-3.226c2.703-1.066,8.364,0.275,10.594,1.726c6.431,4.186,11.222,16.328,13.227,23.486
			c-3.855,0.421-5.474,1.368-8.718,1.936c-0.819-1.265-0.608-3.717-0.584-5.229c0.051-3.132-0.054-5.06-1.458-7.91l-1.166,0.847
			c-4.287-0.897-9.992-3.792-13.217-6.729c0.234,1.376,0.545,2.511,0.943,3.84c0.113,0.375-0.147,0.669-0.342,0.945
			c-2.052,0.943-6.536-3.209-7.845-4.713c-4.852,6.002-5.017,11.431-5.066,19.098C156.733,103.327,151.952,102.461,149.534,103.903z
			"/>
		<path fill="#3D405B" d="M196.773,101.762l2.576,0.196c-2.612,0.817-4.817,1.102-7.295,1.729c-5.007,1.268-14.881,4.05-17.637,8.58
			c-0.819,0.89-1.949,0.497-3.06,0.309l0.818-0.348c1.073-1.814-10.557-6.325-11.323-6.902c-2.652-1.993-10.005-0.881-11.319-1.423
			c2.418-1.442,7.199-0.576,9.787-0.057c3.806,1.004,11.019,4.421,13.879,7.15c0.729-0.542,1.348-1.087,2.048-1.647
			c3.592-2.875,8.438-4.469,12.808-5.65C191.3,103.13,192.918,102.183,196.773,101.762z"/>
		<path fill="#3D405B" d="M172.578,103.921c-1.843-0.479-3.925-3.77-2.891-5.319c0.677-0.289,0.463-0.198,1.348,0.031l0.357,0.755
			l-0.523,0.108c-0.589,1.168,0.893,2.814,1.854,3.395C172.627,103.342,172.604,103.464,172.578,103.921z"/>
		<path fill="#3D405B" d="M172.724,102.892c3.195,0.076,2.251-3.15,3.37-3.293c1.689,1.222-0.741,4.532-2.436,4.373
			c-0.346-0.033-0.727-0.028-1.08-0.051C172.604,103.464,172.627,103.342,172.724,102.892z"/>
		<path fill="#3D405B" d="M164.409,94.354c2.009,0.165,2.104,1.886,0.997,3.131c-0.58,0.065-0.539,0.053-1.054-0.239
			C163.604,96.275,163.74,95.327,164.409,94.354z"/>
		<path fill="#3D405B" d="M180.368,95.047c2.125-0.04,2.155,1.894,1.109,3.081C179.704,97.71,179.588,96.481,180.368,95.047z"/>
		<path fill="#3D405B" d="M171.035,98.633c0.143-0.74,0.188-1.537,0.693-2.054l0.349-0.042c0.703,1.023,0.208,2.151-0.685,2.851
			L171.035,98.633z"/>
		<path fill="#3D405B" d="M143.749,107.217c-0.114-0.711-0.238-0.913,0.242-1.412c0.66-0.239,1.328-0.145,2.036-0.116l-0.205,0.422
			l0.163,0.42c0.869,0.012,0.597-0.114,1.192,0.357c-0.364,0.33-0.474,0.364-0.945,0.504c-0.096,0.308-0.13,0.31-0.134,0.62
			l-0.545,0.503c0.17,0.269,0.059,0.185,0.306,0.287c-0.703,0.573-1.042,0.658-1.883,0.996
			C143.919,108.896,143.863,108.121,143.749,107.217z"/>
		<path fill="#3D405B" d="M143.749,107.217c-0.114-0.711-0.238-0.913,0.242-1.412c0.66-0.239,1.328-0.145,2.036-0.116l-0.205,0.422
			l-0.403-0.077c-0.33,0.512-0.208,0.832-0.635,1.241C144.364,107.274,144.165,107.273,143.749,107.217z"/>
		<path fill="#3D405B" d="M162.186,109.392c4.015,1.273,5.935,1.857,9.991,2.836l-0.818,0.348c-0.903-0.151-1.786-0.318-2.685-0.489
			c-0.934-0.268-1.944-0.515-2.891-0.762C165.317,111.156,162.467,109.762,162.186,109.392z"/>
		<path fill="#3D405B" d="M146.297,125.387l0.217,0.259c0.533,0.643,0.648,1.173,1.361,1.307c0.214,0.839,0.534,1.612,0.206,2.394
			c-0.883-0.976-0.791-1.452-2.059-2.056c0.139-0.434,0.136-0.288,0.05-0.708c-0.487-0.258-0.625-0.326-1.007-0.751
			C145.477,125.674,145.881,125.532,146.297,125.387z"/>
	</g>
	<g>
	</g>
	<g>
	</g>
	<g>
	</g>
	<g>
	</g>
	<g>
	</g>
	<g>
	</g>
	<g>
	</g>
	<g>
	</g>
	<g>
	</g>
	<g>
	</g>
	<g>
	</g>
	<g>
	</g>
	<g>
	</g>
	<g>
	</g>
	<g>
	</g>
</g>
</svg>
