<?xml version="1.0" encoding="utf-8"?>
<!-- Generator: Adobe Illustrator 16.0.0, SVG Export Plug-In . SVG Version: 6.00 Build 0)  -->
<!DOCTYPE svg PUBLIC "-//W3C//DTD SVG 1.1//EN" "http://www.w3.org/Graphics/SVG/1.1/DTD/svg11.dtd">
<svg version="1.1" xmlns="http://www.w3.org/2000/svg" xmlns:xlink="http://www.w3.org/1999/xlink" x="0px" y="0px" width="300px"
	 height="170px" viewBox="0 0 300 170" enable-background="new 0 0 300 170" xml:space="preserve">
<g id="圖層_2">
</g>
<g id="圖層_1">
	<polygon fill="#FFFFFF" points="54.699,40.074 60.088,69.917 62.033,74.132 98.928,85.109 101.556,85.109 109.035,80.725 
		120.729,76.326 121.325,62.436 122.315,40.074 119.341,23.02 109.035,25.598 98.928,21.534 90.477,31.046 75.969,30.555 
		68.301,39.257 	"/>
	<polygon fill="#FFFFFF" points="98.124,86.81 98.928,90.517 163.164,72.717 153.558,70.899 135.403,71.824 117.09,77.695 	"/>
	<polygon fill="#FFFFFF" points="122.212,42.408 126.232,38.834 129.355,39.776 130.247,44.337 125.676,50.734 121.794,51.828 	"/>
	<path fill="#E07A5F" d="M39.666,71.688l5.597,0.635c1.376-0.01,3.561,0.084,4.812-0.273c2.292-0.027,4.848,0.359,7.149,0.642
		c13.965,0.66,30.973,5.456,42.961,12.543l0.21,1.576l-0.01,0.29l-0.632,0.349l-0.072,0.393c1.056,0.095,1.161-0.023,2.152-0.496
		c2.345,0.281,22.579-7.125,26.314-8.004c11.56-2.72,24.312-5.474,36-7.189c-1.499,7.694-2.897,15.388-4.201,23.119
		c-0.127,0.758-0.796-0.019-0.691,1.216c0.847,0.181,1.359,0.264,2.219,0.372c5.507,2.286,8.149,6.354,10.384,11.636
		c0.936,2.213,1.466,3.724,3.031,5.561c1.098,1.716,1.542,2.732,2.384,4.583c0.324,1.321,0.942,3.578,1.122,4.84
		c0.391,2.183,0.822,5.079,1.365,7.173c0.071,1.866,0.128,3.171,0.631,4.966c0.08,2.431,0.202,4.95,0.173,7.375
		c-6.489,4.475-17.444,4.329-25.15,4.525c0.083,1.438,0.312,1.426-0.257,2.502c-1.773,0.988-9.277,2.562-11.64,3.11l-23.625,5.466
		c-6.281,1.513-22.149,6.578-28.21,5.53c-11.292-1.951-23.402-5.433-34.858-7.232c-4.29-0.788-18.375-2.918-20.731-5.003
		c-0.177,1.572-0.624,3.013-1.035,4.54c-4.396,0.86-9.782,1.36-14.385,1.616c-3.465,0.193-11.977,0.674-14.872-1.921
		c-1.146-1.027-0.756-3.219-0.621-4.711l0.734-4.337c0.932-2.887,2.11-5.944,3.154-8.813c0.701-1.728,1.357-3.311,2.141-5.003
		c1.176-2.457,2.11-4.726,3.522-7.064c0.561-1.433,0.721-1.717,1.602-2.981c1.452-2.528,2.232-4.383,3.375-7.047
		c0.603-1.47,1.013-2.128,1.823-3.475c2.333-4.235,5.722-11.102,8.404-14.96c0.694-0.258,0.955-0.368,1.675-0.51
		c0.704,0.538,0.654,0.527,1.114,1.298l1.337,1.104c0.022-0.743-0.309-4.496-0.362-5.461c0.388-1.444,0.458-1.933,0.582-3.427
		c0.77-1.395,0.907-1.683,2.045-2.776C36.971,86.669,39.217,73.924,39.666,71.688z"/>
	<path fill="#E9C9AD" d="M16.333,123.216c1.398,1.146,19.927,1.782,23.541,1.829c-0.294,1.242-0.549,2.372-0.937,3.594l-1.105,6.65
		l-0.685,3.477c0.229,1.93-0.401,6.299-1.151,8.136c-0.397,1.301-0.821,2.836-1.27,4.099l1.576,0.421l-0.208,0.469
		c-0.177,1.572-0.624,3.013-1.035,4.54c-4.396,0.86-9.782,1.36-14.385,1.616c-3.465,0.193-11.977,0.674-14.872-1.921
		c-1.146-1.027-0.756-3.219-0.621-4.711l0.734-4.337c0.932-2.887,2.11-5.944,3.154-8.813c0.701-1.728,1.357-3.311,2.141-5.003
		c1.176-2.457,2.11-4.726,3.522-7.064C15.292,124.764,15.451,124.48,16.333,123.216z"/>
	<path fill="#E9C9AD" d="M16.333,123.216c1.398,1.146,19.927,1.782,23.541,1.829c-0.294,1.242-0.549,2.372-0.937,3.594l-1.105,6.65
		c-1.203-0.776-22.354,0.348-26.623-2.028c1.176-2.457,2.11-4.726,3.522-7.064C15.292,124.764,15.451,124.48,16.333,123.216z"/>
	<path fill="#F4F1DE" d="M16.333,123.216c1.398,1.146,19.927,1.782,23.541,1.829c-0.294,1.242-0.549,2.372-0.937,3.594
		c-5.073-0.083-19.756-0.44-24.206-2.442C15.292,124.764,15.451,124.48,16.333,123.216z"/>
	<path fill="#E9C9AD" d="M5.18,151.415c10.217,0.696,19.379,0.222,29.545-0.414l1.576,0.421l-0.208,0.469
		c-0.177,1.572-0.624,3.013-1.035,4.54c-4.396,0.86-9.782,1.36-14.385,1.616c-3.465,0.193-11.977,0.674-14.872-1.921
		C4.654,155.099,5.045,152.907,5.18,151.415z"/>
	<path fill="#F4F1DE" d="M9.068,138.265c0.701-1.728,1.357-3.311,2.141-5.003c4.269,2.376,25.42,1.251,26.623,2.028l-0.685,3.477
		C29.544,140.818,16.636,140.108,9.068,138.265z"/>
	<path fill="#F4F1DE" d="M5.914,147.078c11.602,1.266,18.625,1.007,30.081-0.176c-0.397,1.301-0.821,2.836-1.27,4.099
		c-10.166,0.636-19.328,1.11-29.545,0.414L5.914,147.078z"/>
	<path fill="#E9C9AD" d="M174.889,114.056c1.098,1.716,1.542,2.732,2.384,4.583c0.324,1.321,0.942,3.578,1.122,4.84
		c0.391,2.183,0.822,5.079,1.365,7.173c0.071,1.866,0.128,3.171,0.631,4.966c0.08,2.431,0.202,4.95,0.173,7.375
		c-6.489,4.475-17.444,4.329-25.15,4.525c-0.232-5.85,1.633-23.292,3.39-28.533c3.973,0.427,8.252-2.234,12.048-3.903
		C172.829,115.348,172.989,114.872,174.889,114.056z"/>
	<path fill="#F4F1DE" d="M179.76,130.652c0.071,1.866,0.128,3.171,0.631,4.966l-0.557-0.169c-5.536,3.113-14.665,4.118-21.014,4.72
		c-1.299-0.768-1.803-1.11-2.271-2.645c0.354-0.64,0.239-0.713,1.057-0.886C161.48,135.813,178.341,134.157,179.76,130.652z"/>
	<path fill="#F4F1DE" d="M174.15,120.518c0.72,1.68,1.648,2.565,2.113,3.745c-3.233,1.91-14.935,6.084-17.902,4.452
		c-0.362-0.778-0.154-2.383-0.108-3.317C163.749,124.824,169.24,123.011,174.15,120.518z"/>
	<path fill="#F4F1DE" d="M177.272,118.639c0.324,1.321,0.942,3.578,1.122,4.84l-2.131,0.785c-0.465-1.18-1.394-2.065-2.113-3.745
		C175.204,119.949,176.252,119.272,177.272,118.639z"/>
	<path fill="#FFFFFF" d="M33.7,94.165c0.985,0.897,1.113,1.094,1.609,2.333c0.083-0.273,0.214-0.681,0.285-0.951l0.375,0.911
		c2.43,0.277,3.57-1.285,5.895,0.334c0.191,0.498,0.36,0.944,0.533,1.45c2.532-1.122,3.32-0.359,5.51,1.329l0.392,0.991
		c-0.628,0.92-1.286,1.574-1.206,2.624l0.384,0.727c0.56,0.451,1.076,0.851,1.592,1.355c-1.446,1.165-6.975,5.013-7.664,6.046
		l-0.035,0.622c2.629,1.848,6.611-3.998,9.234-3.64l0.202,0.462c-0.904,2.227-4.364,3.18-5.997,5.286
		c2.004,1.455,5.119-1.643,7.401-1.552c-0.035,3.038-5.99,3.943-8.042,5.247c-1.786,1.135-3.277,3.145-4.869,4.463
		c0.244,0.86,0.66,2.002,0.575,2.843c-3.614-0.047-22.143-0.684-23.541-1.829c1.452-2.528,2.232-4.383,3.375-7.047
		c0.603-1.47,1.013-2.128,1.823-3.475c2.333-4.235,5.722-11.102,8.404-14.96c0.694-0.258,0.955-0.368,1.675-0.51
		c0.704,0.538,0.654,0.527,1.114,1.298l1.337,1.104C34.083,98.883,33.752,95.13,33.7,94.165z"/>
	<path fill="#E9C9AD" d="M29.935,97.734c0.694-0.258,0.955-0.368,1.675-0.51c0.704,0.538,0.654,0.527,1.114,1.298l1.337,1.104
		l1.245-0.621c0.779,0.489,0.429,0.192,0.893,1.124c-1.75,2.617-3.102,4.638-4.463,7.515c-0.901,1.904-1.641,4.282-2.629,5.993
		l-1.389,3.319c2.362,2.632,8.2,4.994,11.58,5.247c0.244,0.86,0.66,2.002,0.575,2.843c-3.614-0.047-22.143-0.684-23.541-1.829
		c1.452-2.528,2.232-4.383,3.375-7.047c0.603-1.47,1.013-2.128,1.823-3.475C23.864,108.459,27.252,101.592,29.935,97.734z"/>
	<path fill="#3D405B" d="M32.724,98.522l1.337,1.104l1.245-0.621c0.779,0.489,0.429,0.192,0.893,1.124
		c-1.75,2.617-3.102,4.638-4.463,7.515c-0.901,1.904-1.641,4.282-2.629,5.993c-0.627-0.835-0.667-3.519-0.539-4.558
		c0.412-1.715,0.951-2.81,1.652-4.411C31.319,103.194,32.635,100.386,32.724,98.522z"/>
	<path fill="#F4F1DE" d="M21.531,112.694c1.528,1.018,2.955,1.472,4.684,2.07c0.012,0.884,0.017,1.768,0.053,2.65
		c-2.19-0.397-4.383-0.783-6.561-1.245C20.311,114.699,20.721,114.041,21.531,112.694z"/>
	<path fill="#F4F1DE" d="M28.568,109.079l-0.437-0.137c-1.267-1.46-1.829-2.442-0.316-4.069c0.975-0.486,1.326-0.339,2.405-0.205
		C29.52,106.27,28.98,107.364,28.568,109.079z"/>
	<path fill="#3D405B" d="M33.7,94.165c0.985,0.897,1.113,1.094,1.609,2.333c0.083-0.273,0.214-0.681,0.285-0.951l0.375,0.911
		c2.43,0.277,3.57-1.285,5.895,0.334c0.191,0.498,0.36,0.944,0.533,1.45c-0.029,0.29,0.415,2.39,0.728,2.698l0.729-0.079
		c-3.947,1.942-4.64,5.487-7.955,6.892l-0.44-0.271c0.505-3.706,4.277-6.94,4.577-8.76l-0.374-0.401
		c-1.914-0.079-2.267,0.452-3.461,1.807c-0.464-0.932-0.114-0.635-0.893-1.124l-1.245,0.621C34.083,98.883,33.752,95.13,33.7,94.165
		z"/>
	<path fill="#3D405B" d="M42.396,98.243c2.532-1.122,3.32-0.359,5.51,1.329l0.392,0.991c-0.628,0.92-1.286,1.574-1.206,2.624
		l0.384,0.727c-0.013,0.009-0.559,0.366-0.58,0.373c-2.738,0.928-5.973,5.642-8.471,5.623l-0.315-0.395
		c0.113-3.386,7.43-5.847,7.462-7.904c-0.726-0.674-0.719-0.594-1.72-0.747l-0.729,0.079
		C42.811,100.633,42.367,98.532,42.396,98.243z"/>
	<path fill="#FFFFFF" d="M161.474,96.859c5.507,2.286,8.149,6.354,10.384,11.636c0.936,2.213,1.466,3.724,3.031,5.561
		c-1.899,0.815-2.06,1.292-4.038,1.025c-3.796,1.669-8.075,4.33-12.048,3.903c0.293-0.815,0.545-2.071,0.749-2.954
		c-0.285-0.634-0.451-0.847-0.847-1.427c-1.789-0.819-8.803-0.383-11.187-0.394c-4.205,0.605-1.987-2.205-5.975-1.833l-0.337-3.812
		C139.068,97.841,154.541,97.489,161.474,96.859z"/>
	<path fill="#3D405B" d="M161.474,96.859c5.507,2.286,8.149,6.354,10.384,11.636c0.936,2.213,1.466,3.724,3.031,5.561
		c-1.899,0.815-2.06,1.292-4.038,1.025c2.187-3.205,1.107-4.624-0.879-7.863c-2.229-3.64-5.267-6.333-8.815-8.648
		c-3.778,0.905-15.091,1.64-16.625,5.436c1.491,0.243,3.666-1.437,5.866-1.161c1.294,0.162,4.73,0.335,5.658,1.367
		c-1.52,1.675-8.127,0.622-11.929,3.22c-0.596,0.253-2.346,1.014-2.92,1.134C139.068,97.841,154.541,97.489,161.474,96.859z"/>
	<path fill="#3D405B" d="M144.127,107.432c2.392,0.271,5.685-1.031,7.407-0.005c0.078,0.217,0.244,0.621,0.274,0.829l0.272,0.812
		l0.675,0.31l-1.254,0.372c-3.462,0.367-4.159,0.265-7.332,1.737l0.591,0.297c-0.015,0.572-0.041,1.158-0.036,1.729l2.793,0.697
		c-4.205,0.605-1.987-2.205-5.975-1.833l-0.337-3.812C141.781,108.446,143.531,107.685,144.127,107.432z"/>
	<path fill="#F3F2EF" d="M144.17,111.487l-0.88-0.059l0.155-0.511c1.895-1.358,5.881-2.051,8.364-2.662l0.272,0.812l0.675,0.31
		l-1.254,0.372C148.04,110.116,147.343,110.014,144.17,111.487z"/>
	<path fill="#3D405B" d="M151.502,109.75c0.067,1.034-0.191,1.524,0.875,1.956c-2.265,0.344-5.702,0.735-7.652,1.808
		c-0.004-0.571,0.021-1.157,0.036-1.729l-0.591-0.297C147.343,110.014,148.04,110.116,151.502,109.75z"/>
	<path fill="#3D405B" d="M152.756,109.377c1.273,0.101,1.534,0.036,2.577,0.682l0.281,0.533c-0.836,1.318-1.72,1.067-3.237,1.113
		c-1.066-0.432-0.808-0.921-0.875-1.956L152.756,109.377z"/>
	<path fill="#FFFFFF" d="M45.263,72.323c1.376-0.01,3.561,0.084,4.812-0.273c2.292-0.027,4.848,0.359,7.149,0.642
		c13.965,0.66,30.973,5.456,42.961,12.543l0.21,1.576l-0.793-0.123c-0.212,0.756-0.157,0.774-0.68,1.337
		c-3.97,0.524-21.519-6.955-26.75-8.315c-5.612-1.458-12.116-3.197-17.798-4.699C51.21,74.174,48.311,72.831,45.263,72.323z"/>
	<path fill="#3D405B" d="M57.224,72.691c13.965,0.66,30.973,5.456,42.961,12.543l0.21,1.576l-0.793-0.123
		c-3.483-0.898-11.229-4.842-15.259-6.28c-9.286-3.313-18.607-5.464-28.329-7.022L57.224,72.691z"/>
	<path fill="#393E40" d="M50.074,72.049c2.292-0.027,4.848,0.359,7.149,0.642l-1.21,0.694
		C54.277,73.115,51.608,72.744,50.074,72.049z"/>
	<path fill="#3D405B" d="M50.693,103.508c1.244,2.431,4.685,8.644,3.888,11.148c-0.415,1.304-1.651,2.337-2.872,2.859
		c-4.696,2.006-5.955,1.834-9.717,5.418c-0.332,3.348-4.461,25.856-5.691,28.488l-1.576-0.421c0.449-1.263,0.873-2.798,1.27-4.099
		c0.75-1.837,1.38-6.206,1.151-8.136l0.685-3.477l1.105-6.65c0.388-1.222,0.643-2.352,0.937-3.594
		c0.085-0.841-0.331-1.983-0.575-2.843c1.592-1.318,3.083-3.328,4.869-4.463c2.052-1.304,8.007-2.209,8.042-5.247
		c-2.282-0.091-5.396,3.006-7.401,1.552c1.632-2.105,5.093-3.059,5.997-5.286l-0.202-0.462c-2.624-0.357-6.605,5.488-9.234,3.64
		l0.035-0.622c0.689-1.033,6.218-4.881,7.664-6.046C49.354,105.018,50.383,103.848,50.693,103.508z"/>
	<path fill="#3D405B" d="M141.544,112.377c3.987-0.372,1.77,2.438,5.975,1.833c2.384,0.011,9.397-0.425,11.187,0.394
		c0.396,0.58,0.562,0.793,0.847,1.427c-5.048,0.323-10.724,0.58-15.718,0.039c-0.873-0.846-1.722-1.548-2.621-2.445
		C141.153,112.683,141.02,113.078,141.544,112.377z"/>
	<path fill="#3D405B" d="M36.327,87.962c0.942,1.952-0.208,5.31-0.733,7.585c-0.07,0.27-0.202,0.678-0.285,0.951
		c-0.496-1.24-0.625-1.436-1.609-2.333c0.388-1.444,0.458-1.933,0.582-3.427C35.051,89.343,35.188,89.055,36.327,87.962z"/>
	<path fill="#3D405B" d="M48.298,100.563c0.763,1.384,1.691,1.846,2.395,2.946c-0.31,0.339-1.338,1.509-1.625,1.76
		c-0.517-0.505-1.032-0.904-1.592-1.355l-0.384-0.727C47.013,102.137,47.67,101.482,48.298,100.563z"/>
	<path fill="#F3F2EF" d="M96.219,90.517c0.82,0.191,0.502-0.035,1.046,0.557c0.2,2.637-0.524,9.251-0.752,12.252l-2.362,28.752
		c-0.331,4.478-1.028,8.219-1.565,12.796c-0.589,5.013-0.726,10.74-1.941,15.738c-0.145,0.594-0.881,1.214-1.35,1.619
		c-0.76-0.066-0.438,0.084-0.972-0.436c-0.727-4.514,0.605-11.19,0.899-15.988c0.879-14.32,3.001-28.542,4.594-42.773
		C94.101,100.5,95,91.686,96.219,90.517z"/>
	<path fill="#F3F2EF" d="M105.771,91.978c0.653,0.306,0.433,0.153,0.907,0.704c-0.261,12.061-1.216,24.961-2.559,36.929
		c-0.671,5.992-0.794,23.741-3.697,28.241l-0.419-0.177C99.094,154.195,104.549,95.14,105.771,91.978z"/>
	<path fill="#E07A5F" d="M265.377,109.278c4.494-1.402,22.631-7.419,25.955-5.276c1.083,0.698,1.471,2.211,1.588,3.41
		c0.27,2.772-0.147,6.946-0.815,9.679l-0.105,1.482c2.064,0.116,2.445,0.694,3.959,2.101c0.978,5.296,0.485,8.083-5.202,9.562
		c-0.211,3.799-0.646,15.228-1.769,18.157c-1.746,1.049-4.058,1.494-6.004,2.154c-5.904,2-11.968,4.232-17.693,6.674
		c-4.803,2.047-8.035,3.047-13.346,2.517l-3.708-0.873c-1.345-0.454-4.009-0.883-5.491-1.24c-7.085-1.708-14.044-2.259-21.195-3.755
		c-0.704-2.353-3.498-18.002-3.554-18.088c0.424-1.008,0.011-2.003-0.265-3.085c-0.919-0.173-1.067-0.857-1.755-1.685l-0.279-0.334
		c-0.536,0.187-1.057,0.369-1.588,0.574c0.492,0.548,0.67,0.635,1.298,0.969c0.11,0.541,0.114,0.354-0.064,0.911
		c-3.595-1.305-7.968-4.805-6.563-9.369c0.804-2.617,2.168-2.708,4.354-3.715c0.428-0.557,0.364-0.959,0.413-1.679l0.018-0.3
		c-0.271-1.072-0.712-6.079-0.856-7.485c1.084-0.436,1.521-0.544,2.427-1.284c-0.318-0.13-0.175-0.023-0.395-0.369l0.702-0.649
		c0.005-0.399,0.049-0.402,0.173-0.798c0.607-0.181,0.748-0.225,1.218-0.65c-0.767-0.607-0.417-0.444-1.536-0.46l-0.21-0.541
		l0.264-0.545c3.509-0.202,9.831,1.065,13.141,2.237c1.492,0.527,4.313,1.745,5.699,1.872c0.537,0.208,1.47,0.625,1.987,0.665
		c0.362,0.477,4.036,2.274,4.637,2.491c1.22,0.319,2.522,0.637,3.727,0.983c1.158,0.221,2.296,0.435,3.46,0.631
		c1.431,0.242,2.888,0.747,3.943-0.399l0.355,0.047C257.186,112.238,260.049,110.657,265.377,109.278z"/>
	<path fill="#3D405B" d="M291.999,118.573c2.064,0.116,2.445,0.694,3.959,2.101c0.978,5.296,0.485,8.083-5.202,9.562
		c-1.33,0.092-1.925-0.214-3.126-0.693c0.394-2.758,0.752-7.345,1.354-10.089c0.315-0.297,0.584-0.55,0.805-0.759L291.999,118.573z"
		/>
	<path fill="#FFFFFF" d="M290.859,120.458c4.372,0.003,3.721,2.195,3.331,5.654c-0.727,0.87-1.111,1.21-1.972,1.959
		c-0.997,0.247-1.491,0.349-2.509,0.457l-0.173-0.32C289.545,126.737,290.113,121.631,290.859,120.458z"/>
	<path fill="#3D405B" d="M215.35,105.287c3.509-0.202,9.831,1.065,13.141,2.237c1.492,0.527,4.313,1.745,5.699,1.872
		c0.537,0.208,1.47,0.625,1.987,0.665c0.362,0.477,4.036,2.274,4.637,2.491c-2.032,0.162-8.352-1.311-10.733-1.684
		c-4.862-0.763-9.825-1.558-14.639-2.586c0.005-0.399,0.049-0.402,0.173-0.798c0.607-0.181,0.748-0.225,1.218-0.65
		c-0.767-0.607-0.417-0.444-1.536-0.46l-0.21-0.541L215.35,105.287z"/>
	<path fill="#F3F2EF" d="M215.35,105.287c3.509-0.202,9.831,1.065,13.141,2.237c1.492,0.527,4.313,1.745,5.699,1.872
		c-1.183-0.007-1.946-0.12-3.061-0.477c-2.875,0.129-10.604-1.177-13.793-1.737c-0.296-0.052-0.313-0.342-0.454-0.698l-0.05,0.35
		c-0.767-0.607-0.417-0.444-1.536-0.46l-0.21-0.541L215.35,105.287z"/>
	<path fill="#3D405B" d="M215.35,105.287c3.509-0.202,9.831,1.065,13.141,2.237c1.492,0.527,4.313,1.745,5.699,1.872
		c-1.183-0.007-1.946-0.12-3.061-0.477c-2.961-1.382-10.909-2.842-14.247-2.435l-0.05,0.35c-0.767-0.607-0.417-0.444-1.536-0.46
		l-0.21-0.541L215.35,105.287z"/>
	<path fill="#FFFFFF" d="M213.563,118.067l0.398-0.193c0.653,0.773,0.64,2.026,0.685,3.068l-0.252,0.436
		c0.276,1.205,0.737,2.805,1.221,3.946c-0.614,0.475-0.817,0.416-0.854,1.103c-0.067,1.237,0.576,3.058,0.937,4.25
		c-0.536,0.187-1.057,0.369-1.588,0.574c0.492,0.548,0.67,0.635,1.298,0.969c0.11,0.541,0.114,0.354-0.064,0.911
		c-3.595-1.305-7.968-4.805-6.563-9.369c0.804-2.617,2.168-2.708,4.354-3.715c0.428-0.557,0.364-0.959,0.413-1.679L213.563,118.067z
		"/>
	<path fill="#3D405B" d="M213.563,118.067l0.398-0.193c0.653,0.773,0.64,2.026,0.685,3.068l-0.252,0.436
		c-6.658,1.335-3.998,6.713-0.285,9.873c0.492,0.548,0.67,0.635,1.298,0.969c0.11,0.541,0.114,0.354-0.064,0.911
		c-3.595-1.305-7.968-4.805-6.563-9.369c0.804-2.617,2.168-2.708,4.354-3.715c0.428-0.557,0.364-0.959,0.413-1.679L213.563,118.067z
		"/>
	<path fill="#FFFFFF" d="M250.047,156.498c0.07-5.289-3.216-32.224-2.129-35.422c0.59-0.213,0.366-0.182,1.007-0.162
		c0.322,0.709,0.467,4.598,0.549,5.62c0.652,8.148,1.362,16.308,1.62,24.481c0.049,1.544,0.034,3.05,0.158,4.593l0.023,0.263
		l-0.393,0.556C250.515,156.478,250.418,156.507,250.047,156.498z"/>
	<path fill="#FFFFFF" d="M215.441,108.281c4.813,1.028,9.776,1.823,14.639,2.586c2.382,0.374,8.701,1.846,10.733,1.684
		c1.22,0.319,2.522,0.637,3.727,0.983c-0.66,0.469-1.598,0.692-2.391,0.6c-8.931-1.032-18.192-3.105-27.016-4.835
		c-0.318-0.13-0.175-0.023-0.395-0.369L215.441,108.281z"/>
	<path fill="#3D405B" d="M215.615,125.324c0.816,0.929,1.812,5.897,2.116,7.372c-0.919-0.173-1.067-0.857-1.755-1.685l-0.279-0.334
		c-0.36-1.193-1.004-3.013-0.937-4.25C214.798,125.739,215.001,125.799,215.615,125.324z"/>
	<path fill="#FFFFFF" d="M254.35,118.537c0.543,0.125,0.801,0.223,1.324,0.417c0.42,1.073,0.333,4.429,0.481,5.759
		c0.686,6.14,1.057,12.263,1.383,18.417c0.223,4.199,1.633,8.007,0.76,12.406l-0.479,0.144c-1.219-1.589-1.485-15.126-1.717-17.767
		C255.554,131.659,254.453,124.767,254.35,118.537z"/>
	<path fill="#FFFFFF" d="M282.396,106.358c1.243-0.306,3.591-0.057,4.86,0.078l-8.172,1.208c-0.873,0.121-2.452,0.463-3.127-0.002
		C276.946,106.766,280.991,106.477,282.396,106.358z"/>
	<path fill="#FFFFFF" d="M219.87,102.985c-0.532-2.11,2.771-9.977,4.016-11.939c3.791-5.974,7.772-15.578,13.994-19.159
		c3.123-1.798,8.888-2.863,12.176-4.159c3.484-1.374,10.78,0.355,13.654,2.225c8.289,5.394,14.465,21.044,17.048,30.272l3.321,0.252
		c-3.367,1.054-6.21,1.42-9.403,2.229c-6.453,1.634-19.18,5.221-22.732,11.059c-1.056,1.146-2.513,0.641-3.943,0.399l1.055-0.45
		c1.383-2.337-13.606-8.152-14.595-8.895C231.041,102.25,221.564,103.684,219.87,102.985z"/>
	<path fill="#3D405B" d="M219.87,102.985c-0.532-2.11,2.771-9.977,4.016-11.939c3.791-5.974,7.772-15.578,13.994-19.159
		c3.123-1.798,8.888-2.863,12.176-4.159c3.484-1.374,10.78,0.355,13.654,2.225c8.289,5.394,14.465,21.044,17.048,30.272
		c-4.969,0.542-7.055,1.762-11.236,2.496c-1.056-1.632-0.784-4.792-0.753-6.74c0.066-4.038-0.069-6.522-1.879-10.196l-1.503,1.091
		c-5.526-1.156-12.88-4.887-17.036-8.673c0.303,1.774,0.703,3.237,1.217,4.949c0.146,0.484-0.19,0.863-0.44,1.218
		c-2.645,1.215-8.425-4.136-10.112-6.076c-6.253,7.737-6.466,14.734-6.529,24.617C229.149,102.242,222.986,101.126,219.87,102.985z"
		/>
	<path fill="#3D405B" d="M280.758,100.226l3.321,0.252c-3.367,1.054-6.21,1.42-9.403,2.229c-6.453,1.634-19.18,5.221-22.732,11.059
		c-1.056,1.146-2.513,0.641-3.943,0.399l1.055-0.45c1.383-2.337-13.606-8.152-14.595-8.895c-3.419-2.569-12.896-1.136-14.59-1.834
		c3.116-1.859,9.279-0.743,12.615-0.074c4.904,1.294,14.202,5.698,17.889,9.215c0.94-0.698,1.736-1.4,2.64-2.123
		c4.629-3.705,10.876-5.76,16.508-7.283C273.703,101.988,275.789,100.768,280.758,100.226z"/>
	<path fill="#505654" d="M249.572,103.008c-2.375-0.618-5.06-4.859-3.726-6.855c0.872-0.373,0.597-0.255,1.736,0.04l0.461,0.974
		l-0.675,0.14c-0.759,1.506,1.15,3.628,2.391,4.376C249.635,102.262,249.604,102.419,249.572,103.008z"/>
	<path fill="#393E40" d="M249.76,101.682c4.118,0.098,2.901-4.062,4.344-4.245c2.178,1.574-0.955,5.842-3.139,5.636
		c-0.446-0.042-0.938-0.036-1.393-0.065C249.604,102.419,249.635,102.262,249.76,101.682z"/>
	<path fill="#393E40" d="M239.043,90.677c2.589,0.211,2.711,2.431,1.285,4.037c-0.748,0.084-0.695,0.067-1.358-0.308
		C238.004,93.153,238.181,91.931,239.043,90.677z"/>
	<path fill="#393E40" d="M259.613,91.57c2.739-0.051,2.778,2.442,1.43,3.972C258.757,95.002,258.607,93.419,259.613,91.57z"/>
	<path fill="#393E40" d="M247.583,96.192c0.185-0.954,0.243-1.981,0.895-2.648l0.449-0.053c0.906,1.32,0.268,2.772-0.883,3.675
		L247.583,96.192z"/>
	<path fill="#3D405B" d="M94.372,4.01c5.7-0.697,13.549-0.402,17.998,3.536c6.581,5.827,8.303,12.678,9.148,21.085
		c0.384,3.834,1.035,7.664,1.317,11.615c2.941-4.491,8.837-2.048,8.298,3.16c-0.344,3.326-3.867,8.023-7.328,7.532
		c-0.702-1.572,5.553-4.707,5.255-7.542c-0.209-2-0.837-3.464-3.032-3.561c-1.38,0.547-2.291,1.976-2.527,3.409
		c-1.24,7.522-0.5,15.324-1.518,22.916c-0.273,2.034,0.028,4.04-0.918,5.933c-0.853,0.661-0.383,0.507-1.451,0.488
		c-0.351-0.598-0.429-1.253-0.352-1.936c0.852-8.108,1.815-16.458,1.87-24.614c0.045-6.835-1.261-14.235-2.57-20.899
		c-6.478,4.442-13.006,3.582-19.368-0.607c-3.732,5.542-6.025,8.982-13.408,9.831c-3.846,0.442-6.202,0.836-10.064-0.218
		c-6.006,8.572-10.055,8.244-19.662,7.984c0.628,3.395,5.805,27.654,3.88,28.905c-1.231-0.657-0.79-1.852-1.745-2.35
		c-1.597-0.842-3.583-0.998-5.28-1.529c-6.77-2.117-7.626-13.368-0.327-15.513c1.271-0.374,1.313,0.023,2.427,0.674l0.339-0.213
		c-0.395-7.567-4.564-12.723-4.856-19.778C49.713,13.287,69.27,9.32,83.821,5.864C87.344,5.027,90.706,4.131,94.372,4.01z"/>
	<path fill="#FFFFFF" d="M52.461,53.867c0.789-0.06,1.91-0.177,2.486,0.37c2.158,2.05,2.539,8.821,2.782,11.564
		c-0.73,0.219-0.837,0.021-1.715-0.233C50.223,63.825,46.352,57.658,52.461,53.867z"/>
	<path fill="#FFFFFF" d="M83.198,11.162c0.683,0.342,1.396,0.529,1.557,1.356c0.877,4.536-2.367,12.852-4.216,16.513
		c-1.172,0.056-0.812,0.269-1.516-0.235C79.088,27.51,82.762,12.107,83.198,11.162z"/>
	<path fill="#FFFFFF" d="M73.509,14.236l0.255,0.315c-0.692,4.705-1.543,16.02-5.096,19.469c-1.457-1.476,1.807-14.954,2.976-17.238
		C71.981,16.125,73.007,14.833,73.509,14.236z"/>
	<path fill="#FFFFFF" d="M63.703,18.399c0.336,2.095-3.496,9.416-4.228,11.863c-0.444,1.489-0.421,4.625-1.015,5.652l-1.196,0.163
		C54.449,31.695,59.532,21.277,63.703,18.399z"/>
	<path fill="#FFFFFF" d="M90.78,8.178c0.908,0.096,0.884,0.097,1.731,0.449c2.807,3.354,2.068,14.046-0.559,17.638
		c-0.691,0.268-0.799,0.284-1.518,0.459c-0.857-0.67,1.179-4.728,1.241-6.084C91.864,16.472,91.483,12.28,90.78,8.178z"/>
	<path fill="#FFFFFF" d="M100.161,7.814c0.288,0.173,1.002,0.593,1.103,0.866c0.632,1.736,2.557,10.182,2.265,11.354l-0.676,0.324
		c-2.82-2.136-4.09-8.27-3.906-11.716C98.964,8.29,99.828,7.986,100.161,7.814z"/>
	<path fill="#FFFFFF" d="M108.371,10.052c3.11,1.058,7.224,6.547,6.362,9.928c-0.51,0.12-0.397,0.08-0.938,0.047
		C112.253,18.591,109.148,12.158,108.371,10.052z"/>
	<path fill="#FFFFFF" d="M106.776,14.992c2.228,0.904,2.347,4.553,2.228,6.542C107.743,20.506,107.06,16.627,106.776,14.992z"/>
	<path fill="#3D405B" d="M104.961,82.288c8.414-6.238,31.379-11.958,41.937-12.194l0.645,0.42c0.117,0.838,0.144,0.555-0.004,1.365
		c-14.663,0.936-26.417,4.282-39.606,10.604c-0.329,0.157-1.838,0.027-2.288-0.001L104.961,82.288z"/>
	<path fill="#3D405B" d="M91.671,42.653c2.131,1.412,2.128,6.076,3.592,8.163c1.78,2.539,6.198,3.379,4.951,7.458
		c-1.155,3.776-3.904,4.789-7.553,3.812c-0.754-0.772-1.292-1.298-1.138-2.401c1.75-0.897,4.346,1.202,6.146-1.215
		c0.016-0.148,0.133-1.232,0.133-1.232C94.829,52.792,89.347,49.21,91.671,42.653z"/>
	<path fill="#3D405B" d="M84.338,65.934c3.764,0.195,3.169,4.162,6.787,5.869c4.49,2.119,6.233-1.999,9.464-3.042
		c0.813,0.436,0.558,0.321,0.967,1.48C97.622,77.015,84.411,74.543,84.338,65.934z"/>
	<path fill="#3D405B" d="M71.59,49.904c4.524-0.048,5.708,4.405,2.777,7.327c-1.936,0.478-2.908-0.867-4.15-2.106
		C70.566,52.861,70.694,52.015,71.59,49.904z"/>
	<path fill="#3D405B" d="M107.384,43.075c4.152,0.289,5.471,4.108,2.348,6.993C105.543,50.778,104.758,45.689,107.384,43.075z"/>
	<path fill="#3D405B" d="M212.413,107.256c-0.146-0.916-0.307-1.177,0.313-1.82c0.851-0.308,1.711-0.187,2.624-0.15l-0.264,0.545
		l0.21,0.541c1.119,0.016,0.77-0.147,1.536,0.46c-0.47,0.425-0.61,0.469-1.218,0.65c-0.124,0.396-0.168,0.399-0.173,0.798
		l-0.702,0.649c0.22,0.346,0.076,0.238,0.395,0.369c-0.906,0.739-1.343,0.848-2.427,1.284
		C212.633,109.42,212.56,108.421,212.413,107.256z"/>
	<path fill="#3D405B" d="M212.413,107.256c-0.146-0.916-0.307-1.177,0.313-1.82c0.851-0.308,1.711-0.187,2.624-0.15l-0.264,0.545
		l-0.52-0.099c-0.425,0.659-0.268,1.071-0.818,1.6C213.206,107.33,212.949,107.329,212.413,107.256z"/>
	<path fill="#3D405B" d="M104.961,82.288l0.683,0.194l1.2,0.513c-0.53,1.448-3.225,2.324-5.012,4.352
		c-0.991,0.473-1.096,0.591-2.152,0.496l0.072-0.393l0.632-0.349l0.01-0.29l-0.21-1.576
		C102.092,84.185,103.197,83.542,104.961,82.288z"/>
	<path fill="#3D405B" d="M236.177,110.06c5.175,1.642,7.649,2.394,12.878,3.655l-1.055,0.45c-1.164-0.196-2.302-0.41-3.46-0.631
		c-1.204-0.346-2.507-0.664-3.727-0.983C240.213,112.333,236.539,110.536,236.177,110.06z"/>
	<path fill="#3D405B" d="M151.678,70.243c1.46-0.624,6.854-0.077,8.348,0.758c-0.673,0.97-7.497,0.708-9.029,0.823
		c-0.771-0.19-0.526-0.053-1.103-0.625C150.489,70.425,150.541,70.619,151.678,70.243z"/>
	<path fill="#F4F1DE" d="M34.282,90.738c-0.124,1.494-0.194,1.982-0.582,3.427c0.053,0.966,0.384,4.719,0.362,5.461l-1.337-1.104
		c-0.46-0.771-0.41-0.76-1.114-1.298c-0.721,0.142-0.981,0.251-1.675,0.51C31.437,95.593,32.838,93.008,34.282,90.738z"/>
	<path fill="#3D405B" d="M215.697,130.677l0.279,0.334c0.688,0.828,0.836,1.512,1.755,1.685c0.275,1.082,0.688,2.078,0.265,3.085
		c-1.139-1.258-1.02-1.871-2.653-2.651c0.179-0.558,0.175-0.371,0.064-0.911c-0.628-0.333-0.806-0.42-1.298-0.969
		C214.641,131.046,215.161,130.863,215.697,130.677z"/>
	<path fill="#3D405B" d="M146.898,70.093c1.74-0.157,3.062-0.36,4.78,0.149c-1.137,0.376-1.188,0.182-1.785,0.957
		c0.577,0.571,0.333,0.434,1.103,0.625c-1.187,0.053-2.268,0.061-3.457,0.055c0.148-0.81,0.121-0.526,0.004-1.365L146.898,70.093z"
		/>
	<g>
	</g>
	<g>
	</g>
	<g>
	</g>
	<g>
	</g>
	<g>
	</g>
	<g>
	</g>
	<g>
	</g>
	<g>
	</g>
	<g>
	</g>
	<g>
	</g>
	<g>
	</g>
	<g>
	</g>
	<g>
	</g>
	<g>
	</g>
	<g>
	</g>
</g>
</svg>
