<?xml version="1.0" encoding="utf-8" ?><svg xmlns="http://www.w3.org/2000/svg" xmlns:xlink="http://www.w3.org/1999/xlink" width="50" height="50" viewBox="0 0 50 50"><path fill="#3D405B" transform="scale(0.0976562 0.0976562)" d="M186.443 99.0015C182.026 107.097 171.492 104.13 162.296 103.991C144.647 103.726 126.532 104.35 108.975 103.992C104.882 107.379 106.289 112.814 106.302 117.702L106.313 325.462C106.311 331.585 106.256 337.735 106.439 343.837C106.732 353.588 121.951 350.815 128.867 350.811L161.186 350.801C188.992 350.8 223.596 352.309 246.511 369.824L246.504 235.3C246.502 228.69 243.798 211.999 253.265 211.826L253.761 211.826C263.465 213.696 260.339 227.63 260.336 236.012L260.328 369.824C281.281 356.129 309.343 351.401 333.969 351.501C340.521 351.528 348.147 349.378 351.385 356.342C352.733 368.538 338.996 365.413 331.234 365.556C310.917 365.93 274.532 371.201 260.328 388.004L260.393 389.221C261.378 408.291 245.11 401.357 246.457 391.971C246.58 391.11 246.495 388.912 246.511 388.004C227.412 365.965 186.389 364.731 159.561 364.745L114.094 364.743C96.6296 364.775 92.7465 352.255 92.7366 337.663L92.7365 152.133C92.7317 147.525 92.5511 142.068 92.7401 137.532C92.7143 135.326 92.6131 132.649 92.7401 130.48C83.7925 129.82 79.0495 129.753 78.2497 140.125C78.9714 149.996 77.7976 160.212 78.2927 170.146C78.6251 176.816 79.9307 181.195 71.7102 182.406C62.1847 180.208 64.5088 172.263 64.5323 163.879L64.5226 145.624C64.5457 122.941 70.9567 116.61 92.7401 116.772C92.0281 96.8202 97.1852 90.3548 117.531 90.3155L174.906 90.3798C181.46 90.4278 186.93 90.5135 186.443 99.0015Z"/><path fill="#3D405B" transform="scale(0.0976562 0.0976562)" d="M229.172 110.968C231.816 95.0692 248.543 108.5 253.761 115.902C275.035 92.6914 313.156 90.2949 342.985 90.3108L390.022 90.2958C402.569 90.2806 417.219 91.3286 417.744 108.367C417.829 111.149 417.844 114.033 418.22 116.772C446.602 118.211 446.877 127.093 446.878 154.308L446.874 273.235C446.873 279.898 449.041 290.982 440.253 292.542C430.505 291.597 433.203 281.879 433.217 273.965L433.232 180.179C433.233 169.238 433.591 156.388 433.233 145.598C432.793 131.564 432.984 130.372 418.22 130.48C417.981 133.514 418.051 135.483 418.22 138.48L418.237 338.39C418.301 346.222 418.74 353.58 412.659 359.504C404.127 367.942 387.4 365.49 375.851 365.707C370.303 365.811 366.96 361.769 368.023 356.342C370.631 349.112 386.357 351.461 393.186 351.535C409.039 351.705 404.473 341.7 404.469 327.431L404.462 122.566C404.459 101.834 406.776 103.991 386.157 103.984L363.853 103.988C341.439 103.998 268.417 101.789 260.743 132.257C258.343 141.788 265.167 155.237 253.265 158.284L253.265 158.284C242.834 158.056 247.57 138.497 245.976 131.206C243.076 117.939 232.198 120.286 229.172 110.968Z"/><path fill="#3D405B" transform="scale(0.0976562 0.0976562)" d="M200.541 98.7697C200.74 95.5939 202.936 92.8958 206.005 92.0567C209.074 91.2176 212.337 92.4233 214.124 95.0565C215.91 97.6897 215.825 101.167 213.91 103.709C211.934 106.334 208.47 107.351 205.388 106.213C202.307 105.074 200.336 102.049 200.541 98.7697Z"/><path fill="#F4F1DE" transform="scale(0.0976562 0.0976562)" d="M108.975 103.992C126.532 104.35 144.647 103.726 162.296 103.991C171.492 104.13 182.026 107.097 186.443 99.0015C188.9 96.5664 198.427 97.6555 200.541 98.7697C200.336 102.049 202.307 105.074 205.388 106.213C208.47 107.351 211.934 106.334 213.91 103.709C219.25 105.304 224.894 106.357 229.172 110.968C232.198 120.286 243.076 117.939 245.976 131.206C247.57 138.497 242.834 158.056 253.265 158.284C252.98 160.639 253.012 170.655 253.265 173.25C246.437 174.091 243.542 182.687 249.362 186.812C250.295 187.474 252.696 188.355 253.265 188.849C253.132 194.086 252.604 206.903 253.265 211.826C243.798 211.999 246.502 228.69 246.504 235.3L246.511 369.824C223.596 352.309 188.992 350.8 161.186 350.801L128.867 350.811C121.951 350.815 106.732 353.588 106.439 343.837C106.256 337.735 106.311 331.585 106.313 325.462L106.302 117.702C106.289 112.814 104.882 107.379 108.975 103.992ZM132.424 159.201C126.407 160.771 124.251 168.92 130.316 172.138C133.251 173.695 159.541 172.975 164.783 172.95C170.782 170.723 172.83 162.541 166.568 159.851C163.567 158.562 137.413 159.196 132.424 159.201ZM132.424 194.547C124.281 196.405 123.855 208.04 135.559 208.374C152.902 208.871 170.203 209.626 187.404 211.112L206.015 212.682C208.649 212.893 213.96 213.443 216.441 213.24C222.511 211.514 224.4 203.238 218.41 200.218C214.314 198.153 141.721 194.164 132.424 194.547ZM131.488 230.359C124.205 233.585 126.535 242.911 130.51 243.503C135.817 244.293 177.828 245.407 181.561 244.258C187.248 242.391 188.557 233.972 182.691 231.776C179.001 230.395 136.791 229.85 131.488 230.359ZM134.102 266.256C122.977 266.428 125.791 280.058 132.809 280.202C156.243 280.683 179.593 281.481 202.843 284.765C212.721 284.061 210.886 271.578 203.928 270.679C183.752 268.074 154.463 265.222 134.102 266.256ZM132.424 302.287C124.266 303.87 125.059 316.329 133.846 316.122C136.387 316.062 139.073 316.287 141.675 316.136C147.956 313.96 149.532 306.038 143.144 303.039C140.771 301.925 135.238 302.249 132.424 302.287ZM164.783 304.082C163.23 304.545 161.065 305.217 160.427 306.851C155.528 319.405 168.518 317.414 175.649 318.056C188.626 319.224 200.884 320.41 213.612 322.809C216.226 323.306 218.465 323.951 221.168 323.735C223.271 322.941 225.2 321.677 225.838 319.553C228.676 310.115 219.049 309.657 213.802 308.71C203.031 306.765 175.754 302.556 164.783 304.082Z"/><path fill="#F4F1DE" transform="scale(0.0976562 0.0976562)" d="M253.265 158.284C265.167 155.237 258.343 141.788 260.743 132.257C268.417 101.789 341.439 103.998 363.853 103.988L386.157 103.984C406.776 103.991 404.459 101.834 404.462 122.566L404.469 327.431C404.473 341.7 409.039 351.705 393.186 351.535C386.357 351.461 370.631 349.112 368.023 356.342L351.385 356.342C348.147 349.378 340.521 351.528 333.969 351.501C309.343 351.401 281.281 356.129 260.328 369.824L260.336 236.012C260.339 227.63 263.465 213.696 253.761 211.826C253.628 209.907 253.746 206.294 253.747 204.269L253.761 188.849C263.495 185.85 263.317 174.776 253.265 173.25C254.337 169.181 253.387 162.63 253.265 158.284ZM380.881 200.883C389.81 193.505 380.87 186.791 374.232 182.406C398.041 153.401 343.808 134.377 342.763 170.5C323.927 169.832 307.86 175.484 294.127 188.522C288.724 193.653 279.185 202.432 284.529 210.073C283.189 211.787 281.608 215.644 280.697 217.731C272.478 236.566 273.44 249.547 277.147 268.597C277.293 268.735 277.438 268.874 277.583 269.012C276.927 275.949 280.957 280.09 285.122 285.478C315.59 324.884 385.053 308.361 371.774 290.598C374.623 288.848 380.18 284.083 382.397 281.72C402.198 260.629 408.517 235.269 389.471 211.318C386.706 207.772 383.558 204.372 380.881 200.883Z"/><path fill="#E07A5F" transform="scale(0.0976562 0.0976562)" d="M78.2497 147.956C82.2193 140.838 84.6821 139.52 92.4112 138.092L92.7401 137.532C92.5511 142.068 92.7317 147.525 92.7365 152.133L92.7366 337.663C92.7465 352.255 96.6296 364.775 114.094 364.743L159.561 364.745C186.389 364.731 227.412 365.965 246.511 388.004C246.495 388.912 246.58 391.11 246.457 391.971C245.11 401.357 261.378 408.291 260.393 389.221L260.328 388.004C274.532 371.201 310.917 365.93 331.234 365.556C338.996 365.413 352.733 368.538 351.385 356.342L368.023 356.342C366.96 361.769 370.303 365.811 375.851 365.707C387.4 365.49 404.127 367.942 412.659 359.504C418.74 353.58 418.301 346.222 418.237 338.39L418.22 138.48C425.462 138.344 428.884 139.698 433.233 145.598C433.591 156.388 433.233 169.238 433.232 180.179L433.217 273.965C433.203 281.879 430.505 291.597 440.253 292.542C440.272 294.601 440.482 303.006 440.253 304.576C431.055 306.045 430.705 316.86 440.253 318.917C439.765 320.491 440.665 330.453 440.253 333.414C432.917 333.909 433.143 338.168 433.125 344.202C433.1 353.259 433.802 363.417 432.661 372.376C431.296 383.09 419.736 383.068 411.871 383.069L299.049 383.057C280.837 383.058 273.95 382.953 274.245 403.247L234.05 403.247C233.498 385.602 232.094 383.036 213.015 383.048L101.253 383.074C81.5184 383.206 77.5992 382.918 78.2418 360.604C78.3818 355.74 78.2489 349.768 78.2495 344.826L78.2496 246.258C78.2642 239.494 80.6898 225.858 71.7102 225.209C71.5894 220.594 71.5532 214.613 71.7102 210.073C84.5788 209.062 82.4243 196.596 71.7102 195.681C71.7218 191.426 71.5257 186.603 71.7102 182.406C79.9307 181.195 78.6251 176.816 78.2927 170.146C77.7976 160.212 78.9714 149.996 78.2497 140.125C78.7191 143.52 78.5644 144.478 78.2497 147.956Z"/><path fill="#3D405B" transform="scale(0.0976562 0.0976562)" d="M380.881 200.883C374.137 203.131 372.775 198.073 367.747 194.592C344.766 178.675 316.341 181.897 298.734 203.771C294.863 208.58 291.728 215.439 284.529 210.073C279.185 202.432 288.724 193.653 294.127 188.522C307.86 175.484 323.927 169.832 342.763 170.5C343.808 134.377 398.041 153.401 374.232 182.406C380.87 186.791 389.81 193.505 380.881 200.883ZM359.761 164.347C357.276 165.157 355.909 167.819 356.699 170.31C357.488 172.801 360.139 174.19 362.636 173.421C365.163 172.643 366.572 169.955 365.773 167.435C364.974 164.914 362.275 163.528 359.761 164.347Z"/><path fill="#8A8489" transform="scale(0.0976562 0.0976562)" d="M253.265 158.284L253.265 158.284C253.387 162.63 254.337 169.181 253.265 173.25L253.265 173.25C253.012 170.655 252.98 160.639 253.265 158.284Z"/><path fill="#3D405B" transform="scale(0.0976562 0.0976562)" d="M164.783 172.95C159.541 172.975 133.251 173.695 130.316 172.138C124.251 168.92 126.407 160.771 132.424 159.201C137.413 159.196 163.567 158.562 166.568 159.851C172.83 162.541 170.782 170.723 164.783 172.95Z"/><path fill="white" transform="scale(0.0976562 0.0976562)" d="M362.636 173.421C360.139 174.19 357.488 172.801 356.699 170.31C355.909 167.819 357.276 165.157 359.761 164.347C362.275 163.528 364.974 164.914 365.773 167.435C366.572 169.955 365.163 172.643 362.636 173.421Z"/><path fill="#3D405B" transform="scale(0.0976562 0.0976562)" d="M253.265 188.849C252.696 188.355 250.295 187.474 249.362 186.812C243.542 182.687 246.437 174.091 253.265 173.25L253.265 173.25C263.317 174.776 263.495 185.85 253.761 188.849L253.265 188.849Z"/><path fill="white" transform="scale(0.0976562 0.0976562)" d="M284.529 210.073C291.728 215.439 294.863 208.58 298.734 203.771C316.341 181.897 344.766 178.675 367.747 194.592C372.775 198.073 374.137 203.131 380.881 200.883C383.558 204.372 386.706 207.772 389.471 211.318C408.517 235.269 402.198 260.629 382.397 281.72C380.18 284.083 374.623 288.848 371.774 290.598C366.808 285.574 362.677 289.893 357.515 291.933C333.818 301.307 305.381 293.575 291.983 271.276C287.905 264.489 282.296 259.93 277.583 269.012C277.438 268.874 277.293 268.735 277.147 268.597C273.44 249.547 272.478 236.566 280.697 217.731C281.608 215.644 283.189 211.787 284.529 210.073ZM349.548 255.726C353.871 249.749 352.311 241.251 345.032 242.606C337.29 244.047 341.635 251.773 329.534 243.69C322.425 238.942 315.1 248.267 322.961 255.726C322.055 256.069 320.17 256.029 319.484 256.423C305.56 264.422 330.913 278.862 348.89 269.345C355.902 265.633 358.924 257.849 349.548 255.726ZM358.798 215.29C350.713 217.337 351.239 233.702 362.532 232.301C370.121 228.614 368.685 214.016 358.798 215.29ZM310.54 215.29C302.907 218.539 304.053 235.302 314.35 233.211C321.411 229.67 321.8 214.495 310.54 215.29Z"/><path fill="#8A8489" transform="scale(0.0976562 0.0976562)" d="M253.265 188.849L253.761 188.849L253.747 204.269C253.746 206.294 253.628 209.907 253.761 211.826L253.265 211.826C252.604 206.903 253.132 194.086 253.265 188.849Z"/><path fill="#3D405B" transform="scale(0.0976562 0.0976562)" d="M216.441 213.24C213.96 213.443 208.649 212.893 206.015 212.682L187.404 211.112C170.203 209.626 152.902 208.871 135.559 208.374C123.855 208.04 124.281 196.405 132.424 194.547C141.721 194.164 214.314 198.153 218.41 200.218C224.4 203.238 222.511 211.514 216.441 213.24Z"/><path fill="#3D405B" transform="scale(0.0976562 0.0976562)" d="M71.7102 210.073C62.6888 210.242 58.7153 197.828 71.7102 195.681C82.4243 196.596 84.5788 209.062 71.7102 210.073Z"/><path fill="#3D405B" transform="scale(0.0976562 0.0976562)" d="M362.532 232.301C351.239 233.702 350.713 217.337 358.798 215.29C368.685 214.016 370.121 228.614 362.532 232.301Z"/><path fill="#3D405B" transform="scale(0.0976562 0.0976562)" d="M314.35 233.211C304.053 235.302 302.907 218.539 310.54 215.29C321.8 214.495 321.411 229.67 314.35 233.211Z"/><path fill="#3D405B" transform="scale(0.0976562 0.0976562)" d="M220.323 396.819C210.204 396.485 197.85 396.813 187.584 396.813L99.7231 396.828C74.0306 396.833 64.4213 390.061 64.5149 363.003L64.5273 254.092C64.5196 244.992 60.5125 225.388 71.7102 225.209C80.6898 225.858 78.2642 239.494 78.2496 246.258L78.2495 344.826C78.2489 349.768 78.3818 355.74 78.2418 360.604C77.5992 382.918 81.5184 383.206 101.253 383.074L213.015 383.048C232.094 383.036 233.498 385.602 234.05 403.247L274.245 403.247C273.95 382.953 280.837 383.058 299.049 383.057L411.871 383.069C419.736 383.068 431.296 383.09 432.661 372.376C433.802 363.417 433.1 353.259 433.125 344.202C433.143 338.168 432.917 333.909 440.253 333.414C445.835 333.868 446.892 337.795 446.902 342.566L446.878 362.554C446.866 373.051 446.873 380.541 438.909 388.696C429.755 398.069 419.518 396.826 407.37 396.825L287.686 396.819C287.013 407.953 286.631 416.874 272.283 416.933C263.576 416.97 254.899 417.02 246.178 416.985C228.284 416.913 220.289 417.503 220.323 396.819Z"/><path fill="#3D405B" transform="scale(0.0976562 0.0976562)" d="M181.561 244.258C177.828 245.407 135.817 244.293 130.51 243.503C126.535 242.911 124.205 233.585 131.488 230.359C136.791 229.85 179.001 230.395 182.691 231.776C188.557 233.972 187.248 242.391 181.561 244.258Z"/><path fill="#3D405B" transform="scale(0.0976562 0.0976562)" d="M349.548 255.726L349.34 255.832C339.201 261.059 334.173 263.942 322.961 255.726C315.1 248.267 322.425 238.942 329.534 243.69C341.635 251.773 337.29 244.047 345.032 242.606C352.311 241.251 353.871 249.749 349.548 255.726Z"/><path fill="#E07A5F" transform="scale(0.0976562 0.0976562)" d="M322.961 255.726C334.173 263.942 339.201 261.059 349.34 255.832L349.548 255.726C358.924 257.849 355.902 265.633 348.89 269.345C330.913 278.862 305.56 264.422 319.484 256.423C320.17 256.029 322.055 256.069 322.961 255.726Z"/><path fill="#3D405B" transform="scale(0.0976562 0.0976562)" d="M277.583 269.012C282.296 259.93 287.905 264.489 291.983 271.276C305.381 293.575 333.818 301.307 357.515 291.933C362.677 289.893 366.808 285.574 371.774 290.598C385.053 308.361 315.59 324.884 285.122 285.478C280.957 280.09 276.927 275.949 277.583 269.012Z"/><path fill="#3D405B" transform="scale(0.0976562 0.0976562)" d="M202.843 284.765C179.593 281.481 156.243 280.683 132.809 280.202C125.791 280.058 122.977 266.428 134.102 266.256C154.463 265.222 183.752 268.074 203.928 270.679C210.886 271.578 212.721 284.061 202.843 284.765Z"/><path fill="#3D405B" transform="scale(0.0976562 0.0976562)" d="M141.675 316.136C139.073 316.287 136.387 316.062 133.846 316.122C125.059 316.329 124.266 303.87 132.424 302.287C135.238 302.249 140.771 301.925 143.144 303.039C149.532 306.038 147.956 313.96 141.675 316.136Z"/><path fill="#3D405B" transform="scale(0.0976562 0.0976562)" d="M221.168 323.735C218.465 323.951 216.226 323.306 213.612 322.809C200.884 320.41 188.626 319.224 175.649 318.056C168.518 317.414 155.528 319.405 160.427 306.851C161.065 305.217 163.23 304.545 164.783 304.082C175.754 302.556 203.031 306.765 213.802 308.71C219.049 309.657 228.676 310.115 225.838 319.553C225.2 321.677 223.271 322.941 221.168 323.735Z"/><path fill="#3D405B" transform="scale(0.0976562 0.0976562)" d="M440.253 318.917C430.705 316.86 431.055 306.045 440.253 304.576C450.89 305.983 449.911 318.967 440.253 318.917Z"/></svg>