<?xml version="1.0" encoding="utf-8" ?><svg xmlns="http://www.w3.org/2000/svg" xmlns:xlink="http://www.w3.org/1999/xlink" width="50" height="50" viewBox="0 0 50 50"><path fill="#3D405B" transform="scale(0.0976562 0.0976562)" d="M375.953 128.715C370.806 129.335 367.764 126.445 367.761 121.355C367.754 111.468 363.959 93.2658 373.505 89.7795C379.573 89.3819 381.611 93.1988 381.611 98.6011C381.61 107.578 385.363 126.257 375.953 128.715Z"/><path fill="#3D405B" transform="scale(0.0976562 0.0976562)" d="M294.167 145.721C280.334 115.88 238.743 111.997 220.714 139.949C212.643 152.462 203.572 141.592 207.455 135.08C233.021 92.2027 293.825 100.524 310.013 146.875C314.443 159.559 313.319 170.648 313.316 183.779L313.315 255.566C313.317 260.71 313.47 267.88 313.094 272.887C308.541 333.404 222.903 346.75 202.471 287.757C198.507 276.313 199.245 267.108 199.246 255.332L199.252 161.82C199.312 152.128 212.073 151.33 212.966 160.455C213.25 163.353 213.044 166.283 213.024 169.199L213.029 183.001L222.749 183.001C222.787 181.362 222.719 180.158 223.274 178.604C229.758 175.602 235.31 176.871 235.082 185.052C234.734 197.557 235.642 197.738 223.274 197.476C220.074 197.424 216.189 197.276 213.029 197.476L213.029 209.703C216.277 209.763 219.501 209.728 222.749 209.703C222.568 208.167 222.289 206.734 223.274 205.462C230.529 202.167 235.1 204.235 235.109 212.862C235.121 224.285 233.725 223.904 223.274 223.735L213.029 223.735C213.071 227.723 213.11 231.626 213.029 235.613L222.749 235.613C222.816 234.293 222.763 233.87 223.274 232.653C237.342 222.336 236.653 246.5 233.18 249.228C230.941 250.664 225.308 250.123 222.749 249.719C220.058 249.616 215.619 249.494 213.029 249.719C212.999 268.73 211.566 290.286 229.435 302.444C249.885 323.4 290.507 309.011 297.993 279.028C299.942 271.219 299.329 262.178 299.326 254.026L299.317 227.747C294.948 227.742 282.899 228.72 280.9 225.733C270.876 210.753 294.793 213.755 299.317 213.782L299.317 203.21C294.937 203.226 284.231 204.216 280.968 201.32C276.338 197.212 278.701 189.414 285.447 189.172C290.011 189.007 294.681 189.071 299.317 189.092L299.317 177.245C294.784 177.245 282.378 178.203 280.43 175.076C271.215 160.285 295.502 163.225 299.317 163.244C298.52 158.035 297.193 150.113 294.167 145.721Z"/><path fill="#3D405B" transform="scale(0.0976562 0.0976562)" d="M149.368 144.202C145.395 144.935 141.584 142.292 140.879 138.313C140.173 134.335 142.842 130.543 146.825 129.865C150.769 129.193 154.517 131.83 155.216 135.77C155.915 139.71 153.303 143.476 149.368 144.202Z"/><path fill="#F6B393" transform="scale(0.0976562 0.0976562)" d="M223.274 178.604C224.6 169.407 226.164 161.534 231.868 153.795C247.629 132.415 273.608 130.625 294.167 145.721C297.193 150.113 298.52 158.035 299.317 163.244C295.502 163.225 271.215 160.285 280.43 175.076C282.378 178.203 294.784 177.245 299.317 177.245L299.317 189.092C294.681 189.071 290.011 189.007 285.447 189.172C278.701 189.414 276.338 197.212 280.968 201.32C284.231 204.216 294.937 203.226 299.317 203.21L299.317 213.782C294.793 213.755 270.876 210.753 280.9 225.733C282.899 228.72 294.948 227.742 299.317 227.747L299.326 254.026C299.329 262.178 299.942 271.219 297.993 279.028C290.507 309.011 249.885 323.4 229.435 302.444C227.63 299.034 225.034 295.698 223.956 291.734C221.721 283.517 222.6 259.75 222.749 249.719C225.308 250.123 230.941 250.664 233.18 249.228C236.653 246.5 237.342 222.336 223.274 232.653C223.252 229.682 223.208 226.704 223.274 223.735C233.725 223.904 235.121 224.285 235.109 212.862C235.1 204.235 230.529 202.167 223.274 205.462C223.135 203.358 223.261 199.67 223.274 197.476C235.642 197.738 234.734 197.557 235.082 185.052C235.31 176.871 229.758 175.602 223.274 178.604Z"/><path fill="#3D405B" transform="scale(0.0976562 0.0976562)" d="M105.508 185.287C89.667 202.561 89.2745 240.49 105.911 257.594C108.121 259.994 112.412 263.013 113.924 265.554C117.189 271.042 110.972 282.975 97.971 269.194C73.4047 243.939 73.44 200.005 96.5597 173.842C113.72 155.468 124.209 178.171 108.534 181.337C107.268 182.721 106.46 183.685 105.508 185.287Z"/><path fill="#3D405B" transform="scale(0.0976562 0.0976562)" d="M407.737 186.273C404.157 182.825 397.391 181.731 397.2 176.052C397.064 172.032 400.431 168.639 404.483 168.876C409.774 169.185 414.778 173.8 418.267 177.436C441.004 203.903 437.96 247.223 412.266 270.666C398.781 282.971 392.116 267.174 399.829 262.316C402.293 260.764 406.17 257.979 407.737 255.756C423.991 239.766 423.355 203.096 407.737 186.273Z"/><path fill="#3D405B" transform="scale(0.0976562 0.0976562)" d="M67.995 256.7C49.0456 258.534 54.7429 206.335 58.3347 195.24C59.7555 190.852 60.6886 186.812 65.4847 185.287C79.2455 184.349 70.8868 199.368 69.6726 205.111C67.1998 215.988 67.1518 227.097 69.5485 237.997C71.0196 244.688 76.6694 252.513 67.995 256.7Z"/><path fill="#3D405B" transform="scale(0.0976562 0.0976562)" d="M446.646 255.756C443.202 255.863 440.209 255.092 438.606 251.657C435.455 245.214 453.844 224.6 438.52 195.235C436.187 190.765 438.497 187.018 443.152 185.287C452.453 184.773 454.226 194.913 456.246 202.754C459.072 213.721 460.779 251.9 446.646 255.756Z"/><path fill="#E07A5F" transform="scale(0.0976562 0.0976562)" d="M105.911 257.594C89.2745 240.49 89.667 202.561 105.508 185.287C108.009 187.994 111.499 190.449 114.346 193.16C103.766 209.434 101.121 227.689 112.561 244.825C113.167 245.734 115.619 249.096 115.951 249.719C113.785 251.746 108.441 256.302 105.911 257.594Z"/><path fill="#3D405B" transform="scale(0.0976562 0.0976562)" d="M114.346 193.16C119.077 186.234 128.81 181.765 130.465 192.112C131.07 195.894 127.006 199.104 125.774 203.21C124.39 203.603 123.505 204.541 122.882 205.805C117.102 217.537 118.126 228.676 125.774 239.138C135.432 248.745 125.382 260.154 115.951 249.719C115.619 249.096 113.167 245.734 112.561 244.825C101.121 227.689 103.766 209.434 114.346 193.16Z"/><path fill="#E07A5F" transform="scale(0.0976562 0.0976562)" d="M407.737 186.273C423.355 203.096 423.991 239.766 407.737 255.756C404.436 253.718 400.319 250.674 396.843 248.432C410.595 231.117 410.146 212.419 398.379 194.744C401.311 191.599 404.459 189.04 407.737 186.273Z"/><path fill="#3D405B" transform="scale(0.0976562 0.0976562)" d="M386.944 203.21C385.761 201.146 384.664 200.602 382.91 199.061C377.36 194.146 382.335 176.849 398.379 194.744C410.146 212.419 410.595 231.117 396.843 248.432C385.228 260.964 374.449 248.521 385.122 240.105C394.842 231.929 396.476 211.356 386.944 203.21Z"/><path fill="#E07A5F" transform="scale(0.0976562 0.0976562)" d="M125.774 239.138C118.126 228.676 117.102 217.537 122.882 205.805C123.505 204.541 124.39 203.603 125.774 203.21C128.791 204.124 132.544 207.654 135.274 209.703C128.575 216.623 130.171 224.13 135.274 231.379C132.788 233.856 128.72 237.108 125.774 239.138Z"/><path fill="#3D405B" transform="scale(0.0976562 0.0976562)" d="M375.953 232.653C371.909 235.249 366.811 239.544 362.267 235.454C355.218 229.108 362.671 225.636 366.04 222.103C369.214 218.774 363.421 215.483 361.377 213.79C356.311 208.999 363.16 192.779 377.934 210.432C383.24 220.201 381.58 223.955 375.953 232.653Z"/><path fill="#E07A5F" transform="scale(0.0976562 0.0976562)" d="M386.944 203.21C396.476 211.356 394.842 231.929 385.122 240.105C382.49 238.447 378.178 234.778 375.953 232.653C381.58 223.955 383.24 220.201 377.934 210.432C380.673 208.003 383.829 205.003 386.944 203.21Z"/><path fill="#3D405B" transform="scale(0.0976562 0.0976562)" d="M135.274 209.703C144.738 193.703 162.723 209.526 148.982 216.375C138.977 221.362 152.232 223.197 153.215 226.941C156.217 238.371 143.505 239.1 135.274 231.379C130.171 224.13 128.575 216.623 135.274 209.703Z"/><path fill="#3D405B" transform="scale(0.0976562 0.0976562)" d="M183.54 304.178C176.721 304.547 175.053 298.764 173.303 293.251C170.743 285.183 164.216 265.693 175.186 262.288C186.61 261.585 183.001 277.58 186.108 287.131C188.153 293.417 192.916 301.341 183.54 304.178Z"/><path fill="#3D405B" transform="scale(0.0976562 0.0976562)" d="M270.713 393.718C265.726 380.079 247.368 379.241 241.63 392.127C240 395.788 240.689 397.677 239.995 401.302C238.054 411.431 218.595 408.096 229.64 385.457C234.034 377.142 240.506 372.676 249.166 369.833C249.172 365.593 249.364 359.945 249.166 355.865C236.211 353.897 225.81 351.827 214.264 345.024C206.604 340.512 206.359 332.49 215.45 330.151C218.968 330.964 220.427 332.607 223.457 334.216C269.21 358.51 321.78 325.964 328.36 275.925C328.956 271.673 327.835 266.085 332.149 263.455C356.348 248.696 342.251 344.273 266.676 355.244C265.472 355.419 264.05 355.609 262.873 355.865C262.864 360.142 262.686 365.66 262.873 369.833C274.496 373.069 282.24 382.045 284.794 393.718C284.541 397.169 285.916 400.847 283.37 403.915C280.832 406.974 276.103 407.384 273.133 404.718C270.019 401.923 270.919 397.472 270.713 393.718Z"/><path fill="#3D405B" transform="scale(0.0976562 0.0976562)" d="M196.629 328.286C186.934 328.594 183.426 315.463 194.534 313.345C202.082 313.507 206.557 325.094 196.629 328.286Z"/><path fill="#3D405B" transform="scale(0.0976562 0.0976562)" d="M370.335 379.067C367.559 379.534 363.219 377.468 362.872 374.683C360.957 359.304 362.253 336.695 362.341 320.463C362.457 316.309 363.788 314.432 367.748 313.345C370.929 313.054 374.32 314.455 375.415 317.678C376.355 320.443 376.208 366.661 375.849 372.527C375.631 376.082 373.625 377.909 370.335 379.067Z"/><path fill="#3D405B" transform="scale(0.0976562 0.0976562)" d="M130.629 333.768C126.785 334.592 122.999 332.152 122.162 328.311C121.324 324.47 123.75 320.675 127.587 319.823C131.445 318.966 135.265 321.408 136.107 325.269C136.949 329.13 134.493 332.94 130.629 333.768Z"/><path fill="#3D405B" transform="scale(0.0976562 0.0976562)" d="M202.574 408.164C194.359 408.86 194.281 400.592 194.545 394.846C194.822 388.802 192.849 383.496 200.319 381.341C208.178 380.844 208.9 387.539 208.498 393.528C208.072 399.882 210.483 405.842 202.574 408.164Z"/><path fill="#E07A5F" transform="scale(0.0976562 0.0976562)" d="M270.713 393.718C270.919 397.472 270.019 401.923 273.133 404.718C276.103 407.384 280.832 406.974 283.37 403.915C285.916 400.847 284.541 397.169 284.794 393.718C294.468 396.451 295.422 411.11 287.442 416.214C282.111 419.624 273.663 418.834 267.387 418.711C257.344 418.515 237.023 420.577 241.62 402.912C245.936 387.525 266.55 396.108 270.713 393.718Z"/></svg>