<?xml version="1.0" encoding="utf-8" ?><svg xmlns="http://www.w3.org/2000/svg" xmlns:xlink="http://www.w3.org/1999/xlink" width="50" height="50" viewBox="0 0 50 50"><path fill="#3D405B" transform="scale(0.0976562 0.0976562)" d="M392.981 122.927C388.555 123.529 384.483 120.418 383.899 115.989C383.316 111.56 386.443 107.501 390.874 106.935C395.28 106.373 399.311 109.479 399.891 113.882C400.471 118.286 397.382 122.329 392.981 122.927Z"/><path fill="#3D405B" transform="scale(0.0976562 0.0976562)" d="M190.336 169.242C189.517 159.853 195.781 159.79 203.113 159.784L247.233 159.795C250.693 159.798 256.917 160.035 260.106 159.79C260.071 149.871 261.104 144.36 267.769 136.253L133.861 136.243C129.045 136.243 124.213 136.387 119.401 136.255C112.404 136.062 108.958 127.841 114.302 122.877C117.789 119.638 149.247 121.042 155.373 121.041L267.435 121.041C285.689 121.042 305.558 118.564 318.028 135.612C323.778 143.473 325.522 150.327 325.47 159.79L325.77 159.811C341.82 160.837 353.476 158.342 366.241 172.879C376.918 185.038 375.742 194.671 375.758 209.507C388.394 201.237 409.115 181.985 423.38 184.962C443.616 189.186 439.066 212.403 439.067 228.061L439.068 311.712C439.069 324.283 441.525 338.304 428.739 345.923C414.064 354.667 401.711 341.377 390.321 333.258L375.758 323.072C375.802 332.827 376.76 341.278 372.329 350.349C366.334 362.625 354.342 370.685 340.515 370.609L130.401 370.44C113.091 370.456 97.6724 372.652 84.3282 358.709C73.2543 347.138 73.1308 337.569 73.1448 322.593L73.1027 246.6C73.1289 241.545 74.8122 237.917 80.435 237.864C89.1942 238.819 87.8216 245.915 87.7698 252.585L87.7624 311.488C87.7307 337.798 85.6131 355.63 119.293 355.636L338.502 355.629C360.729 355.219 361.043 340.014 361.023 323.423L360.968 302.984C360.952 296.325 359.481 287.505 368.713 287.231C378.408 289.552 375.758 297.232 375.758 305.234C388.546 313.686 401.202 322.366 413.524 331.476C414.87 332.471 416.327 333.513 417.857 334.197C426.861 331.557 424.423 323.657 424.417 315.702L424.413 205.021C424.405 203.277 424.131 202.285 423.249 200.817C421.426 199.649 420.022 198.873 417.857 199.104C414.261 200.714 411.038 203.144 407.856 205.459C399.559 211.494 381.701 221.802 375.758 228.555C375.9 234.445 373.539 238.365 367.19 238.669C359.836 236.148 360.922 231.786 360.99 225.448L361.034 206.656C361.049 191.421 359.844 179.087 341.452 174.57C335.9 174.813 328.58 174.572 322.841 174.571L224.59 174.567C214.272 174.566 194.808 178.698 190.336 169.242ZM291.67 138.83C280.276 142.068 274.64 147.239 275.014 159.79L298.376 159.806C302.086 159.834 307.891 160.641 311.234 159.79C311.056 148.852 304.499 135.965 291.67 138.83Z"/><path fill="#6F7790" transform="scale(0.0976562 0.0976562)" d="M275.014 159.79C274.64 147.239 280.276 142.068 291.67 138.83C301.085 145.246 304.585 147.936 305.521 159.79C307.648 159.906 309.298 159.738 311.234 159.79C307.891 160.641 302.086 159.834 298.376 159.806L275.014 159.79Z"/><path fill="#3D405B" transform="scale(0.0976562 0.0976562)" d="M79.389 219.803C67.124 216.662 74.0417 185.541 79.1932 177.668C92.299 157.168 111.108 160.022 131.632 159.749C137.67 159.669 144.118 159.239 145.691 166.724C144.846 174.802 140.701 174.944 133.991 174.583C120.438 174.201 103.529 172.402 93.7935 182.775C80.6608 196.768 95.8554 219.846 79.389 219.803Z"/><path fill="#3D405B" transform="scale(0.0976562 0.0976562)" d="M160.77 167.525C160.682 164.606 162.252 161.889 164.825 160.507C167.397 159.126 170.53 159.318 172.914 161.004C175.299 162.689 176.525 165.578 176.081 168.464C175.475 172.399 171.971 175.224 167.997 174.98C164.023 174.736 160.89 171.504 160.77 167.525Z"/><path fill="#F4F1DE" transform="scale(0.0976562 0.0976562)" d="M145.691 166.724C147.998 166.43 159.269 166.335 160.77 167.525C160.89 171.504 164.023 174.736 167.997 174.98C171.971 175.224 175.475 172.399 176.081 168.464C182.646 162.574 187.153 168.197 190.336 169.242C194.808 178.698 214.272 174.566 224.59 174.567L322.841 174.571C328.58 174.572 335.9 174.813 341.452 174.57L341.085 174.994C342.202 175.263 342.498 175.787 341.454 176.667L340.977 176.61C355.426 187.212 352.764 196.534 352.768 212.741L352.766 306.461C352.763 316.922 353.044 327.845 352.271 338.275C351.607 347.228 342.849 349.877 338.502 355.629L119.293 355.636C85.6131 355.63 87.7307 337.798 87.7624 311.488L87.7698 252.585C87.8216 245.915 89.1942 238.819 80.435 237.864C80.8154 232.856 80.7953 225.527 80.884 220.16L79.389 219.803C95.8554 219.846 80.6608 196.768 93.7935 182.775C103.529 172.402 120.438 174.201 133.991 174.583C140.701 174.944 144.846 174.802 145.691 166.724ZM240.826 278.552C270.603 274.53 279.586 237.386 255.989 219.483C236.181 204.453 213.565 216.604 205.118 237.864L184.347 237.855C172.012 237.838 159.868 236.378 150.258 245.851C137.506 258.422 137.629 290.961 149.595 303.235C155.036 308.744 162.744 312.648 170.619 312.398C177.293 312.187 190.445 315.098 191.117 305.234C194.304 305.015 200.524 305.225 203.997 305.234C206.055 316.937 224.391 312.931 231.682 309.8C240.981 305.806 255.259 291.386 240.826 286.304C240.895 283.729 240.848 281.129 240.826 278.552ZM112.955 188.008C101.196 190.371 104.457 213.747 108.532 216.326C114.953 220.39 119.523 215.015 120.223 208.728C120.144 206.577 120.095 204.969 120.223 202.832C126.782 202.867 136.48 204.489 136.399 194.777C136.323 185.728 119.029 187.129 112.955 188.008ZM319.705 188.008C312.357 188.965 310.238 197.448 315.809 201.578C318.289 203.417 326.013 202.854 329.111 202.832C329.414 209.415 328.468 215.823 337.326 216.008C345.34 214.704 343.766 208.656 343.721 202.355C343.69 198.181 345.432 192.313 341.28 189.429C338.124 187.238 324.139 187.868 319.705 188.008ZM111.657 314.304C102.717 316.784 104.165 334.527 105.859 340.371C107.798 347.06 124.364 345.136 129.525 344.91C136.052 342.299 137.797 334.011 130.65 330.817C128.564 329.885 122.744 330.217 120.223 330.244C120.301 323.398 121.738 313.848 111.657 314.304ZM334.333 316.303C327.754 318.729 329.115 324.33 329.111 330.244C324.933 330.824 316.741 329.483 314.484 333.464C310.547 340.41 314.502 345.627 322.326 345.603C338.829 345.651 345.157 348.485 343.739 328.792C343.237 321.822 344.482 315.438 334.333 316.303Z"/><path fill="white" transform="scale(0.0976562 0.0976562)" d="M338.502 355.629C342.849 349.877 351.607 347.228 352.271 338.275C353.044 327.845 352.763 316.922 352.766 306.461L352.768 212.741C352.764 196.534 355.426 187.212 340.977 176.61L341.454 176.667C342.498 175.787 342.202 175.263 341.085 174.994L341.452 174.57C359.844 179.087 361.049 191.421 361.034 206.656L360.99 225.448C360.922 231.786 359.836 236.148 367.19 238.669C370.363 238.976 368.484 249.94 368.73 253.873C364.292 253.686 360.538 257.121 360.332 261.558C360.127 265.994 363.547 269.762 367.982 269.986L368.486 270.295C368.327 275.624 368.599 281.824 368.713 287.231C359.481 287.505 360.952 296.325 360.968 302.984L361.023 323.423C361.043 340.014 360.729 355.219 338.502 355.629Z"/><path fill="#3D405B" transform="scale(0.0976562 0.0976562)" d="M120.223 208.728C119.523 215.015 114.953 220.39 108.532 216.326C104.457 213.747 101.196 190.371 112.955 188.008C119.029 187.129 136.323 185.728 136.399 194.777C136.48 204.489 126.782 202.867 120.223 202.832C120.095 204.969 120.144 206.577 120.223 208.728Z"/><path fill="#3D405B" transform="scale(0.0976562 0.0976562)" d="M329.111 202.832C326.013 202.854 318.289 203.417 315.809 201.578C310.238 197.448 312.357 188.965 319.705 188.008C324.139 187.868 338.124 187.238 341.28 189.429C345.432 192.313 343.69 198.181 343.721 202.355C343.766 208.656 345.34 214.704 337.326 216.008C328.468 215.823 329.414 209.415 329.111 202.832Z"/><path fill="#E07A5F" transform="scale(0.0976562 0.0976562)" d="M375.758 228.555C381.701 221.802 399.559 211.494 407.856 205.459C411.038 203.144 414.261 200.714 417.857 199.104L417.866 319.243C417.871 323.459 418.087 330.151 417.857 334.197C416.327 333.513 414.87 332.471 413.524 331.476C401.202 322.366 388.546 313.686 375.758 305.234C375.758 297.232 378.408 289.552 368.713 287.231C368.599 281.824 368.327 275.624 368.486 270.295L367.982 269.986C372.444 270.211 376.238 266.767 376.445 262.305C376.652 257.842 373.193 254.062 368.73 253.873C368.484 249.94 370.363 238.976 367.19 238.669C373.539 238.365 375.9 234.445 375.758 228.555Z"/><path fill="#3D405B" transform="scale(0.0976562 0.0976562)" d="M240.826 278.552C222.974 279.482 208.952 270.927 205.118 252.347L182.252 252.351C159.495 252.365 155.889 254.391 155.975 277.773C156.108 313.904 188.008 284.572 191.117 305.234C190.445 315.098 177.293 312.187 170.619 312.398C162.744 312.648 155.036 308.744 149.595 303.235C137.629 290.961 137.506 258.422 150.258 245.851C159.868 236.378 172.012 237.838 184.347 237.855L205.118 237.864C213.565 216.604 236.181 204.453 255.989 219.483C279.586 237.386 270.603 274.53 240.826 278.552ZM234.126 228.648C224.463 230.164 217.858 239.226 219.372 248.89C220.886 258.553 229.946 265.16 239.61 263.648C249.277 262.136 255.886 253.072 254.372 243.406C252.857 233.739 243.792 227.132 234.126 228.648Z"/><path fill="#A6A6BB" transform="scale(0.0976562 0.0976562)" d="M239.61 263.648C229.946 265.16 220.886 258.553 219.372 248.89C217.858 239.226 224.463 230.164 234.126 228.648C243.792 227.132 252.857 233.739 254.372 243.406C255.886 253.072 249.277 262.136 239.61 263.648Z"/><path fill="#E07A5F" transform="scale(0.0976562 0.0976562)" d="M205.118 252.347C208.952 270.927 222.974 279.482 240.826 278.552C240.848 281.129 240.895 283.729 240.826 286.304C232.456 285.721 234.286 292.7 227.547 295.71C217.673 300.12 205.49 294.371 203.997 305.234C200.524 305.225 194.304 305.015 191.117 305.234C188.008 284.572 156.108 313.904 155.975 277.773C155.889 254.391 159.495 252.365 182.252 252.351L205.118 252.347Z"/><path fill="#3D405B" transform="scale(0.0976562 0.0976562)" d="M367.982 269.986C363.547 269.762 360.127 265.994 360.332 261.558C360.538 257.121 364.292 253.686 368.73 253.873C373.193 254.062 376.652 257.842 376.445 262.305C376.238 266.767 372.444 270.211 367.982 269.986Z"/><path fill="#3D405B" transform="scale(0.0976562 0.0976562)" d="M203.997 305.234C205.49 294.371 217.673 300.12 227.547 295.71C234.286 292.7 232.456 285.721 240.826 286.304C255.259 291.386 240.981 305.806 231.682 309.8C224.391 312.931 206.055 316.937 203.997 305.234Z"/><path fill="#3D405B" transform="scale(0.0976562 0.0976562)" d="M129.525 344.91C124.364 345.136 107.798 347.06 105.859 340.371C104.165 334.527 102.717 316.784 111.657 314.304C121.738 313.848 120.301 323.398 120.223 330.244C122.744 330.217 128.564 329.885 130.65 330.817C137.797 334.011 136.052 342.299 129.525 344.91Z"/><path fill="#3D405B" transform="scale(0.0976562 0.0976562)" d="M329.111 330.244C329.115 324.33 327.754 318.729 334.333 316.303C344.482 315.438 343.237 321.822 343.739 328.792C345.157 348.485 338.829 345.651 322.326 345.603C314.502 345.627 310.547 340.41 314.484 333.464C316.741 329.483 324.933 330.824 329.111 330.244Z"/><path fill="#3D405B" transform="scale(0.0976562 0.0976562)" d="M354.063 398.189C351.172 398.147 347.362 398.142 344.351 398.352C332.951 399.147 330.46 381.26 346.361 383.032C349.723 383.087 352.884 382.834 356.26 382.698C366.492 382.286 369.522 399.584 354.063 398.189Z"/><path fill="#3D405B" transform="scale(0.0976562 0.0976562)" d="M298.334 398.189L197.369 398.205C193.162 398.207 189.071 398.288 184.833 398.012C179.236 397.787 175.843 389.696 179.898 385.671C183.95 381.583 199.472 383.018 205.118 383.032L305.593 383.029C309.745 383.026 313.91 382.828 318.048 383.118C327.085 383.75 327.357 396.773 318.517 398.165C314.056 398.868 303.32 398.194 298.334 398.189Z"/><path fill="#3D405B" transform="scale(0.0976562 0.0976562)" d="M158.373 398.313C154.299 398.544 150.811 395.425 150.587 391.351C150.362 387.277 153.486 383.794 157.56 383.576C161.625 383.358 165.099 386.474 165.323 390.539C165.548 394.604 162.437 398.082 158.373 398.313Z"/></svg>