<?xml version="1.0" encoding="utf-8" ?><svg xmlns="http://www.w3.org/2000/svg" xmlns:xlink="http://www.w3.org/1999/xlink" width="50" height="50" viewBox="0 0 50 50"><path fill="#3D405B" transform="scale(0.0976562 0.0976562)" d="M396.575 105.239L382.169 105.261C379.796 105.267 375.782 105.466 373.601 105.075C364.735 103.488 364.214 91.3375 374.171 90.0778C379.28 89.3872 390.974 89.9216 396.396 90.0765C405.934 90.3489 406.123 103.252 396.575 105.239Z"/><path fill="#3D405B" transform="scale(0.0976562 0.0976562)" d="M302.117 105.239L137.033 105.247C130.074 105.249 123.188 105.256 116.158 105.182C105.946 105.075 105.146 90.9409 116.346 90.0778L301.906 90.0655C311.831 90.1276 312.413 104.652 302.117 105.239Z"/><path fill="#3D405B" transform="scale(0.0976562 0.0976562)" d="M342.533 105.239C321.918 106.671 325.505 91.6897 334.134 90.0778C353.428 87.7566 352.117 102.947 342.533 105.239Z"/><path fill="#3D405B" transform="scale(0.0976562 0.0976562)" d="M265.29 158.746C268.003 158.717 272.757 158.363 275.163 159.482C280.787 162.098 280.477 171.607 274.229 173.318C269.586 174.589 246.757 173.741 241.168 173.696C230.908 173.614 233.478 160.456 233.475 152.715L233.475 137.825C233.478 131.835 232 124.671 239.449 123.053C251.385 121.901 247.748 140.68 247.726 148.707C252.108 144.166 263.392 129.459 269.634 130.626C273.939 130.81 277.513 137.549 275.035 141.071C270.853 147.016 263.838 153.279 258.997 158.746L265.29 158.746Z"/><path fill="#3D405B" transform="scale(0.0976562 0.0976562)" d="M132.563 187.304C137.902 187.315 153.791 186.413 157.824 188.288C163.994 191.157 162.523 200.576 155.937 202.029C153.449 202.578 134 202.221 130.722 202.149C120.088 201.914 111.173 193.798 109.137 183.503C108.284 179.192 108.129 157.977 108.944 153.938C111.046 143.525 119.262 136.692 129.514 134.717C131.049 134.586 134.833 134.694 136.467 134.696L180.004 134.715C188.4 134.749 190.94 146.457 183.153 149.422C181.119 150.197 175.146 149.853 172.622 149.852L144.651 149.84C136.245 149.839 122.649 147.421 122.766 159.997C122.969 169.962 118.693 187.337 132.563 187.304Z"/><path fill="#3D405B" transform="scale(0.0976562 0.0976562)" d="M188.488 202.001C180.029 202.806 178.093 189.754 185.955 187.62C188.218 187.005 194.977 187.297 197.561 187.297L377.242 187.339C390.881 187.314 387.784 173.639 388.251 165.029C389.08 149.756 383.481 149.83 369.552 149.838L337.836 149.859C334.237 149.861 321.016 150.41 318.708 149.178C312.486 145.858 313.3 137.401 320.756 134.717L360.996 134.709C380.655 134.702 402.657 133.539 402.761 160.054L402.769 171.931C402.807 202.41 386.006 202.023 360.463 201.998L188.488 202.001Z"/><path fill="#3D405B" transform="scale(0.0976562 0.0976562)" d="M76.057 229.936C68.2 230.535 53.1424 205.286 68.012 203.105C74.4998 202.656 91.2498 227.339 76.057 229.936Z"/><path fill="#3D405B" transform="scale(0.0976562 0.0976562)" d="M439.073 229.139C437.781 229.336 436.01 228.981 434.896 228.278C425.09 222.171 438.036 204.362 443.274 203.105C448.077 202.466 452.554 206.846 451.561 211.502C449.931 216.97 444.936 227.332 439.073 229.139Z"/><path fill="#3D405B" transform="scale(0.0976562 0.0976562)" d="M460.19 253.831C452.323 255.306 448.473 248.545 452.068 242.476C454.296 238.716 466.114 237.615 470.163 237.097C479.937 234.8 482.608 249.216 473.185 251.325C468.856 252.294 464.558 253.068 460.19 253.831Z"/><path fill="#3D405B" transform="scale(0.0976562 0.0976562)" d="M55.4502 253.831C51.8413 253.971 40.3906 252.228 36.9339 250.852C31.066 248.517 30.7706 239.224 38.2164 237.097C41.4461 236.859 53.1749 238.456 56.331 239.672C62.8039 242.165 63.3412 251.18 55.4502 253.831Z"/><path fill="#3D405B" transform="scale(0.0976562 0.0976562)" d="M121.384 256.439C119.241 253.854 115.181 251.081 111.583 253.363C106.501 256.587 110.438 271.807 107.192 273.745C99.7775 278.172 78.456 269.179 76.2455 281.876C75.5384 285.938 77.9959 289.644 82.2394 291.108L82.5556 291.137C86.0324 291.415 93.901 291.114 97.8417 291.109L130.18 291.091C139.094 291.091 148.751 288.262 151.602 297.908C150.646 308.668 137.61 305.407 128.921 305.403L93.5417 305.386C93.5692 333.28 92.0846 360.324 80.6275 386.277C77.8575 392.552 72.69 396.818 79.9247 402.117C92.5284 406.928 91.1551 384.776 97.4849 379.892C101.107 377.987 117.885 378.782 122.382 378.882C129.544 379.041 131.744 377.778 135.806 384.056C135.941 390.894 133.261 400.628 141.252 402.117C152.345 400.167 139.943 380.529 152.796 379.088C162.539 378.49 178.621 375.627 183.193 384.923C183.196 389.79 183.135 394.766 183.193 399.621C184.942 401.282 186.089 401.749 188.488 402.117C196.647 402.151 194.932 391.75 194.925 386.205L194.906 365.811L194.906 361.192L167.734 361.192C164.883 359.925 162.308 358.271 162.088 354.782C161.493 345.356 172.899 347.143 178.981 347.143L198.174 347.155C204.168 347.874 207.362 351.725 209.281 357.172L209.298 384.111C209.314 399.73 209.166 417.621 186.86 416.826C180.491 415.896 176.947 413.629 172.519 409.176C168.349 402.731 168.725 400.189 168.769 392.576C165.882 392.53 163.137 392.479 160.248 392.576C160.396 409.703 154.262 413.561 139.035 416.826C130.058 414.432 123.364 409.008 121.384 399.621C121.317 397.19 121.335 394.998 121.384 392.576L106.454 392.576C103.247 405.742 98.0956 414.999 83.8527 416.826C71.3251 417.448 61.4264 407.67 61.9936 395.12C62.2858 389.831 65.5177 385.526 67.6601 380.781C78.364 357.075 79.193 330.944 79.1628 305.386C58.8239 299.898 55.6669 271.833 75.1006 262.884C81.1489 260.098 87.7089 260.704 94.215 260.727C97.1237 230.332 129.558 233.208 134.981 253.499C135.569 255.699 135.633 258.444 135.806 260.727C138.085 260.938 143.838 260.744 146.301 260.727C145.462 232.276 184.823 228.204 186.86 260.727C203.455 260.666 219.458 259.247 224.193 279.924C224.565 292.649 220.587 298.484 209.281 304.088C209.114 306.302 208.948 308.019 209.281 310.232C209.312 317.997 211.848 333.774 203.588 336.955C192.792 337.955 194.798 329.082 194.925 321.97C195.024 316.393 194.633 311.029 194.906 305.386C194.331 304.927 176.443 305.434 173.819 305.386C165.304 303.053 164.146 291.048 181.042 291.076L194.189 291.152C200.031 291.229 207.644 292.345 209.829 284.744C210.167 283.568 210.015 280.958 209.281 279.924C205.71 271.948 185.813 275.257 177.541 274.893C170.617 272.403 172.615 263.996 172.519 257.776C171.683 254.357 169.817 253.209 166.537 252.338C153.153 255.488 166.194 271.828 156.277 274.567C153.664 275.289 128.824 275.061 125.522 274.45C118.615 271.327 122.196 262.419 121.384 256.439Z"/><path fill="#3D405B" transform="scale(0.0976562 0.0976562)" d="M414.989 257.776C414.003 255.924 412.687 254.03 410.389 253.695C400.561 251.788 402.721 263.73 402.729 269.693L402.777 294.32C402.784 298.517 402.867 302.638 402.676 306.889C402.245 316.479 388.958 316.082 388.366 307.011C388.16 303.865 388.241 300.64 388.238 297.477L388.247 265.359C388.258 256.181 388.408 249.049 396.582 242.771C407.838 234.126 420.63 239.974 428.205 250.403C431.457 257.893 430.665 264.526 430.67 272.545L430.675 323.895C430.674 332.945 434.012 344.683 422.989 345.886C413.793 345.533 416.078 331.484 416.083 324.886L416.091 284.453C416.091 279.365 416.651 261.755 414.989 257.776Z"/><path fill="#3D405B" transform="scale(0.0976562 0.0976562)" d="M277.223 343.812C257.486 343.35 255.112 333.787 255.097 317.143L255.091 279.163C255.092 272.967 254.599 264.867 256.128 258.955C261.671 237.518 282.389 240.141 298.854 239.999C321.898 239.802 332.059 235.64 343.787 257.776C344.656 290.337 338.346 325.757 322.229 354.384C324.1 355.56 330.111 359.688 331.625 360.419C341.61 367.807 363.065 375.464 366.815 386.02C371.228 401.476 363.652 414.368 346.563 414.885C343.021 414.657 341.152 414.188 337.733 413.327C325.578 408.567 316.351 402.357 305.773 395.044C303.668 393.366 298.154 388.454 296.473 387.504L296.171 387.331C293.99 388.512 290.775 392.171 288.658 394.029C278.948 402.548 266.547 412.825 253.148 411.083C245.04 408.084 239.06 403.013 237.5 394.04C234.547 377.064 249.218 371.382 259.926 362.179C265.952 357 272.523 350.448 277.223 343.812ZM329.58 262.292C324.759 251.11 311.616 254.503 301.279 254.478C291.076 254.453 270.622 250.644 269.688 265.876C269.337 271.6 269.221 325.558 270.103 327.462C270.854 329.085 273.534 329.31 275.078 329.492C277.816 329.294 283.122 329.483 286.056 329.492C286.759 327.405 287.468 324.612 288.824 322.867C293.645 316.665 301.399 320.387 302.117 328.578C299.38 332.701 297.846 338.007 295.074 342.623C286.205 357.477 274.176 370.358 260.075 380.365C255.893 383.333 250.353 385.82 251.47 391.856C252.132 395.431 254.835 396.824 258.129 397.295C265.616 395.307 279.685 382.581 285.596 377.008C299.68 363.728 296.566 369.327 310.487 380.283C316.169 384.755 341.495 402.819 349.071 399.964C352.34 398.247 355.385 396.601 353.491 392.576C351.533 386.842 346.46 385.788 341.411 383.413C330.409 378.237 322.461 370.728 312.869 365.811C310.486 361.816 307.452 361.852 305.773 355.215C306.68 351.345 308.817 348.872 310.629 345.411C321.027 325.56 331.896 285.705 329.58 262.292Z"/><path fill="#F5DBB4" transform="scale(0.0976562 0.0976562)" d="M428.205 250.403C442.896 252.528 440.285 280.088 440.286 290.217L440.286 380.835C440.285 389.352 440.681 399.577 439.655 407.774C437.863 422.079 417.396 428.912 406.859 414.885C417.807 417.059 429.83 409.137 430.607 397.586C431.201 388.746 430.287 379.287 430.637 370.385C430.877 364.271 430.295 359.535 422.989 359.017C423.216 356.972 422.548 346.455 422.989 345.886C434.012 344.683 430.674 332.945 430.675 323.895L430.67 272.545C430.665 264.526 431.457 257.893 428.205 250.403Z"/><path fill="#E07A5F" transform="scale(0.0976562 0.0976562)" d="M121.384 256.439C122.196 262.419 118.615 271.327 125.522 274.45C127.435 280.514 128.947 279.979 134.891 279.956C142.989 279.924 151.157 280.06 159.247 279.759C172.574 279.263 159.06 255.382 172.519 257.776C172.615 263.996 170.617 272.403 177.541 274.893C181.327 281.105 184.403 280.079 191.532 279.943C197.408 279.831 203.421 280.102 209.281 279.924C210.015 280.958 210.167 283.568 209.829 284.744C207.644 292.345 200.031 291.229 194.189 291.152L181.042 291.076C164.146 291.048 165.304 303.053 173.819 305.386C174.404 307.575 175.829 308.825 177.541 310.232C181.704 310.238 191.156 309.924 194.906 310.232C194.886 308.959 194.789 306.572 194.906 305.386C194.633 311.029 195.024 316.393 194.925 321.97C194.798 329.082 192.792 337.955 203.588 336.955C202.149 341.709 201.816 343.439 198.174 347.155L178.981 347.143C172.899 347.143 161.493 345.356 162.088 354.782C162.308 358.271 164.883 359.925 167.734 361.192C168.662 363.492 169.191 364.34 171.23 365.811C178.487 366.015 188.1 365.327 194.906 365.811L194.925 386.205C194.932 391.75 196.647 402.151 188.488 402.117C188.537 395.607 189.986 388.115 183.193 384.923C178.621 375.627 162.539 378.49 152.796 379.088C139.943 380.529 152.345 400.167 141.252 402.117C141.267 394.942 143.295 388.193 135.806 384.056C131.744 377.778 129.544 379.041 122.382 378.882C117.885 378.782 101.107 377.987 97.4849 379.892C91.1551 384.776 92.5284 406.928 79.9247 402.117C97.1676 368.258 98.2012 347.002 98.1651 310.232C114.535 310.234 130.95 310.255 147.324 310.225C155.839 310.304 158.676 303.661 151.602 297.908C148.751 288.262 139.094 291.091 130.18 291.091L97.8417 291.109C93.901 291.114 86.0324 291.415 82.5556 291.137L82.2394 291.108C81.3218 285.828 78.3754 280.664 87.334 279.972C94.75 279.399 103.399 280.596 110.62 279.924C116.499 273.585 111.297 265.091 114.79 258.146C116.232 255.278 119.53 256.955 121.384 256.439ZM183.193 322.287C177.743 315.401 175.629 317.261 166.903 317.268L128.78 317.256C125.286 317.256 121.778 317.183 118.288 317.406C111.629 317.831 109.803 328.293 117.621 330.978C121.782 337.621 125.741 336.063 132.797 336.069L168.267 336.07C172.452 336.07 176.753 336.167 180.924 335.801C187.254 335.499 190.279 326.797 183.193 322.287ZM149.929 353.019C149.088 351.088 148.067 348.576 145.948 347.758C143.312 346.739 118.079 346.714 115.738 347.921C109.428 351.175 111.902 358.961 117.621 361.192C120.805 368.955 136.781 365.524 145.057 365.892C153.774 366.279 158.367 357.166 149.929 353.019Z"/><path fill="#E07A5F" transform="scale(0.0976562 0.0976562)" d="M414.989 257.776C416.651 261.755 416.091 279.365 416.091 284.453L416.083 324.886C416.078 331.484 413.793 345.533 422.989 345.886C422.548 346.455 423.216 356.972 422.989 359.017C420.651 359.581 418.451 360.361 417.187 362.569C413.67 368.711 417.952 392.383 416 397.748C414.916 400.728 410.886 402.431 408.033 400.976C407.756 396.516 407.964 393.354 408.005 388.905L408.027 280.072C408.025 275.83 407.756 265.079 408.478 261.512C410.556 258.745 411.775 258.32 414.989 257.776Z"/><path fill="#F5DBB4" transform="scale(0.0976562 0.0976562)" d="M343.787 257.776C348.072 259.235 353.082 266.9 353.272 271.394C354.096 290.896 345.975 344.602 331.695 360.342L331.625 360.419C330.111 359.688 324.1 355.56 322.229 354.384C338.346 325.757 344.656 290.337 343.787 257.776Z"/><path fill="#E07A5F" transform="scale(0.0976562 0.0976562)" d="M329.58 262.292C331.896 285.705 321.027 325.56 310.629 345.411C308.817 348.872 306.68 351.345 305.773 355.215C307.452 361.852 310.486 361.816 312.869 365.811C314.049 369.177 340.598 385.723 344.543 387.805C347.484 389.358 350.434 390.081 352.894 392.333C353.109 392.531 353.181 392.501 353.491 392.576C355.385 396.601 352.34 398.247 349.071 399.964C341.495 402.819 316.169 384.755 310.487 380.283C296.566 369.327 299.68 363.728 285.596 377.008C279.685 382.581 265.616 395.307 258.129 397.295C257.498 394.237 257.479 392.567 258.129 389.539C260.517 387.288 263.939 385.622 266.565 383.59C283.104 370.786 297.575 354.513 305.74 335.07C307.246 331.484 305.514 329.519 302.117 328.578C301.399 320.387 293.645 316.665 288.824 322.867C287.468 324.612 286.759 327.405 286.056 329.492C283.122 329.483 277.816 329.294 275.078 329.492C275.294 325.21 275.089 319.239 275.085 314.788L275.067 285.176C275.064 278.607 273.374 268.802 278.217 263.722C283.203 258.491 314.793 260.762 323.122 260.572C325.004 260.529 328.369 262.587 329.58 262.292ZM292.034 271.083C282.718 271.372 277.716 279.098 284.242 284.042C288.056 286.932 298.004 285.793 302.812 285.823C312.232 285.784 315.764 276.979 309.886 272.834C306.037 270.12 296.777 271.088 292.034 271.083ZM289.442 296.708C278.105 298.921 280.953 313.054 293.343 311.294C295.52 310.985 303.094 311.266 305.773 311.253C312.243 310.044 315.723 301.732 309.341 297.918C306.006 295.926 293.716 296.59 289.442 296.708Z"/><path fill="#3D405B" transform="scale(0.0976562 0.0976562)" d="M302.812 285.823C298.004 285.793 288.056 286.932 284.242 284.042C277.716 279.098 282.718 271.372 292.034 271.083C296.777 271.088 306.037 270.12 309.886 272.834C315.764 276.979 312.232 285.784 302.812 285.823Z"/><path fill="#F5DBB4" transform="scale(0.0976562 0.0976562)" d="M224.193 279.924C236.257 283.878 235.396 302.375 222.667 308.428C217.871 310.709 214.335 310.159 209.281 310.232C208.948 308.019 209.114 306.302 209.281 304.088C220.587 298.484 224.565 292.649 224.193 279.924Z"/><path fill="#3D405B" transform="scale(0.0976562 0.0976562)" d="M305.773 311.253C303.094 311.266 295.52 310.985 293.343 311.294C280.953 313.054 278.105 298.921 289.442 296.708C293.716 296.59 306.006 295.926 309.341 297.918C315.723 301.732 312.243 310.044 305.773 311.253Z"/><path fill="#3D405B" transform="scale(0.0976562 0.0976562)" d="M117.621 330.978C109.803 328.293 111.629 317.831 118.288 317.406C121.778 317.183 125.286 317.256 128.78 317.256L166.903 317.268C175.629 317.261 177.743 315.401 183.193 322.287C181.999 334.739 166.297 330.986 156.172 330.985L117.621 330.978Z"/><path fill="#3D405B" transform="scale(0.0976562 0.0976562)" d="M396.575 357.172C384.299 356.685 385.542 332.619 394.647 329.492C406.121 330.552 405.92 353.206 396.575 357.172Z"/><path fill="#3D405B" transform="scale(0.0976562 0.0976562)" d="M117.621 361.192C111.902 358.961 109.428 351.175 115.738 347.921C118.079 346.714 143.312 346.739 145.948 347.758C148.067 348.576 149.088 351.088 149.929 353.019C148.589 364.491 138.362 360.496 129.76 361.202C126.495 361.47 120.905 361.4 117.621 361.192Z"/><path fill="#F5DBB4" transform="scale(0.0976562 0.0976562)" d="M209.281 357.172C221.549 360.706 219.247 368.943 219.003 380.066C218.682 388.775 219.506 397.558 218.793 406.251C217.914 416.968 207.311 425.659 196.528 422.424C192.918 421.341 188.609 417.026 186.86 416.826C209.166 417.621 209.314 399.73 209.298 384.111L209.281 357.172Z"/><path fill="#3D405B" transform="scale(0.0976562 0.0976562)" d="M408.033 400.976C410.886 402.431 414.916 400.728 416 397.748C417.952 392.383 413.67 368.711 417.187 362.569C418.451 360.361 420.651 359.581 422.989 359.017C430.295 359.535 430.877 364.271 430.637 370.385C430.287 379.287 431.201 388.746 430.607 397.586C429.83 409.137 417.807 417.059 406.859 414.885C386.681 412.146 388.63 393.262 388.21 379.107C387.997 370.002 400.942 367.795 402.669 377.486C404.141 385.743 399.045 396.303 408.033 400.976Z"/><path fill="#F5DBB4" transform="scale(0.0976562 0.0976562)" d="M366.815 386.02C376.808 391.975 381.375 404.167 373.869 414.163C367.34 422.858 352.362 424.762 344.52 417.656L344.613 417.551C344.732 416.714 343.464 417.055 342.904 415.807L343.298 415.209C344.17 414.806 346.172 415.235 347.292 415.362L347.089 414.955L347.445 415.231C347.12 415.116 346.88 415.017 346.563 414.885C363.652 414.368 371.228 401.476 366.815 386.02Z"/><path fill="#F5DBB4" transform="scale(0.0976562 0.0976562)" d="M305.773 395.044C298.388 403.49 287.558 411.733 277.977 417.608C270.363 422.278 257.107 419.314 253.148 411.083C266.547 412.825 278.948 402.548 288.658 394.029C290.775 392.171 293.99 388.512 296.171 387.331L296.473 387.504C298.154 388.454 303.668 393.366 305.773 395.044Z"/><path fill="#F5DBB4" transform="scale(0.0976562 0.0976562)" d="M121.384 399.621C117.781 399.455 116.999 402.88 115.949 405.858C110.758 420.593 94.3346 431.148 83.8527 416.826C98.0956 414.999 103.247 405.742 106.454 392.576L121.384 392.576C121.335 394.998 121.317 397.19 121.384 399.621Z"/><path fill="#F5DBB4" transform="scale(0.0976562 0.0976562)" d="M172.519 409.176C167.71 418.657 157.385 426.998 146.562 421.948C144.575 421.02 140.47 417.154 139.035 416.826C154.262 413.561 160.396 409.703 160.248 392.576C163.137 392.479 165.882 392.53 168.769 392.576C168.725 400.189 168.349 402.731 172.519 409.176Z"/><path fill="#F4F1DE" transform="scale(0.0976562 0.0976562)" d="M337.733 413.327C341.152 414.188 343.021 414.657 346.563 414.885C346.88 415.017 347.12 415.116 347.445 415.231L347.089 414.955L347.292 415.362C346.172 415.235 344.17 414.806 343.298 415.209L342.904 415.807C343.464 417.055 344.732 416.714 344.613 417.551L344.52 417.656C342.805 417.144 338.964 414.746 337.733 413.327Z"/></svg>