<?xml version="1.0" encoding="utf-8" ?><svg xmlns="http://www.w3.org/2000/svg" xmlns:xlink="http://www.w3.org/1999/xlink" width="50" height="50" viewBox="0 0 50 50"><path fill="#3D405B" transform="scale(0.0976562 0.0976562)" d="M350.854 62.1758C346.835 63.2867 342.677 60.9249 341.574 56.904C340.47 52.8832 342.839 48.7298 346.862 47.6332C350.875 46.5393 355.015 48.9012 356.116 52.912C357.217 56.9228 354.863 61.0677 350.854 62.1758Z"/><path fill="#3D405B" transform="scale(0.0976562 0.0976562)" d="M378.587 62.0752C376.011 62.6606 373.32 61.8072 371.552 59.8444C369.785 57.8815 369.217 55.1162 370.068 52.6155C370.919 50.1148 373.055 48.2698 375.653 47.7926C377.788 47.4003 379.987 47.9797 381.652 49.3732C383.316 50.7667 384.273 52.8293 384.263 55.0001C384.246 58.3914 381.894 61.3236 378.587 62.0752Z"/><path fill="#3D405B" transform="scale(0.0976562 0.0976562)" d="M159.78 100.443C149.84 100.415 137.273 98.8296 133.928 111.22C132.371 116.987 133.582 142.536 133.46 149.822C133.554 152.813 133.376 153.702 131.996 156.501L131.729 156.7C128.106 159.353 122.612 159.442 120.173 155.519C118.333 152.558 119.25 144.573 119.242 140.829L119.207 123.013C119.195 117.946 118.672 112.794 119.919 107.891C125.351 86.5244 143.009 86.2452 160.351 86.2471L349.984 86.252C355.784 86.2509 363.797 85.8105 369.125 87.2867C385.13 91.7214 392.645 104.376 392.495 120.233C407.128 120.126 412.779 122.056 412.782 139.068L412.762 200.91C412.717 214.621 398.862 211.527 398.327 203.409C398.162 200.912 398.235 198.443 398.235 195.952L398.241 134.254L392.495 134.254L392.51 248.506C392.519 256.079 395.171 267.541 385.996 269.187C377.183 269.327 378.554 259.467 378.565 253.635L378.591 129.909C378.594 119.26 379.94 112.8 372.688 104.253C365.581 98.6168 352.361 100.443 343.786 100.447L173.789 100.443C173.412 103.219 173.723 107.329 173.759 110.23L173.816 127.002C173.819 133.478 174.867 140.212 166.283 140.975C158.28 138.906 159.72 134.805 159.747 128.201C159.779 120.271 158.924 107.949 159.78 100.443Z"/><path fill="white" transform="scale(0.0976562 0.0976562)" d="M173.789 100.443L343.786 100.447C352.361 100.443 365.581 98.6168 372.688 104.253C372.52 104.352 359.341 103.478 358.093 103.427C344.661 102.876 332.599 103.387 319.423 103.494L190.398 103.503C184.731 103.525 179.442 103.943 173.789 103.501C173.849 102.42 173.82 101.515 173.789 100.443Z"/><path fill="#E07A5F" transform="scale(0.0976562 0.0976562)" d="M159.78 100.443C158.924 107.949 159.779 120.271 159.747 128.201C159.72 134.805 158.28 138.906 166.283 140.975C166.393 145.507 166.282 149.974 166.283 154.498C161.706 155.59 159.856 157.764 159.821 162.4L159.78 270.003C159.783 278.254 156.978 290.689 167.927 290.657C167.928 292.907 168.172 302.901 167.954 304.348C165.104 303.867 162.237 305.104 160.631 307.506C159.025 309.909 158.978 313.03 160.511 315.48C162.044 317.93 164.872 319.252 167.735 318.858C167.743 320.092 167.723 329.307 167.927 329.706C155.903 330.074 159.759 350.938 159.78 360.483C150.025 359.929 145.071 360.724 136.517 365.909C136.289 362.552 136.498 356.671 136.505 353.071L136.527 225.304C136.526 219.381 136.791 212.607 135.717 206.855C136.875 205.24 137.174 184.457 136.517 182.201L136.517 180.191C137.596 173.77 136.65 150.133 136.517 142.99C136.485 122.882 131.75 102.925 159.78 104.253C159.712 102.947 159.751 101.746 159.78 100.443Z"/><path fill="#F8D7B2" transform="scale(0.0976562 0.0976562)" d="M166.283 140.975C174.867 140.212 173.819 133.478 173.816 127.002L173.759 110.23C173.723 107.329 173.412 103.219 173.789 100.443C173.82 101.515 173.849 102.42 173.789 103.501C179.442 103.943 184.731 103.525 190.398 103.503L319.423 103.494C332.599 103.387 344.661 102.876 358.093 103.427C359.341 103.478 372.52 104.352 372.688 104.253C379.94 112.8 378.594 119.26 378.591 129.909L378.565 253.635C378.554 259.467 377.183 269.327 385.996 269.187C386.047 270.582 386.155 281.158 385.996 282.21C375.314 283.546 378.564 300.409 378.577 309.256L378.566 345.449C378.552 356.24 381.675 360.487 368.627 360.49L173.789 360.483L173.811 343.881C173.831 338.005 175.334 331.569 167.927 329.706C167.723 329.307 167.743 320.092 167.735 318.858C171.326 318.363 174.018 315.321 174.073 311.697C174.128 308.072 171.528 304.95 167.954 304.348C168.172 302.901 167.928 292.907 167.927 290.657C171.462 289.919 173.748 287.82 173.766 284.105L173.795 186.635C173.794 182.572 174.58 161.896 173.151 159.039C171.717 156.172 169.266 154.99 166.283 154.498C166.282 149.974 166.393 145.507 166.283 140.975ZM208.885 200.176C197.88 200.648 199.689 213.093 206.248 214.11C208.406 214.444 211.997 214.279 214.384 214.278L278.562 214.258C288.386 213.798 287.758 201.061 279.821 200.388C276.715 200.125 273.941 200.173 270.888 200.171L208.885 200.176ZM207.505 237.537C198.636 239.067 198.869 251.642 208.687 251.662L345.087 251.715C352.736 250.251 355.439 238.408 343.313 237.562L230.035 237.532C223.159 237.532 214.253 237.273 207.505 237.537ZM207.505 276.244C197.874 278.797 200.253 290.657 208.235 290.567C215.405 290.743 222.586 290.666 229.757 290.666L271.904 290.657C278.997 289.065 282.39 276.262 266.294 276.237L207.505 276.244Z"/><path fill="#F8D7B2" transform="scale(0.0976562 0.0976562)" d="M136.517 149.822C136.405 147.492 136.244 145.309 136.517 142.99C136.65 150.133 137.596 173.77 136.517 180.191C130.237 170.278 133.442 166.593 131.996 156.501C133.376 153.702 133.554 152.813 133.46 149.822L133.584 149.991C134.309 150.326 135.57 149.96 136.517 149.822Z"/><path fill="#3D405B" transform="scale(0.0976562 0.0976562)" d="M167.927 290.657C156.978 290.689 159.783 278.254 159.78 270.003L159.821 162.4C159.856 157.764 161.706 155.59 166.283 154.498C169.266 154.99 171.717 156.172 173.151 159.039C174.58 161.896 173.794 182.572 173.795 186.635L173.766 284.105C173.748 287.82 171.462 289.919 167.927 290.657Z"/><path fill="#3D405B" transform="scale(0.0976562 0.0976562)" d="M128.104 186.19C124.405 187.306 120.505 185.195 119.416 181.488C118.328 177.781 120.468 173.896 124.183 172.835C127.859 171.786 131.694 173.898 132.771 177.567C133.848 181.235 131.764 185.086 128.104 186.19Z"/><path fill="#F8D7B2" transform="scale(0.0976562 0.0976562)" d="M135.717 206.855C134.235 200.484 133.631 188.376 136.517 182.201C137.174 184.457 136.875 205.24 135.717 206.855Z"/><path fill="#3D405B" transform="scale(0.0976562 0.0976562)" d="M278.562 214.258L214.384 214.278C211.997 214.279 208.406 214.444 206.248 214.11C199.689 213.093 197.88 200.648 208.885 200.176L270.888 200.171C273.941 200.173 276.715 200.125 279.821 200.388C287.758 201.061 288.386 213.798 278.562 214.258Z"/><path fill="#3D405B" transform="scale(0.0976562 0.0976562)" d="M173.789 360.483L368.627 360.49C381.675 360.487 378.552 356.24 378.566 345.449L378.577 309.256C378.564 300.409 375.314 283.546 385.996 282.21C394.423 284.478 392.54 290.932 392.502 298.046L392.502 342.137C392.503 347.318 393.172 357.435 391.799 362.02C387.479 376.445 371.296 373.943 369.601 393.079C367.424 417.66 389.086 414.113 392.453 420.203C394.38 423.691 393.009 428.292 389.412 430.068C385.988 431.758 372.109 430.694 367.811 430.693L213.043 430.697C213.038 440.106 216.568 456.192 206.249 458.339C202.654 457.28 191.168 448.452 186.896 445.116C183.687 447.668 179.953 449.894 176.873 452.415C154.6 470.644 161.046 441.698 159.78 430.697C123.989 430.452 119.197 412.833 119.214 380.899L119.132 209.229C119.017 198.254 133.004 199.041 133.371 208.617C133.61 214.838 133.449 220.864 133.436 227.003L133.46 367.791C134.508 367.169 135.495 366.58 136.517 365.909C145.071 360.724 150.025 359.929 159.78 360.483C159.759 350.938 155.903 330.074 167.927 329.706C175.334 331.569 173.831 338.005 173.811 343.881L173.789 360.483ZM199.082 406.304L199.082 402.959C191.925 403.504 180.89 403.248 173.789 402.959C173.788 414.229 173.613 425.971 173.789 437.201C175.081 436.378 175.644 436.008 176.82 434.999C187.523 428.502 188.12 425.738 199.082 437.201C199.441 427.789 199.088 415.892 199.082 406.304ZM154.185 374.386C126.323 376.951 124.412 419.265 159.78 416.758L159.78 402.959C142.075 403.203 147.918 388.82 154.174 388.657C158.612 388.542 163.236 388.745 167.739 388.749L301.375 388.747C319.743 388.751 338.494 388.545 356.827 388.747C357.216 383.649 359.287 378.651 362.065 374.386L175.762 374.381C169.742 374.377 159.955 374.057 154.185 374.386ZM213.043 402.959L212.722 403.247C212.582 407.688 213.058 412.282 213.043 416.758L362.065 416.758C362.091 415.666 357.467 406.237 356.827 402.959C353.603 403.265 348.155 402.971 344.642 402.964L225.704 402.952C221.7 402.942 216.996 402.808 213.043 402.959Z"/><path fill="#3D405B" transform="scale(0.0976562 0.0976562)" d="M407.379 238.599C403.522 239.629 399.559 237.346 398.515 233.493C397.47 229.64 399.739 225.668 403.588 224.61C407.457 223.546 411.454 225.829 412.504 229.702C413.554 233.575 411.256 237.564 407.379 238.599Z"/><path fill="#3D405B" transform="scale(0.0976562 0.0976562)" d="M345.087 251.715L208.687 251.662C198.869 251.642 198.636 239.067 207.505 237.537C214.253 237.273 223.159 237.532 230.035 237.532L343.313 237.562C355.439 238.408 352.736 250.251 345.087 251.715Z"/><path fill="#3D405B" transform="scale(0.0976562 0.0976562)" d="M271.904 290.657L229.757 290.666C222.586 290.666 215.405 290.743 208.235 290.567C200.253 290.657 197.874 278.797 207.505 276.244L266.294 276.237C282.39 276.262 278.997 289.065 271.904 290.657Z"/><path fill="#3D405B" transform="scale(0.0976562 0.0976562)" d="M167.735 318.858C164.872 319.252 162.044 317.93 160.511 315.48C158.978 313.03 159.025 309.909 160.631 307.506C162.237 305.104 165.104 303.867 167.954 304.348C171.528 304.95 174.128 308.072 174.073 311.697C174.018 315.321 171.326 318.363 167.735 318.858Z"/><path fill="#E07A5F" transform="scale(0.0976562 0.0976562)" d="M176.82 406.304C184.188 406.289 191.745 406.447 199.082 406.304C199.088 415.892 199.441 427.789 199.082 437.201C188.12 425.738 187.523 428.502 176.82 434.999C176.595 433.241 176.793 428.14 176.798 426.05L176.82 406.304Z"/><path fill="#3D405B" transform="scale(0.0976562 0.0976562)" d="M228.829 447.874C228.759 444.666 230.994 441.867 234.138 441.225C236.484 440.746 238.905 441.567 240.476 443.374C242.047 445.181 242.523 447.693 241.723 449.949C240.922 452.205 238.969 453.856 236.611 454.269C234.704 454.602 232.747 454.087 231.251 452.858C229.756 451.629 228.871 449.809 228.829 447.874Z"/></svg>