<?xml version="1.0" encoding="utf-8" ?><svg xmlns="http://www.w3.org/2000/svg" xmlns:xlink="http://www.w3.org/1999/xlink" width="50" height="50" viewBox="0 0 50 50"><path fill="#3D405B" transform="scale(0.0976562 0.0976562)" d="M243.142 83.3298C239.366 83.663 236.031 80.8812 235.682 77.1068C235.332 73.3324 238.099 69.9853 241.872 69.6191C245.668 69.2506 249.041 72.0386 249.393 75.8365C249.744 79.6344 246.942 82.9946 243.142 83.3298Z"/><path fill="#3D405B" transform="scale(0.0976562 0.0976562)" d="M199.811 83.1468C198.282 83.3555 193.24 83.1656 191.381 83.1614L118.99 83.1649C107.462 83.137 107.531 72.7187 115.526 69.7551C119.69 69.6078 124.601 69.7486 128.841 69.7493L183.264 69.7508C188.016 69.7507 192.741 69.7246 197.518 69.7792C206.455 69.7028 208.279 80.1911 199.811 83.1468Z"/><path fill="#3D405B" transform="scale(0.0976562 0.0976562)" d="M116.487 301.27C116.219 287.165 112.753 280.389 127.243 271.56L127.215 252.696C127.21 247.733 126.352 242.434 129.26 238.279L129.26 233.702C117.013 230.845 113.429 221.921 113.792 210.521C64.5928 213.569 35.2549 158.094 68.0157 120.205C84.8106 100.781 103.517 101.311 126.214 101.343L359.407 101.34C363.374 101.338 367.751 101.161 371.651 101.403C388.997 102.48 397.543 128.187 374.039 137.961L374.039 172.839C385.051 177.742 389.558 184.957 386.989 197.042C398.859 196.136 413.895 201.206 422.867 209.088C454.708 237.06 444.536 285.271 405.799 299.505C409.282 310.85 405.859 321.634 393.398 325.195C390.641 329.347 389.928 335.768 389.543 340.742C392.795 343.674 393.85 353.736 390.43 356.68L390.474 356.987C392.166 368.158 392.995 369.603 400.873 375.842C413.785 386.067 406.208 407.69 389.605 407.274C387.004 407.209 384.105 407.285 381.524 407.281L137.442 407.261C131.725 407.271 123.819 407.833 118.447 407.011C68.8753 399.435 56.0309 334.947 94.5874 305.326C97.9154 302.769 99.6225 302.968 103.519 303.261C109.047 311.697 106.955 312.408 100.528 318.156C77.0729 339.132 81.9283 378.457 111.2 391.712C108.656 387.877 105.692 384.705 103.64 380.471C91.411 355.25 103.739 323.646 130.626 314.69C140.297 311.468 153.673 312.434 164.029 312.436L367.829 312.447C375.832 312.445 390.944 315.611 393.398 307.393L393.267 306.963C392.075 303.194 390.262 302.404 386.524 302.388L143.399 302.391C138.889 302.393 134.234 302.347 129.733 302.412C125.859 302.468 117.146 306.468 116.487 301.27ZM252.456 130.069L252.572 129.758C255.485 122.188 264.46 124.21 271.046 124.226L362.395 124.269C365.694 124.294 372.649 125.383 374.4 121.544C375.55 119.023 373.896 116.129 371.41 115.283C368.506 114.294 336.855 114.877 330.579 114.877L123.105 114.865C118.383 114.864 113.754 114.845 109.022 115.018C69.5035 116.457 53.9869 164.323 84.1079 188.384C86.8317 190.594 88.802 191.741 91.9552 193.167C89.9827 190.278 88.4559 187.551 86.794 184.471C76.7613 161.862 86.8885 135.459 110.213 126.659C118.26 123.623 128.193 124.234 136.75 124.236L202.457 124.158C206.452 124.17 208.591 126.385 209.735 130.069C209.599 139.42 200.801 137.996 194.342 137.96L132.725 137.953C121.618 137.957 113.329 137.899 104.916 146.608C87.3403 164.805 99.9149 194.831 124.617 196.88C127.685 197.134 130.656 197.051 133.735 197.047L366.335 197.066C369.911 197.072 374.648 195.591 374.064 191.026C373.235 184.538 365.598 186.184 360.784 186.202L334.29 186.251C329.987 186.255 325.611 186.431 321.338 186.118C313.721 185.558 314.403 173.143 321.152 172.946C335.013 172.543 349.114 173.041 362.975 172.839C358.785 165.783 359.058 144.011 362.975 137.961L271.231 137.983C263.933 138.01 253 140.408 252.456 130.069ZM133.653 283.847C130.887 285.141 130.016 285.766 129.26 288.818C131.606 288.848 136.926 289.047 139.119 288.818C143.248 289.214 149.851 288.833 154.172 288.828L381.599 288.823C394.907 288.821 403.202 289.014 414.078 279.725C440.27 257.354 427.261 214.188 392.929 210.625C389.318 210.251 384.702 210.514 381.026 210.515L133.822 210.589C127.766 210.966 124.177 214.426 129.26 219.396C138.386 219.675 149.25 219.401 158.499 219.4L237.812 219.382C241.285 219.372 246.864 219.065 250.106 219.534C258.706 220.779 257.717 232.976 248.246 233.172C244.104 233.258 239.809 233.306 235.701 233.296L139.119 233.299L139.119 239.131C142.198 241.575 141.113 246.193 141.105 249.78L141.072 263.462L172.342 263.459C176.505 263.455 182.329 263.098 186.35 263.635C191.128 264.272 193.886 271.891 189.694 275.194C185.359 278.61 177.594 277.243 172.252 277.241L139.879 277.227C138.277 281.072 137.17 281.636 133.653 283.847ZM144.556 326.044C112.925 328.304 101.085 364.524 124.144 385.346C134.475 394.675 146.122 393.753 158.894 393.753L378.682 393.739C381.267 393.739 390.848 394.588 392.492 392.381C394.571 389.59 392.683 385.949 389.001 386.39L271.114 386.417C266.598 386.429 261.428 387.531 258.415 383.696C251.69 370.145 270.904 372.817 277.914 372.818L380.906 372.821C378.436 364.795 377.314 360.754 376.194 352.362L335.341 352.388C319.698 352.261 325.253 339.396 331.199 339.092C336.114 338.84 341.136 338.943 346.102 338.943L376.194 338.951C376.695 333.869 377.06 331.021 378.229 326.044L144.556 326.044Z"/><path fill="#F4F1DE" transform="scale(0.0976562 0.0976562)" d="M247.32 130.069C244.429 121.023 222.863 121.743 220.825 130.069C218.002 130.111 211.989 129.764 209.735 130.069C208.591 126.385 206.452 124.17 202.457 124.158L136.75 124.236C128.193 124.234 118.26 123.623 110.213 126.659C86.8885 135.459 76.7613 161.862 86.794 184.471L86.4326 184.508L86.7796 185.5C84.8707 186.444 85.1466 187.785 84.1079 188.384C53.9869 164.323 69.5035 116.457 109.022 115.018C113.754 114.845 118.383 114.864 123.105 114.865L330.579 114.877C336.855 114.877 368.506 114.294 371.41 115.283C373.896 116.129 375.55 119.023 374.4 121.544C372.649 125.383 365.694 124.294 362.395 124.269L271.046 124.226C264.46 124.21 255.485 122.188 252.572 129.758L252.456 130.069C251.18 129.517 248.676 129.683 247.32 130.069Z"/><path fill="#3D405B" transform="scale(0.0976562 0.0976562)" d="M220.825 130.069C222.863 121.743 244.429 121.023 247.32 130.069C246.967 136.942 243.06 138.387 236.791 137.999C229.707 137.56 220.953 140.591 220.825 130.069Z"/><path fill="#E07A5F" transform="scale(0.0976562 0.0976562)" d="M247.32 130.069C248.676 129.683 251.18 129.517 252.456 130.069C253 140.408 263.933 138.01 271.231 137.983L362.975 137.961C359.058 144.011 358.785 165.783 362.975 172.839C349.114 173.041 335.013 172.543 321.152 172.946C314.403 173.143 313.721 185.558 321.338 186.118C325.611 186.431 329.987 186.255 334.29 186.251L360.784 186.202C365.598 186.184 373.235 184.538 374.064 191.026C374.648 195.591 369.911 197.072 366.335 197.066L133.735 197.047C130.656 197.051 127.685 197.134 124.617 196.88C99.9149 194.831 87.3403 164.805 104.916 146.608C113.329 137.899 121.618 137.957 132.725 137.953L194.342 137.96C200.801 137.996 209.599 139.42 209.735 130.069C211.989 129.764 218.002 130.111 220.825 130.069C220.953 140.591 229.707 137.56 236.791 137.999C243.06 138.387 246.967 136.942 247.32 130.069Z"/><path fill="#F4F1DE" transform="scale(0.0976562 0.0976562)" d="M133.653 283.847C137.17 281.636 138.277 281.072 139.879 277.227L172.252 277.241C177.594 277.243 185.359 278.61 189.694 275.194C193.886 271.891 191.128 264.272 186.35 263.635C182.329 263.098 176.505 263.455 172.342 263.459L141.072 263.462L141.105 249.78C141.113 246.193 142.198 241.575 139.119 239.131L139.119 233.299L235.701 233.296C239.809 233.306 244.104 233.258 248.246 233.172C257.717 232.976 258.706 220.779 250.106 219.534C246.864 219.065 241.285 219.372 237.812 219.382L158.499 219.4C149.25 219.401 138.386 219.675 129.26 219.396C124.177 214.426 127.766 210.966 133.822 210.589L381.026 210.515C384.702 210.514 389.318 210.251 392.929 210.625C427.261 214.188 440.27 257.354 414.078 279.725C403.202 289.014 394.907 288.821 381.599 288.823L154.172 288.828C149.851 288.833 143.248 289.214 139.119 288.818C138.201 288.144 133.668 288.704 132.273 288.818C134.618 286.021 134.121 286.991 133.653 283.847ZM269.475 219.396C262.573 220.408 256.651 234.062 279.943 233.299C286.086 230.43 288.759 222.953 281.05 219.87C278.959 219.034 272.162 219.372 269.475 219.396ZM353.433 224.153L336.079 224.14C325.412 224.128 316.194 223.197 307.77 231.488C294.46 244.588 300.001 268.979 318.436 273.774C323.989 275.219 332.655 274.783 338.625 274.782L361.375 274.769L378.151 274.782C388.891 274.826 396.878 275.906 405.247 267.458C419.119 253.456 412.804 229.767 393.509 225.1C387.788 223.716 380.678 224.136 374.714 224.137L353.433 224.153Z"/><path fill="#3D405B" transform="scale(0.0976562 0.0976562)" d="M279.943 233.299C256.651 234.062 262.573 220.408 269.475 219.396C272.162 219.372 278.959 219.034 281.05 219.87C288.759 222.953 286.086 230.43 279.943 233.299Z"/><path fill="#E9C9AD" transform="scale(0.0976562 0.0976562)" d="M361.375 274.769L338.625 274.782C332.655 274.783 323.989 275.219 318.436 273.774C300.001 268.979 294.46 244.588 307.77 231.488C316.194 223.197 325.412 224.128 336.079 224.14L353.433 224.153L374.714 224.137C380.678 224.136 387.788 223.716 393.509 225.1C412.804 229.767 419.119 253.456 405.247 267.458C396.878 275.906 388.891 274.826 378.151 274.782L361.375 274.769Z"/><path fill="#3D405B" transform="scale(0.0976562 0.0976562)" d="M464.376 276.789C460.703 277.801 456.904 275.65 455.882 271.981C454.859 268.311 456.998 264.506 460.664 263.472C464.346 262.434 468.171 264.584 469.199 268.269C470.226 271.954 468.064 275.773 464.376 276.789Z"/><path fill="#3D405B" transform="scale(0.0976562 0.0976562)" d="M53.103 279.619C52.9393 274.148 52.3647 271.381 57.7879 268.811C66.0901 267.933 66.7945 272.981 66.7804 279.619C68.3869 279.578 70.7181 279.411 72.2109 279.613C77.699 280.355 84.0932 292.956 66.7804 292.958C66.7967 298.389 67.0184 302.608 60.5155 303.261C53.5995 304.711 53.0476 297.854 53.103 292.958C33.9554 293.072 41.1441 278.801 48.6127 279.625C49.7618 279.752 51.9233 279.631 53.103 279.619Z"/><path fill="white" transform="scale(0.0976562 0.0976562)" d="M129.26 288.818C130.016 285.766 130.887 285.141 133.653 283.847C134.121 286.991 134.618 286.021 132.273 288.818C133.668 288.704 138.201 288.144 139.119 288.818C136.926 289.047 131.606 288.848 129.26 288.818Z"/><path fill="#E07A5F" transform="scale(0.0976562 0.0976562)" d="M116.487 301.27C117.146 306.468 125.859 302.468 129.733 302.412C134.234 302.347 138.889 302.393 143.399 302.391L386.524 302.388C390.262 302.404 392.075 303.194 393.267 306.963L393.398 307.393C390.944 315.611 375.832 312.445 367.829 312.447L164.029 312.436C153.673 312.434 140.297 311.468 130.626 314.69C103.739 323.646 91.411 355.25 103.64 380.471C105.692 384.705 108.656 387.877 111.2 391.712C81.9283 378.457 77.0729 339.132 100.528 318.156C106.955 312.408 109.047 311.697 103.519 303.261C108.335 302.674 116.343 305.288 116.487 301.27Z"/><path fill="#F4F1DE" transform="scale(0.0976562 0.0976562)" d="M258.415 383.696C261.428 387.531 266.598 386.429 271.114 386.417L389.001 386.39C392.683 385.949 394.571 389.59 392.492 392.381C390.848 394.588 381.267 393.739 378.682 393.739L158.894 393.753C146.122 393.753 134.475 394.675 124.144 385.346C101.085 364.524 112.925 328.304 144.556 326.044L378.229 326.044C377.06 331.021 376.695 333.869 376.194 338.951L346.102 338.943C341.136 338.943 336.114 338.84 331.199 339.092C325.253 339.396 319.698 352.261 335.341 352.388L376.194 352.362C377.314 360.754 378.436 364.795 380.906 372.821L277.914 372.818C270.904 372.817 251.69 370.145 258.415 383.696ZM234.01 372.821C223.18 377.488 229.76 389.293 244.609 386.392C250.824 383.489 251.726 375.472 244.691 372.937C242.956 372.312 236.084 372.642 234.01 372.821Z"/><path fill="#3D405B" transform="scale(0.0976562 0.0976562)" d="M423.832 353.959C419.801 354.443 416.142 351.563 415.668 347.531C415.193 343.498 418.083 339.847 422.117 339.383C426.136 338.92 429.771 341.798 430.244 345.816C430.717 349.834 427.848 353.476 423.832 353.959Z"/><path fill="#3D405B" transform="scale(0.0976562 0.0976562)" d="M244.609 386.392C229.76 389.293 223.18 377.488 234.01 372.821C236.084 372.642 242.956 372.312 244.691 372.937C251.726 375.472 250.824 383.489 244.609 386.392Z"/><path fill="#3D405B" transform="scale(0.0976562 0.0976562)" d="M333.384 437.348C331.143 437.489 328.1 437.36 325.788 437.358L281.668 437.316C272.681 437.249 271.101 426.366 279.943 423.751L314.071 423.736C319.928 423.735 325.649 423.721 331.629 423.804C340.217 423.924 340.756 434.742 333.384 437.348Z"/><path fill="#3D405B" transform="scale(0.0976562 0.0976562)" d="M374.039 437.348C371.175 437.763 355.51 437.532 352.598 436.71C346.901 435.103 345.994 426.82 353.433 423.751C362.166 423.128 377.218 420.991 379.31 430.655C378.402 434.243 377.403 435.644 374.039 437.348Z"/></svg>