<?xml version="1.0" encoding="utf-8" ?><svg xmlns="http://www.w3.org/2000/svg" xmlns:xlink="http://www.w3.org/1999/xlink" width="50" height="50" viewBox="0 0 50 50"><path fill="#3D405B" transform="scale(0.0976562 0.0976562)" d="M432.879 101.511C429.129 102.538 425.255 100.338 424.217 96.5907C423.179 92.8438 425.369 88.9635 429.113 87.9151C432.872 86.8623 436.771 89.0628 437.813 92.8248C438.855 96.5868 436.644 100.48 432.879 101.511Z"/><path fill="#3D405B" transform="scale(0.0976562 0.0976562)" d="M62.9425 217.435C53.3021 213.761 56.9945 197.584 56.6481 188.218C55.7896 165.007 59.4565 146.663 86.0011 147.255C84.9977 118.279 91.1354 113.936 118.13 110.307C130.171 108.689 172.281 102.468 181.293 110.753C184.175 113.402 183.333 117.95 180.773 120.535C177.264 124.079 170.87 121.866 166.611 121.266C151.168 119.091 135.268 122.311 120.014 124.461C107.871 126.172 100.161 123.796 99.868 139.403C99.6062 153.352 99.843 167.347 99.8438 181.3L99.8217 321.703C99.818 323.56 99.6996 327.344 99.8424 329.079L102.472 331.468C146.667 316.148 211.691 321.219 245.094 356.005C245.293 351.061 245.096 345.663 245.098 340.646L245.086 311.988C245.055 307.087 244.564 302.352 244.795 297.373C245.207 288.521 257.727 288.569 258.67 296.051C259.245 300.609 258.904 307.531 258.903 312.307L258.892 340.208C258.89 344.545 258.724 349.864 258.899 354.087L259.246 353.885C262.636 351.89 265.904 349.077 269.154 346.803C307.957 319.659 358.32 317.955 402.532 331.468C403.438 321.883 402.514 317.081 402.521 308.028L402.535 182.724C402.535 176.47 403.964 130.402 399.355 127.534C397.382 126.306 388.614 125.957 385.91 125.525C360.427 121.431 342.936 117.557 316.246 123.473C291.945 128.859 275.259 137.827 258.899 156.478C259.281 162.742 259.417 174.982 259.053 181.468C258.597 189.6 246.326 189.272 245.398 182.368C244.251 173.824 245.782 163.855 245.094 155.281C235.525 144.674 224.292 136.871 211.225 131.35C198.996 126.183 204.092 115.366 211.496 116.158C222.036 117.724 245.805 134.944 252.406 142.352C270.605 120.849 304.381 109.059 331.686 106.784C351.819 105.107 366.679 108.136 385.974 111.162C393.998 112.421 401.471 111.313 408.157 116.9C416.731 124.063 416.593 136.867 416.38 147.255C448.004 150.633 444.935 164.223 445.629 191.064C445.792 197.378 445.728 203.75 445.729 210.065L446.413 363.728C446.489 378.321 441.37 391.354 424.933 394.281C421.241 394.939 417.329 394.778 413.602 394.773L385.349 394.748C379.623 394.72 376.498 393.619 375.904 387.276C376.529 378.278 390.676 380.782 398.05 381.036C406.489 381.064 415.497 381.637 423.731 379.821C435.506 377.225 432.418 359.958 432.326 351.125L431.702 176.51C431.573 165.966 427.27 161.717 416.696 162.279L416.698 322.114C416.7 326.136 418.092 334.722 415.317 337.39C403.03 349.201 407.934 347.846 392.089 343.299C347.032 330.368 293.601 337.641 260.34 372.895C255.629 376.952 260.85 385.438 256.605 389.363C251.782 393.821 243.953 390.608 244.263 383.743C244.627 375.682 236.896 367.494 231.369 362.562C200.66 335.854 154.236 333.156 116.214 342.175C103.801 345.119 100.186 348.662 89.6049 338.878C83.7577 333.47 86.0143 327.259 86.0153 320.074L86.0011 161.258C78.9266 161.158 71.8815 162.602 71.0807 171.293C70.0848 182.102 70.7621 193.363 70.6194 204.235C70.5307 210.998 72.5237 216.941 62.9425 217.435Z"/><path fill="#3D405B" transform="scale(0.0976562 0.0976562)" d="M451.626 128.946C447.737 129.486 444.148 126.769 443.611 122.879C443.075 118.99 445.795 115.403 449.685 114.87C453.57 114.337 457.152 117.053 457.688 120.938C458.224 124.823 455.51 128.408 451.626 128.946Z"/><path fill="#3D405B" transform="scale(0.0976562 0.0976562)" d="M305.14 166.755C299.047 166.85 294.744 160.256 298.642 155.111C303.549 148.633 332.43 143.031 340.053 142.352C346.219 142.623 349.293 147.002 346.855 153.07C344.962 157.782 337.655 156.804 333.617 157.527C320.881 159.668 315.199 164.184 305.14 166.755Z"/><path fill="#3D405B" transform="scale(0.0976562 0.0976562)" d="M369.619 158.909C352.333 159.79 352.95 145.376 362.272 143.62C380.145 141.933 378.363 157.339 369.619 158.909Z"/><path fill="#3D405B" transform="scale(0.0976562 0.0976562)" d="M213.496 184.672C208.991 183.024 204.706 180.222 200.215 178.295C183.004 170.911 156.89 162.767 137.945 165.254C129.812 166.184 123.546 160.496 128.343 154.023C130.403 151.245 133.777 151.161 136.929 150.754C165.993 150.361 194.269 157.538 219.406 172.496C226.67 176.818 220.81 187.994 213.496 184.672Z"/><path fill="#FACAA3" transform="scale(0.0976562 0.0976562)" d="M62.9425 217.435C72.5237 216.941 70.5307 210.998 70.6194 204.235C70.7621 193.363 70.0848 182.102 71.0807 171.293C71.8815 162.602 78.9266 161.158 86.0011 161.258L86.0153 320.074C86.0143 327.259 83.7577 333.47 89.6049 338.878C100.186 348.662 103.801 345.119 116.214 342.175C154.236 333.156 200.66 335.854 231.369 362.562C236.896 367.494 244.627 375.682 244.263 383.743C243.953 390.608 251.782 393.821 256.605 389.363C260.85 385.438 255.629 376.952 260.34 372.895C293.601 337.641 347.032 330.368 392.089 343.299C407.934 347.846 403.03 349.201 415.317 337.39C418.092 334.722 416.7 326.136 416.698 322.114L416.696 162.279C427.27 161.717 431.573 165.966 431.702 176.51L432.326 351.125C432.418 359.958 435.506 377.225 423.731 379.821C415.497 381.637 406.489 381.064 398.05 381.036C394.133 379.156 390.413 380.309 386.241 380.169C392.514 367.504 390.168 377.92 399.223 377.798C407.321 379.962 414.925 371.122 411.027 365.283C408.451 361.037 404.047 363.511 400.391 362.273C392.407 359.568 384.037 356.516 375.565 355.373C343.119 350.996 294.148 352.24 272.174 381.036C279.339 398.605 243.261 419.018 232.428 391.452C230.469 388.221 231.626 378.719 229.167 376.684C192.022 345.938 138.685 349.858 95.5585 363.926C88.0244 366.384 87.8886 375.311 96.2132 377.798C98.1729 378.826 101.829 377.377 104.071 376.739C104.357 377.929 104.555 378.73 104.699 379.964L105.157 380.519C103.44 381.35 98.3498 379.972 97.1116 381.036C77.2562 381.071 70.4779 383.724 70.5945 361.925L70.703 281.812C70.7374 278.266 69.5557 277.128 67.1452 274.833C66.4101 272.301 66.1086 254.621 66.3763 251.28C69.2091 250.093 70.9942 247.257 70.8402 244.19C70.6863 241.122 68.6263 238.48 65.6889 237.582C65.1201 234.448 66.1695 219.326 65.0527 217.609L62.9425 217.435Z"/><path fill="#3D405B" transform="scale(0.0976562 0.0976562)" d="M367.083 183.286C364.113 183.922 355.816 187.451 355.111 187.499C349.996 179.78 342.162 176.095 335.417 185.072C328.428 195.341 318.309 186.999 322.889 178.78C333.117 160.426 361.057 162.623 367.083 183.286Z"/><path fill="#E07A5F" transform="scale(0.0976562 0.0976562)" d="M355.111 187.499C355.816 187.451 364.113 183.922 367.083 183.286C373.751 182.951 375.776 189.339 380.722 193.899C386.671 199.385 387.645 216.621 371.309 207.244C365.375 195.397 365.372 203.758 356.48 204.537C357.128 202.825 357.651 200.357 357.885 198.532C356.232 196.679 355.14 195.457 352.62 196.407C352.298 194.013 352.173 192.905 350.64 191.051C351.948 188.846 352.883 188.506 355.111 187.499Z"/><path fill="#3D405B" transform="scale(0.0976562 0.0976562)" d="M352.62 196.407C350.183 203.706 339.392 200.521 343.021 193.069C344.459 190.118 347.871 189.311 350.64 191.051C352.173 192.905 352.298 194.013 352.62 196.407Z"/><path fill="#3D405B" transform="scale(0.0976562 0.0976562)" d="M355.111 206.183L356.48 204.537C365.372 203.758 365.375 195.397 371.309 207.244C369.859 214.383 364.912 216.053 360.16 220.351C367.65 221.085 368.321 224.727 372.559 230.582C384.95 247.696 384.007 249.477 369.619 263.244C373.44 269.836 370.351 277.11 363.236 275.207C360.32 274.428 358.02 271.111 355.584 269.259C343.636 260.175 324.925 263.18 316.25 275.235C309.428 284.713 293.736 268.943 314.991 256.728L314.991 246.643C311.719 247.506 304.288 250.583 301.527 248.633C295.838 244.46 280.471 231.588 275.89 226.065C271.032 220.207 275.735 212.473 283.486 214.296C285.892 216.378 288.7 219.162 291.064 221.37C295.106 217.367 298.31 211.478 303.556 208.829C306.811 210.667 310.297 212.381 313.464 214.296C316.454 213.4 319.48 212.933 322.571 212.556C317.841 206.018 314.859 197.362 325.172 194.386C333.808 196.179 330.612 203.126 337.883 208.829C344.253 210.582 349.955 211.168 355.111 206.183ZM327.174 218.554C316.7 218.635 317.41 228.831 310.513 228.612C306.406 228.481 304.381 227.972 300.182 229.156C301.738 231.18 304.197 232.92 306.252 234.478C310.349 233.462 317.178 231.191 320.646 230.484C330.291 231.872 328.16 244.173 328.129 251.512C335.957 249.181 341.543 249.621 349.501 250.669C349.496 243.267 347.983 235.69 357.885 235.531C352.328 227.307 355.857 227.661 354.01 223.192C340.2 224.154 340.884 225.119 327.174 218.554ZM363.286 242.429C363.297 244.953 363.327 247.5 363.286 250.021C363.618 249.827 365.026 248.975 365.295 248.872C365.87 248.174 366.574 247.371 367.083 246.643C366.162 245.476 364.455 243.352 363.286 242.429Z"/><path fill="#3D405B" transform="scale(0.0976562 0.0976562)" d="M177.644 244.375C164.725 246.003 152.951 236.8 151.411 223.87C149.871 210.94 159.154 199.229 172.095 197.777C184.91 196.34 196.484 205.515 198.009 218.32C199.534 231.126 190.439 242.762 177.644 244.375ZM173.161 211.726C167.957 212.472 164.347 217.299 165.101 222.502C165.856 227.704 170.69 231.307 175.891 230.543C181.08 229.781 184.672 224.962 183.919 219.772C183.166 214.582 178.352 210.982 173.161 211.726Z"/><path fill="#3D405B" transform="scale(0.0976562 0.0976562)" d="M284.971 213.508C276.884 203.547 292.537 196.57 296.389 206.183C295.716 212.481 291.265 215.55 284.971 213.508Z"/><path fill="#E07A5F" transform="scale(0.0976562 0.0976562)" d="M296.389 206.183C300.111 202.874 301.92 205.191 303.556 208.829C298.31 211.478 295.106 217.367 291.064 221.37C288.7 219.162 285.892 216.378 283.486 214.296C284.334 214.035 284.319 214.089 284.971 213.508C291.265 215.55 295.716 212.481 296.389 206.183Z"/><path fill="#3D405B" transform="scale(0.0976562 0.0976562)" d="M254.196 226.801C242.277 229.433 241.463 209.564 250.687 207.244C261.294 204.464 262.567 223.392 254.196 226.801Z"/><path fill="#E07A5F" transform="scale(0.0976562 0.0976562)" d="M175.891 230.543C170.69 231.307 165.856 227.704 165.101 222.502C164.347 217.299 167.957 212.472 173.161 211.726C178.352 210.982 183.166 214.582 183.919 219.772C184.672 224.962 181.08 229.781 175.891 230.543Z"/><path fill="#E07A5F" transform="scale(0.0976562 0.0976562)" d="M327.174 218.554C340.884 225.119 340.2 224.154 354.01 223.192C355.857 227.661 352.328 227.307 357.885 235.531C347.983 235.69 349.496 243.267 349.501 250.669C341.543 249.621 335.957 249.181 328.129 251.512C328.16 244.173 330.291 231.872 320.646 230.484C323.925 227.152 325.613 222.831 327.174 218.554Z"/><path fill="#3D405B" transform="scale(0.0976562 0.0976562)" d="M141.633 248.872C137.838 251.635 133.997 254.662 130.167 257.46C122.731 262.892 114.434 254.037 120.807 247.156C124.616 243.445 134.983 234.75 139.825 234.478C144.455 233.41 165.274 243.018 169.573 246.22C170.833 247.158 176.136 254.79 177.602 256.728C181.644 255.469 187.444 253.24 191.63 253.076C198.152 252.637 200.82 262.598 195.755 265.651C191.226 268.38 182.316 270.022 177.229 271.506C170.15 273.57 164.403 262.218 160.525 256.728C157.843 260.886 153.778 265.866 150.777 270.209C156.635 274.174 162.705 278.099 168.185 282.537C172.039 285.658 171.682 304.189 170.638 308.771C169.321 314.548 157.048 317.978 157.217 302.125L157.217 291.476C153.023 288.666 148.318 284.969 144.119 282.435C142.371 288.433 143.839 298.146 136.941 299.845C130.175 301.511 122.909 304.079 116.036 304.968C111.307 305.58 107.555 298.21 110.36 294.319C113.268 290.084 123.812 288.572 129.111 287.128C131.611 268.171 136.942 265.58 146.953 250.669C145.072 249.873 143.602 249.453 141.633 248.872Z"/><path fill="#3D405B" transform="scale(0.0976562 0.0976562)" d="M66.3763 251.28C63.4092 252.523 59.9778 251.675 57.9318 249.192C55.8857 246.71 55.7086 243.18 57.4958 240.505C59.283 237.83 62.6122 236.642 65.6889 237.582C68.6263 238.48 70.6863 241.122 70.8402 244.19C70.9942 247.257 69.2091 250.093 66.3763 251.28Z"/><path fill="#3D405B" transform="scale(0.0976562 0.0976562)" d="M254.196 267.335C241.462 268.422 242.128 248.001 250.687 245.274C262.529 244.784 261.42 263.877 254.196 267.335Z"/><path fill="#3D405B" transform="scale(0.0976562 0.0976562)" d="M226.349 281.241C219.531 282.531 221.072 278.166 216.906 276.248C211.808 273.901 204.445 273.129 207.971 264.385C208.778 262.384 211.312 261.322 213.496 260.795C223.36 259.43 241.8 276.336 226.349 281.241Z"/><path fill="#3D405B" transform="scale(0.0976562 0.0976562)" d="M281.08 286.247C265.631 285.96 270.689 270.67 289.151 265.772C294.295 265.54 298.493 268.678 297.493 274.466C296.683 279.159 289.64 279.659 286.458 281.797C284.587 283.056 283.222 285.02 281.08 286.247Z"/><path fill="#3D405B" transform="scale(0.0976562 0.0976562)" d="M218.986 394.755L93.5365 394.767C59.0459 394.779 56.6152 385.59 56.6353 354.582L56.6303 292.935C56.612 284.873 54.2458 271.69 67.1452 274.833C69.5557 277.128 70.7374 278.266 70.703 281.812L70.5945 361.925C70.4779 383.724 77.2562 381.071 97.1116 381.036C98.5351 381.217 105.47 381.059 107.325 381.056L210.6 381.036C185.584 362.136 137.89 366.928 109.95 374.471C105.814 375.587 100.368 377.692 96.2132 377.798C87.8886 375.311 88.0244 366.384 95.5585 363.926C138.685 349.858 192.022 345.938 229.167 376.684C231.626 378.719 230.469 388.221 232.428 391.452C243.261 419.018 279.339 398.605 272.174 381.036C294.148 352.24 343.119 350.996 375.565 355.373C384.037 356.516 392.407 359.568 400.391 362.273C404.047 363.511 408.451 361.037 411.027 365.283C414.925 371.122 407.321 379.962 399.223 377.798C375.727 363.134 314.856 364.496 293.583 381.497C302.732 381.477 313.026 378.623 317.682 387.276C318.178 397.185 309.448 395.776 302.696 395.768L284.971 395.74C275 426.051 228.226 427.24 218.986 394.755Z"/><path fill="#3D405B" transform="scale(0.0976562 0.0976562)" d="M347.487 296.327C341.648 297.295 334.442 300.309 329.268 300.766C323.126 301.309 319.504 293.429 323.922 289.166C329.094 284.175 351.712 281.274 359.282 281.241C363.858 281.056 386.473 281.39 386.814 288.686C387.397 301.168 375.864 296.774 368.583 295.557C362.438 294.531 353.662 295.314 347.487 296.327Z"/><path fill="#3D405B" transform="scale(0.0976562 0.0976562)" d="M214.935 311.082L214.667 310.985C205.842 307.864 214.914 300.684 192.366 299.963C184.214 299.702 180.483 286.127 194.493 286.247C225.479 285.387 230.693 314.047 214.935 311.082Z"/><path fill="#3D405B" transform="scale(0.0976562 0.0976562)" d="M281.08 321.695C266.008 323.822 269.773 301.259 296.389 298.347C299.368 297.49 303.461 300.44 303.981 303.218C305.984 313.932 294.634 311.092 288.981 314.736C285.536 316.958 284.794 320.333 281.08 321.695Z"/><path fill="#E07A5F" transform="scale(0.0976562 0.0976562)" d="M96.2132 377.798C100.368 377.692 105.814 375.587 109.95 374.471C137.89 366.928 185.584 362.136 210.6 381.036L107.325 381.056C105.47 381.059 98.5351 381.217 97.1116 381.036C98.3498 379.972 103.44 381.35 105.157 380.519L104.699 379.964C104.555 378.73 104.357 377.929 104.071 376.739C101.829 377.377 98.1729 378.826 96.2132 377.798Z"/><path fill="#E07A5F" transform="scale(0.0976562 0.0976562)" d="M399.223 377.798C390.168 377.92 392.514 367.504 386.241 380.169C390.413 380.309 394.133 379.156 398.05 381.036C390.676 380.782 376.529 378.278 375.904 387.276C371.585 387.647 358.145 387.716 353.746 387.276C350.09 379.586 342.183 379.454 339.267 387.276C333.004 387.435 323.901 387.454 317.682 387.276C313.026 378.623 302.732 381.477 293.583 381.497C314.856 364.496 375.727 363.134 399.223 377.798Z"/><path fill="#3D405B" transform="scale(0.0976562 0.0976562)" d="M339.267 387.276C342.183 379.454 350.09 379.586 353.746 387.276C354.085 398.112 339.042 398.388 339.267 387.276Z"/></svg>