<?xml version="1.0" encoding="utf-8" ?><svg xmlns="http://www.w3.org/2000/svg" xmlns:xlink="http://www.w3.org/1999/xlink" width="50" height="50" viewBox="0 0 50 50"><path fill="#3D405B" transform="scale(0.0976562 0.0976562)" d="M129.846 121.576C132.149 121.307 134.391 120.899 136.674 120.504C140.207 119.952 144.61 119.096 148.125 119.27C149.947 120.277 151.965 121.701 152.477 123.845C154.994 134.391 141.92 133.219 135.503 134.425C133.102 134.78 132.096 134.908 129.846 135.969C128.933 144.097 129.046 156.334 129.427 164.655L135.126 163.747C140.362 162.117 152.191 152.671 154.729 162.905C157.197 172.861 140.385 176.484 134.22 178C132.226 178.121 130.472 178.056 128.474 178C128.474 180.413 128.446 182.889 128.474 185.296C132.3 189.952 128.636 194.452 128.474 201.467C130.751 201.123 132.865 200.758 135.126 200.323L135.502 200.192C140.359 198.479 149.207 191.456 152.018 200.806C154.792 210.035 140.449 211.997 135.126 214.783C133.017 214.927 131.301 214.647 129.427 214.783C129.178 219.729 129.558 224.459 129.719 229.43C130.516 254.052 130.135 275.513 129.427 299.945L133.1 299.945C141.737 299.527 141.537 293.247 147.19 294.519C154.628 296.193 153.914 303.609 149.338 308.187C143.499 314.027 135.897 312.975 128.474 313.291L128.068 313.448C127.38 321.239 126.278 331.077 126.273 338.526L132.219 338.526C134.396 338.314 137.187 338.105 139.234 337.327C140.795 334.84 142.123 331.959 145.368 331.359C156.712 329.259 160.201 350.557 130.963 351.981C129.026 352.002 127.066 352.043 125.133 351.981C125.457 359.606 125.114 368.566 125.133 376.372L129.427 376.372C142.317 376.233 139.833 368.779 145.696 368.881C157.925 369.092 156.311 388.989 130.482 389.581L126.273 389.581C127.727 398.256 130.229 408.666 141.429 407.911C177.316 405.024 213.846 403.89 249.857 404.309C258.43 404.408 267.166 405.706 275.79 405.676C279.719 405.69 281.311 407.153 283.179 410.479C285.1 424.558 265.019 418.771 256.34 418.295C226.461 416.982 196.31 418.242 166.461 419.717C152.854 420.389 135.258 424.908 124.234 415.645C115.885 408.515 113.654 398.455 112.717 387.965C86.9178 384.037 80.897 356.81 112.036 355.686C112.122 354.196 112.066 352.715 112.036 351.222C102.221 349.51 90.2913 349.682 89.2964 336.843C88.2074 322.789 104.444 322.833 114.08 322.433C114.441 319.169 114.543 315.813 115.017 312.578C112.837 312.408 107.864 311.635 105.611 311.653C97.5715 311.714 92.6578 304.58 99.2783 298.747C101.948 296.395 111.883 298.703 116.106 299.382C117.069 270.194 116.651 244.077 116.106 214.783C104.104 214.86 80.7911 206.473 93.2491 192.033C98.6043 185.826 107.214 183.761 115.017 182.969C115.066 181.332 115.031 179.642 115.017 178C109.155 177.334 104.604 176.723 99.0495 174.201C80.1429 165.619 88.4493 147.238 103.902 142.592C120.509 146.965 104.63 156.988 102.056 160.17L101.818 160.467C105.517 162.88 111.28 163.811 115.59 164.655C115.741 155.851 116.377 146.653 116.106 137.93C109.235 139.814 99.0465 144.792 96.7071 134.93C94.6621 126.31 110.82 124.907 116.106 123.987C115.998 83.5927 122.497 79.1042 163.258 81.3991C190.259 82.9193 217.251 83.7437 244.314 83.4712C252.218 83.3916 254.17 95.0965 245.801 96.9544C239.709 97.56 231.546 97.2595 225.341 97.2582L208.998 97.1221C203.479 97.1206 198.175 97.0364 192.665 96.7597L177.577 96.0737C166.908 95.501 156.231 94.6298 145.555 94.2396C131.474 93.725 129.664 101.371 129.814 112.902L129.846 121.576ZM114.08 196.84C110.283 197.334 108.326 197.593 104.984 199.483C105.761 199.742 106.785 200.12 107.554 200.323C110.145 200.707 113.004 201.177 115.59 201.467C115.518 200.093 116.132 196.484 114.08 196.84ZM110.96 336.539C109.35 336.511 107.609 336.44 106.018 336.539C107.638 336.836 109.324 337.191 110.96 337.327C112.2 337.513 112.088 337.695 113.057 337.279L113.158 336.885C112.388 336.27 111.946 336.412 110.96 336.539ZM108.377 369.796C107.25 370.047 106.106 370.29 104.984 370.554C106.886 371.942 107.899 372.51 110.1 373.43C112.676 374.15 112.048 371.723 112.036 369.796L108.377 369.796Z"/><path fill="#3D405B" transform="scale(0.0976562 0.0976562)" d="M274.635 95.3081C270.855 96.0917 267.159 93.6527 266.392 89.8694C265.626 86.0862 268.082 82.401 271.868 81.6519C275.631 80.9076 279.287 83.3442 280.049 87.1031C280.81 90.8621 278.39 94.5295 274.635 95.3081Z"/><path fill="#3D405B" transform="scale(0.0976562 0.0976562)" d="M315.442 95.7141C311.112 95.6892 300.203 96.5805 297.361 94.2465C292.134 89.9544 294.908 82.5633 302.163 82.1224C306.191 82.1069 318.196 81.3204 320.581 83.6685C325.489 88.498 322.489 95.0846 315.442 95.7141Z"/><path fill="#3D405B" transform="scale(0.0976562 0.0976562)" d="M358.282 130.22L358.305 117.502C358.363 80.9936 338.403 107.417 336.463 90.242C336.003 86.1633 339.283 82.7516 343.311 82.7896C365.699 83.0007 371.752 94.0562 371.743 115.059L371.754 171.138C371.707 176.503 370.006 179.109 364.276 179.545C359.138 178.364 358.315 175.289 358.285 170.494L358.282 130.22Z"/><path fill="#E07A5F" transform="scale(0.0976562 0.0976562)" d="M136.674 120.504C143.376 94.6948 169.357 101.653 190.25 103.249C218.645 105.417 245.376 104.897 273.513 105.982C294.707 106.8 315.782 110.282 337.64 111.072C347.073 111.446 355.174 119.742 354.24 129.25C341.34 159.094 291.865 136.77 265.106 145.547C261.793 146.696 258.169 149.46 254.525 149.366C233.106 148.812 216.078 138.532 194.995 154.305C195.025 165.84 193.557 169.099 185.538 178C179.539 178.226 176.65 182.028 177.721 187.824C167.227 199.884 152.911 214.409 136.476 215.603L136.264 215.617L135.126 214.783C140.449 211.997 154.792 210.035 152.018 200.806C149.207 191.456 140.359 198.479 135.502 200.192L135.126 200.323C133.784 193.784 134.208 184.845 134.22 178C140.385 176.484 157.197 172.861 154.729 162.905C152.191 152.671 140.362 162.117 135.126 163.747C134.336 157.244 134.86 141.12 135.503 134.425C141.92 133.219 154.994 134.391 152.477 123.845C151.965 121.701 149.947 120.277 148.125 119.27C144.61 119.096 140.207 119.952 136.674 120.504ZM216.737 122.5C210.751 125.203 209.783 133.354 216.928 135.524C219.519 136.311 233.915 136.281 237.154 135.969C242.864 133.012 243.693 124.914 236.444 122.812C233.448 121.943 219.974 122.292 216.737 122.5ZM259.743 122.5C250.185 124.282 252.048 136.042 260.679 135.907C264.804 135.842 268.999 135.974 273.138 135.975L311.383 135.979C313.484 135.981 316.987 136.139 318.959 135.969C324.829 133.756 326.374 125.507 319.769 122.954C317.417 122.045 266.184 122.355 259.743 122.5ZM180.9 139.778C168.787 143.709 181.122 159.945 188.559 158.497C200.54 153.773 188.368 139.302 180.9 139.778Z"/><path fill="#3D405B" transform="scale(0.0976562 0.0976562)" d="M237.154 135.969C233.915 136.281 219.519 136.311 216.928 135.524C209.783 133.354 210.751 125.203 216.737 122.5C219.974 122.292 233.448 121.943 236.444 122.812C243.693 124.914 242.864 133.012 237.154 135.969Z"/><path fill="#3D405B" transform="scale(0.0976562 0.0976562)" d="M318.959 135.969C316.987 136.139 313.484 135.981 311.383 135.979L273.138 135.975C268.999 135.974 264.804 135.842 260.679 135.907C252.048 136.042 250.185 124.282 259.743 122.5C266.184 122.355 317.417 122.045 319.769 122.954C326.374 125.507 324.829 133.756 318.959 135.969Z"/><path fill="#F4F1DE" transform="scale(0.0976562 0.0976562)" d="M194.995 154.305C216.078 138.532 233.106 148.812 254.525 149.366C258.169 149.46 261.793 146.696 265.106 145.547C291.865 136.77 341.34 159.094 354.24 129.25C354.349 131.937 354.872 130.59 357.499 131.618L357.762 131.488C357.929 130.737 357.819 130.813 358.282 130.22L358.285 170.494C358.315 175.289 359.138 178.364 364.276 179.545C364.46 182.727 366.659 193.715 367.772 196.84C363.445 198.432 353.988 204.29 349.175 206.751C320.2 194.255 300.255 190.149 269.008 195.386C232.953 201.43 204.943 215.241 190.388 251.007C180.788 274.594 186.16 304.343 215.74 293.995C218.229 299.295 220.464 301.441 226.038 303.475L226.241 303.547C224.64 314.41 232.299 322.979 243.261 322.433C245.657 335.57 258.138 341.421 269.931 335.83C275.229 333.317 280.758 329.637 285.8 326.573C301.36 360.212 325.231 361.405 357.14 366.757C357.736 369.497 360.524 376.585 361.661 379.521C344.55 381.012 363.564 409.791 344.985 412.169C337.948 413.07 329.344 409.038 325.314 416.722L325.112 416.522C321.785 417.261 313.529 417.401 311.106 414.545C310.951 410.925 308.2 407.949 304.604 407.508C301.007 407.067 297.619 409.292 296.595 412.767C293.566 413.1 288.716 413.085 285.8 412.306C285.018 411.654 284.119 410.763 283.179 410.479C281.311 407.153 279.719 405.69 275.79 405.676C267.166 405.706 258.43 404.408 249.857 404.309C213.846 403.89 177.316 405.024 141.429 407.911C140.281 403.087 129.918 402.4 132.036 389.882L130.482 389.581C156.311 388.989 157.925 369.092 145.696 368.881C139.833 368.779 142.317 376.233 129.427 376.372C130.028 376.214 129.838 376.313 130.316 375.869C130.429 373.81 130.993 352.033 130.963 351.981C160.201 350.557 156.712 329.259 145.368 331.359C142.123 331.959 140.795 334.84 139.234 337.327C137.187 338.105 134.396 338.314 132.219 338.526C132.197 330.265 133.212 321.469 134.22 313.291C132.464 313.459 130.172 313.676 128.474 313.291C135.897 312.975 143.499 314.027 149.338 308.187C153.914 303.609 154.628 296.193 147.19 294.519C141.537 293.247 141.737 299.527 133.1 299.945L134.041 299.606C139.923 287.865 133.527 234.732 136.264 215.617L136.476 215.603C152.911 214.409 167.227 199.884 177.721 187.824C185.254 201.569 199.459 182.868 185.538 178C193.557 169.099 195.025 165.84 194.995 154.305ZM204.855 155.874C201.064 156.636 198.61 160.33 199.379 164.121C200.149 167.911 203.849 170.357 207.637 169.579C211.414 168.804 213.851 165.118 213.084 161.339C212.317 157.56 208.636 155.115 204.855 155.874ZM196.105 341.508C192.419 342.234 190.01 345.799 190.712 349.489C191.413 353.179 194.962 355.611 198.657 354.934C202.386 354.25 204.846 350.661 204.137 346.936C203.429 343.212 199.824 340.776 196.105 341.508ZM203.643 364.785C186.581 370.673 212.625 393.379 230.606 384.844C235.344 382.125 237.248 378.233 234.238 373.164C230.721 367.244 224.015 373.814 219.221 372.737C213.09 371.36 210.176 364.36 203.643 364.785Z"/><path fill="#3D405B" transform="scale(0.0976562 0.0976562)" d="M188.559 158.497C181.122 159.945 168.787 143.709 180.9 139.778C188.368 139.302 200.54 153.773 188.559 158.497Z"/><path fill="#3D405B" transform="scale(0.0976562 0.0976562)" d="M207.637 169.579C203.849 170.357 200.149 167.911 199.379 164.121C198.61 160.33 201.064 156.636 204.855 155.874C208.636 155.115 212.317 157.56 213.084 161.339C213.851 165.118 211.414 168.804 207.637 169.579Z"/><path fill="#3D405B" transform="scale(0.0976562 0.0976562)" d="M367.772 196.84C375.741 191.536 384.89 187.736 392.62 182.129C394.345 169.915 411.808 171.195 422.235 170.622C424.561 165.428 426.523 161.956 432.218 159.736C455.621 150.61 467.691 190.004 436.74 190.983C432.129 197.226 428.084 204.631 422.989 210.515C421.357 212.399 416.58 212.811 414.447 214.107C405.003 219.941 388.926 227.984 380.868 234.263C395.231 248.266 398.142 272.952 405.854 291.408C410.007 301.346 421.057 319.899 423.493 328.091C421.407 333.033 419.54 334.827 414.058 334.131C408.222 332.229 392.375 295.307 389.935 288.145C387.975 282.396 380.034 255.094 377.149 252.285C374.914 247.47 372.131 244.498 367.772 241.423C366.277 242.147 365.512 242.935 364.276 244.038C360.405 245.68 356.042 248.925 352.256 250.95C339.603 257.718 327.438 265.527 314.339 271.44C323.576 278.486 316.406 286.812 310.139 283.678C300.755 278.984 288.044 270.298 277.489 269.507C271.014 266.805 260.029 264.238 253.009 266.821C243.905 270.17 249.627 279.571 255.986 283.201L256.272 283.434C258.617 285.329 261.848 287.064 264.493 288.569C282.368 298.738 289.419 301.879 297.904 320.934C309.08 346.031 329.32 348.222 353.327 352.842C355.62 353.283 360.065 353.171 361.894 354.068C368.361 357.241 366.872 367.072 357.14 366.757C325.231 361.405 301.36 360.212 285.8 326.573C280.758 329.637 275.229 333.317 269.931 335.83C258.138 341.421 245.657 335.57 243.261 322.433C232.299 322.979 224.64 314.41 226.241 303.547L226.038 303.475C220.464 301.441 218.229 299.295 215.74 293.995C186.16 304.343 180.788 274.594 190.388 251.007C204.943 215.241 232.953 201.43 269.008 195.386C300.255 190.149 320.2 194.255 349.175 206.751C353.988 204.29 363.445 198.432 367.772 196.84ZM412.221 185.296L408.805 185.296C409.293 186.264 410.084 187.954 410.605 188.841C411.779 191.418 413.959 194.992 415.366 197.867C417.139 195.817 424.009 186.39 424.632 184.276L424.354 184.048C421.805 183.706 414.848 184.689 412.221 185.296ZM332.11 217.845C333.28 217.143 334.577 216.412 335.673 215.617C311.983 207.13 296.459 204.369 271.241 208.91C252.527 212.281 234.254 217.031 219.697 230.351C210.314 238.924 192.53 268.637 201.64 280.576C216.567 292.002 226.009 253.262 227.679 245.295C223.741 241.786 224.713 235.698 229.559 233.633C237.15 230.364 242.111 248.003 255.644 233.937C260.157 229.246 254.004 221.625 261.007 219.007C270.362 215.511 270.052 227.433 277.996 230.299C290.554 234.829 298.966 218.585 303.072 234.263C312.274 228.156 322.642 223.574 332.11 217.845ZM286.737 245.295C275.575 245.379 275.824 242.944 267.662 241.423C264.687 244.176 263.009 245.767 259.743 248.073C256.312 249.917 253.419 251.634 249.518 252.285C245.497 253.034 244.204 253.194 240.151 253.024C239.139 255.531 237.83 261.24 237.154 263.983C236.477 265.619 235.055 268.769 235.41 270.557C233.435 274.242 227.341 284.314 228.414 288.06C229.841 293.041 237.22 287.278 239.12 285.632C236.872 281.406 235.542 279.059 235.41 274.166C235.398 270.746 236.407 267.356 237.154 263.983C240.968 259.033 241.241 258.609 246.305 254.935C250.332 253.09 253.02 252.422 257.401 252.285C264.391 251.923 270.802 253.167 277.489 254.935C280.197 253.346 289.016 248.66 291.079 247.181C292.584 246.454 294.929 245.68 295.14 243.937L294.751 243.477C292.987 243.075 289.609 244.756 287.148 245.219L286.737 245.295ZM437.669 172.22C436.408 173.166 436.318 173.325 435.395 174.589L435.088 175.009C436.509 176.906 437.397 177.606 439.759 178C443.03 175.276 441.609 172.067 437.669 172.22ZM398.115 194.705L331.536 233.802C324.907 237.591 318.102 241.269 311.611 245.295C312.319 246.546 315.69 255.029 315.999 255.198L316.614 254.935C344.195 240.458 370.601 223.771 397.584 208.237C399.466 207.153 401.758 205.856 403.525 204.656C402.842 203.363 398.665 195.314 398.115 194.705ZM298.718 258.163C297.55 258.998 296.259 259.876 295.158 260.781C296.331 261.217 297.524 261.684 298.718 262.05L299.692 262.415L300.09 262.206C300.304 261.177 300.085 258.296 298.718 258.163ZM249.518 295.702C247.991 296.806 245.081 298.871 243.536 299.666C237.752 302.641 237.207 311.13 246.305 307.946C250 304.562 253.633 303 257.401 299.945C256.078 299.281 250.343 295.892 249.518 295.702ZM270.164 307.946C265.643 310.842 248.17 319.843 260.511 324.033C261.335 324.312 263.435 323.589 264.244 323.24C269.405 320.644 273.935 317.559 278.851 314.542C276.868 312.773 272.471 308.747 270.164 307.946Z"/><path fill="#E07A5F" transform="scale(0.0976562 0.0976562)" d="M435.088 175.009L435.395 174.589C436.318 173.325 436.408 173.166 437.669 172.22C441.609 172.067 443.03 175.276 439.759 178C437.397 177.606 436.509 176.906 435.088 175.009Z"/><path fill="#3D405B" transform="scale(0.0976562 0.0976562)" d="M177.721 187.824C176.65 182.028 179.539 178.226 185.538 178C199.459 182.868 185.254 201.569 177.721 187.824Z"/><path fill="#E07A5F" transform="scale(0.0976562 0.0976562)" d="M412.221 185.296C414.848 184.689 421.805 183.706 424.354 184.048L424.632 184.276C424.009 186.39 417.139 195.817 415.366 197.867C413.959 194.992 411.779 191.418 410.605 188.841C411.345 188.017 411.536 186.642 412.221 185.296Z"/><path fill="#E07A5F" transform="scale(0.0976562 0.0976562)" d="M201.64 280.576C203.874 246.732 235.873 219.788 267.958 214.023C285.709 210.833 316.559 208.025 332.11 217.845C322.642 223.574 312.274 228.156 303.072 234.263C298.966 218.585 290.554 234.829 277.996 230.299C270.052 227.433 270.362 215.511 261.007 219.007C254.004 221.625 260.157 229.246 255.644 233.937C242.111 248.003 237.15 230.364 229.559 233.633C224.713 235.698 223.741 241.786 227.679 245.295C226.009 253.262 216.567 292.002 201.64 280.576Z"/><path fill="#FBE6CB" transform="scale(0.0976562 0.0976562)" d="M267.662 241.423C275.824 242.944 275.575 245.379 286.737 245.295L287.295 245.318L287.61 245.773L287.954 245.677L287.668 245.429L288.041 245.708C283.051 248.773 293.48 245.502 294.392 245.295C293.609 245.634 291.143 246.407 291.079 247.181C289.016 248.66 280.197 253.346 277.489 254.935C270.802 253.167 264.391 251.923 257.401 252.285C258.883 250.631 259.025 250.677 261.114 250.008L261.24 249.742L260.789 249.346L259.349 249.455L259.092 249.06L259.743 248.073C263.009 245.767 264.687 244.176 267.662 241.423Z"/><path fill="#F4F1DE" transform="scale(0.0976562 0.0976562)" d="M286.737 245.295L287.148 245.219C289.609 244.756 292.987 243.075 294.751 243.477L295.14 243.937C294.929 245.68 292.584 246.454 291.079 247.181C291.143 246.407 293.609 245.634 294.392 245.295C293.48 245.502 283.051 248.773 288.041 245.708L287.668 245.429L287.954 245.677L287.61 245.773L287.295 245.318L286.737 245.295Z"/><path fill="#E07A5F" transform="scale(0.0976562 0.0976562)" d="M314.339 271.44C327.438 265.527 339.603 257.718 352.256 250.95C356.042 248.925 360.405 245.68 364.276 244.038C367.243 246.125 369.851 247.077 372.983 248.821C374.593 249.718 375.848 251.571 377.149 252.285C380.034 255.094 387.975 282.396 389.935 288.145C392.375 295.307 408.222 332.229 414.058 334.131L413.943 334.491C420.192 345.108 435.164 364.274 432.003 376.966C428.719 390.151 414.26 392.966 403.525 386.232C404.673 396.858 399.202 405.936 387.987 407.318C380.388 408.254 373.081 402.53 367.772 397.688C366.396 390.596 370.809 382.48 361.661 379.521C360.524 376.585 357.736 369.497 357.14 366.757C366.872 367.072 368.361 357.241 361.894 354.068C360.065 353.171 355.62 353.283 353.327 352.842C329.32 348.222 309.08 346.031 297.904 320.934C289.419 301.879 282.368 298.738 264.493 288.569C261.848 287.064 258.617 285.329 256.272 283.434L255.986 283.201C255.567 266.218 265.366 271.103 277.489 269.507C288.044 270.298 300.755 278.984 310.139 283.678C316.406 286.812 323.576 278.486 314.339 271.44Z"/><path fill="#F4F1DE" transform="scale(0.0976562 0.0976562)" d="M249.518 252.285C253.419 251.634 256.312 249.917 259.743 248.073L259.092 249.06L259.349 249.455L260.789 249.346L261.24 249.742L261.114 250.008C259.025 250.677 258.883 250.631 257.401 252.285C253.02 252.422 250.332 253.09 246.305 254.935C241.241 258.609 240.968 259.033 237.154 263.983L237.154 263.983C237.83 261.24 239.139 255.531 240.151 253.024C244.204 253.194 245.497 253.034 249.518 252.285Z"/><path fill="#E0B89F" transform="scale(0.0976562 0.0976562)" d="M235.41 270.557C235.055 268.769 236.477 265.619 237.154 263.983L237.154 263.983C236.407 267.356 235.398 270.746 235.41 274.166C235.702 272.551 236.029 271.945 235.41 270.557Z"/><path fill="white" transform="scale(0.0976562 0.0976562)" d="M255.986 283.201C249.627 279.571 243.905 270.17 253.009 266.821C260.029 264.238 271.014 266.805 277.489 269.507C265.366 271.103 255.567 266.218 255.986 283.201Z"/><path fill="#E07A5F" transform="scale(0.0976562 0.0976562)" d="M239.12 285.632C237.22 287.278 229.841 293.041 228.414 288.06C227.341 284.314 233.435 274.242 235.41 270.557C236.029 271.945 235.702 272.551 235.41 274.166C235.542 279.059 236.872 281.406 239.12 285.632Z"/><path fill="#E07A5F" transform="scale(0.0976562 0.0976562)" d="M246.305 307.946C237.207 311.13 237.752 302.641 243.536 299.666C245.081 298.871 247.991 296.806 249.518 295.702C250.343 295.892 256.078 299.281 257.401 299.945C253.633 303 250 304.562 246.305 307.946Z"/><path fill="#E07A5F" transform="scale(0.0976562 0.0976562)" d="M264.244 323.24C263.435 323.589 261.335 324.312 260.511 324.033C248.17 319.843 265.643 310.842 270.164 307.946C272.471 308.747 276.868 312.773 278.851 314.542C273.935 317.559 269.405 320.644 264.244 323.24Z"/><path fill="white" transform="scale(0.0976562 0.0976562)" d="M126.273 338.526C126.278 331.077 127.38 321.239 128.068 313.448L128.474 313.291C130.172 313.676 132.464 313.459 134.22 313.291C133.212 321.469 132.197 330.265 132.219 338.526L126.273 338.526Z"/><path fill="#3D405B" transform="scale(0.0976562 0.0976562)" d="M198.657 354.934C194.962 355.611 191.413 353.179 190.712 349.489C190.01 345.799 192.419 342.234 196.105 341.508C199.824 340.776 203.429 343.212 204.137 346.936C204.846 350.661 202.386 354.25 198.657 354.934Z"/><path fill="#3D405B" transform="scale(0.0976562 0.0976562)" d="M439.759 361.958C431.414 363.195 421.612 347.247 433.353 343.531C439.065 342.905 444.206 350.67 445.344 355.112C444.516 358.783 443.598 360.912 439.759 361.958Z"/><path fill="#3D405B" transform="scale(0.0976562 0.0976562)" d="M230.606 384.844C212.625 393.379 186.581 370.673 203.643 364.785C210.176 364.36 213.09 371.36 219.221 372.737C224.015 373.814 230.721 367.244 234.238 373.164C237.248 378.233 235.344 382.125 230.606 384.844Z"/><path fill="#3D405B" transform="scale(0.0976562 0.0976562)" d="M325.314 416.722C329.344 409.038 337.948 413.07 344.985 412.169C363.564 409.791 344.55 381.012 361.661 379.521C370.809 382.48 366.396 390.596 367.772 397.688C367.167 412.471 361.547 424.321 345.441 425.578C338.107 426.15 324.774 427.518 325.314 416.722Z"/><path fill="white" transform="scale(0.0976562 0.0976562)" d="M126.273 389.581L130.482 389.581L132.036 389.882C129.918 402.4 140.281 403.087 141.429 407.911C130.229 408.666 127.727 398.256 126.273 389.581Z"/><path fill="#3D405B" transform="scale(0.0976562 0.0976562)" d="M296.595 412.767C297.619 409.292 301.007 407.067 304.604 407.508C308.2 407.949 310.951 410.925 311.106 414.545C311.232 417.483 309.609 420.218 306.97 421.515C304.331 422.811 301.174 422.425 298.926 420.529C296.678 418.634 295.763 415.588 296.595 412.767Z"/></svg>