<?xml version="1.0" encoding="utf-8"?>
<!-- Generator: Adobe Illustrator 16.0.0, SVG Export Plug-In . SVG Version: 6.00 Build 0)  -->
<!DOCTYPE svg PUBLIC "-//W3C//DTD SVG 1.1//EN" "http://www.w3.org/Graphics/SVG/1.1/DTD/svg11.dtd">
<svg version="1.1" id="圖層_1" xmlns="http://www.w3.org/2000/svg" xmlns:xlink="http://www.w3.org/1999/xlink" x="0px" y="0px"
	 width="870px" height="300px" viewBox="75.5 545.5 870 300" enable-background="new 75.5 545.5 870 300" xml:space="preserve">
<path fill="#FABDA9" d="M130.726,642.114c20.549,0.209,64.691,20.186,85.688,27.97c5.539,2.053,16.491,6.797,22.077,6.345
	c7.69-1.032,15.235-5.914,22.259-8.794c19.586-8.027,38.063-17.769,57.896-25.248c10.146-3.826,15.435-7.285,26.592-8.65
	c1.949,11.018,4.342,48.389,6.721,54.402l-6.418-1.485c-0.924,1.105-1.492,1.803-2.33,3.001c-3.875-0.801-7.535-1.268-11.474-0.521
	c-1.021,0.893-1.586,1.368-1.362,2.912l-0.373,0.12c-1.576,2.473,0.73,1.896-1.003,4.313c-0.875,0.125-1.518,0.223-2.402,0.285
	c-0.831,1.076-1.585,1.95-2.26,3.131l1.801,0.93c-3.746,1.654-4.889,4.359-2.289,7.875c1.048,1.16,1.037,1.249,1.758,2.664
	l-1.236,0.829l0.063,0.938c5.8,5.054,18.136,9.113,25.045,13.083c2.636,1.515,7.82,2.326,9.09,5.135
	c-1.476,2.018-4.571,1.533-6.827,1.458c2.387,15.27,3.969,30.439,6.18,45.713c0.123,0.85,0.524,1.252,1.143,1.722
	c-6.2-0.357-11.059-0.632-17.27-0.435c-3.438,0.948-6.835,0.74-10.405,0.621c2.748,4.641,1.229,2.81-1.303,7.377
	c-7.555,0.607-37.265,2.032-42.675,0.099c-0.622-0.223-10.403,1.596-12.781,1.679c-3.468,0.218-7.818,0.627-11.2,0.325
	c-13.51,0.566-26.062,1.182-39.535,2.873c-8.578,1.077-18.59,0.361-27.386,2.051c-3.657,0.702-2.474-3.449-6.034,0.169
	c-9.308,2.066-16.784,2.592-26.122,3.563l-37.96,4.068l-0.547-1.203c-1.292,0.44-6.931,2.31-7.867,2.452
	c-3.369,0.516-25.396,4.705-27.381,4.178c-1-0.921-1.351-1.21-1.556-2.638c-0.239-1.656,0.842-3.974,2.057-5.063
	c3.717-3.335,51.349-9.109,59.052-9.615c-0.512-13.288-3.959-28.646-4.335-41.724c-11.275,10.956-13.791,18.258-18.23,33.392
	c-0.968,3.301-0.578,7.396-3.134,10.056l-0.92-0.37c-4.248-5.569,6.307-30.818,10.19-36.668c-2.91-2.473-5.224-4.341-6.985-7.839
	c-6.768-13.447-5.292-33.439,9.012-41.113l5.44-2.887C142.389,687.94,132.923,659.412,130.726,642.114z"/>
<path fill="#E4AA47" d="M258.025,782.174c5.904-2.857,73.276-2.486,83.768-2.367c-3.438,0.948-6.835,0.74-10.405,0.621
	c2.748,4.641,1.229,2.81-1.303,7.377c-7.555,0.607-37.265,2.032-42.675,0.099c-0.622-0.223-10.403,1.596-12.781,1.679
	c-3.468,0.218-7.818,0.627-11.2,0.325c-13.51,0.566-26.062,1.182-39.535,2.873c-8.578,1.077-18.59,0.361-27.386,2.051
	c-3.657,0.702-2.474-3.449-6.034,0.169c-9.308,2.066-16.784,2.592-26.122,3.563l-37.96,4.068l-0.547-1.203
	c-1.292,0.44-6.931,2.31-7.867,2.452c-3.369,0.516-25.396,4.705-27.381,4.178c-1-0.921-1.351-1.21-1.556-2.638
	c-0.239-1.656,0.842-3.974,2.057-5.063c3.717-3.335,51.349-9.109,59.052-9.615c9.682-1.188,19.378-2.106,29.089-3.012
	C205.683,785.263,231.424,782.776,258.025,782.174z"/>
<path fill="#F4CD60" d="M267.307,785.397c2.091,1.152,5.453,2.877,7.322,4.185c-3.468,0.218-7.818,0.627-11.2,0.325
	C264.426,787.5,265.288,787.142,267.307,785.397z"/>
<path fill="#F9FAFA" d="M160.515,701.543l3.986,0.352c1.698,0.183,3.512,2.116,4.727,3.399c1.445,1.524,0.947,3.87,0.606,5.767
	l-0.721,0.631l-0.52,0.082c-0.679,2.564-1.594,2.511-4.188,4.33c-0.537,1.562-1.626,4.446-1.877,5.96
	c1.192,0.993,2.139,1.982,3.594,2.447c-3.687,12.055-12.69,15.586-20.307,24.509c-11.275,10.956-13.791,18.258-18.23,33.392
	c-0.968,3.301-0.578,7.396-3.134,10.056l-0.92-0.37c-4.248-5.569,6.307-30.818,10.19-36.668c-2.91-2.473-5.224-4.341-6.985-7.839
	c-6.768-13.447-5.292-33.439,9.012-41.113c0.524,1.115,1.017,2.064,1.414,3.233C144.89,705.966,152.123,703.49,160.515,701.543z"/>
<path fill="#4F8972" d="M135.748,706.477c0.524,1.115,1.017,2.064,1.414,3.233c-5.747,4.492-9.637,9.758-10.549,17.183
	c-1.391,11.32,1.76,18.813,9.89,26.534c3.548-3.566,6.851-8.179,10.223-12.026c2.722-3.106,12.261-10.458,12.888-13.854
	c-3.644-1.578-13.467,9.051-16.866,8.512l-0.966-1.03c0.38-3.811,16.568-13.658,20.746-12.965c1.192,0.993,2.139,1.982,3.594,2.447
	c-3.687,12.055-12.69,15.586-20.307,24.509c-11.275,10.956-13.791,18.258-18.23,33.392c-0.968,3.301-0.578,7.396-3.134,10.056
	l-0.92-0.37c-4.248-5.569,6.307-30.818,10.19-36.668c-2.91-2.473-5.224-4.341-6.985-7.839
	C119.968,734.143,121.444,714.15,135.748,706.477z"/>
<path fill="#4F8972" d="M164.501,701.895c1.698,0.183,3.512,2.116,4.727,3.399c1.445,1.524,0.947,3.87,0.606,5.767l-0.721,0.631
	l-0.52,0.082c-1.605,0.262-1.652,0.362-3.22,0.086l-0.418-0.979c0.022-1.101,0.012-2.224,0.014-3.328
	c-4.984-2.947-24.724,12.904-28.292,10.285C137.087,711.069,158.814,706.436,164.501,701.895z"/>
<path fill="#508D79" d="M164.405,716.104c-6.666,1.388-17.18,8.252-23.879,10.593c-0.761-1.195-0.459-0.559-0.24-2.453
	c4.216-6.015,22.3-10.703,24.669-13.362l0.418,0.979c1.568,0.276,1.615,0.176,3.22-0.086
	C167.914,714.338,166.999,714.284,164.405,716.104z"/>
<path fill="#F9FAFA" d="M242.547,688.643c3.084,4.699,3.953,15.557,5.079,21.576c1.205,6.448,2.957,14.001,3.884,20.366
	c1.339,9.193,2.103,18.903,3.221,28.136c0.612,5.047,4.126,19.069,3.294,23.453c-0.625-0.223-2.013-0.455-2.122-1.104
	c-3.759-22.41-6.129-44.96-10.552-67.299C244.562,709.787,241.851,691.498,242.547,688.643z"/>
<linearGradient id="SVGID_1_" gradientUnits="userSpaceOnUse" x1="617.3936" y1="-104.459" x2="621.7588" y2="-98.2082" gradientTransform="matrix(1 0 0 -1 -282.6602 619.04)">
	<stop  offset="0" style="stop-color:#54796C"/>
	<stop  offset="1" style="stop-color:#798D81"/>
</linearGradient>
<path fill="url(#SVGID_1_)" d="M321.359,700.669c1.065-0.123,1.943-0.461,2.978-0.774l1.801,0.93
	c-3.746,1.654-4.889,4.359-2.289,7.875c1.048,1.16,1.037,1.249,1.758,2.664l-1.236,0.829l0.063,0.938
	c5.8,5.054,18.136,9.113,25.045,13.083c2.636,1.515,7.82,2.326,9.09,5.135c-1.476,2.018-4.571,1.533-6.827,1.458
	c-11.176-6.001-22.532-10.213-31.197-19.36C320.41,708.539,320.712,705.518,321.359,700.669z"/>
<path fill="#4F8972" d="M141.188,703.59c4.12-2.311,17.55-7.783,21.81-5.14l0.122,0.981c-0.911,1.534-1.006,1.434-2.605,2.111
	c-8.392,1.947-15.625,4.423-23.353,8.167c-0.397-1.169-0.89-2.118-1.414-3.233L141.188,703.59z"/>
<path fill="#796863" d="M325.27,692.495c3.573-8.956,12.307-7.222,20.271-5.842c-0.924,1.105-1.492,1.803-2.33,3.001
	c-3.875-0.801-7.535-1.268-11.474-0.521c-1.021,0.893-1.586,1.368-1.362,2.912l-0.373,0.12
	C327.959,692.459,327.305,692.57,325.27,692.495z"/>
<path fill="#4F7771" d="M325.27,692.495c2.035,0.075,2.689-0.036,4.732-0.33c-1.576,2.473,0.73,1.896-1.003,4.313
	c-0.875,0.125-1.518,0.223-2.402,0.285c-0.831,1.076-1.585,1.95-2.26,3.131c-1.034,0.313-1.912,0.651-2.978,0.774
	C321.896,697.098,323.285,695.485,325.27,692.495z"/>
<path fill="#4F7771" d="M168.593,711.773l0.52-0.082c2.155,5.23-4.004,6.956-4.631,10.024c0.95,0.35,0.569,0.243,1.687,0.079
	c0.712,1.484,0.519,0.65-0.047,2.716c-1.455-0.465-2.402-1.454-3.594-2.447c0.251-1.514,1.34-4.398,1.877-5.96
	C166.999,714.284,167.914,714.338,168.593,711.773z"/>
<path fill="#F9FAFA" d="M226.091,694.065c0.556,0.292,0.78,0.577,1.262,1.014c4.974,12.269,5.986,43.185,7.558,57.421
	c0.789,7.153,2.679,21.541,2.569,28.443c-0.345-0.23-2.268-1.463-2.344-1.842c-4.783-23.787-5.149-48.521-7.815-72.697
	C226.873,702.34,226.01,698.055,226.091,694.065z"/>
<path fill="#4D8872" d="M657.324,693.258l0.95-0.011c0.37,3.316,0.181,4.458-0.178,7.758c-6.426,0.305-9.556,1.366-15.729,3.137
	c2.389,1.03,4.888,2.159,7.288,3.118l12.507,5.155c5.453,2.236,25.069,11.684,28.19,16.535l0.329-0.625
	c2.401-4.462,2.587-1.347,6.878-2.951c0.258-1.131,0.865-1.592,1.662-2.576c0.434,3.538-0.079,6.477,1.405,9.882
	c-1.2,0.938-2.424,1.713-3.218,2.983l-0.501,2.996c-0.703,10.841-0.647,21.885-1.181,32.749c-0.175,3.537-0.383,7.41-0.156,10.914
	l2.36,0.149l1.619-35.313c0.052-3.017-0.071-7.698,0.841-10.555c0.461-1.444,1.677-1.687,3.059-2.338
	c3.689-1.783,7.262-3.334,11.027-4.957l2.306-0.972c9.709-3.763,19.06-8.912,28.76-12.749c2.491-0.984,4.813-1.999,7.205-3.2
	c1.663-0.661,3.407-1.243,5.102-1.836c1.958-0.83,3.989-1.729,5.956-2.514c-0.571,3.802-0.857,5.396-1.994,9.043
	c-0.894,0.525-1.075,0.628-2.045,0.985c0.693,0.877,0.539,0.71,1.354,1.415c-0.301,2.043-0.968,2.565-2.649,4.054l1.02,1.041
	c-0.384,3.654-4.598,20.175-5.829,23.989c14.838,7.126,19.525,19.401,14.208,34.623l1.646,0.183
	c22.784,1.605,45.784,1.784,68.618,2.352c3.193,0.079,6.943-0.22,10.057,0.386c1.932,0.375,4.132,2.004,6.046,1.965
	c1.124-0.024,1.335-0.312,2.271-0.771c4.386-2.148,34.523,1.825,40.457,2.928c2.467,1.369,3.623,1.676,6.466,1.447l5.623,0.07
	c2.953,0.129,7.454,1.21,10.425,1.963l-0.011,0.479l1.919,1.154c3.184,1.188,17.236,4.116,15.748,7.946
	c-4.07,3.046-9.452,2.044-14.192,1.124c-18.296-3.549-37.204-7.146-55.853-7.133c-13.281,0.009-27.507-2.722-40.787-4.148
	c-1.57-0.189-6.428,0.832-8.644,0.806l-125.158-1.115c-3.692-0.032-7.298-1.431-10.894-1.429
	c-20.961,0.01-41.706-0.158-62.638-1.131c-21.511-0.998-43.745,1.982-64.961,5.125c-6.816,1.119-14.321,3.957-21.127,5.52
	c-11.374,2.802-16.636,3.573-27.334,8.563c-4.292,0.145-9.33,2.816-11.918,1.361c-1.093-0.614-0.877-0.454-2.249-0.71l1.597,1.813
	l-0.131,0.947c-1.296,0.918-3.19,0.857-4.76,0.724l-2.617,0.858c-1.624-1.275-1.994-2.375-3.826-2.975
	c-1.227-0.633-1.932-0.901-2.933-1.882l0.544-0.479l1.122-1.238l-0.11-0.969c-1.13-0.741-2.166-1.463-3.264-2.243
	c1.083-1.608,1.202-1.729,1.139-3.716l0.91-0.74l1.298,0.547c0.729,1.801,0.569,0.82-0.074,3.1l0.466,0.093
	c0.625-1.463,0.753-1.84,1.914-3.011c0.259-1.372,0.144-1.393,1.068-2.395c2.415,0.07,2.347,0.045,2.986-2.017
	c1.516-0.083,3.031,0.931,4.535,1.667c2.933-0.014,5.908,0.032,8.629-0.968l1.756,0.498l2.499-0.486
	c4.036-1.668,3.987,0.22,8.321,0.552c1.356-0.507,2.601-1.257,3.887-1.949c6.535,1.093,12.121-5.141,17.368-5.121
	c5.787-0.891,21.607-3.645,26.668-5.403c-0.393-0.15-0.786-0.299-1.179-0.449c-0.844-0.263-1.646-1.442-1.584-2.356
	c0.729-10.808,19.247-36.178,25.496-44.123c1.275-2.02,2.96-3.695,4.581-5.465c10.159-10.869,18.127-18.032,28.928-27.892
	c0.099-1.393,0.095-6.246,1.444-6.557c5.806-1.335,15.334,3.458,20.528,5.717c6.18-6.241,8.914-4.286,16.725-7.199
	C656.783,696.456,656.868,694.842,657.324,693.258z"/>
<path fill="#DC9F3F" d="M757.851,710.552c1.958-0.83,3.989-1.729,5.956-2.514c-0.571,3.802-0.857,5.396-1.994,9.043
	c-0.894,0.525-1.075,0.628-2.045,0.985c0.693,0.877,0.539,0.71,1.354,1.415c-0.301,2.043-0.968,2.565-2.649,4.054l1.02,1.041
	c-0.384,3.654-4.598,20.175-5.829,23.989c14.838,7.126,19.525,19.401,14.208,34.623l1.646,0.183
	c22.784,1.605,45.784,1.784,68.618,2.352c3.193,0.079,6.943-0.22,10.057,0.386c1.932,0.375,4.132,2.004,6.046,1.965
	c1.124-0.024,1.335-0.312,2.271-0.771c4.386-2.148,34.523,1.825,40.457,2.928c2.467,1.369,3.623,1.676,6.466,1.447l5.623,0.07
	c2.953,0.129,7.454,1.21,10.425,1.963l-0.011,0.479l1.919,1.154c3.184,1.188,17.236,4.116,15.748,7.946
	c-4.07,3.046-9.452,2.044-14.192,1.124c-18.296-3.549-37.204-7.146-55.853-7.133c-13.281,0.009-27.507-2.722-40.787-4.148
	c-1.57-0.189-6.428,0.832-8.644,0.806l-125.158-1.115c-3.692-0.032-7.298-1.431-10.894-1.429
	c-20.961,0.01-41.706-0.158-62.638-1.131c-21.511-0.998-43.745,1.982-64.961,5.125c-6.816,1.119-14.321,3.957-21.127,5.52
	c-11.374,2.802-16.636,3.573-27.334,8.563c-4.292,0.145-9.33,2.816-11.918,1.361c-1.093-0.614-0.877-0.454-2.249-0.71l1.597,1.813
	l-0.131,0.947c-1.296,0.918-3.19,0.857-4.76,0.724l-2.617,0.858c-1.624-1.275-1.994-2.375-3.826-2.975
	c-1.227-0.633-1.932-0.901-2.933-1.882l0.544-0.479l1.122-1.238l-0.11-0.969c-1.13-0.741-2.166-1.463-3.264-2.243
	c1.083-1.608,1.202-1.729,1.139-3.716l0.91-0.74l1.298,0.547c0.729,1.801,0.569,0.82-0.074,3.1l0.466,0.093
	c0.625-1.463,0.753-1.84,1.914-3.011c0.259-1.372,0.144-1.393,1.068-2.395c2.415,0.07,2.347,0.045,2.986-2.017
	c1.516-0.083,3.031,0.931,4.535,1.667c2.933-0.014,5.908,0.032,8.629-0.968l1.756,0.498l2.499-0.486
	c4.036-1.668,3.987,0.22,8.321,0.552c1.356-0.507,2.601-1.257,3.887-1.949c6.535,1.093,12.121-5.141,17.368-5.121
	c5.787-0.891,21.607-3.645,26.668-5.403l0.52-0.346c4.177,0.577,9.574-1.861,13.627-1.952c13.025-0.292,26.72-2.713,39.665-1.9
	l2.824,0.153l5.213,0.055c2.688-0.009,4.554,0.065,7.226-0.391c5.452,0.166,16.138,0.896,20.977,0.666l5.204,0.162
	c1.469,0.123,3.604,0.385,4.989,0.212c4.404,0.162,13.604-1.058,17.083,0.699l3.194-0.264c4.262-0.259,10.507-0.335,14.678-0.102
	l2.36,0.149l1.619-35.313c0.052-3.017-0.071-7.698,0.841-10.555c0.461-1.444,1.677-1.687,3.059-2.338
	c3.689-1.783,7.262-3.334,11.027-4.957l2.306-0.972c9.709-3.763,19.06-8.912,28.76-12.749c2.491-0.984,4.813-1.999,7.205-3.2
	C754.412,711.727,756.156,711.145,757.851,710.552z"/>
<path fill="#4F8972" d="M757.851,710.552c1.958-0.83,3.989-1.729,5.956-2.514c-0.571,3.802-0.857,5.396-1.994,9.043
	c-0.894,0.525-1.075,0.628-2.045,0.985c0.693,0.877,0.539,0.71,1.354,1.415c-0.301,2.043-0.968,2.565-2.649,4.054l1.02,1.041
	c-0.384,3.654-4.598,20.175-5.829,23.989c14.838,7.126,19.525,19.401,14.208,34.623l-3.659-0.323
	c-3.031,2.583-15.05,2.385-17.757,0.495c-1.805-0.266-3.836-0.247-5.677-0.29c-2.171,0.186-4.325,0.101-6.501,0.036
	c-12.101-0.362-24.24-0.735-36.344-0.635l1.619-35.313c0.052-3.017-0.071-7.698,0.841-10.555c0.461-1.444,1.677-1.687,3.059-2.338
	c3.689-1.783,7.262-3.334,11.027-4.957l2.306-0.972c9.709-3.763,19.06-8.912,28.76-12.749c2.491-0.984,4.813-1.999,7.205-3.2
	C754.412,711.727,756.156,711.145,757.851,710.552z"/>
<path fill="#F9FAFA" d="M752.55,750.286c11.265,7.646,17.709,19.112,11.661,32.579c-3.031,2.583-15.05,2.385-17.757,0.495
	c-1.805-0.266-3.836-0.247-5.677-0.29c-0.121-1.443,0.135-2.085,0.483-3.47l-1.061-1.634c-3.494-0.59-4.859-0.394-7.11-3.078
	l0.146-0.897c4.507-2.417,17.022,1.064,20.178-2.396c-4.545-2.354-17.341,1.937-19.469-4.916c2.078-3.236,14.759,0.005,18.643-2.597
	l-0.242-0.893c-4.213-0.681-13.544,0.744-16.352-2.312c0.957-3.783,9.433-3.226,12.848-3.886
	C750.593,754.289,751.215,753.273,752.55,750.286z"/>
<path fill="#4F8972" d="M740.2,777.967c3.964,0.413,8.098,0.374,12.096,0.416c-0.622,1.874-0.92,3.662-2.511,4.713
	c-1.379,0.196-1.938,0.242-3.331,0.265c-1.805-0.266-3.836-0.247-5.677-0.29c-0.121-1.443,0.135-2.085,0.483-3.47L740.2,777.967z"/>
<path fill="#508D79" d="M699.552,747.158c0.052-3.017-0.071-7.698,0.841-10.555c0.461-1.444,1.677-1.687,3.059-2.338
	C702.115,739.657,707.861,745.689,699.552,747.158z"/>
<path fill="#72A496" d="M752.749,712.388c1.663-0.661,3.407-1.243,5.102-1.836c-0.661,2.175-1.25,6.343-2.212,7.337
	C753.487,716.814,753.036,714.523,752.749,712.388z"/>
<path fill="#508D79" d="M714.479,729.309l2.306-0.972l0.017,0.522c0.104,2.439,0.315,3.272,0.907,5.646
	c-3.176,2.784,0.813,1.383-1.951,3.344c-1.542-0.982-0.899-0.353-1.836-2.105c0.385-1.422,0.646-1.68,1.413-2.921
	C715.132,731.511,715.077,730.493,714.479,729.309z"/>
<path fill="#72A496" d="M727.963,726.14c0.964,0.969,1.044,1.264,2.301,1.673c1.005-0.495,0.455-0.354,1.666-0.366l0.462,2.556
	l-0.613,0.092C728.556,727.989,729.202,730.067,727.963,726.14z"/>
<path fill="#609B85" d="M713.369,769.164c1.412,1.448,2.665,2.987,2.136,5.025l-0.887-0.1
	C713.802,772.258,712.96,771.053,713.369,769.164z"/>
<path fill="#72A496" d="M710.254,766.604c0.398,1.96-0.038,4.066-0.43,5.994l-0.915,0.208l-0.516-0.34
	C708.949,769.877,709.076,768.941,710.254,766.604z"/>
<path fill="#609B85" d="M731.193,746.993c0.34,0.187,1.35,0.932,1.705,1.183l-0.148,0.623l-2.101,0.632l-0.193,1.167l-0.572-0.241
	C729.778,748.274,729.682,749.046,731.193,746.993z"/>
<path fill="#F9D874" d="M479.052,800.223l1.298,0.547c0.729,1.801,0.569,0.82-0.074,3.1l0.466,0.093
	c0.625-1.463,0.753-1.84,1.914-3.011c0.259-1.372,0.144-1.393,1.068-2.395c2.415,0.07,2.347,0.045,2.986-2.017
	c1.516-0.083,3.031,0.931,4.535,1.667l-0.248,0.399c-1.459,0.321-2.549,0.339-3.444,1.456c0.081,2.472,2.816,4.753,5.083,4.788
	l0.5-0.426c0.106,0.896,0.297,2.148,0.332,3.014c1.547-0.957,2.962-1.718,4.567-2.577c-2.507,3.09-3.102,3.383-6.654,5.261
	l1.597,1.813l-0.131,0.947c-1.296,0.918-3.19,0.857-4.76,0.724l-2.617,0.858c-1.624-1.275-1.994-2.375-3.826-2.975
	c-1.227-0.633-1.932-0.901-2.933-1.882l0.544-0.479l1.122-1.238l-0.11-0.969c-1.13-0.741-2.166-1.463-3.264-2.243
	c1.083-1.608,1.202-1.729,1.139-3.716L479.052,800.223z"/>
<path fill="#F4CD60" d="M493.468,807.438c1.547-0.957,2.962-1.718,4.567-2.577c-2.507,3.09-3.102,3.383-6.654,5.261l1.597,1.813
	l-0.131,0.947c-1.296,0.918-3.19,0.857-4.76,0.724c0.302-0.645,0.187-0.619,0.196-1.416l-1.2-0.467l-0.118-0.736l1.595-1.479
	l1.134-0.745l0.108-2.048l0.578-0.413C491.573,807.063,491.994,807.541,493.468,807.438z"/>
<path fill="#F9E18A" d="M479.255,809.129c2.75-0.517,6.482-0.021,9.305,0.379l-1.595,1.479l0.118,0.736l1.2,0.467
	c-0.01,0.797,0.105,0.771-0.196,1.416l-2.617,0.858c-1.624-1.275-1.994-2.375-3.826-2.975c-1.227-0.633-1.932-0.901-2.933-1.882
	L479.255,809.129z"/>
<path fill="#F9E18A" d="M499.874,797.239l1.756,0.498l-1.23,2.082l1.066,2.144c-2.683,0.402-6.452,0.675-8.33,2.462l-0.5,0.426
	c-2.267-0.035-5.002-2.316-5.083-4.788c0.896-1.117,1.985-1.135,3.444-1.456l0.248-0.399
	C494.178,798.193,497.153,798.239,499.874,797.239z"/>
<path fill="#F4CD60" d="M499.874,797.239l1.756,0.498l-1.23,2.082c-3.818,2.026-5.94,0.483-9.402-1.213l0.248-0.399
	C494.178,798.193,497.153,798.239,499.874,797.239z"/>
<path fill="#E4AA47" d="M504.129,797.251c4.036-1.668,3.987,0.22,8.321,0.552c-5.566,5.224-5.079,2.633-10.303,4.697
	c-1.443,0.744-2.854,1.359-4.112,2.361c-1.605,0.859-3.021,1.62-4.567,2.577c-0.035-0.865-0.226-2.118-0.332-3.014
	c1.878-1.787,5.647-2.06,8.33-2.462l-1.066-2.144l1.23-2.082L504.129,797.251z"/>
<path fill="#E4AA47" d="M629.447,780.948c5.452,0.166,16.138,0.896,20.977,0.666c1.395,0.795,2.92,1.461,2.997,3.143
	c-1.493,1.077-5.012,1.532-6.853,1.369c-3.751-0.333-4.1-3.305-8.156-3.983c-5.274-0.882-11.096,0.272-16.19-0.804
	C624.91,781.33,626.775,781.404,629.447,780.948z"/>
<path fill="#F9FAFA" d="M657.324,693.258l0.95-0.011c0.37,3.316,0.181,4.458-0.178,7.758c-6.426,0.305-9.556,1.366-15.729,3.137
	c2.389,1.03,4.888,2.159,7.288,3.118l12.507,5.155l-3.068,0.567c0.505,1.283,2.023,1.898,3.311,2.67
	c-2.103,0.508-3.014-1.192-4.302-2.701l-0.954-0.209c-1.189,1.042-1.094,0.997-1.73,2.466l0.04,0.619l-0.467,0.136
	c-1.858,0.554-2.744,0.624-3.568,2.502c-3.85-1.231-7.721-3.969-10.665-4.925c-3.747-1.052-16.808-7.255-19.767-5.605l0.204,0.986
	c1.512,1.799,4.868,2.606,7.237,3.437c1.649,0.744,4.98,2.363,6.582,2.794c-0.565,3.18-1.729,2.443-2.169,5.979
	c-2.1,3.652-3.961,3.962-4.325,8.559l0.227,0.39l0.648-0.127c2.204-0.41,2.166-0.672,3.511,0.197l0.588,1.46
	c-0.646,1.188-3.935,4.844-5.704,4.46c-2.734-0.595-5.392-1.479-8.182-1.71c0.533,5.096,1.473,10.657,1.412,15.672
	c-1.305,1.172-2.848,2.263-3.351,3.869c-3.991,2.854-5.631,6.335-6.813,10.998c-0.48,2.78-0.944,5.122-1.083,7.956
	c1.132,3.887,1.708,5.255,4.41,8.277c-12.945-0.813-26.64,1.608-39.665,1.9c-4.053,0.091-9.45,2.529-13.627,1.952l-0.52,0.346
	c-0.393-0.15-0.786-0.299-1.179-0.449c-0.844-0.263-1.646-1.442-1.584-2.356c0.729-10.808,19.247-36.178,25.496-44.123
	c1.275-2.02,2.96-3.695,4.581-5.465c10.159-10.869,18.127-18.032,28.928-27.892c0.099-1.393,0.095-6.246,1.444-6.557
	c5.806-1.335,15.334,3.458,20.528,5.717c6.18-6.241,8.914-4.286,16.725-7.199C656.783,696.456,656.868,694.842,657.324,693.258z"/>
<path fill="#4F8972" d="M657.324,693.258l0.95-0.011c0.37,3.316,0.181,4.458-0.178,7.758c-6.426,0.305-9.556,1.366-15.729,3.137
	c2.389,1.03,4.888,2.159,7.288,3.118l12.507,5.155l-3.068,0.567c0.505,1.283,2.023,1.898,3.311,2.67
	c-2.103,0.508-3.014-1.192-4.302-2.701l-0.954-0.209c-1.189,1.042-1.094,0.997-1.73,2.466l0.04,0.619l-0.467,0.136
	c-1.858,0.554-2.744,0.624-3.568,2.502c-3.85-1.231-7.721-3.969-10.665-4.925c-3.747-1.052-16.808-7.255-19.767-5.605l0.204,0.986
	c1.512,1.799,4.868,2.606,7.237,3.437c1.649,0.744,4.98,2.363,6.582,2.794c-0.565,3.18-1.729,2.443-2.169,5.979
	c-2.1,3.652-3.961,3.962-4.325,8.559l0.227,0.39l0.648-0.127c2.204-0.41,2.166-0.672,3.511,0.197l0.588,1.46
	c-0.646,1.188-3.935,4.844-5.704,4.46c-2.734-0.595-5.392-1.479-8.182-1.71c-0.417-4.221-1.418-17.62-2.221-20.88
	c-14.742,5.304-50.229,56.027-56.496,71.505l-0.52,0.346c-0.393-0.15-0.786-0.299-1.179-0.449c-0.844-0.263-1.646-1.442-1.584-2.356
	c0.729-10.808,19.247-36.178,25.496-44.123c1.275-2.02,2.96-3.695,4.581-5.465c10.159-10.869,18.127-18.032,28.928-27.892
	c0.099-1.393,0.095-6.246,1.444-6.557c5.806-1.335,15.334,3.458,20.528,5.717c6.18-6.241,8.914-4.286,16.725-7.199
	C656.783,696.456,656.868,694.842,657.324,693.258z"/>
<path fill="#609B85" d="M640.759,713.54c2.924-4.466,5.359-1.993,9.231,0.233c-0.067,0.972-0.131,1.577-0.286,2.54l0.551,0.646
	l0.823-0.166l0.743-1.936l3.598,0.35l0.04,0.619l-0.467,0.136c-1.858,0.554-2.744,0.624-3.568,2.502
	C647.574,717.233,643.703,714.496,640.759,713.54z"/>
<path fill="#508D79" d="M628.434,712.357c1.649,0.744,4.98,2.363,6.582,2.794c-0.565,3.18-1.729,2.443-2.169,5.979
	C627.938,717.248,630.344,715.668,628.434,712.357z"/>
<path fill="#508D79" d="M649.656,707.26c-0.923,0.883-1.583,1.268-2.643,1.979c-2.09,0.139-5.044-2.31-5.537-4.188l0.892-0.909
	C644.757,705.172,647.256,706.301,649.656,707.26z"/>
<path fill="#A5C0B3" d="M583.106,738.4c1.275-2.02,2.96-3.695,4.581-5.465c0.345,2.122,0.317,2.192-0.391,4.27
	C585.638,738.867,585.552,739.011,583.106,738.4z"/>
<path fill="#4D8872" d="M625.386,727.064c0.356,0.108,0.987,0.667,1.332,0.931c0.459,1.077,0.436,0.522,0.027,1.663
	c-2.217,0.932-3.069,1.395-5.117,2.665l0.866-1.711l-1.144-2.116l0.362-0.741C623.199,727.323,623.887,727.253,625.386,727.064z"/>
<path fill="#4F8972" d="M662.163,712.415c5.453,2.236,25.069,11.684,28.19,16.535l0.329-0.625c2.401-4.462,2.587-1.347,6.878-2.951
	c0.258-1.131,0.865-1.592,1.662-2.576c0.434,3.538-0.079,6.477,1.405,9.882c-1.2,0.938-2.424,1.713-3.218,2.983l-0.501,2.996
	c-0.703,10.841-0.647,21.885-1.181,32.749c-0.175,3.537-0.383,7.41-0.156,10.914c-4.171-0.233-10.416-0.157-14.678,0.102
	c0.654-9.774,0.928-19.887,1.497-29.678c0.173-2.951,1.399-17.129,0.973-18.979c-6.478-3.189-12.908-6.552-19.392-9.696
	c-3.977-1.93-8.056-3.188-12.062-5.338l-0.487-0.269c0.824-1.878,1.71-1.948,3.568-2.502l0.467-0.136l-0.04-0.619
	c0.637-1.469,0.541-1.424,1.73-2.466l0.954,0.209c1.288,1.509,2.199,3.209,4.302,2.701c-1.287-0.771-2.806-1.387-3.311-2.67
	L662.163,712.415z"/>
<path fill="#508D79" d="M699.223,722.798c0.434,3.538-0.079,6.477,1.405,9.882c-1.2,0.938-2.424,1.713-3.218,2.983l-0.501,2.996
	c-1.306-0.632-1.366-0.729-2.498-1.665c-1.104-3.641-3.908-6.013-4.058-8.044l0.329-0.625c2.401-4.462,2.587-1.347,6.878-2.951
	C697.818,724.243,698.426,723.782,699.223,722.798z"/>
<path fill="#72A496" d="M699.223,722.798c0.434,3.538-0.079,6.477,1.405,9.882c-1.2,0.938-2.424,1.713-3.218,2.983
	c1.568-5.462,0.364-4.193,0.739-8.705l0.083-0.901l-0.672-0.683C697.818,724.243,698.426,723.782,699.223,722.798z"/>
<path fill="#F9FAFA" d="M619.928,756.392c1.236-0.492,1.888-1.152,2.847-2.028l0.701,0.146c0.623,1.568,0.724,2.397,2.253,3.281
	c4.334,0.526,13.947-0.863,17.154,2.238c-0.058,2.121-1.401,2.294-3.234,2.916l2.933,0.73l-1.829,1.251l1.115,0.011
	c-0.06,1.523-0.171,3.303-0.178,4.805c-3.118,0.162-13.512,0.286-15.499,1.149l-0.565,0.697c1.508,3.259,14.972,0.883,19.682,1.759
	c-1.011,1.172-2.306,2.584-3.179,3.813c-3.426,0.3-12.382,0.116-14.298,1.62c0.427,1.668,0.023,0.896,1.617,2.168
	c-2.672,0.456-4.537,0.382-7.226,0.391l-5.213-0.055l-2.824-0.153c-2.702-3.022-3.278-4.391-4.41-8.277
	c0.139-2.834,0.603-5.176,1.083-7.956c1.183-4.663,2.822-8.144,6.813-10.998C618.521,754.772,619.218,755.398,619.928,756.392z"/>
<path fill="#4F8972" d="M640.752,764.927c-2.827,0.664-12.792,1.879-15.513,0.485l-0.184-0.748
	c2.379-2.172,11.272-2.078,14.593-1.719l2.933,0.73L640.752,764.927z"/>
<path fill="#4F8972" d="M617.671,753.899c0.851,0.873,1.547,1.499,2.257,2.492c-3.047,2.407-3.667,4.08-5.762,7.306l-1.674-0.6
	l-1.635,1.8C612.04,760.234,613.68,756.754,617.671,753.899z"/>
<path fill="#4F7771" d="M610.857,764.897l1.635-1.8l1.674,0.6c-0.94,3.513-0.789,5.981-1.365,9.286l-3.026-0.13
	C609.913,770.02,610.377,767.678,610.857,764.897z"/>
<path fill="#4D8872" d="M609.774,772.854l3.026,0.13l-0.979,0.582c2,2.394,3.436,5.151,5.187,7.719l-2.824-0.153
	C611.482,778.108,610.906,776.74,609.774,772.854z"/>
<path fill="#F9FAFA" d="M628.434,712.357c-2.369-0.83-5.726-1.638-7.237-3.437l-0.204-0.986c2.959-1.649,16.02,4.554,19.767,5.605
	c2.944,0.956,6.815,3.693,10.665,4.925l0.487,0.269c4.006,2.15,8.085,3.408,12.062,5.338c6.483,3.145,12.914,6.507,19.392,9.696
	c0.427,1.85-0.8,16.027-0.973,18.979c-0.569,9.791-0.843,19.903-1.497,29.678l-3.194,0.264c1.131-14.045,0.97-32.664,2.871-46.146
	c-12.854-8.089-31.162-15.503-45.556-21.391C633.414,714.721,630.083,713.102,628.434,712.357z"/>
<path fill="#4F8972" d="M655.628,781.776c-1.063-1.998-1.585-2.544-3.265-4.067c1.174-1.219,5.928-2.066,7.32-0.784
	c0.563,2.165,0.74,2.86,0.934,5.063C659.231,782.161,657.097,781.899,655.628,781.776z"/>
<path fill="#EFF2ED" d="M641.867,764.938c2.708,0.519,4.162,1.771,2.768,4.49c-1.269,0.459-1.567,0.335-2.945,0.314
	C641.696,768.24,641.808,766.461,641.867,764.938z"/>
<path fill="#508D79" d="M661.002,733.574c1.36-0.769,0.722-0.755,1.95-0.539c0.418,1.851-0.687,3.488-1.378,5.229l0.791,0.768
	l1.197-0.252c0.654-2.609,0.058-4.935,1.469-6.226c1.674-0.042,1.099-0.354,2.1,0.441l-0.413,1.896l0.593,0.64
	c0.749-0.389,0.408-0.093,0.901-1.009l0.694,0.233c0.201,5.048,0.045,7.476-3.768,10.902c0.263,1.129,0.398,1.405,0.861,2.478
	c-0.881,0.77-3.847,0.489-5.839,1.1c-0.528-0.681-0.988-1.267-1.63-1.847l-0.548,0.763c0.293,1.654,0.481,2.335,0.974,3.958
	l-0.614,0.354l-0.706-0.22c-1.149-1.87-1.132-4.413-0.881-6.558c1.888-1.703,2.412,2.106,6.381,1.35l0.479-0.773
	c-0.184-0.443-0.798-1.893-1.14-1.936c-0.854-0.109-0.538-2.997-0.733-3.151c-2.293-1.805-3.519-0.162-5.923-2.354
	C658.085,735.655,661.325,738.248,661.002,733.574z"/>
<path fill="#609B85" d="M652.311,734.911c-1.128-0.879-1.06-0.801-1.602-2.126c1.737-1.227,5.625,1.737,7.753,1.254
	c0.854-0.193,1.678-0.325,2.54-0.465c0.323,4.674-2.917,2.081-5.183,5.247l-0.29,0.127c-0.97,0.915-1.465,1.593-2.76,1.856
	C651.867,739.342,652.28,736.946,652.311,734.911z"/>
<path fill="#508D79" d="M652.311,734.911c1.243,2.257,1.276,2.438,3.219,4.037c-0.97,0.915-1.465,1.593-2.76,1.856
	C651.867,739.342,652.28,736.946,652.311,734.911z"/>
<path fill="#4F8972" d="M658.343,752.463c0.717,2.641-1.083,8.24-4.607,7.24c-1.464-2.013-1.148-5.456-0.151-7.617
	c1.961,0.659,2.05,0.67,4.053,0.157L658.343,752.463z"/>
<linearGradient id="SVGID_2_" gradientUnits="userSpaceOnUse" x1="916.8359" y1="-112.2856" x2="920.5901" y2="-112.7592" gradientTransform="matrix(1 0 0 -1 -282.6602 619.04)">
	<stop  offset="0" style="stop-color:#508771"/>
	<stop  offset="1" style="stop-color:#72A995"/>
</linearGradient>
<path fill="url(#SVGID_2_)" d="M635.927,726.487c2.386,1.448,2.878,3.757,2.38,6.307c-0.938,1.249-0.797,1.71-1.111,3.366
	c-0.496,0.549-0.16,0.328-1.111,0.466C634.526,733.736,633.441,729.148,635.927,726.487z"/>
<path fill="#609B85" d="M644.723,726.025c1.432,1.078,2.174,2.753,3.162,4.378C644.633,729.415,645.161,729.253,644.723,726.025z"/>
<path fill="#FABDA9" d="M851.405,649.065c2.728-0.326,5.268-0.69,8.02-0.731c4.013,0.761,7.8,1.439,11.837,2.045
	c2.36,0.125,4.37,0.665,6.622,1.373l0.333,0.085c8.114,1.988,15.449,8.955,19.773,15.957c3.681,5.961,4.425,12.827,4.67,19.709
	c-1.029,11.015,7.88,18.146,10.542,29.359c0.447,3.046,0.396,4.553,0.345,7.567c7.143-0.383,14.336-0.888,21.48-0.732
	c-2.656,11.091-9.424,23.011-13.903,33.635c-0.921,2.185-2.969,5.451-3.641,7.239c1.933,1.123,3.704,2.223,5.758,3.112
	c1.009,2.209,2.276,4.584,2.689,6.933c2.428,7.385,0.64,14.956-4.544,20.728l-1.919-1.154l0.011-0.479
	c-2.971-0.753-7.472-1.834-10.425-1.963l-5.623-0.07c-2.843,0.229-3.999-0.078-6.466-1.447c-5.934-1.103-36.071-5.076-40.457-2.928
	c-0.937,0.459-1.147,0.746-2.271,0.771c-1.914,0.039-4.114-1.59-6.046-1.965c-3.113-0.605-6.863-0.307-10.057-0.386
	c-22.834-0.567-45.834-0.746-68.618-2.352c0.993-2.271,2.595-3.663,3.79-6.509c-0.025-5.071,1.943-6.701,5.025-10.96
	c2.288-2.758,4.776-5.564,7.122-8.294c0.284-1.053,0.198-0.525-0.088-1.724l-0.806-0.161c-2.17,1.205-3.544,2.825-5.309,4.59
	c-7.442,1.836-7.1,1.518-11.459-4.89c2.843-2.721,8.22-5.535,9.781-8.587c9.323-2.44,10.681,5.948,15.271,4.854
	c0.566-1.894,0.516-0.937-0.02-2.979c-3.67-3.672-5-4.486-9.516-6.486c-2.215,1.423-3.828,3.223-6.264,1.771
	c-0.221-1.175-0.48-1.446,0.251-2.504c3.529-5.096,8.113-3.472,12.114-1.335c0.709-1.972-1.844-43.336-1.808-49.72
	c2.91-0.682,7.862-2.014,10.642-1.528c8.887-3.971,16.642-9.151,24.114-15.359c2.556-3.198,4.807-5.976,7.559-8.999
	c7.839-8.126,8.928-9.524,18.998-14.681C849.396,649.633,850.818,649.244,851.405,649.065z"/>
<path fill="#F9FAFA" d="M851.405,649.065c2.728-0.326,5.268-0.69,8.02-0.731c4.013,0.761,7.8,1.439,11.837,2.045
	c2.36,0.125,4.37,0.665,6.622,1.373l0.333,0.085c8.114,1.988,15.449,8.955,19.773,15.957c3.681,5.961,4.425,12.827,4.67,19.709
	c-1.029,11.015,7.88,18.146,10.542,29.359c0.083,2.855,0.437,4.498-0.95,6.952c-1.589,0.871-0.814,0.819-2.376,0.403
	c-0.802-1.185-0.662-0.551-0.438-1.961c-4.224,1.146-6.927,3.23-11.832,2.911c-4.022,0.715-7.89,1.128-11.986,1.112
	c-1.206,1.36-3.188,1.689-5.005,2.226c-2.167,0.612-2.238,0.82-3.867,2.5l-4.317-0.301l-0.292-1.524
	c-12.447,2.362-13.977,1.698-26.685,0.968c-5.916,12.55-10.467,26.897-14.928,40.046c-1.162,3.426-2.159,11.542-4.638,13.721
	l-0.815-0.131l-0.519-0.777c1.625-10.513,7.191-22.165,10.709-32.334c2.955-8.541,5.349-16.966,7.915-25.624
	c-3.443-2.906-7.958-5.793-11.627-8.568c-5.314-4.021-10.546-8.081-15.798-12.186c1.279-3.005,2.729-5.848,3.035-9.081
	c-1.962,1.696-3.052,3.943-4.398,6.205l0.212-0.223c-2.64-1.008-8.917-3.434-9.237-6.488c1.021-0.988,1.989-0.965,3.444-1.234
	l0.654-0.115l-0.1-0.453c-2.313-0.207-2.196,0.189-4.655,1.254c-2.535-1.309-5.804-2.368-6.463-5.248
	c8.887-3.971,16.642-9.151,24.114-15.359c2.556-3.198,4.807-5.976,7.559-8.999c7.839-8.126,8.928-9.524,18.998-14.681
	C849.396,649.633,850.818,649.244,851.405,649.065z"/>
<path fill="#DF7D53" d="M851.405,649.065c2.728-0.326,5.268-0.69,8.02-0.731c4.013,0.761,7.8,1.439,11.837,2.045
	c2.36,0.125,4.37,0.665,6.622,1.373l0.333,0.085c8.114,1.988,15.449,8.955,19.773,15.957c3.681,5.961,4.425,12.827,4.67,19.709
	c-1.029,11.015,7.88,18.146,10.542,29.359c0.083,2.855,0.437,4.498-0.95,6.952c-1.589,0.871-0.814,0.819-2.376,0.403
	c-0.802-1.185-0.662-0.551-0.438-1.961c-4.224,1.146-6.927,3.23-11.832,2.911c-4.022,0.715-7.89,1.128-11.986,1.112
	c6.169-8.196,7.579-12.156,8.938-22.175l-0.006-1.896c-0.382-2.879-9.863-31.876-11.17-33.043
	c-1.887,5.621,4.592,23.823,7.458,29.33c-5.075-2.021-8.71-3.937-13.187-7.023c-1.458,0.521-0.785,0.595-2.077,0.104
	c-7.232-2.698-11.475-2.754-15.96-9.264c-0.208-3.463-0.365-6.38-0.325-9.845c0.405-6.507,0.713-7.452,3.923-13.315
	c-10.294,9.401-18.782,10.583-30.047,17.257c-3.794,2.248-10.054,16.404-14.378,18.803c-1.962,1.696-3.052,3.943-4.398,6.205
	l0.212-0.223c-2.64-1.008-8.917-3.434-9.237-6.488c1.021-0.988,1.989-0.965,3.444-1.234l0.654-0.115l-0.1-0.453
	c-2.313-0.207-2.196,0.189-4.655,1.254c-2.535-1.309-5.804-2.368-6.463-5.248c8.887-3.971,16.642-9.151,24.114-15.359
	c2.556-3.198,4.807-5.976,7.559-8.999c7.839-8.126,8.928-9.524,18.998-14.681C849.396,649.633,850.818,649.244,851.405,649.065z"/>
<path fill="#D97D4B" d="M859.29,672.47c3.364-3.76,1.713-6.651,4.864-8.459c2.526,0.021,1.538-0.289,3.62,1.31
	c0.64,10.567,1.464,17.153,7.801,26.258c-7.232-2.698-11.475-2.754-15.96-9.264C859.407,678.852,859.25,675.935,859.29,672.47z"/>
<path fill="#D97D4B" d="M871.262,650.379c2.36,0.125,4.37,0.665,6.622,1.373l0.333,0.085c0.721,1.823,2.002,2.251,3.631,3.203
	l0.431,0.874c-2.697,2.033-11.738,1.987-15.262,1.974l-0.467-0.264c0.554-0.537,0.924-1.018,1.317-1.681
	c-1.433-0.575-2.656-0.953-2.632-2.617c1.562-1.328,3.137-1.479,5.109-1.723L871.262,650.379z"/>
<path fill="#F9FAFA" d="M867.774,665.32l1.485-0.477c2.849,7.074,2.128,18.249,8.393,26.63c-1.458,0.521-0.785,0.595-2.077,0.104
	C869.238,682.474,868.414,675.888,867.774,665.32z"/>
<path fill="#CB6F49" d="M894.557,704.105c1.963,5.436-1.412,11.887-2.673,17.172c-0.047,0.196,4.79,3.294,5.722,3.891
	c-4.022,0.715-7.89,1.128-11.986,1.112C891.788,718.084,893.198,714.124,894.557,704.105z"/>
<path fill="#D18C67" d="M822.359,673.552c2.556-3.198,4.807-5.976,7.559-8.999c1.036,2.128,0.988,1.339,0.852,3.516l-0.552,0.871
	c-1.985,1.498-5.786,5.544-6.079,8.015l-0.392,0.079C821.957,676.24,824.29,676.662,822.359,673.552z"/>
<path fill="#FABDA9" d="M824.139,676.954c0.293-2.471,4.094-6.517,6.079-8.015C828.741,672.78,827.541,674.579,824.139,676.954z"/>
<path fill="#D18C67" d="M891.676,670.008l1.639,0.459c1.71,1.786,1.83,3.527,2.285,5.971
	C893.689,675.216,892.844,672.395,891.676,670.008z"/>
<path fill="#F4DFD2" d="M872.138,729.181c2.855-0.804,5.546-0.914,8.477-0.675c-2.167,0.612-2.238,0.82-3.867,2.5l-4.317-0.301
	L872.138,729.181z"/>
<path fill="#040505" d="M853.658,698.401c1.451,0.797,0.808,0.246,1.667,2.037c-0.328,4.995-5.625,6.076-6.938,9.4
	c-2.026,5.13,5.809,5.729,8.757,3.05c1.54-1.399,2.128-0.752,3.297,0.282c-2.253,1.759-4.003,3.333-7.077,3.122
	c-3.76-0.258-8.163-2.884-7.475-7.235c0.215-1.352,0.845-2.822,1.949-3.691c1.572-0.043,1.744,0.018,3.292-0.451
	C852.409,703.666,852.993,700.426,853.658,698.401z"/>
<path fill="#4F7771" d="M874.171,697.563c2.817,1.159,4.139,1.506,4.155,4.665c-0.899,1.923-1.094,1.969-2.839,3.301
	c-2.365-0.435-4.831-2.141-4.331-4.951C871.435,699.009,872.93,698.403,874.171,697.563z"/>
<path fill="#354C4B" d="M837.998,689.75c1.659-0.205,1.824-0.319,3.495,0.039c2.689,2.1,1.623,4.149,0.397,6.86
	C837.758,695.993,835.983,693.67,837.998,689.75z"/>
<path fill="#4F7771" d="M783.31,742.227c-2.215,1.423-3.828,3.223-6.264,1.771c-0.221-1.175-0.48-1.446,0.251-2.504
	c3.529-5.096,8.113-3.472,12.114-1.335c7.366,6.317,12.521,7.991,2.035,17.274c-2.637,2.334-6.727,7.603-9.076,9.394
	c-1.354,0.844-1.813,1.247-3.398,1.577l-0.663-0.627l0.022-1.875c2.288-2.758,4.776-5.564,7.122-8.294
	c0.284-1.053,0.198-0.525-0.088-1.724l-0.806-0.161c-2.17,1.205-3.544,2.825-5.309,4.59c-7.442,1.836-7.1,1.518-11.459-4.89
	c2.843-2.721,8.22-5.535,9.781-8.587c9.323-2.44,10.681,5.948,15.271,4.854c0.566-1.894,0.516-0.937-0.02-2.979
	C789.155,745.041,787.825,744.227,783.31,742.227z"/>
<path fill="#FABDA9" d="M767.792,755.424c2.843-2.721,8.22-5.535,9.781-8.587c3.12,2.781,8.497,4.029,9.722,7.668
	c-0.241,1.678-0.659,1.896-1.842,3.104c0.284-1.053,0.198-0.525-0.088-1.724l-0.806-0.161c-2.17,1.205-3.544,2.825-5.309,4.59
	C771.809,762.149,772.151,761.831,767.792,755.424z"/>
<path fill="#F9FAFA" d="M916.133,768.447c5.602,2.439,6.452,5.669,7.514,11.438c0.608-0.072,1.085-0.329,1.685-0.564
	c0.955-1.444,0.652-2.896,0.6-4.705c2.428,7.385,0.64,14.956-4.544,20.728l-1.919-1.154l0.011-0.479
	c-2.971-0.753-7.472-1.834-10.425-1.963c-1.092-0.237-2.165-0.508-3.249-0.776C904.913,786.682,914.317,772.929,916.133,768.447z"/>
<path fill="#4F8972" d="M925.931,774.616c2.428,7.385,0.64,14.956-4.544,20.728l-1.919-1.154l0.011-0.479
	c3.104-3.003,3.618-9.665,4.168-13.825c0.608-0.072,1.085-0.329,1.685-0.564C926.286,777.877,925.983,776.425,925.931,774.616z"/>
<path fill="#F9FAFA" d="M872.43,730.705l4.317,0.301c-9.57,17.907-15.913,35.983-22.865,54.983c-0.293,0.8-0.431,0.624-1.233,0.819
	l-1.125-1.127C850.492,780.957,869.566,737.612,872.43,730.705z"/>
<path fill="#4F7771" d="M916.133,768.447c-2.562-0.731-6.508-1.654-9.203-1.623c-4.247,0.049-8.201,3.014-12.133,0.538l0.067-0.754
	l0.392-0.205c6.794-3.458,14.95-4.206,22.228-1.832c1.933,1.123,3.704,2.223,5.758,3.112c1.009,2.209,2.276,4.584,2.689,6.933
	c0.053,1.809,0.355,3.261-0.6,4.705c-0.6,0.235-1.076,0.492-1.685,0.564C922.585,774.116,921.734,770.887,916.133,768.447z"/>
<path fill="#72A496" d="M778.331,765.902l-0.022,1.875l0.663,0.627c1.586-0.33,2.045-0.733,3.398-1.577
	c-1.538,2.115-6.963,8.71-9.064,10.035C773.28,771.791,775.249,770.161,778.331,765.902z"/>
<path fill="#F4DFD2" d="M896.965,790.23c1.958-1.239,4.26-1.738,6.469-0.927c0.582,1.361,0.409,0.631-0.003,2.374
	C900.588,791.906,899.432,791.6,896.965,790.23z"/>
<path fill="#D97D4B" d="M612.626,633.727c9.978-19.543,24.478-44.069,48.987-46.104c13.184-1.095,23.551,0.581,33.981,9.179
	c4.68,2.379,10.356,7.723,12.665,12.533c2.745,3.327,7.765,11.772,9.075,15.842c3.658,6.416,4.191,14.416,6.12,21.09
	c2.168,7.505,8.712,20.741,13.204,27.089c3.138,3.429,7.833,7.819,9.938,11.641c-3.254,0.675-5.801,1.221-9.111,1.563
	c-16.143,1.494-31.417,0.939-47.53,1.422c-4.236,0.127-10.792,4.153-15.313,5.01l-1.899,0.635c-0.221-1.347-0.664-2.293-1.161-3.554
	l-0.475,0.509c-0.561,0.607-1.85,2.347-2.301,2.272c-5.21-0.852-4.003-2.209-9.584-0.831l-0.947,1.225l-0.95,0.011
	c-6.596-3.064-12.271-6.139-18.701-9.341c-7.719-1.299-47.314-7.024-49.067-13.863c1.255-2.516,11.054-15.616,13.596-19.348
	c0.649-1.275,1.176-2.004,1.977-3.163C607.714,643.093,610.19,638.283,612.626,633.727z"/>
<path fill="#F9FAFA" d="M631.009,630.02c10.399-5.743,22.056-19.839,24.543-31.533c0.204-0.962-0.095-0.51,0.782-1.153
	c2.913,1.133,4.625,7.956,6.033,10.756c4.889,9.715,13.105,16.19,23.089,20.157c0.683-0.797,1.354-2.107,1.903-3.055
	c-4.351-6.382-7.436-12.726-8.697-20.47l0.484-0.182c2.283,2.707,2.359,5.313,4.173,8.231c2.461,4.293,4.29,7.254,7.144,11.257
	c1.795,2.518,5.538,7.205,6.807,9.72l6.163,2.796c0.146,0.138,0.291,0.276,0.438,0.414c4.945,4.63,13.076,2.585,14.053,10.505
	c0.846,6.854-4.71,13.149-8.597,18.057c-8.007,10.107-14.577,16.699-26.952,20.895c-0.755,0.256-10.535,3.425-10.717,3.51
	c-15.886,0.123-18.41-1.134-31.537-10.369c-4.587-4.076-9.012-8.559-12.189-13.835c-2.087-6.252-11.633-19.947-6.986-26.907
	C622.081,637.108,629.04,631.64,631.009,630.02z"/>
<path fill="#DF7D53" d="M687.359,625.191c2.644,2.903,5.047,5.568,7.885,8.279c-3.667-2.223-5.865-3.613-9.788-5.225
	C686.139,627.449,686.81,626.139,687.359,625.191z"/>
<path fill="#040505" d="M663.414,640.875c1.281,0.37,0.854,0.167,1.904,0.959c0.567,1.499,0.57,1.582,0.491,3.2l-0.21,4.545
	c-4.967,4.961-2.578,7.18,3.25,8.567l0.734,0.169l0.239,0.873l-0.951,0.875c-0.298,0.022-0.595,0.046-0.892,0.069
	c-12.7-0.748-4.987-8.963-4.28-13.827C662.466,643.214,662.39,643.587,663.414,640.875z"/>
<path fill="#040505" d="M655.371,665.946c1.299,0.886,3.253,5.013,6.334,7.761c5.258-0.749,6.642-1.04,10.249-5.376
	c1.59-0.324,0.897-0.479,2.17,0.353l0.122,1.139c-5.815,5.784-13.731,8.633-19.387-0.392
	C654.052,668.145,654.79,667.168,655.371,665.946z"/>
<path fill="#040505" d="M687.991,642.572c1.446,0.035,0.748-0.05,2.181,0.812c1.59,2.785,0.374,5.434-1.527,7.667
	c-0.932-0.353-1.082-0.495-1.946-1.007C684.66,646.401,684.782,645.023,687.991,642.572z"/>
<path fill="#040505" d="M642.235,639.386c4.51,2.022,4.185,4.95,1.194,8.236c-2.149-0.558-2.442-0.89-3.186-2.831
	C640.379,642.449,641.117,641.485,642.235,639.386z"/>
<path fill="#D18C67" d="M618.401,645.767c0.672-3.422,3.692-17.547,7.885-17.64l0.805,1.812c1.572,0.926,1.539,0.49,3.918,0.081
	c-1.969,1.62-8.928,7.089-10.064,8.793c-4.646,6.96,4.899,20.655,6.986,26.907c-3.077-1.51-2.447-2.052-4.268-4.477
	c-2.417-3.22-5.76,2.679-8.979,2.637c1.29-2.409,7.319-5.026,6.593-7.489c-0.929-3.142-0.852-7.093-3.1-9.358L618.401,645.767z"/>
<path fill="#D18C67" d="M640.12,679.555c13.127,9.235,15.651,10.492,31.537,10.369l-0.076,0.148l-0.475,0.509
	c-0.561,0.607-1.85,2.347-2.301,2.272c-5.21-0.852-4.003-2.209-9.584-0.831l-0.947,1.225l-0.95,0.011
	c-6.596-3.064-12.271-6.139-18.701-9.341l0.478-0.464c4.835,1.115,13.533,7.302,16.349,7.707c1.288-0.637,1.493-0.627,2.928-0.542
	C654.184,688.92,641.524,684.143,640.12,679.555z"/>
<path fill="#DF7D53" d="M736.659,673.355c3.138,3.429,7.833,7.819,9.938,11.641c-3.254,0.675-5.801,1.221-9.111,1.563l-2.58-2.564
	c1.375-1.333,0.534-0.859,2.83-1.021C740.827,679.61,736.887,678.06,736.659,673.355z"/>
<path fill="#DF7D53" d="M612.626,633.727c-0.158,2.494-1.014,5.096-0.493,6.88l1.731,1.835l-0.992,1.118l-0.976,0.547l0.036,1.822
	c-2.324,1.276-0.425-1.678-5.661,1.603l-1.144,0.012C607.714,643.093,610.19,638.283,612.626,633.727z"/>
<path fill="#D18C67" d="M695.595,596.802c4.68,2.379,10.356,7.723,12.665,12.533c-2.203-2.152-3.852-3.603-6.618-5.042
	C698.156,602.479,697.783,599.926,695.595,596.802z"/>
<path fill="#CB6F49" d="M679.146,604.54c1.845-0.209,3.845-0.698,5.393,0.136c0.585,1.956-0.967,5.492-1.22,8.096
	C681.506,609.854,681.43,607.247,679.146,604.54z"/>
<path fill="#D18C67" d="M605.128,647.543l1.144-0.012c5.236-3.28,3.337-0.326,5.661-1.603l-0.036-1.822l0.976-0.547
	c0.311,0.884,0.876,2.326,1.068,3.187c-1.241,0.718-9.513,3.878-10.789,3.96C603.801,649.431,604.327,648.702,605.128,647.543z"/>
<path fill="#EFF2ED" d="M664.111,595.521c3.445,2.861,9.849,17.505,11.919,21.951C670.481,614.268,666.537,601.786,664.111,595.521z
	"/>
<path fill="#F4DFD2" d="M643.956,604.808l0.215,0.253c-0.248,2.439-4.382,6.692-6.105,8.607l-0.138-0.088
	c0.464-1.824,1.026-3.676,1.551-5.488C641.133,606.64,642.095,606.027,643.956,604.808z"/>
<path fill="#E4AA47" d="M606.172,663.058c2.068,1.135,1.943,0.576,3.084,2.355c-0.863,1.63-0.762,1.167-2.864,2.144l-1.997,0.162
	l-0.449-0.62C604.662,665.604,605.325,664.488,606.172,663.058z"/>
<path fill="#FABDA9" d="M729.57,677.123c1.484,0.74,4.371,4.695,5.035,6.384C731.821,681.931,730.338,680.222,729.57,677.123z"/>
<path fill="#FABDA9" d="M627.421,617.492l0.742,0.414c-0.041,1.456-1.162,2.544-2.127,3.937c-0.206-0.121-0.711-0.674-0.907-0.872
	C625.236,619.568,626.413,618.621,627.421,617.492z"/>
<path fill="#D18C67" d="M718.9,667.198l0.469,0.605c-0.286,1.474-1.334,2.108-2.5,3.158l-0.815-0.657
	C716.318,668.938,717.543,668.368,718.9,667.198z"/>
<path fill="#D18C67" d="M710.133,672.979c1.569,0.805,2.46,3.616,2.998,5.25C710.582,676.438,710.264,676.098,710.133,672.979z"/>
<path fill="#DC9F3F" d="M483.73,844.5c-5.687-3.756-11.173-8.23-17.103-11.949c-10.411-6.529-23.094-11.331-34.602-15.701
	c-7.021-2.466-14.255-3.359-21.57-4.848c-24.015-4.885-48.562-6.357-72.93-8.199c-3.567-0.269-9.728,0.52-13.556,0.627l-34.323,0.88
	c-7.57,0.227-15.215,0.093-22.763,0.411c-30.911,1.312-61.655,4.049-92.364,7.794c-7.652,1.018-16.526,1.099-24.01,2.277
	c-13.292,2.093-24.574,5.196-38.16,3.16c-3.565-0.534-14.208,4.969-18.839,2.454c-2.463-1.338-2.758-3.768-1.35-5.663
	c3.104-1.527,32.697-3.675,37.788-4.22c8.002-0.855,15.999-2.504,24.014-3.485c9.233-1.131,18.526-1.646,27.766-2.682
	c3.547-0.398,6.997-1.448,10.528-1.806c2.966-0.3,6.011,0.246,8.99,0.036c6.798-0.479,13.531-2.22,20.306-2.886
	c11.643-1.145,23.77-1.848,35.458-2.243c3.927-0.132,7.876,0.249,11.793,0.03c6.352-0.355,19.981-2.723,25.375-1.499
	c5.005,1.134,9.352-0.585,14.326-0.73c3.206-0.094,6.441,0.41,9.651,0.485c6.518,0.152,14.358-1.2,20.566,0.897
	c2.018,0.683,3.207,1.112,5.316,0.414c7.656-2.534,49.36,3.525,60.255,4.494c2.853,0.263,5.51,0.503,8.348,0.923
	c12.764,2.143,22.918,5.126,34.496,10.999c3.276,1.661,8.304,2.755,11.88,4.423c8.853,4.122,17.988,9.699,25.688,15.717
	c4.617-3.747,14.67-9.611,20.067-12.614c33.165-17.964,77.727-19.091,114.729-19.918c6.633-0.148,14.008-0.273,20.597-0.011
	c4.973-0.462,9.946-0.475,14.911,0.083l4.634,0.409c6.17-1.787,35.543-0.314,43.452-0.302l77.681,0.411
	c12.399,0.075,31.113-0.438,43.357,0.745c7.25-0.239,10.943-0.481,18.131,0.777c0.662,0.157,1.323,0.295,1.987,0.441
	c6.48,1.439,13.878,0.674,20.535,1.095c9.347,0.591,18.577,1.768,27.891,2.564c10.194,0.873,27.699,1.794,37.074,4.239
	c1.406,0.367,2.769,0.691,3.482,2.078c0.627,1.218,0.698,2.434,0.075,3.685c-2.87,5.769-27.501-2.074-33.078-2.89
	c-6.749-0.986-13.83-1.302-20.648-1.788c-23.722-1.69-47.645-3.11-71.438-3.248c-13.568-0.079-27.151,0.946-40.713,0.849
	c-17.154-0.124-34.332-1.241-51.519-1.264c-7.328-0.01-14.651,0.835-22.012,0.828l-56.648-0.153
	c-47.147-0.455-94.915-2.293-136.852,23.501C495.678,837.036,488.538,842.65,483.73,844.5z"/>
<path fill="#E4AA47" d="M504.774,821.997l-0.18,0.502c-0.858,2.489-0.76,4.947-1.511,6.247c-4.809,2.205-9.664,4.35-14.344,6.818
	c-0.575,0.304-3.341-0.461-4.033-0.953C489.324,830.864,499.377,825,504.774,821.997z"/>
<path fill="#F4CD60" d="M655.011,802.151l4.634,0.409l0.803,0.181l0.279,0.751c-1.089,2.293-0.154,2.969-1.739,5.457
	c-3.095,1.532-4.279-1.701-5.492-4.03L655.011,802.151z"/>
<path fill="#E4AA47" d="M824.135,803.415c7.25-0.239,10.943-0.481,18.131,0.777c-4.169,3.529-10.4-0.478-15.43-0.236
	C825.663,804.012,825.101,804.004,824.135,803.415z"/>
<path fill="#F4CD60" d="M404.295,802.55c2.853,0.263,5.51,0.503,8.348,0.923c-2.145,1.087-3.38,2.915-6.027,2.422
	C405.153,804.986,404.992,804.141,404.295,802.55z"/>
<path fill="#F9D05C" d="M430.658,734.438c6.976-0.949,12.424-0.838,19.476-0.353c1.33,0.146,2.579,0.203,3.855,0.562
	c2.338,0.117,2.6,0.248,4.61-0.754c1.683,0.369,5.274,1.267,6.828,1.387c7.122,0.438,10.212,0.735,17.159-0.42l-2.101,1.234
	l0.019,0.519c6.022,1.103,11.043-3.548,16.535,2.693l2.363,1.617c3.268,2.979,7.813,6.927,10.612,10.189
	c1.37,1.374,1.783,1.764,2.856,3.35c0.919,1.357,2.403,3.401,3.179,4.759c2.849,4.288,5.516,8.281,7.624,12.997
	c3.987,6.95,5.672,8.056,8.234,16.008c0.588,0.905,1.045,1.753,1.796,2.507c-5.247-0.02-10.833,6.214-17.368,5.121
	c-1.286,0.692-2.53,1.442-3.887,1.949c-4.334-0.332-4.285-2.22-8.321-0.552l-2.499,0.486l-1.756-0.498
	c-2.721,1-5.696,0.954-8.629,0.968c-1.504-0.736-3.02-1.75-4.535-1.667c-0.64,2.062-0.571,2.087-2.986,2.017
	c-0.925,1.002-0.81,1.022-1.068,2.395c-1.161,1.171-1.289,1.548-1.914,3.011l-0.466-0.093c0.644-2.279,0.804-1.299,0.074-3.1
	l-1.298-0.547l-0.91,0.74c0.063,1.986-0.056,2.107-1.139,3.716c-1.452,0.559-2.556,1.061-4.103,1.315l-1.543-1.271l-0.219,0.033
	c-2.079-2.505-4.552-4.201-7.333-5.876c-2.667-0.722-3.234-0.927-5.967-0.814c-5.053-1.766-7.992-2.16-11.489-6.073
	c-5.529-1.55-9.488-3.156-15.042-1.822l-2.485-2.659c-1.195-0.552-13.403-3.267-15.893-3.941c-3.416,0.522-1.85,1.229-3.808,2.462
	c-3.297-0.801-10.495-1.941-13.856-2.343c-2.205-0.479-4.941-0.263-7.251-0.207c1.925-7.666,7.622-13.285,12.722-19.154
	c5.584-4.837,9.973-11.154,15.49-16.233C421.125,743.586,425.371,738.606,430.658,734.438z"/>
<path fill="#F4CD60" d="M475.89,755.555c2.994-2.1,10.364,0.184,13.668,1.01l0.481-0.327c-0.843-1.435-1.994-2.95-1.71-4.514
	c1.429-0.878,1.11-0.588,3.065-0.601c2.107,1.157,2.607,1.357,4.332,2.957l-0.214,0.465c-1.808-0.354-2.306-0.88-3.79-1.938
	c-1.802-0.046-1.158-0.382-2.252,0.517c0.756,3.278,6.067,2.098,8.97,4.485c2.541,0.868,6.388,2.146,8.553,3.632
	c-0.101,0.901-0.141,0.974-0.373,1.848c0.508,1.722,0.407,1.781,1.767,3.049c2.721,0.613,7.769,2.438,10.113,1.739
	c-1.069-3.1-2.24-5.313-2.449-8.655c2.849,4.288,5.516,8.281,7.624,12.997c3.987,6.95,5.672,8.056,8.234,16.008
	c0.588,0.905,1.045,1.753,1.796,2.507c-5.247-0.02-10.833,6.214-17.368,5.121c-1.286,0.692-2.53,1.442-3.887,1.949
	c-4.334-0.332-4.285-2.22-8.321-0.552l-2.499,0.486l-1.756-0.498c-1.38-2.407-2.896-3.825-4.782-5.84l0.126-0.64
	c-2.171,0.74-4.651,0.67-6.814-0.179c-1.225-1.302-1.034-0.587-1.003-2.076c1.342-0.689,1.067-0.444,2.162-1.419l-0.689-0.722
	c-1.081,0.568-1.235,0.563-2.438,0.859c-1.196-0.656-2.331-1.177-3.322-2.106l0.228-0.764l2.206-0.504l-1.064-0.618
	c-1.544-0.427-1.87-0.206-2.62-1.215c0.263-1.579,0.47-2.433,0.887-3.989c-0.188-0.313-0.426-0.79-0.831-1.069
	c-3.519-2.424-8.123-3.591-11.93-5.543c-1.098,0.166-1.986,0.3-2.669,0.404l-0.902-0.083c-0.498-0.972-0.323-0.574-0.726-1.583
	l-0.277-0.707l-1.795-0.765c-5.028-1.044-5.992-1.425-11.189-1.883l-0.752-0.727c-1.343,0.197-1.825,0.229-3.16,0.003
	c-2.854-2.268-3.386-0.478-6.111-1.945l-1.353-3.191l-0.754-0.319c-0.948-2.528-1.196-2.103-3.786-3.395
	c3.293-0.504,7.318-0.903,10.627-0.52c0.49-0.572,2.282-1.076,3.122-1.385c1.128-1.306,0.998-1.422,1.17-3.11
	c4.827-0.008,19.066,3.983,23.692,2.414L475.89,755.555z"/>
<path fill="#F9E18A" d="M475.89,755.555c2.994-2.1,10.364,0.184,13.668,1.01l0.481-0.327c-0.843-1.435-1.994-2.95-1.71-4.514
	c1.429-0.878,1.11-0.588,3.065-0.601c2.107,1.157,2.607,1.357,4.332,2.957l-0.214,0.465c-1.808-0.354-2.306-0.88-3.79-1.938
	c-1.802-0.046-1.158-0.382-2.252,0.517c0.756,3.278,6.067,2.098,8.97,4.485c2.541,0.868,6.388,2.146,8.553,3.632
	c-0.101,0.901-0.141,0.974-0.373,1.848c0.508,1.722,0.407,1.781,1.767,3.049c2.721,0.613,7.769,2.438,10.113,1.739
	c-1.069-3.1-2.24-5.313-2.449-8.655c2.849,4.288,5.516,8.281,7.624,12.997c-1.265,1.036-1.608,1.375-2.678,2.524
	c-1.75-1.035-2.988-2.496-4.916-2.748c-6.033,2.248-10.358-3.223-12.655-0.758c-0.232,1.475-0.379,1.715-0.245,3.202
	c1.309,1.427,23.295,13.315,25.466,13.961l-1.277,1.145c-0.375,0.071-0.751,0.141-1.126,0.212
	c-10.142-5.949-21.09-10.558-31.246-16.502c-0.971-0.569-1.028-1.41-1.156-1.954c5.909-0.965,2.579-3.533,7.754-5.463
	C500.162,762.746,480.508,758.776,475.89,755.555z"/>
<path fill="#F4CD60" d="M499.525,763.012c-1.425-1.007-7.516-4.793-7.915-5.183l0.124-0.584c2.203-0.273,3.762,0.438,5.915,1.1
	l0.791-0.736c2.541,0.868,6.388,2.146,8.553,3.632c-0.101,0.901-0.141,0.974-0.373,1.848
	C504.573,762.963,501.646,763.031,499.525,763.012z"/>
<path fill="#F9E18A" d="M464.86,759.793l1.352-1.175c3.55,0.422,4.27,2.674,6.324,2.555l0.361,0.765
	c-0.517,0.903-0.703,1.195-1.342,2.016c0.666,1.43,1.304,1.943,2.384,3.066c-1.739,0.194-3.096-1.011-4.978-1.049
	c-3.323-0.066-3.68-2.486-5.754-4.439L464.86,759.793z"/>
<path fill="#F9E18A" d="M447.14,756.705c1.816,0.641,8.304-0.888,12.463,1.025L457.9,759.8c-4.156-2.313-10.279-1.336-14.786-0.61
	c-0.66,0.623-1.343,1.193-2.062,1.749l-0.754-0.319c-0.948-2.528-1.196-2.103-3.786-3.395
	C439.806,756.721,443.831,756.321,447.14,756.705z"/>
<path fill="#F9E18A" d="M495.092,791.399c5.411-0.343,2.239,0.083,5.923,2.984c1.616,1.021,2.148,1.191,3.114,2.867l-2.499,0.486
	l-1.756-0.498C498.494,794.832,496.978,793.414,495.092,791.399z"/>
<path fill="#F9D874" d="M459.603,757.73c1.682,1.403,2.982,1.9,5.258,2.063l-1.652,1.738c-1.626-0.67-3.605-1.207-5.308-1.731
	L459.603,757.73z"/>
<path fill="#F9E18A" d="M485.637,766.516c2.935,1.054,7.173,5.973,5.713,8.637c-1.965-0.436-1.828-0.821-3.574-2.406
	c-1.379-1.547-5.687-1.035-8.557-3.375l0.102-0.774C481.213,767.279,483.339,767.035,485.637,766.516z"/>
<path fill="#F9E18A" d="M504.028,787.442c3.967,1.29,4.831,1.263,7.24,4.684c3.474-0.705,2.688-4.49,7.827,1.641l0.063,0.776
	c-0.849,0.168-2.445,0.422-3.183,0.716c-2.033,0.534-3.235,0.213-5.091-0.61c-0.896-0.499-5.706-4.153-7.167-5.158
	C503.714,789.184,503.969,787.799,504.028,787.442z"/>
<path fill="#F9E18A" d="M502.831,789.607c-2.832-1.707-3.362,0.167-4.459-0.668c-1.9-1.444-7.773-4.446-8.291-6.66
	c0.352-0.085,0.704-0.169,1.056-0.254c3.739,2.048,8.148,3.832,12.125,5.165l0.767,0.252c-0.06,0.356-0.314,1.741-0.311,2.048
	L502.831,789.607z"/>
<path fill="#F9D874" d="M504.177,781.599c1.226,0.189,8.862,3.167,10.161,3.764l0.577,1.684c-2.356-0.141-7.134-1.798-9.368-2.887
	C504.213,783.508,504.327,782.724,504.177,781.599z"/>
<path fill="#F9D874" d="M482.98,776.879c4.358,0.283,6.545-0.459,9.402,2.441C489.741,780.111,484.715,778.809,482.98,776.879z"/>
<path fill="#F9D05C" d="M462.907,798.288l3.076-0.952c2.898-4.813,1.677-1.099,5.282-1.261c1.696-2.094,3.361-2.362,5.607-4.583
	l-0.202-1.134c0.435,0.667,0.395,0.33,0.264,0.982l-0.947-1.313c-1.391-0.389-4.983-0.711-6.583-0.9l-0.344-0.64
	c1.464-2.868,1.657-2.611,1.493-5.714l0.89-0.74c3.602-0.698,9.139,0.744,13.038,1.198l1.064,0.618l-2.206,0.504l-0.228,0.764
	c0.991,0.93,2.126,1.45,3.322,2.106c1.203-0.296,1.357-0.291,2.438-0.859l0.689,0.722c-1.095,0.975-0.82,0.729-2.162,1.419
	c-0.031,1.489-0.222,0.774,1.003,2.076c2.163,0.849,4.644,0.919,6.814,0.179l-0.126,0.64c1.886,2.015,3.402,3.433,4.782,5.84
	c-2.721,1-5.696,0.954-8.629,0.968c-1.504-0.736-3.02-1.75-4.535-1.667c-0.64,2.062-0.571,2.087-2.986,2.017
	c-0.925,1.002-0.81,1.022-1.068,2.395c-1.161,1.171-1.289,1.548-1.914,3.011l-0.466-0.093c0.644-2.279,0.804-1.299,0.074-3.1
	l-1.298-0.547l-0.91,0.74c0.063,1.986-0.056,2.107-1.139,3.716c-1.452,0.559-2.556,1.061-4.103,1.315l-1.543-1.271l-0.219,0.033
	c-2.079-2.505-4.552-4.201-7.333-5.876L462.907,798.288z"/>
<path fill="#F4CD60" d="M471.357,804.724c0.869-3.376-0.602-3.927-0.07-6.446c1.684-0.043,4.446,1.401,7.226,1.861l0.539,0.084
	l-0.91,0.74c0.063,1.986-0.056,2.107-1.139,3.716c-1.452,0.559-2.556,1.061-4.103,1.315L471.357,804.724z"/>
<path fill="#F9D874" d="M467.318,771.819c0.683-0.104,1.571-0.238,2.669-0.404c3.807,1.952,8.411,3.119,11.93,5.543
	c0.405,0.279,0.644,0.757,0.831,1.069c-0.417,1.557-0.624,2.41-0.887,3.989c0.75,1.009,1.076,0.788,2.62,1.215
	c-3.899-0.454-9.437-1.896-13.038-1.198l-0.89,0.74c0.164,3.103-0.029,2.846-1.493,5.714l0.344,0.64
	c1.6,0.189,5.192,0.512,6.583,0.9l0.947,1.313c0.131-0.652,0.171-0.315-0.264-0.982l0.202,1.134
	c-2.246,2.221-3.911,2.489-5.607,4.583c-3.605,0.162-2.384-3.552-5.282,1.261l-3.076,0.952l0.898,0.593
	c-2.667-0.722-3.234-0.927-5.967-0.814c-5.053-1.766-7.992-2.16-11.489-6.073c-5.529-1.55-9.488-3.156-15.042-1.822l-2.485-2.659
	c1.493-1.059,1.929-0.668,4.039-1.798c0.432-2.02-2.485-2.157-3.898-5.057l0.532-0.448c2.825,0.097,9.324,4.378,10.811,6.897
	c0.671,1.135,0.127,1.645,1.832,2.259l1.13-0.813l1.858,1.669c1.472,0.185,0.816,0.336,2.044-0.415
	c-0.336-1.903-1.936-2.384-3.245-4.303c0.85-2.162,3.609-3.51,5.861-2.964c0.979,1.179,1.881,2.104,2.521,3.497
	c-1.066,2.712-2.42,1.638-3.449,3.954l0.784,0.734c2.863,0.721,15.238,4.56,16.652,4.07l0.184-1.23
	c-1.255-2.459-1.001-2.372-0.033-4.935l0.229-0.593c-1.947-1.152-4.411-2.068-4.589-4.411c1.792-1.962,4.873-1.842,7.292-1.904
	c0.841-1.218,1.315-1.822,2.244-2.925c2.419-0.368,0.729,1.093,3.499,1.562l1.157-0.971c0.175-3.309-6.258-5.437-9.145-5.629
	L467.318,771.819z"/>
<path fill="#E4AA47" d="M446.35,791.993c4.234-0.355,11.012,1.892,14.071,4.765c0.523,0.491,1.829,1.242,2.486,1.53l0.898,0.593
	c-2.667-0.722-3.234-0.927-5.967-0.814C452.786,796.301,449.847,795.906,446.35,791.993z"/>
<path fill="#E4AA47" d="M400.736,764.328l-0.005,3.396c-0.684,1.775-1.313,2.826-1.005,4.685c1.474,2.376,3.84,2.551,6.282,1.448
	c-0.093,2.474-0.239,1.824-2.47,4.211c-3.937,1.092-5.749-1.604-8.321-1.209c-0.734,2.139,0.214,3.263,0.976,5.3
	c2.46-1.081,5.099-0.737,7.524,0.333l0.659-0.344c2.662,0.688,5.961,1.071,8.715,1.078l-0.162,0.344
	c-3.416,0.522-1.85,1.229-3.808,2.462c-3.297-0.801-10.495-1.941-13.856-2.343c-2.205-0.479-4.941-0.263-7.251-0.207
	C389.939,775.816,395.637,770.197,400.736,764.328z"/>
<path fill="#F9E18A" d="M448.517,766.075c1.335,0.227,1.817,0.194,3.16-0.003l0.752,0.727c5.197,0.458,6.161,0.839,11.189,1.883
	l1.795,0.765l0.277,0.707c0.402,1.009,0.228,0.611,0.726,1.583l0.902,0.083l-0.186,1.94l-0.509,0.447
	c-0.703,3.65-7.092,0.752-9.113-0.443c-1.423-0.693-1.939-1.405-3.02-2.543c-1.775,0.065-4.882-2.436-9.407-2.58
	C445.825,766.396,446.514,766.612,448.517,766.075z"/>
<path fill="#F4CD60" d="M454.491,771.221c0.494-1.751,0.057-0.977,1.54-2.286l2.4,1.827l-0.921,3.002
	C456.088,773.07,455.571,772.358,454.491,771.221z"/>
<path fill="#F4CD60" d="M499.403,740.923c3.268,2.979,7.813,6.927,10.612,10.189c1.37,1.374,1.783,1.764,2.856,3.35
	c-1.77-0.049-1.92,0.514-3.726-0.114c-0.981-1.104-0.65-1.054-1.852-1.557c-1.472,1.43-2.532,2.862-4.519,3.041
	c-1.511-0.558-1.393-0.541-2.296-1.897c1.193-0.881,2.078-1.557,2.467-2.979l-0.617-0.938c-2.043-0.982-2.557-0.879-4.895-1.025
	c2.24-2.511,1.723-2.272,1.527-5.759L499.403,740.923z"/>
<path fill="#E4AA47" d="M499.403,740.923c3.268,2.979,7.813,6.927,10.612,10.189c-2.972-0.993-3.893-0.117-6.209-0.882
	c-1.392-4.268-0.563-4.664-4.844-6.997L499.403,740.923z"/>
<path fill="#F1DEBB" d="M465.428,735.279c7.122,0.438,10.212,0.735,17.159-0.42l-2.101,1.234l0.019,0.519
	c6.022,1.103,11.043-3.548,16.535,2.693c-9.467-2.477-13.909-1.545-23.631-1.359C469.907,738.013,467.838,737.671,465.428,735.279z"
	/>
<path fill="#F9D874" d="M410.069,766.955c-0.469-0.197-1.303-0.69-1.776-0.951l-0.113-0.642c2.75-2.139,6.794,0.371,9.491-0.947
	c1.111-4.513,4.555-0.122,8.745-1.594c1.372,1.347,2.388,1.551,3.562,2.801c-5.592-1.575-6.899,1.235-10.977,0.319l-1.577,0.747
	C415.129,766.914,412.909,766.612,410.069,766.955z"/>
<path fill="#F9E18A" d="M451.432,752.21l-0.655-0.817c1.171-1.458,5.765-0.103,7.376,0.334c5.924,1.606,11.546-1.028,16.972,2.897
	C470.498,756.193,456.259,752.202,451.432,752.21z"/>
<path fill="#F9D874" d="M435.438,763.725l0.425-0.115c1.924,0.789,4.402,0.587,6.543,0.521c2.726,1.468,3.257-0.322,6.111,1.945
	c-2.003,0.537-2.691,0.321-3.433,2.565l-1.423-0.103c-5.412-3.548-7.479-2.333-13.684-2.916c1.462-0.476,3.26-0.321,5.026-0.763
	L435.438,763.725z"/>
<path fill="#F9D874" d="M500.48,753.935c-0.202-0.597-0.449-1.324-0.74-2.185c-3.257-1.739-7.877-1.588-9.701-4.944l0.298-0.963
	c1.867-0.033,5.01,2.076,7.099,3.149c2.338,0.146,2.852,0.043,4.895,1.025l0.617,0.938
	C502.559,752.378,501.674,753.054,500.48,753.935z"/>
<path fill="#F4CD60" d="M410.069,766.955c2.84-0.343,5.06-0.041,7.354-0.267c0.721,2.54,1.226,1.26,2.171,4.181l-0.502,0.476
	c-2.52-0.841-2.179-0.895-4.297,0.455c-1.489-0.039-0.785,0.141-2.051-0.845c-0.114-1.554-0.021-2.02-0.709-3.415L410.069,766.955z"
	/>
<path fill="#F9E18A" d="M450.134,734.085c1.33,0.146,2.579,0.203,3.855,0.562c-1.294,1.518-1.141,0.733-1.076,2.296
	c0.989,0.443,1.918,0.736,2.968,1.001l-0.133,0.884c-2.125,1.213-7.316,0.793-8.141-2.088l2.258-0.995L450.134,734.085z"/>
<path fill="#E4AA47" d="M435.862,763.609c-0.296-1.371-0.309-1.301-0.137-2.686l0.729-0.496c1.704,0.441,2.064,0.631,3.844,0.191
	l0.754,0.319l1.353,3.191C440.265,764.196,437.786,764.398,435.862,763.609z"/>
<path fill="#F9D874" d="M404.377,782.148c2.568-2.249,5.641-1.728,8.667-0.562l0.642,0.897l-0.594,0.742
	C410.338,783.22,407.039,782.837,404.377,782.148z"/>
<path fill="#F9E18A" d="M426.416,762.821c1.882-0.521,7.171,0.272,9.021,0.903l-0.434,1.135c-1.767,0.441-3.564,0.287-5.026,0.763
	C428.804,764.372,427.788,764.168,426.416,762.821z"/>
<path fill="#F9D874" d="M428.159,770.262c2.516-1.333,6.074,0.838,9.834-0.108l0.592,0.289l0.351,0.305
	c1.521,1.301,3.701,2.322,4.271,3.567c-1.713,1.385-2.576,0.008-3.46,1.065c1.077,1.29,1.557,1.376,3.073,2.045l0.125,0.824
	c-4.802,3.221-6.688-5.92-11.875-4.172c-0.024,1.464,0.371,1.871,0.989,3.304l-0.658,0.541c-1.367-0.352-1.365-0.412-2.594-1.15
	c-2.815-2.338,0.697-0.356-1.067-3.428c-2.29-0.516-1.714,1.089-6.169-0.099l2.084-0.251
	C425.514,771.289,425.775,771.029,428.159,770.262z"/>
<path fill="#F4CD60" d="M428.159,770.262c2.516-1.333,6.074,0.838,9.834-0.108l0.592,0.289l-0.671,0.995
	C434.974,772.403,430.376,772.858,428.159,770.262z"/>
<path fill="#F9D874" d="M470.528,748.736c0.502-1.68-0.017-1.752-1.223-2.752c-0.313,0.054-0.627,0.107-0.939,0.163
	c-5.006,2.193-15.71-3.478-21.54-1.558c-0.753,1.069-0.506,0.798-1.505,1.7c-1.039-0.664-1.595-1.329-2.442-2.207l0.484-0.72
	c2.734-0.439,11.525-0.813,14.701-0.686c1.064,0.042-0.446,1.036,2.103,2.007c0.654-0.531,0.94-0.79,1.555-1.4l0.55-0.553
	l0.908,0.081c1.814,1.866,1.804,2.045,4.025,2.288c1.779-1.003,2.079-1.551,3.937-0.953c0.675,1.357,0.577,1.546,1.843,2.271
	c2.04-0.6,2.325-0.841,4.238-0.219l-0.371,0.692l-0.718-0.208l-0.377,0.505l-1.096-0.34l-0.151,0.159l-0.029,0.002l1.179-0.075
	l0.186,0.833l-1.05,0.436l-0.039,0.308C473.404,748.266,471.919,748.566,470.528,748.736z"/>
<path fill="#F9E18A" d="M421.571,773.245c4.455,1.188,3.879-0.417,6.169,0.099c1.765,3.071-1.748,1.09,1.067,3.428l-0.791,1.061
	c-3.645,2.553-9.553-0.623-13.027-1.076c-1.155,1.087-1.095,1.067-2.518,1.748c-1.837-0.204-1.22,0.2-2.42-0.748
	c1.126-1.402,0.453-0.779,2.611-1.439c0.406-1.146-0.002-1.257-0.688-2.775l0.485-0.459c0.873,0.333,1.532,0.697,2.338,1.161
	C417.218,773.956,419.406,774.272,421.571,773.245z"/>
<path fill="#F4CD60" d="M421.571,773.245c4.455,1.188,3.879-0.417,6.169,0.099c1.765,3.071-1.748,1.09,1.067,3.428l-0.791,1.061
	c-1.854-1.086-5.645-0.858-8.075-1.596c-2.059-0.626-3.185-1.111-5.144-1.993C417.218,773.956,419.406,774.272,421.571,773.245z"/>
<path fill="#F9E18A" d="M431.348,735.521c1.41,0.649,1.318,0.672,2.367,1.853c0.014,1.773-0.035,1.719,0.526,3.381
	c1.429,1.242,3.554,1.219,5.681,1.695l0.458,0.783c-0.546,1.508-1.737,2.041-3.113,2.987c-0.484-0.415-1.471-2.271-2.464-3.298
	c-1.007,0.603-0.804,0.614-1.389,1.65l-0.736-0.415C430.776,741.463,431.207,738.754,431.348,735.521z"/>
<path fill="#F9E18A" d="M425.735,750.206c2.758-2.24,10.112-2.93,12.597-0.778l-0.238,0.688c-4.005,0.899-9.935-0.685-12.534,1.013
	c-1.544,0.719-4.814,0.244-6.01-1.326l0.354-0.838C422.228,748.164,423.795,748.944,425.735,750.206z"/>
<path fill="#F9D874" d="M442.125,746.767c0.71-0.01,1.313,0.138,2.029,0.253c0.149,1.532-1.313,2.332-2.376,4.646l0.431,0.681
	l1.383,0.276c0.458-0.619,0.898-1.231,1.343-1.859l2.376,0.374c-1.254,3.386-3.544,4.6-6.827,2.46c-1-1.771-0.734-0.825-0.667-2.979
	C441.22,749.055,441.495,748.756,442.125,746.767z"/>
<path fill="#F9E18A" d="M470.528,748.736c1.391-0.17,2.876-0.471,4.228-0.226c3.771,1.858,5.451,0.136,7.274,1.097
	c-2.156,2.984-9.125,1.069-12.259,0.246l-0.36-0.635L470.528,748.736z"/>
<path fill="#F9E18A" d="M477.223,746.199c0.307-1.379,0.69-2.28,1.171-3.601c1.712-0.845,1.789-0.333,4.303,0.179l0.307,1.135
	c-1.677,0.984-3.796,3.295-5.156,3.491l-0.995-0.512L477.223,746.199z"/>
<path fill="#F9E18A" d="M482.696,742.777c1.833,0.15,3.581,0.029,4.891,1.201l-0.172,0.554c-1.827,0.455-2.617-0.02-4.412-0.62
	L482.696,742.777z"/>
<path fill="#FABDA9" d="M327.462,624.161c2.137,1.29,2.277,7.347,2.522,9.746c-8.896,5.796-20.229,9.295-29.938,13.575
	l-33.383,14.789c-4.328,1.92-27.202,12.598-30.346,11.557c-21.21-7.021-42.266-15.27-63.218-23.14
	c-9.275-3.484-21.413-6.018-29.999-10.107c-0.406-2.559-0.861-2.694-0.035-4.701c1.993-1.245,5.847-0.956,8.451-1.038
	c-0.465-1.982-1.7-6.301-1.128-7.964c7.174-0.326,46.474,21.298,56.369,25.036c11.86,4.48,19.18,6.803,31.839,9.898
	c16.517-3.809,34.999-13.129,50.438-19.988C302.423,635.874,314.505,631.234,327.462,624.161z"/>
<path fill="#508D79" d="M292.335,551.011c9.432,11.483,10.725,12.965,15.129,27.763c-3.328,3.756-0.572,2.528-2.448,6.252
	c-4.991-3.158-8.841-6.304-13.204-10.254l-3.823-3.989c-2.087-2.142-3.702-3.969-5.643-6.242
	c-7.092,5.45-15.553,10.807-24.357,12.934l-0.944,0.365c-3.956,0.789-9.293,2.827-13.08,3.556
	c-9.021,1.734-21.194,4.352-30.24,4.271c-3.839,12.202-5.818,30.881-2.075,43.122c3.282,10.731,5.95,15.187,4.675,27.073
	c-2.311-7.467-5.678-22.72-8.477-28.646c-1.514-0.64-2.178-0.644-3.777-0.845c-6.151-4.939,1.808-9.126,1.904-10.779
	c2.035-34.722-0.481-48.98,38.915-55.342c7.424-2.016,18.065-3.313,25.827-4.366c3.079,0.081,8.014-1.519,11.382-2.265
	C285.284,552.762,289.163,551.612,292.335,551.011z"/>
<path fill="#508D79" d="M292.335,551.011c9.432,11.483,10.725,12.965,15.129,27.763c-3.328,3.756-0.572,2.528-2.448,6.252
	c-4.991-3.158-8.841-6.304-13.204-10.254l-3.823-3.989c-2.087-2.142-3.702-3.969-5.643-6.242
	c-7.092,5.45-15.553,10.807-24.357,12.934l-0.69-0.368c1.789-4.088,5.058-5.086,5.918-7.413c-0.837-1.232-0.717-0.744-0.972-2.096
	c1.196-0.563,2.092-1.165,3.199-1.865c0.256-1.063-0.095-1.113,0.191-2.471c2.619-2.219,4.611-2.429,8.004-3.258
	c0.979,0.603,0.946,0.625,2.05,0.894c2.854-1.91,4.651-4.355,6.41-7.278C285.284,552.762,289.163,551.612,292.335,551.011z"/>
<path fill="#72A496" d="M287.989,570.782c2.369-1.171,1.9-1.414,4.004-1.06c1.295,1.818,0.596,3.107-0.181,5.049L287.989,570.782z"
	/>
<path fill="#72A496" d="M270.717,555.883c3.079,0.081,8.014-1.519,11.382-2.265c-1.759,2.923-3.556,5.368-6.41,7.278
	c-1.104-0.269-1.071-0.291-2.05-0.894c-3.393,0.829-5.385,1.039-8.004,3.258c-0.286,1.357,0.065,1.407-0.191,2.471
	c-2.777-0.31-3.286-0.359-6.024,0.1c0.504-0.627,0.967-1.215,1.459-1.855c-2.106-5.387-10.602-3.316-15.989-3.727
	C252.314,558.233,262.955,556.936,270.717,555.883z"/>
<path fill="#4D8872" d="M270.717,555.883c3.079,0.081,8.014-1.519,11.382-2.265c-1.759,2.923-3.556,5.368-6.41,7.278
	c-1.104-0.269-1.071-0.291-2.05-0.894l0.576-0.342l-0.367-0.581c-2.787-0.011-3.999,0.436-6.586,1.502l-0.051-1.24
	C269.078,557.993,269.321,557.722,270.717,555.883z"/>
<path fill="#609B85" d="M259.42,565.831c2.738-0.459,3.247-0.409,6.024-0.1c-1.107,0.7-2.003,1.303-3.199,1.865
	c0.255,1.352,0.135,0.863,0.972,2.096c-0.86,2.327-4.129,3.325-5.918,7.413l0.69,0.368l-0.944,0.365
	c-4.213-1.019-3.735-5.014-7.143-5.694c-9.08-1.814-7.532,4.955-10.811,6.773c-1.35-0.725-1.103-0.694-2.147-1.934l0.099-0.781
	c4.169-1.797,0.199-0.575,3.752-4.241l-1.805,0.324c-0.608-0.857-0.317-0.642-0.25-2.16c1.28-0.494,1.182-0.499,2.526-0.245
	l0.249,1.595c1.569,0.229,0.873,0.381,2.178-0.358c0.512-1.458,0.695-2.547,1.867-3.507c-0.122,1.513-0.196,1.754,0.035,3.292
	l1.071,0.05c1-1.751-0.131-1.423,0.567-3.863c1.131,0.724,0.669,0.536,2.013,0.707c2.261-2.001,2.199-2.044,4.983-2.017
	c1.349,0.944-1.182,5.224-0.08,8.507c1.442,0.752,0.681,0.601,2.382,0.345l0.347-0.887l-0.805-0.463l-0.892-0.495l0.239-0.868
	c1.641,0.058,1.795,0.102,3.473-0.216C260.779,569.81,261.084,567.97,259.42,565.831z"/>
<path fill="#508D79" d="M419.747,684.742c2.817-6.627,3.854-6.78,10.495-5.538l0.663-0.496c-0.501-3.032,7.802-17.216,9.492-20.365
	c15.328-28.558,75.822-20.21,79.051,13.893c0.408,4.306,2.415,7.968-0.133,11.878l0.502,1.8l-0.604,0.332
	c-2.227-0.897-7.532-10.351-10.246-13.788c-5.493-4.807-7.86-11.45-12.164-15.604c-0.269,3.778-2.248,6.966-5.2,9.262
	c-9.735,7.572-15.813,9.08-27.554,8.439c7.308-2.941,14.292-7.066,19.447-13.152l3.555-4.214c1.355-2.049,5.822-8.513,3.287-10.438
	c-0.506,0.071-1.013,0.141-1.519,0.212c-1.443,2.431-3.889,7.178-5.576,9.126c-12.34,14.248-26.062,16.535-43.199,18.472
	c9.345-5.063,27.335-13.287,32.513-22.412c-0.756-1.479-0.729-1.366-2.098-2.342c-1.975,1.03-4.679,3.319-5.014,3.479
	c-1.526,2.412-2.743,3.71-5.3,5.135l-5.329,3.493c-0.697,0.502-2.158,1.624-2.823,2.016c-7.021,4.702-10.954,9.627-18.479,11.682
	c-0.082,4.973-0.199,6.898-1.739,11.796c-1.842-2.055-4.606-6.284-7.406-3.805c-1.242,3.939,1.142,8.584,4.153,11.125
	c-0.995,4.458-1.955,0.463-1.98,3.569C422.438,696.733,420.718,688.59,419.747,684.742z"/>
<path fill="#72A496" d="M496.804,656.854l0.048-1.864l0.478,0.777c0.668,1.077,1.155,1.676,1.946,2.661l0.557-0.166l-0.244-0.879
	c-0.275-1.021-0.232-0.617-0.261-1.303c1.064,1.132,1.091,1.919,1.446,3.435c3.014,2.559,4.506-0.366,8.039,0.587
	c2.291,2.556,1.265,6.241,0.61,9.404c1.046,0.577,1.225,0.635,2.367,1.005c-0.731,1.405-1.018,1.209-2.822,1.946
	C503.475,667.65,501.107,661.007,496.804,656.854z"/>
<path fill="#72A496" d="M452.281,659.04c-0.084-2.486,5.271-6.965,7.874-7.603c-0.771,1.466-2.999,0.765-2.228,3.439
	c3.244,1.139,3.882-0.682,7.519-1.592c-1.526,2.412-2.743,3.71-5.3,5.135l-5.329,3.493c-2.599-1.021-0.999,0.711-3.991-0.853
	l1.693-1.573L452.281,659.04z"/>
<path fill="#609B85" d="M452.281,659.04c2.147-1.306,3.707-2.766,5.9-2.894c1.231,0.995,1.195,0.905,1.965,2.273l-5.329,3.493
	c-2.599-1.021-0.999,0.711-3.991-0.853l1.693-1.573L452.281,659.04z"/>
<path fill="#EFF2ED" d="M470.46,649.806c1.716-1.246,2.174-1.911,3.465-3.624l0.829-0.321c1.3,0.953,1.21,0.879,1.831,2.376
	c-0.804,1.957-2.125,2.444-4.027,3.911C471.802,650.668,471.828,650.781,470.46,649.806z"/>
<path fill="#72A496" d="M487.052,657.188c1.297,1.474,2.894,2.698,3.058,4.282c0.168-0.004-2.907-0.864-3.443-0.956l-1.061,2.089
	c-1.265-0.239-1.174-0.283-2.108-1.201L487.052,657.188z"/>
<path fill="#4D8872" d="M451.994,663.929c-0.652-0.465-1.252-0.971-1.877-1.474l-0.048-0.948l0.757-0.446
	c2.992,1.563,1.393-0.168,3.991,0.853C454.12,662.415,452.659,663.537,451.994,663.929z"/>
<path fill="#DC9F3F" d="M341.793,779.807c6.211-0.197,11.069,0.077,17.27,0.435c3.83,0.018,6.492,0.086,10.188,0.423
	c4.268,0.391,15.314,3.681,18.765,2.818c2.31-0.056,5.046-0.272,7.251,0.207c3.361,0.401,10.56,1.542,13.856,2.343
	c1.958-1.232,0.392-1.939,3.808-2.462c2.489,0.675,14.697,3.39,15.893,3.941l2.485,2.659c5.554-1.334,9.513,0.272,15.042,1.822
	c3.497,3.913,6.437,4.308,11.489,6.073c2.732-0.112,3.3,0.093,5.967,0.814c2.781,1.675,5.254,3.371,7.333,5.876l0.219-0.033
	l1.543,1.271c1.547-0.255,2.65-0.757,4.103-1.315c1.098,0.78,2.134,1.502,3.264,2.243l0.11,0.969l-1.122,1.238l-0.544,0.479
	c1.001,0.98,1.706,1.249,2.933,1.882c1.832,0.6,2.202,1.699,3.826,2.975l2.617-0.858c1.569,0.134,3.464,0.194,4.76-0.724
	l0.131-0.947l-1.597-1.813c1.372,0.256,1.156,0.096,2.249,0.71c2.588,1.455,7.626-1.217,11.918-1.361
	c-1.996,1.143-7.294,3.99-8.567,5.271c-6.727,6.753-3.272,6.604-11.945,9.746c-1.546-0.974-3.348-2.043-4.831-3.066
	c-3.779-3.035-7.13-5.642-11.078-8.49c-2.428-1.407-5.676-3.848-8.52-5.555c-5.829-2.557-11.847-5.132-17.735-7.534
	c-4.055-0.161-10.162-0.978-13.252-3.782c-0.216-0.312-0.646-0.412-1.095-0.625c-5.349,1.405-10.977-0.676-16.26-1.695
	c-8.092-1.562-16.23-1.93-24.39-3.034c-2.837-0.384-7.565-1.718-10.209-1.704c-15.617,0.081-32.041-1.324-47.581-1.196
	c2.532-4.567,4.051-2.736,1.303-7.377C334.958,780.547,338.355,780.755,341.793,779.807z"/>
<path fill="#E4AA47" d="M491.381,810.122c1.372,0.256,1.156,0.096,2.249,0.71c2.588,1.455,7.626-1.217,11.918-1.361
	c-1.996,1.143-7.294,3.99-8.567,5.271c-6.727,6.753-3.272,6.604-11.945,9.746c-1.546-0.974-3.348-2.043-4.831-3.066l1.613-2.111
	c0.016-1.534-1.389-2.969-2.387-4.288l0.183-1.088c1.569-1.328,0.746-1.131,2.402-1.11c0.854,0.834,1.638,1.634,2.465,2.491
	l0.989-0.85l2.617-0.858c1.569,0.134,3.464,0.194,4.76-0.724l0.131-0.947L491.381,810.122z"/>
<path fill="#F4CD60" d="M409.122,786.032c1.958-1.232,0.392-1.939,3.808-2.462c2.489,0.675,14.697,3.39,15.893,3.941l2.485,2.659
	c-2.227-0.079-4.521-1.023-6.793-1.388C419.241,787.939,414.351,787.237,409.122,786.032z"/>
<path fill="#F4CD60" d="M457.839,798.066c2.732-0.112,3.3,0.093,5.967,0.814c2.781,1.675,5.254,3.371,7.333,5.876
	c-6.399,3.393-8.201-2.646-12.762-6.271L457.839,798.066z"/>
<path fill="#F4CD60" d="M429.619,796.06c7.293-1.309,8.613-2.419,13.252,3.782C438.816,799.681,432.709,798.864,429.619,796.06z"/>
<path fill="#E4AA47" d="M477.003,804.679c1.098,0.78,2.134,1.502,3.264,2.243l0.11,0.969l-1.122,1.238l-0.544,0.479
	c1.001,0.98,1.706,1.249,2.933,1.882c-6.281,0.01-4.058-0.963-8.315-5.087l-0.428-0.409
	C474.447,805.739,475.551,805.237,477.003,804.679z"/>
<path fill="#F4CD60" d="M460.606,807.376l0.685-0.52c2.092,0.859,3.491,2.214,4.828,1.967c-0.639-1.121-0.68-1.054-1.56-2.041
	l0.031-0.986c2.752,0.238,4.457,4.616,4.535,7.135C466.698,811.523,463.45,809.083,460.606,807.376z"/>
<path fill="#4D8872" d="M699.223,722.798c10.786-8.987,46.098-21.732,59.791-25.551c0.137,8.766,0.312,9.618-7.467,12.696
	l-5.639,2.44c-11.688,4.776-34.363,14.354-45.28,20.296C699.144,729.274,699.656,726.336,699.223,722.798z"/>
<path fill="#508D79" d="M745.908,712.384l0.664-1.755l-0.311-0.677c-1.635,0.485-1.098,0.59-2.558,0.276l-0.194-1.242
	c1.928-1.997,6.168-0.758,8.037,0.957L745.908,712.384z"/>
<path fill="#72A496" d="M710.385,718.186c2.734,1.65,3.438,1.772,3.771,4.999c-1.708-2.136-2.263-1.555-4-3.428L710.385,718.186z"/>
<path fill="#4F8972" d="M428.522,694.727l1.053-1.133c0.927,0.333,1.771,0.735,2.011,1.872
	c5.116,24.317,26.417,44.146,52.183,35.957c12.084-3.839,19.563-10.285,25.345-21.622c1.103-2.13,3.212-7.483,4.544-8.757
	c2.188,0.079,4.948,1.182,6.588-0.396c1.862-1.796,2.569-5.669,2.026-8.093c-2.625-1.965-4.3,1.074-7.106,0.63
	c-0.381-2.171,0.878-5.395,3.294-5.773c4.036-0.634,7.62,2.327,7.881,6.392c0.039,2.779-1.307,6.974-3.3,9.005
	c-2.403,2.536-6.753,1.182-8.207,2.927c-1.467,1.758-2.305,6.254-3.588,8.488c-7.258,12.652-15.444,16.889-28.658,20.637
	c-6.947,1.155-10.037,0.857-17.159,0.42c-1.554-0.12-5.146-1.018-6.828-1.387c-27.415-10.724-23.876-30.366-32.058-35.597
	C426.567,695.189,427.527,699.185,428.522,694.727z"/>
<path fill="#4F8972" d="M365.652,719.754c1.179,1.007,1.561,1.479,2.567,2.627c0.677,3.346-0.554,6.621-1.884,9.618
	c3.303,10.57,15.779,38.265,15.607,46.936l-0.035-0.399l-0.889,0.932c-5.176-4.842-16.542-38.928-18.59-47.443
	C364.1,727.445,364.677,724.476,365.652,719.754z"/>
<path fill="#4F7771" d="M672.742,693.626l1.899-0.635l0.134,0.707c1.635,8.419,7.935,8.517,14.522,12.946
	c3.897,2.619,12.07,9.665,10.67,14.654l-0.936,0.624c-3.658-0.923-4.122-4.442-7.352-7.541c-4.269-4.095-12.015-9.689-17.059-12.493
	L672.742,693.626z"/>
<path fill="#4D8872" d="M305.016,585.025c1.876-3.724-0.88-2.496,2.448-6.252c2.254,7.337,6.695,26.063,5.976,33.396
	c-3.396,1.67-3.236,3.313-3.527,6.774C308.593,612.531,308.535,591.045,305.016,585.025z"/>
<path fill="#4F8972" d="M345.541,686.653l6.418,1.485c10.063,5.625,15.035,9.465,16.499,21.618c-3.192,1.269,0.125,0.987-3.23,2.067
	c-2.919-14.043-8.24-18.714-22.017-22.17C344.049,688.456,344.617,687.759,345.541,686.653z"/>
<path fill="#354C4B" d="M265.435,596.054c0.145,0.064,0.294,0.119,0.435,0.192c3.887,2.03-0.809,20.164,0.95,24.42
	c1.161,2.811,4.801,3.661,7.395,4.577c-0.711,8.894-10.775,10.588-16.971,4.333c-0.786-1.146-1.34-1.678-1.084-2.98
	c0.259-0.039,14.216,11.277,14.677-0.563c-3.85-1.251-5.168-1.719-5.826-5.978c-1.192-7.709,0.143-15.377,0.234-23.087
	C265.309,596.664,265.372,596.359,265.435,596.054z"/>
<linearGradient id="SVGID_3_" gradientUnits="userSpaceOnUse" x1="616.0156" y1="-92.1396" x2="620.2666" y2="-82.683" gradientTransform="matrix(1 0 0 -1 -282.6602 619.04)">
	<stop  offset="0" style="stop-color:#667D6E"/>
	<stop  offset="1" style="stop-color:#5A8D80"/>
</linearGradient>
<path fill="url(#SVGID_3_)" d="M326.138,700.824c5.291-2.301,19.403,1.948,22.617,7.159l-0.497,0.49
	c-6.007-0.351-9.702-3.665-19.166-3.905c-1.118,0.778-3.038,2.031-3.968,2.896l-1.275,1.235
	C321.249,705.184,322.392,702.479,326.138,700.824z"/>
<path fill="#4F8972" d="M323.849,708.699l1.275-1.235c5.965,1.238,19.125,3.597,23.796,8.588c0.596,0.637,0.343,1.052,0.279,2.112
	c-0.389,0.391-0.815,1.092-1.313,0.85c-7.387-3.593-14.551-5.359-22.279-7.65C324.886,709.948,324.896,709.859,323.849,708.699z"/>
<path fill="#4F8972" d="M330.002,692.165l0.373-0.12c6.098,1.298,9.34,1.315,14.744,4.725c-0.5,2.225-0.089,2.03-1.459,3.321
	c-8.763-3.829-9.794-1.441-17.063-3.327c0.885-0.063,1.527-0.16,2.402-0.285C330.732,694.061,328.426,694.638,330.002,692.165z"/>
<path fill="#354C4B" d="M461.394,704.96c3.875,2.05,2.225,4.625,4.483,7.2c4.671,5.327,10.007-1.214,13.443-3.702l0.877,0.176
	l0.615,1.438C473.688,720.449,458.92,716.411,461.394,704.96z"/>
<path fill="#4F8972" d="M284.35,605.109c5.727-0.14,9.744,3.751,4.802,8.7C282.872,615.294,280.661,609.708,284.35,605.109z"/>
<path fill="#4F8972" d="M313.439,612.17c0.172,4.732,0.773,12.882,0.336,17.258c-1.151,1.07-1.064,0.998-2.614,1.304
	c-1.748-1.61-1.248-9.065-1.249-11.787C310.203,615.483,310.044,613.84,313.439,612.17z"/>
<path fill="#4F8972" d="M238.804,605.631c6.084,0.257,7.476,5.125,3.491,9.501C234.409,615.946,235.932,610.091,238.804,605.631z"/>
<path fill="#2C393A" d="M468.006,686.855l0.934,0.428c2.45,2.831-1.215,8.317-0.173,12.242c1.546,1.357,2.571,1.086,4.885,1.292
	l0.132,0.897C462.755,705.433,466.899,692.604,468.006,686.855z"/>
<path fill="#4F8972" d="M491.921,686.008c1.353,0.4,1.354,0.483,2.539,1.291c1.756,2.918,1.886,4.766-0.684,7.201
	C488.014,693.075,488.364,689.78,491.921,686.008z"/>
<path fill="#4F8972" d="M345.119,696.77c2.751,1.169,6.534,2.75,8.334,5.172c-0.258,1.479-0.627,1.258-2.311,2.467
	c-1.277-0.206-5.53-3.311-7.482-4.317C345.03,698.8,344.619,698.994,345.119,696.77z"/>
<path fill="#4F7771" d="M365.228,711.824c3.355-1.08,0.038-0.799,3.23-2.067c0.838,5.318,0.663,7.31-0.238,12.624
	c-1.007-1.148-1.389-1.62-2.567-2.627C365.326,717.759,365.563,714.418,365.228,711.824z"/>
<path fill="#354C4B" d="M449.289,686.119c1.589-0.674,3.426,0.046,4.134,1.62c0.709,1.575,0.029,3.426-1.53,4.169
	c-1.039,0.494-2.264,0.388-3.201-0.278c-0.938-0.666-1.442-1.787-1.318-2.931S448.23,686.569,449.289,686.119z"/>
<path fill="#2C393A" d="M245.933,645.057c2.699,0.713,5.199,2.495,8.766,2.385c0.864-0.026,2.116,0.215,2.955,0.418l0.186,1.035
	C253.56,650.105,247.235,650.326,245.933,645.057z"/>
</svg>
