<?xml version="1.0" encoding="utf-8"?>
<!-- Generator: Adobe Illustrator 16.0.0, SVG Export Plug-In . SVG Version: 6.00 Build 0)  -->
<!DOCTYPE svg PUBLIC "-//W3C//DTD SVG 1.1//EN" "http://www.w3.org/Graphics/SVG/1.1/DTD/svg11.dtd">
<svg version="1.1" id="圖層_1" xmlns="http://www.w3.org/2000/svg" xmlns:xlink="http://www.w3.org/1999/xlink" x="0px" y="0px"
	 width="870px" height="400px" viewBox="0 0 870 400" enable-background="new 0 0 870 400" xml:space="preserve">
<g>
	<path fill="#FABDA9" d="M48.719,101.104c20.549,0.209,64.691,20.186,85.688,27.97c5.539,2.053,16.491,6.797,22.077,6.345
		c7.69-1.031,15.235-5.914,22.259-8.794c19.586-8.026,38.063-17.769,57.896-25.248c10.146-3.826,15.435-7.285,26.592-8.649
		c1.949,11.018,4.342,48.389,6.721,54.401l-6.418-1.484c-0.924,1.104-1.492,1.803-2.33,3.001c-3.875-0.802-7.535-1.269-11.474-0.521
		c-1.021,0.894-1.586,1.368-1.362,2.912l-0.373,0.12c-1.576,2.473,0.73,1.896-1.003,4.313c-0.875,0.125-1.518,0.224-2.402,0.285
		c-0.831,1.076-1.585,1.95-2.26,3.131l1.801,0.931c-3.746,1.653-4.889,4.358-2.289,7.875c1.049,1.159,1.037,1.249,1.759,2.664
		l-1.236,0.828l0.063,0.938c5.801,5.054,18.137,9.113,25.046,13.083c2.636,1.515,7.819,2.326,9.09,5.135
		c-1.477,2.019-4.571,1.533-6.827,1.458c2.387,15.271,3.969,30.439,6.18,45.713c0.123,0.851,0.524,1.252,1.144,1.723
		c-6.2-0.357-11.06-0.633-17.271-0.436c-3.438,0.948-6.835,0.74-10.405,0.621c2.748,4.641,1.229,2.81-1.303,7.377
		c-7.555,0.607-37.265,2.032-42.675,0.099c-0.622-0.223-10.403,1.597-12.781,1.68c-3.468,0.218-7.818,0.627-11.2,0.325
		c-13.51,0.565-26.062,1.182-39.535,2.873c-8.578,1.076-18.59,0.36-27.386,2.051c-3.657,0.702-2.474-3.449-6.034,0.169
		c-9.308,2.065-16.784,2.592-26.122,3.563l-37.96,4.068l-0.547-1.203c-1.292,0.44-6.931,2.311-7.867,2.452
		c-3.369,0.516-25.396,4.705-27.381,4.178c-1-0.921-1.351-1.21-1.556-2.638c-0.239-1.656,0.842-3.974,2.057-5.063
		c3.717-3.335,51.349-9.108,59.052-9.614c-0.512-13.288-3.959-28.646-4.335-41.725c-11.275,10.956-13.791,18.258-18.23,33.393
		c-0.968,3.301-0.578,7.396-3.134,10.056l-0.92-0.37c-4.248-5.568,6.307-30.817,10.19-36.668c-2.91-2.473-5.224-4.341-6.985-7.839
		c-6.768-13.447-5.292-33.438,9.012-41.113l5.44-2.887C60.382,146.93,50.916,118.401,48.719,101.104z"/>
	<path fill="#E4AA47" d="M176.018,241.163c5.904-2.856,73.276-2.485,83.768-2.367c-3.438,0.948-6.835,0.74-10.405,0.621
		c2.748,4.642,1.229,2.811-1.303,7.377c-7.555,0.607-37.265,2.032-42.675,0.1c-0.622-0.224-10.403,1.596-12.781,1.679
		c-3.468,0.218-7.818,0.627-11.2,0.325c-13.51,0.565-26.062,1.182-39.535,2.873c-8.578,1.077-18.59,0.36-27.386,2.051
		c-3.657,0.702-2.474-3.449-6.034,0.169c-9.308,2.066-16.784,2.592-26.122,3.563l-37.96,4.067l-0.547-1.203
		c-1.292,0.44-6.931,2.311-7.867,2.452c-3.369,0.517-25.396,4.705-27.381,4.178c-1-0.921-1.351-1.21-1.556-2.638
		c-0.239-1.656,0.842-3.974,2.057-5.063c3.717-3.335,51.349-9.109,59.052-9.615c9.682-1.188,19.378-2.106,29.089-3.012
		C123.676,244.252,149.417,241.766,176.018,241.163z"/>
	<path fill="#F4CD60" d="M185.3,244.387c2.091,1.151,5.453,2.877,7.322,4.185c-3.468,0.218-7.818,0.627-11.2,0.325
		C182.418,246.489,183.281,246.131,185.3,244.387z"/>
	<path fill="#F9FAFA" d="M78.508,160.532l3.986,0.353c1.698,0.183,3.512,2.115,4.727,3.398c1.445,1.524,0.947,3.87,0.606,5.768
		l-0.721,0.631l-0.52,0.082c-0.679,2.563-1.594,2.511-4.188,4.33c-0.537,1.562-1.626,4.445-1.877,5.96
		c1.192,0.992,2.139,1.981,3.594,2.446c-3.687,12.056-12.69,15.586-20.307,24.51c-11.275,10.955-13.791,18.258-18.23,33.392
		c-0.968,3.301-0.578,7.396-3.134,10.056l-0.92-0.37c-4.248-5.568,6.307-30.817,10.19-36.668c-2.91-2.473-5.224-4.341-6.985-7.839
		c-6.768-13.447-5.292-33.438,9.012-41.112c0.524,1.114,1.017,2.063,1.414,3.232C62.883,164.955,70.116,162.479,78.508,160.532z"/>
	<path fill="#4F8972" d="M53.741,165.466c0.524,1.115,1.017,2.064,1.414,3.233c-5.747,4.492-9.637,9.758-10.549,17.183
		c-1.391,11.32,1.76,18.813,9.89,26.534c3.548-3.565,6.851-8.179,10.223-12.025c2.722-3.106,12.261-10.458,12.888-13.854
		c-3.644-1.578-13.467,9.051-16.866,8.512l-0.966-1.029c0.38-3.812,16.568-13.658,20.746-12.966
		c1.192,0.993,2.139,1.982,3.594,2.447c-3.687,12.055-12.69,15.586-20.307,24.509c-11.275,10.956-13.791,18.259-18.23,33.393
		c-0.968,3.301-0.578,7.396-3.134,10.056l-0.92-0.37c-4.248-5.568,6.307-30.817,10.19-36.668c-2.91-2.473-5.224-4.341-6.985-7.839
		C37.96,193.132,39.437,173.14,53.741,165.466z"/>
	<path fill="#4F8972" d="M82.494,160.885c1.698,0.183,3.512,2.115,4.727,3.398c1.445,1.524,0.947,3.87,0.606,5.768l-0.721,0.631
		l-0.52,0.082c-1.605,0.262-1.652,0.361-3.22,0.086l-0.418-0.979c0.022-1.101,0.012-2.224,0.014-3.328
		c-4.984-2.946-24.724,12.904-28.292,10.285C55.08,170.059,76.807,165.425,82.494,160.885z"/>
	<path fill="#508D79" d="M82.397,175.094c-6.666,1.388-17.18,8.252-23.879,10.593c-0.761-1.195-0.459-0.56-0.24-2.453
		c4.216-6.015,22.3-10.703,24.669-13.362l0.418,0.979c1.568,0.275,1.615,0.176,3.22-0.086
		C85.907,173.327,84.992,173.273,82.397,175.094z"/>
	<path fill="#F9FAFA" d="M160.54,147.632c3.084,4.699,3.953,15.558,5.079,21.576c1.205,6.448,2.957,14.001,3.884,20.366
		c1.339,9.193,2.103,18.903,3.221,28.136c0.612,5.047,4.126,19.069,3.294,23.453c-0.625-0.223-2.013-0.455-2.122-1.104
		c-3.759-22.41-6.129-44.96-10.552-67.3C162.555,168.776,159.844,150.487,160.54,147.632z"/>
	
		<linearGradient id="SVGID_1_" gradientUnits="userSpaceOnUse" x1="818.0469" y1="-0.5913" x2="822.4121" y2="-6.8422" gradientTransform="matrix(1 0 0 1 -565.3203 183.0801)">
		<stop  offset="0" style="stop-color:#54796C"/>
		<stop  offset="1" style="stop-color:#798D81"/>
	</linearGradient>
	<path fill="url(#SVGID_1_)" d="M239.352,159.658c1.064-0.123,1.942-0.461,2.978-0.773l1.801,0.93
		c-3.746,1.654-4.889,4.358-2.289,7.875c1.049,1.16,1.037,1.249,1.759,2.664l-1.236,0.829l0.063,0.938
		c5.801,5.054,18.137,9.113,25.045,13.083c2.637,1.516,7.82,2.326,9.091,5.135c-1.477,2.019-4.571,1.533-6.827,1.458
		c-11.176-6.001-22.532-10.213-31.197-19.359C238.403,167.528,238.705,164.507,239.352,159.658z"/>
	<path fill="#4F8972" d="M59.181,162.579c4.12-2.311,17.55-7.783,21.81-5.14l0.122,0.98c-0.911,1.534-1.006,1.435-2.605,2.111
		c-8.392,1.947-15.625,4.423-23.353,8.167c-0.397-1.169-0.89-2.118-1.414-3.233L59.181,162.579z"/>
	<path fill="#796863" d="M243.262,151.484c3.573-8.956,12.308-7.222,20.271-5.842c-0.924,1.104-1.492,1.803-2.33,3.001
		c-3.875-0.802-7.535-1.269-11.474-0.521c-1.021,0.894-1.586,1.368-1.362,2.912l-0.373,0.12
		C245.952,151.448,245.297,151.56,243.262,151.484z"/>
	<path fill="#4F7771" d="M243.262,151.484c2.035,0.075,2.689-0.036,4.732-0.33c-1.576,2.473,0.73,1.896-1.003,4.313
		c-0.875,0.125-1.518,0.224-2.402,0.285c-0.831,1.076-1.585,1.95-2.26,3.131c-1.034,0.313-1.912,0.651-2.978,0.774
		C239.889,156.087,241.278,154.475,243.262,151.484z"/>
	<path fill="#4F7771" d="M86.585,170.763l0.52-0.082c2.155,5.229-4.004,6.956-4.631,10.023c0.95,0.351,0.569,0.243,1.687,0.079
		c0.712,1.484,0.519,0.65-0.047,2.716c-1.455-0.465-2.402-1.454-3.594-2.446c0.251-1.515,1.34-4.398,1.877-5.961
		C84.992,173.273,85.907,173.327,86.585,170.763z"/>
	<path fill="#F9FAFA" d="M144.083,153.055c0.556,0.292,0.78,0.576,1.262,1.014c4.974,12.269,5.986,43.185,7.558,57.421
		c0.789,7.153,2.679,21.541,2.569,28.443c-0.345-0.23-2.268-1.464-2.344-1.843c-4.783-23.786-5.149-48.521-7.815-72.696
		C144.866,161.329,144.002,157.044,144.083,153.055z"/>
	<path fill="#4D8872" d="M575.316,152.247l0.95-0.011c0.369,3.316,0.181,4.458-0.179,7.758c-6.426,0.305-9.556,1.366-15.729,3.137
		c2.389,1.03,4.888,2.159,7.288,3.118l12.507,5.155c5.453,2.236,25.069,11.684,28.189,16.535l0.329-0.625
		c2.401-4.462,2.587-1.348,6.878-2.951c0.259-1.131,0.865-1.592,1.662-2.576c0.435,3.538-0.079,6.478,1.405,9.882
		c-1.2,0.938-2.424,1.714-3.218,2.983l-0.501,2.996c-0.703,10.841-0.647,21.885-1.182,32.749c-0.175,3.537-0.383,7.41-0.155,10.914
		l2.359,0.148l1.619-35.313c0.052-3.018-0.07-7.698,0.841-10.556c0.461-1.443,1.678-1.687,3.06-2.338
		c3.688-1.782,7.262-3.334,11.026-4.957l2.307-0.972c9.709-3.763,19.06-8.912,28.76-12.749c2.491-0.984,4.813-1.999,7.205-3.2
		c1.663-0.661,3.407-1.243,5.102-1.836c1.958-0.83,3.989-1.729,5.956-2.514c-0.57,3.802-0.856,5.396-1.994,9.043
		c-0.894,0.525-1.074,0.628-2.045,0.985c0.693,0.877,0.539,0.71,1.354,1.415c-0.301,2.043-0.968,2.564-2.649,4.054l1.021,1.041
		c-0.384,3.654-4.599,20.175-5.829,23.989c14.838,7.126,19.525,19.4,14.208,34.623l1.646,0.183
		c22.784,1.604,45.784,1.784,68.618,2.352c3.193,0.079,6.943-0.22,10.058,0.387c1.932,0.375,4.132,2.004,6.046,1.965
		c1.124-0.024,1.335-0.313,2.271-0.771c4.387-2.147,34.523,1.825,40.457,2.929c2.467,1.368,3.623,1.676,6.466,1.446l5.623,0.07
		c2.953,0.129,7.454,1.21,10.426,1.963l-0.012,0.479l1.919,1.153c3.185,1.188,17.236,4.116,15.748,7.946
		c-4.069,3.046-9.452,2.044-14.191,1.124c-18.296-3.549-37.204-7.146-55.854-7.133c-13.281,0.009-27.507-2.723-40.787-4.148
		c-1.569-0.188-6.428,0.832-8.644,0.807l-125.158-1.115c-3.692-0.032-7.298-1.432-10.894-1.429
		c-20.961,0.01-41.706-0.158-62.639-1.132c-21.511-0.998-43.745,1.982-64.961,5.125c-6.815,1.119-14.32,3.957-21.127,5.521
		c-11.373,2.802-16.635,3.573-27.333,8.563c-4.292,0.146-9.33,2.816-11.918,1.361c-1.093-0.614-0.877-0.454-2.249-0.71l1.597,1.813
		l-0.131,0.946c-1.296,0.918-3.189,0.857-4.76,0.725l-2.617,0.857c-1.624-1.274-1.994-2.375-3.826-2.975
		c-1.227-0.633-1.932-0.901-2.933-1.882l0.544-0.479l1.122-1.238l-0.11-0.969c-1.13-0.741-2.166-1.463-3.264-2.243
		c1.083-1.607,1.202-1.729,1.139-3.716l0.91-0.74l1.298,0.548c0.729,1.801,0.569,0.819-0.073,3.1l0.466,0.093
		c0.625-1.463,0.753-1.84,1.914-3.011c0.259-1.372,0.144-1.393,1.067-2.396c2.415,0.07,2.348,0.046,2.986-2.017
		c1.516-0.083,3.031,0.931,4.535,1.667c2.933-0.014,5.908,0.032,8.629-0.968l1.756,0.498l2.499-0.486
		c4.036-1.668,3.987,0.22,8.321,0.552c1.355-0.507,2.601-1.257,3.887-1.948c6.536,1.093,12.121-5.142,17.368-5.121
		c5.787-0.892,21.606-3.646,26.668-5.403c-0.393-0.15-0.786-0.299-1.179-0.449c-0.845-0.263-1.646-1.441-1.584-2.355
		c0.729-10.809,19.247-36.179,25.496-44.123c1.274-2.021,2.96-3.695,4.58-5.465c10.159-10.869,18.128-18.032,28.929-27.893
		c0.099-1.393,0.095-6.246,1.443-6.557c5.807-1.335,15.334,3.458,20.528,5.717c6.18-6.241,8.914-4.286,16.725-7.199
		C574.775,155.445,574.86,153.831,575.316,152.247z"/>
	<path fill="#DC9F3F" d="M675.843,169.541c1.958-0.83,3.989-1.729,5.956-2.514c-0.57,3.802-0.856,5.396-1.994,9.043
		c-0.894,0.525-1.074,0.628-2.045,0.985c0.693,0.877,0.539,0.71,1.354,1.415c-0.301,2.043-0.968,2.564-2.649,4.054l1.021,1.041
		c-0.384,3.654-4.599,20.175-5.829,23.989c14.838,7.126,19.525,19.4,14.208,34.623l1.646,0.183
		c22.784,1.604,45.784,1.784,68.618,2.352c3.193,0.079,6.943-0.22,10.058,0.387c1.932,0.375,4.132,2.004,6.046,1.965
		c1.124-0.024,1.335-0.313,2.271-0.771c4.387-2.147,34.523,1.825,40.457,2.929c2.467,1.368,3.623,1.676,6.466,1.446l5.623,0.07
		c2.953,0.129,7.454,1.21,10.426,1.963l-0.012,0.479l1.919,1.153c3.185,1.188,17.236,4.116,15.748,7.946
		c-4.069,3.046-9.452,2.044-14.191,1.124c-18.296-3.549-37.204-7.146-55.854-7.133c-13.281,0.009-27.507-2.722-40.787-4.148
		c-1.569-0.188-6.428,0.832-8.644,0.807l-125.158-1.115c-3.692-0.032-7.298-1.431-10.894-1.429
		c-20.961,0.01-41.706-0.158-62.639-1.132c-21.511-0.997-43.745,1.982-64.961,5.125c-6.815,1.119-14.32,3.957-21.127,5.521
		c-11.373,2.802-16.635,3.573-27.333,8.563c-4.292,0.146-9.33,2.816-11.918,1.361c-1.093-0.614-0.877-0.454-2.249-0.71l1.597,1.813
		l-0.131,0.946c-1.296,0.918-3.189,0.857-4.76,0.725l-2.617,0.857c-1.624-1.274-1.994-2.375-3.826-2.975
		c-1.227-0.633-1.932-0.901-2.933-1.882l0.544-0.479l1.122-1.237l-0.11-0.97c-1.13-0.741-2.166-1.463-3.264-2.243
		c1.083-1.607,1.202-1.729,1.139-3.716l0.91-0.739l1.298,0.547c0.729,1.801,0.569,0.819-0.073,3.1l0.466,0.093
		c0.625-1.463,0.753-1.84,1.914-3.011c0.259-1.372,0.144-1.393,1.067-2.395c2.415,0.069,2.348,0.045,2.986-2.018
		c1.516-0.083,3.031,0.931,4.535,1.667c2.933-0.014,5.908,0.032,8.629-0.968l1.756,0.498l2.499-0.486
		c4.036-1.668,3.987,0.22,8.321,0.552c1.355-0.507,2.601-1.257,3.887-1.948c6.536,1.093,12.121-5.142,17.368-5.121
		c5.787-0.892,21.606-3.646,26.668-5.403l0.521-0.346c4.177,0.577,9.573-1.861,13.627-1.952c13.024-0.292,26.72-2.713,39.664-1.9
		l2.824,0.153l5.213,0.055c2.688-0.009,4.555,0.065,7.227-0.391c5.452,0.166,16.138,0.896,20.977,0.666l5.204,0.162
		c1.469,0.123,3.604,0.385,4.989,0.212c4.404,0.162,13.604-1.059,17.083,0.699l3.194-0.265c4.262-0.259,10.507-0.335,14.678-0.102
		l2.359,0.148l1.619-35.313c0.053-3.018-0.07-7.698,0.841-10.556c0.462-1.443,1.678-1.687,3.06-2.338
		c3.688-1.782,7.262-3.334,11.027-4.957l2.306-0.972c9.709-3.763,19.06-8.912,28.76-12.749c2.491-0.984,4.813-1.999,7.205-3.2
		C672.404,170.716,674.148,170.135,675.843,169.541z"/>
	<path fill="#4F8972" d="M675.843,169.541c1.958-0.83,3.989-1.729,5.956-2.514c-0.57,3.802-0.856,5.396-1.994,9.043
		c-0.894,0.525-1.074,0.628-2.045,0.985c0.693,0.877,0.539,0.71,1.354,1.415c-0.301,2.043-0.968,2.564-2.649,4.054l1.021,1.041
		c-0.384,3.654-4.599,20.175-5.829,23.989c14.838,7.126,19.525,19.4,14.208,34.623l-3.659-0.323
		c-3.031,2.583-15.05,2.385-17.757,0.495c-1.805-0.267-3.836-0.247-5.677-0.29c-2.171,0.186-4.325,0.101-6.501,0.036
		c-12.102-0.362-24.24-0.735-36.345-0.636l1.619-35.313c0.053-3.018-0.07-7.698,0.842-10.555c0.461-1.444,1.677-1.688,3.059-2.339
		c3.689-1.782,7.262-3.334,11.027-4.957l2.306-0.972c9.709-3.763,19.06-8.912,28.76-12.749c2.491-0.983,4.813-1.999,7.205-3.2
		C672.404,170.716,674.148,170.135,675.843,169.541z"/>
	<path fill="#F9FAFA" d="M670.542,209.275c11.266,7.646,17.709,19.112,11.661,32.579c-3.031,2.583-15.05,2.385-17.757,0.495
		c-1.805-0.267-3.836-0.247-5.677-0.29c-0.121-1.443,0.135-2.085,0.482-3.471l-1.061-1.634c-3.494-0.59-4.859-0.394-7.11-3.078
		l0.146-0.896c4.507-2.417,17.021,1.063,20.178-2.396c-4.545-2.354-17.341,1.938-19.469-4.916
		c2.077-3.235,14.759,0.006,18.643-2.597l-0.242-0.893c-4.213-0.682-13.544,0.743-16.352-2.313
		c0.957-3.783,9.433-3.226,12.848-3.886C668.585,213.278,669.207,212.263,670.542,209.275z"/>
	<path fill="#4F8972" d="M658.192,236.956c3.964,0.413,8.098,0.374,12.096,0.416c-0.622,1.874-0.92,3.662-2.511,4.713
		c-1.379,0.196-1.938,0.242-3.331,0.266c-1.805-0.267-3.836-0.247-5.677-0.29c-0.121-1.443,0.135-2.085,0.482-3.471L658.192,236.956
		z"/>
	<path fill="#508D79" d="M617.544,206.147c0.052-3.018-0.07-7.698,0.841-10.556c0.461-1.443,1.678-1.687,3.06-2.338
		C620.107,198.646,625.854,204.679,617.544,206.147z"/>
	<path fill="#72A496" d="M670.741,171.377c1.663-0.661,3.407-1.242,5.102-1.836c-0.66,2.175-1.25,6.344-2.212,7.337
		C671.479,175.804,671.028,173.513,670.741,171.377z"/>
	<path fill="#508D79" d="M632.471,188.298l2.307-0.972l0.017,0.522c0.104,2.438,0.315,3.271,0.907,5.646
		c-3.176,2.784,0.813,1.383-1.951,3.344c-1.542-0.981-0.898-0.353-1.836-2.104c0.385-1.422,0.646-1.68,1.413-2.921
		C633.124,190.5,633.069,189.482,632.471,188.298z"/>
	<path fill="#72A496" d="M645.955,185.129c0.964,0.97,1.044,1.265,2.301,1.674c1.006-0.495,0.455-0.354,1.666-0.366l0.462,2.556
		l-0.612,0.092C646.548,186.979,647.194,189.057,645.955,185.129z"/>
	<path fill="#609B85" d="M631.361,228.153c1.412,1.448,2.665,2.987,2.136,5.025l-0.887-0.101
		C631.794,231.247,630.952,230.042,631.361,228.153z"/>
	<path fill="#72A496" d="M628.246,225.594c0.398,1.96-0.038,4.065-0.43,5.993l-0.915,0.208l-0.517-0.34
		C626.941,228.866,627.068,227.931,628.246,225.594z"/>
	<path fill="#609B85" d="M649.186,205.982c0.34,0.187,1.35,0.932,1.705,1.183l-0.148,0.623l-2.101,0.632l-0.193,1.167l-0.572-0.241
		C647.771,207.264,647.674,208.035,649.186,205.982z"/>
	<path fill="#F9D874" d="M397.044,259.212l1.298,0.548c0.729,1.801,0.569,0.819-0.073,3.1l0.466,0.093
		c0.625-1.463,0.753-1.84,1.914-3.011c0.259-1.372,0.144-1.394,1.067-2.396c2.415,0.07,2.348,0.045,2.986-2.017
		c1.516-0.083,3.031,0.931,4.535,1.667l-0.248,0.399c-1.459,0.32-2.549,0.339-3.444,1.455c0.081,2.473,2.816,4.754,5.083,4.788
		l0.5-0.426c0.106,0.896,0.297,2.148,0.332,3.014c1.547-0.956,2.962-1.718,4.567-2.576c-2.507,3.09-3.103,3.383-6.654,5.261
		l1.597,1.813l-0.131,0.947c-1.296,0.918-3.189,0.857-4.76,0.724l-2.617,0.858c-1.624-1.275-1.994-2.375-3.826-2.975
		c-1.227-0.634-1.932-0.901-2.933-1.883l0.544-0.479l1.122-1.238l-0.11-0.969c-1.13-0.741-2.166-1.463-3.264-2.243
		c1.083-1.607,1.202-1.729,1.139-3.716L397.044,259.212z"/>
	<path fill="#F4CD60" d="M411.46,266.428c1.547-0.957,2.962-1.719,4.567-2.577c-2.507,3.09-3.103,3.383-6.654,5.261l1.597,1.813
		l-0.131,0.947c-1.296,0.918-3.189,0.857-4.76,0.725c0.302-0.646,0.188-0.619,0.196-1.416l-1.2-0.468l-0.118-0.735l1.595-1.479
		l1.135-0.745l0.107-2.048l0.578-0.413C409.566,266.053,409.987,266.53,411.46,266.428z"/>
	<path fill="#F9E18A" d="M397.248,268.118c2.75-0.517,6.482-0.021,9.305,0.379l-1.595,1.479l0.118,0.735l1.2,0.468
		c-0.01,0.797,0.104,0.771-0.196,1.416l-2.617,0.857c-1.624-1.274-1.994-2.375-3.826-2.975c-1.227-0.633-1.932-0.901-2.933-1.882
		L397.248,268.118z"/>
	<path fill="#F9E18A" d="M417.867,256.229l1.756,0.498l-1.229,2.082l1.065,2.144c-2.683,0.402-6.452,0.675-8.33,2.462l-0.5,0.426
		c-2.267-0.034-5.002-2.315-5.083-4.788c0.896-1.116,1.985-1.135,3.444-1.456l0.248-0.398
		C412.17,257.183,415.146,257.229,417.867,256.229z"/>
	<path fill="#F4CD60" d="M417.867,256.229l1.756,0.498l-1.229,2.082c-3.818,2.025-5.94,0.482-9.402-1.213l0.248-0.399
		C412.17,257.183,415.146,257.229,417.867,256.229z"/>
	<path fill="#E4AA47" d="M422.122,256.24c4.036-1.668,3.987,0.22,8.321,0.552c-5.566,5.225-5.079,2.633-10.303,4.697
		c-1.443,0.744-2.854,1.359-4.112,2.361c-1.605,0.858-3.021,1.62-4.567,2.577c-0.035-0.865-0.226-2.118-0.332-3.015
		c1.878-1.787,5.647-2.06,8.33-2.462l-1.065-2.144l1.229-2.082L422.122,256.24z"/>
	<path fill="#E4AA47" d="M547.439,239.938c5.452,0.166,16.138,0.896,20.977,0.666c1.396,0.795,2.92,1.461,2.997,3.143
		c-1.493,1.077-5.012,1.532-6.853,1.369c-3.751-0.333-4.101-3.305-8.156-3.982c-5.274-0.883-11.096,0.271-16.19-0.805
		C542.902,240.319,544.768,240.394,547.439,239.938z"/>
	<path fill="#F9FAFA" d="M575.316,152.247l0.95-0.011c0.369,3.316,0.181,4.458-0.179,7.758c-6.426,0.305-9.556,1.366-15.729,3.137
		c2.389,1.03,4.888,2.159,7.288,3.118l12.507,5.155l-3.068,0.567c0.505,1.282,2.023,1.897,3.312,2.67
		c-2.104,0.508-3.015-1.192-4.302-2.701l-0.954-0.209c-1.189,1.042-1.095,0.997-1.73,2.466l0.04,0.619l-0.467,0.136
		c-1.858,0.554-2.744,0.624-3.568,2.502c-3.85-1.23-7.721-3.969-10.665-4.925c-3.747-1.052-16.808-7.255-19.767-5.604l0.204,0.985
		c1.512,1.799,4.868,2.606,7.236,3.438c1.649,0.744,4.98,2.362,6.582,2.794c-0.564,3.18-1.729,2.442-2.169,5.979
		c-2.1,3.652-3.961,3.962-4.324,8.56l0.227,0.39l0.648-0.127c2.203-0.41,2.166-0.672,3.511,0.197l0.588,1.46
		c-0.646,1.188-3.936,4.844-5.704,4.46c-2.734-0.595-5.392-1.479-8.182-1.71c0.532,5.096,1.473,10.657,1.412,15.672
		c-1.306,1.172-2.849,2.263-3.352,3.869c-3.991,2.854-5.631,6.335-6.813,10.998c-0.48,2.78-0.944,5.122-1.083,7.956
		c1.132,3.887,1.708,5.255,4.409,8.276c-12.944-0.813-26.64,1.608-39.665,1.9c-4.053,0.091-9.449,2.529-13.627,1.952l-0.52,0.346
		c-0.394-0.149-0.786-0.299-1.179-0.449c-0.845-0.263-1.646-1.441-1.584-2.355c0.729-10.808,19.246-36.178,25.495-44.123
		c1.275-2.021,2.96-3.695,4.581-5.465c10.159-10.869,18.127-18.032,28.929-27.893c0.099-1.393,0.095-6.246,1.443-6.557
		c5.807-1.335,15.334,3.458,20.528,5.717c6.18-6.241,8.914-4.286,16.725-7.199C574.775,155.445,574.86,153.831,575.316,152.247z"/>
	<path fill="#4F8972" d="M575.316,152.247l0.95-0.011c0.369,3.316,0.181,4.458-0.179,7.758c-6.426,0.305-9.556,1.366-15.729,3.137
		c2.389,1.03,4.888,2.159,7.288,3.118l12.507,5.155l-3.068,0.567c0.505,1.282,2.023,1.897,3.312,2.67
		c-2.104,0.508-3.015-1.192-4.302-2.701l-0.954-0.209c-1.189,1.042-1.095,0.997-1.73,2.466l0.04,0.619l-0.467,0.136
		c-1.858,0.554-2.744,0.624-3.568,2.502c-3.85-1.23-7.721-3.969-10.665-4.925c-3.747-1.052-16.808-7.255-19.767-5.604l0.204,0.985
		c1.512,1.799,4.868,2.606,7.236,3.438c1.649,0.744,4.98,2.362,6.582,2.794c-0.564,3.18-1.729,2.442-2.169,5.979
		c-2.1,3.652-3.961,3.962-4.324,8.56l0.227,0.39l0.648-0.127c2.203-0.41,2.166-0.672,3.511,0.197l0.588,1.46
		c-0.646,1.188-3.936,4.844-5.704,4.46c-2.734-0.595-5.392-1.479-8.182-1.71c-0.417-4.221-1.418-17.62-2.222-20.88
		c-14.741,5.304-50.229,56.026-56.496,71.505l-0.52,0.346c-0.394-0.149-0.786-0.299-1.179-0.449
		c-0.845-0.263-1.646-1.441-1.584-2.355c0.729-10.809,19.247-36.178,25.496-44.123c1.274-2.021,2.96-3.695,4.58-5.465
		c10.159-10.869,18.127-18.032,28.929-27.893c0.099-1.393,0.095-6.246,1.443-6.557c5.807-1.335,15.334,3.458,20.528,5.717
		c6.18-6.241,8.914-4.286,16.725-7.199C574.775,155.445,574.86,153.831,575.316,152.247z"/>
	<path fill="#609B85" d="M558.751,172.529c2.924-4.466,5.359-1.993,9.231,0.232c-0.067,0.973-0.131,1.577-0.286,2.54l0.551,0.646
		l0.823-0.166l0.743-1.937l3.598,0.351l0.04,0.619l-0.467,0.136c-1.858,0.554-2.744,0.624-3.568,2.502
		C565.566,176.223,561.695,173.485,558.751,172.529z"/>
	<path fill="#508D79" d="M546.426,171.347c1.649,0.743,4.98,2.362,6.582,2.794c-0.564,3.18-1.729,2.442-2.169,5.979
		C545.93,176.237,548.336,174.657,546.426,171.347z"/>
	<path fill="#508D79" d="M567.648,166.249c-0.923,0.883-1.583,1.269-2.644,1.979c-2.09,0.139-5.044-2.311-5.537-4.188l0.893-0.909
		C562.749,164.161,565.248,165.29,567.648,166.249z"/>
	<path fill="#A5C0B3" d="M501.099,197.39c1.274-2.021,2.96-3.695,4.581-5.466c0.345,2.122,0.316,2.192-0.392,4.271
		C503.63,197.856,503.544,198,501.099,197.39z"/>
	<path fill="#4D8872" d="M543.378,186.054c0.356,0.107,0.987,0.667,1.332,0.931c0.459,1.077,0.437,0.521,0.027,1.663
		c-2.217,0.932-3.069,1.395-5.117,2.665l0.866-1.711l-1.145-2.116l0.362-0.741C541.191,186.313,541.879,186.242,543.378,186.054z"/>
	<path fill="#4F8972" d="M580.155,171.404c5.453,2.236,25.069,11.684,28.19,16.535l0.328-0.625c2.401-4.462,2.587-1.348,6.878-2.951
		c0.259-1.131,0.865-1.592,1.662-2.576c0.435,3.538-0.079,6.478,1.405,9.882c-1.2,0.938-2.424,1.713-3.218,2.983l-0.501,2.996
		c-0.703,10.841-0.647,21.885-1.182,32.749c-0.175,3.537-0.383,7.41-0.155,10.914c-4.171-0.233-10.416-0.157-14.679,0.102
		c0.654-9.773,0.929-19.887,1.497-29.678c0.173-2.951,1.399-17.129,0.974-18.979c-6.479-3.188-12.908-6.552-19.393-9.695
		c-3.977-1.931-8.056-3.188-12.062-5.338l-0.487-0.27c0.824-1.878,1.71-1.948,3.568-2.502l0.467-0.136l-0.04-0.619
		c0.637-1.469,0.541-1.424,1.729-2.466l0.954,0.209c1.288,1.509,2.199,3.209,4.303,2.701c-1.287-0.771-2.807-1.388-3.312-2.67
		L580.155,171.404z"/>
	<path fill="#508D79" d="M617.215,181.787c0.435,3.538-0.078,6.478,1.405,9.882c-1.2,0.938-2.424,1.713-3.218,2.983l-0.501,2.996
		c-1.306-0.632-1.366-0.729-2.498-1.665c-1.104-3.642-3.908-6.013-4.058-8.044l0.328-0.625c2.401-4.462,2.588-1.348,6.879-2.951
		C615.811,183.232,616.418,182.771,617.215,181.787z"/>
	<path fill="#72A496" d="M617.215,181.787c0.435,3.538-0.078,6.478,1.405,9.882c-1.2,0.938-2.424,1.713-3.218,2.983
		c1.568-5.462,0.364-4.193,0.739-8.705l0.083-0.901l-0.672-0.683C615.811,183.232,616.418,182.771,617.215,181.787z"/>
	<path fill="#F9FAFA" d="M537.92,215.381c1.236-0.491,1.889-1.151,2.848-2.027l0.7,0.146c0.623,1.568,0.725,2.397,2.253,3.281
		c4.334,0.526,13.947-0.863,17.154,2.238c-0.058,2.121-1.4,2.294-3.234,2.916l2.934,0.729l-1.829,1.251l1.115,0.011
		c-0.061,1.523-0.171,3.304-0.179,4.806c-3.117,0.162-13.512,0.286-15.498,1.148l-0.565,0.697
		c1.508,3.259,14.972,0.883,19.682,1.759c-1.011,1.172-2.306,2.584-3.179,3.813c-3.426,0.3-12.382,0.116-14.298,1.62
		c0.427,1.668,0.022,0.896,1.617,2.168c-2.672,0.456-4.537,0.382-7.227,0.391l-5.213-0.055l-2.824-0.153
		c-2.702-3.021-3.277-4.391-4.409-8.277c0.139-2.834,0.603-5.176,1.083-7.956c1.183-4.662,2.821-8.144,6.813-10.997
		C536.514,213.762,537.21,214.388,537.92,215.381z"/>
	<path fill="#4F8972" d="M558.744,223.916c-2.827,0.664-12.792,1.879-15.513,0.485l-0.185-0.748
		c2.379-2.172,11.272-2.078,14.594-1.719l2.933,0.729L558.744,223.916z"/>
	<path fill="#4F8972" d="M535.663,212.889c0.852,0.873,1.547,1.499,2.257,2.491c-3.047,2.407-3.667,4.08-5.762,7.307l-1.674-0.601
		l-1.635,1.801C530.032,219.224,531.672,215.743,535.663,212.889z"/>
	<path fill="#4F7771" d="M528.85,223.887l1.635-1.801l1.674,0.601c-0.94,3.513-0.789,5.98-1.365,9.286l-3.025-0.131
		C527.905,229.01,528.369,226.667,528.85,223.887z"/>
	<path fill="#4D8872" d="M527.767,231.844l3.025,0.13l-0.979,0.582c2,2.394,3.436,5.15,5.187,7.719l-2.824-0.153
		C529.475,237.098,528.898,235.729,527.767,231.844z"/>
	<path fill="#F9FAFA" d="M546.426,171.347c-2.368-0.83-5.726-1.639-7.236-3.438l-0.204-0.986c2.959-1.648,16.02,4.555,19.767,5.605
		c2.944,0.956,6.815,3.692,10.665,4.925l0.487,0.27c4.006,2.149,8.085,3.407,12.062,5.338c6.483,3.145,12.914,6.507,19.393,9.695
		c0.427,1.851-0.8,16.027-0.974,18.979c-0.568,9.791-0.843,19.903-1.496,29.678l-3.194,0.264c1.131-14.045,0.97-32.664,2.871-46.146
		c-12.854-8.089-31.162-15.503-45.556-21.391C551.406,173.71,548.075,172.091,546.426,171.347z"/>
	<path fill="#4F8972" d="M573.62,240.766c-1.063-1.998-1.585-2.544-3.265-4.067c1.174-1.219,5.928-2.066,7.319-0.784
		c0.563,2.165,0.74,2.86,0.935,5.063C577.224,241.15,575.089,240.889,573.62,240.766z"/>
	<path fill="#EFF2ED" d="M559.859,223.928c2.708,0.519,4.162,1.771,2.768,4.489c-1.269,0.459-1.566,0.335-2.944,0.314
		C559.688,227.229,559.8,225.45,559.859,223.928z"/>
	<path fill="#508D79" d="M578.994,192.563c1.36-0.77,0.722-0.755,1.95-0.539c0.418,1.851-0.688,3.487-1.378,5.229l0.791,0.769
		l1.197-0.252c0.653-2.609,0.058-4.936,1.469-6.227c1.674-0.042,1.099-0.354,2.1,0.441l-0.413,1.896l0.593,0.641
		c0.75-0.39,0.408-0.094,0.901-1.009l0.694,0.232c0.201,5.048,0.045,7.477-3.769,10.902c0.264,1.129,0.398,1.404,0.861,2.478
		c-0.881,0.771-3.847,0.489-5.839,1.101c-0.528-0.682-0.988-1.268-1.63-1.848l-0.548,0.764c0.293,1.653,0.48,2.335,0.974,3.958
		l-0.614,0.354l-0.706-0.22c-1.148-1.87-1.132-4.413-0.881-6.559c1.888-1.702,2.412,2.106,6.381,1.351l0.479-0.773
		c-0.185-0.442-0.798-1.893-1.141-1.936c-0.854-0.109-0.537-2.997-0.732-3.151c-2.293-1.805-3.52-0.162-5.923-2.354
		C576.077,194.645,579.317,197.237,578.994,192.563z"/>
	<path fill="#609B85" d="M570.303,193.9c-1.128-0.879-1.06-0.801-1.602-2.126c1.737-1.228,5.625,1.737,7.753,1.254
		c0.854-0.193,1.678-0.325,2.54-0.465c0.323,4.674-2.917,2.081-5.183,5.247l-0.29,0.127c-0.971,0.915-1.465,1.593-2.761,1.855
		C569.859,198.331,570.272,195.936,570.303,193.9z"/>
	<path fill="#508D79" d="M570.303,193.9c1.243,2.257,1.276,2.438,3.22,4.037c-0.971,0.915-1.466,1.593-2.761,1.855
		C569.859,198.331,570.272,195.936,570.303,193.9z"/>
	<path fill="#4F8972" d="M576.335,211.452c0.717,2.642-1.083,8.24-4.606,7.24c-1.464-2.013-1.148-5.456-0.151-7.617
		c1.961,0.659,2.05,0.67,4.053,0.157L576.335,211.452z"/>
	
		<linearGradient id="SVGID_2_" gradientUnits="userSpaceOnUse" x1="1117.4883" y1="7.2349" x2="1121.2424" y2="7.7085" gradientTransform="matrix(1 0 0 1 -565.3203 183.0801)">
		<stop  offset="0" style="stop-color:#508771"/>
		<stop  offset="1" style="stop-color:#72A995"/>
	</linearGradient>
	<path fill="url(#SVGID_2_)" d="M553.919,185.477c2.386,1.447,2.878,3.757,2.38,6.307c-0.938,1.249-0.797,1.71-1.11,3.366
		c-0.496,0.549-0.16,0.328-1.111,0.466C552.519,192.726,551.434,188.138,553.919,185.477z"/>
	<path fill="#609B85" d="M562.715,185.015c1.433,1.077,2.175,2.753,3.162,4.378C562.625,188.404,563.153,188.242,562.715,185.015z"
		/>
	<path fill="#FABDA9" d="M769.397,108.055c2.728-0.326,5.268-0.69,8.02-0.731c4.014,0.761,7.8,1.439,11.837,2.045
		c2.36,0.125,4.37,0.665,6.622,1.373l0.333,0.085c8.114,1.988,15.449,8.955,19.773,15.957c3.681,5.961,4.425,12.827,4.67,19.709
		c-1.029,11.015,7.88,18.146,10.542,29.359c0.447,3.046,0.396,4.553,0.345,7.566c7.144-0.383,14.336-0.888,21.48-0.731
		c-2.656,11.091-9.425,23.011-13.903,33.635c-0.921,2.185-2.969,5.451-3.641,7.239c1.933,1.123,3.703,2.223,5.758,3.111
		c1.009,2.209,2.275,4.584,2.688,6.934c2.429,7.385,0.641,14.956-4.544,20.728l-1.919-1.153l0.011-0.479
		c-2.971-0.753-7.472-1.834-10.425-1.963l-5.623-0.07c-2.843,0.229-3.999-0.078-6.466-1.446c-5.934-1.104-36.071-5.076-40.457-2.929
		c-0.937,0.459-1.146,0.746-2.271,0.771c-1.914,0.039-4.114-1.59-6.047-1.965c-3.112-0.605-6.862-0.308-10.057-0.387
		c-22.834-0.566-45.834-0.746-68.618-2.352c0.993-2.271,2.596-3.663,3.79-6.509c-0.024-5.071,1.943-6.701,5.025-10.96
		c2.288-2.759,4.775-5.564,7.122-8.294c0.284-1.054,0.198-0.525-0.088-1.725l-0.807-0.161c-2.17,1.205-3.544,2.825-5.309,4.591
		c-7.442,1.836-7.101,1.518-11.459-4.891c2.843-2.721,8.22-5.535,9.781-8.587c9.322-2.44,10.681,5.948,15.271,4.854
		c0.566-1.895,0.516-0.938-0.02-2.979c-3.67-3.672-5-4.486-9.517-6.486c-2.215,1.423-3.828,3.224-6.264,1.771
		c-0.221-1.175-0.48-1.446,0.251-2.504c3.529-5.097,8.113-3.473,12.114-1.335c0.709-1.973-1.845-43.336-1.809-49.721
		c2.91-0.682,7.862-2.014,10.643-1.527c8.887-3.972,16.642-9.151,24.114-15.359c2.556-3.198,4.807-5.976,7.559-8.999
		c7.839-8.126,8.928-9.524,18.998-14.681C767.389,108.622,768.811,108.233,769.397,108.055z"/>
	<path fill="#F9FAFA" d="M769.397,108.055c2.728-0.326,5.268-0.69,8.02-0.731c4.014,0.761,7.8,1.439,11.837,2.045
		c2.36,0.125,4.37,0.665,6.622,1.373l0.333,0.085c8.114,1.988,15.449,8.955,19.773,15.957c3.681,5.961,4.425,12.827,4.67,19.709
		c-1.029,11.015,7.88,18.146,10.542,29.359c0.083,2.854,0.437,4.498-0.95,6.951c-1.589,0.871-0.814,0.819-2.376,0.403
		c-0.802-1.185-0.662-0.551-0.438-1.961c-4.225,1.146-6.928,3.23-11.832,2.911c-4.022,0.715-7.891,1.128-11.986,1.112
		c-1.206,1.359-3.188,1.688-5.005,2.226c-2.167,0.612-2.238,0.82-3.867,2.5l-4.317-0.301l-0.292-1.524
		c-12.446,2.362-13.977,1.698-26.685,0.969c-5.916,12.55-10.467,26.896-14.928,40.046c-1.162,3.426-2.159,11.542-4.639,13.721
		l-0.814-0.131l-0.52-0.777c1.625-10.513,7.191-22.165,10.709-32.334c2.955-8.541,5.35-16.966,7.915-25.624
		c-3.442-2.905-7.958-5.793-11.627-8.567c-5.313-4.021-10.546-8.081-15.798-12.187c1.279-3.005,2.729-5.848,3.035-9.081
		c-1.962,1.696-3.052,3.943-4.398,6.205l0.212-0.223c-2.64-1.008-8.917-3.435-9.236-6.488c1.021-0.988,1.988-0.965,3.443-1.234
		l0.654-0.114l-0.1-0.453c-2.313-0.207-2.196,0.188-4.655,1.254c-2.535-1.309-5.804-2.368-6.463-5.248
		c8.887-3.971,16.642-9.151,24.114-15.359c2.556-3.197,4.807-5.976,7.559-8.999c7.839-8.126,8.928-9.523,18.998-14.681
		C767.389,108.622,768.811,108.233,769.397,108.055z"/>
	<path fill="#DF7D53" d="M769.397,108.055c2.728-0.326,5.268-0.69,8.02-0.731c4.014,0.761,7.8,1.439,11.837,2.045
		c2.36,0.125,4.37,0.665,6.622,1.373l0.333,0.085c8.114,1.988,15.449,8.955,19.773,15.957c3.681,5.961,4.425,12.827,4.67,19.709
		c-1.029,11.015,7.88,18.146,10.542,29.359c0.083,2.854,0.437,4.498-0.95,6.951c-1.589,0.871-0.814,0.819-2.376,0.403
		c-0.802-1.185-0.662-0.551-0.438-1.961c-4.225,1.146-6.928,3.23-11.832,2.911c-4.022,0.715-7.891,1.128-11.986,1.112
		c6.169-8.196,7.579-12.156,8.938-22.175l-0.006-1.896c-0.382-2.879-9.862-31.876-11.17-33.043
		c-1.887,5.621,4.592,23.823,7.458,29.33c-5.075-2.021-8.71-3.938-13.187-7.023c-1.458,0.521-0.785,0.596-2.077,0.104
		c-7.232-2.698-11.475-2.754-15.96-9.264c-0.208-3.464-0.365-6.381-0.325-9.846c0.405-6.507,0.713-7.452,3.923-13.314
		c-10.294,9.4-18.782,10.583-30.047,17.257c-3.794,2.248-10.054,16.404-14.378,18.803c-1.962,1.696-3.052,3.943-4.398,6.205
		l0.212-0.223c-2.64-1.008-8.917-3.435-9.236-6.488c1.021-0.988,1.989-0.965,3.443-1.234l0.654-0.114l-0.1-0.453
		c-2.313-0.207-2.196,0.188-4.655,1.254c-2.535-1.31-5.804-2.368-6.463-5.248c8.887-3.971,16.642-9.151,24.114-15.359
		c2.556-3.197,4.807-5.976,7.559-8.999c7.839-8.126,8.928-9.523,18.998-14.681C767.389,108.622,768.811,108.233,769.397,108.055z"/>
	<path fill="#D97D4B" d="M777.282,131.459c3.364-3.76,1.713-6.65,4.864-8.459c2.525,0.021,1.538-0.289,3.62,1.311
		c0.64,10.566,1.464,17.152,7.801,26.258c-7.232-2.698-11.476-2.754-15.96-9.264C777.399,137.841,777.242,134.924,777.282,131.459z"
		/>
	<path fill="#D97D4B" d="M789.254,109.368c2.36,0.125,4.37,0.665,6.622,1.373l0.333,0.085c0.722,1.823,2.002,2.251,3.631,3.203
		l0.432,0.874c-2.697,2.033-11.738,1.987-15.263,1.974l-0.467-0.264c0.555-0.537,0.924-1.018,1.317-1.681
		c-1.434-0.575-2.656-0.953-2.632-2.617c1.562-1.328,3.137-1.479,5.108-1.724L789.254,109.368z"/>
	<path fill="#F9FAFA" d="M785.767,124.31l1.484-0.478c2.85,7.074,2.128,18.249,8.394,26.63c-1.458,0.521-0.785,0.596-2.077,0.104
		C787.23,141.463,786.406,134.877,785.767,124.31z"/>
	<path fill="#CB6F49" d="M812.549,163.094c1.963,5.437-1.412,11.888-2.673,17.173c-0.047,0.195,4.79,3.294,5.723,3.891
		c-4.022,0.715-7.891,1.128-11.986,1.112C809.78,177.073,811.19,173.113,812.549,163.094z"/>
	<path fill="#D18C67" d="M740.352,132.541c2.556-3.197,4.807-5.976,7.559-8.999c1.036,2.128,0.988,1.339,0.852,3.517l-0.552,0.871
		c-1.984,1.497-5.786,5.544-6.079,8.015l-0.392,0.079C739.949,135.229,742.282,135.651,740.352,132.541z"/>
	<path fill="#FABDA9" d="M742.131,135.943c0.293-2.471,4.095-6.518,6.079-8.016C746.733,131.77,745.533,133.568,742.131,135.943z"/>
	<path fill="#D18C67" d="M809.668,128.997l1.64,0.459c1.71,1.786,1.829,3.527,2.284,5.972
		C811.682,134.205,810.836,131.385,809.668,128.997z"/>
	<path fill="#F4DFD2" d="M790.13,188.17c2.855-0.804,5.546-0.914,8.478-0.675c-2.167,0.612-2.238,0.82-3.867,2.5l-4.317-0.301
		L790.13,188.17z"/>
	<path fill="#040505" d="M771.65,157.391c1.451,0.797,0.808,0.246,1.667,2.037c-0.328,4.994-5.625,6.075-6.938,9.399
		c-2.025,5.13,5.81,5.729,8.758,3.05c1.539-1.398,2.128-0.752,3.297,0.282c-2.253,1.759-4.003,3.333-7.077,3.122
		c-3.761-0.258-8.163-2.884-7.476-7.235c0.216-1.352,0.846-2.821,1.949-3.69c1.572-0.043,1.744,0.018,3.292-0.451
		C770.401,162.655,770.985,159.415,771.65,157.391z"/>
	<path fill="#4F7771" d="M792.163,156.553c2.817,1.158,4.139,1.506,4.155,4.664c-0.899,1.924-1.094,1.97-2.839,3.302
		c-2.365-0.436-4.831-2.142-4.331-4.951C789.427,157.998,790.922,157.393,792.163,156.553z"/>
	<path fill="#354C4B" d="M755.99,148.739c1.659-0.205,1.824-0.319,3.495,0.039c2.688,2.1,1.623,4.149,0.396,6.86
		C755.75,154.982,753.976,152.659,755.99,148.739z"/>
	<path fill="#4F7771" d="M701.302,201.216c-2.215,1.424-3.827,3.224-6.264,1.771c-0.221-1.175-0.479-1.446,0.251-2.504
		c3.529-5.097,8.113-3.472,12.114-1.335c7.366,6.316,12.521,7.991,2.035,17.273c-2.638,2.334-6.728,7.604-9.076,9.395
		c-1.354,0.844-1.813,1.247-3.398,1.577l-0.663-0.627l0.022-1.875c2.288-2.759,4.776-5.564,7.122-8.294
		c0.284-1.054,0.198-0.525-0.088-1.725l-0.807-0.161c-2.17,1.205-3.544,2.825-5.309,4.59c-7.442,1.837-7.1,1.519-11.459-4.89
		c2.843-2.721,8.22-5.535,9.781-8.587c9.322-2.44,10.681,5.948,15.271,4.854c0.566-1.895,0.517-0.938-0.02-2.979
		C707.147,204.03,705.817,203.216,701.302,201.216z"/>
	<path fill="#FABDA9" d="M685.784,214.413c2.843-2.721,8.22-5.535,9.781-8.587c3.12,2.781,8.497,4.029,9.722,7.668
		c-0.241,1.678-0.659,1.896-1.842,3.104c0.284-1.054,0.198-0.525-0.088-1.725l-0.807-0.161c-2.17,1.205-3.544,2.825-5.309,4.591
		C689.801,221.139,690.144,220.82,685.784,214.413z"/>
	<path fill="#F9FAFA" d="M834.125,227.437c5.603,2.438,6.452,5.669,7.514,11.438c0.608-0.071,1.086-0.329,1.686-0.563
		c0.955-1.444,0.652-2.896,0.6-4.705c2.429,7.385,0.641,14.956-4.544,20.728l-1.919-1.153l0.011-0.479
		c-2.971-0.753-7.472-1.834-10.425-1.963c-1.092-0.237-2.165-0.508-3.249-0.776C822.905,245.671,832.31,231.918,834.125,227.437z"/>
	<path fill="#4F8972" d="M843.923,233.605c2.429,7.385,0.641,14.956-4.544,20.728l-1.919-1.153l0.011-0.479
		c3.104-3.003,3.618-9.665,4.169-13.825c0.607-0.071,1.085-0.329,1.685-0.563C844.278,236.866,843.976,235.414,843.923,233.605z"/>
	<path fill="#F9FAFA" d="M790.422,189.694l4.317,0.301c-9.57,17.907-15.913,35.983-22.865,54.983
		c-0.293,0.8-0.431,0.624-1.232,0.818l-1.125-1.127C768.484,239.946,787.559,196.602,790.422,189.694z"/>
	<path fill="#4F7771" d="M834.125,227.437c-2.562-0.731-6.508-1.654-9.203-1.623c-4.247,0.049-8.201,3.014-12.133,0.538l0.067-0.754
		l0.392-0.205c6.794-3.458,14.95-4.206,22.229-1.832c1.933,1.123,3.704,2.223,5.758,3.111c1.009,2.209,2.275,4.584,2.688,6.934
		c0.054,1.809,0.355,3.261-0.6,4.705c-0.6,0.234-1.076,0.492-1.685,0.563C840.577,233.105,839.727,229.876,834.125,227.437z"/>
	<path fill="#72A496" d="M696.323,224.892l-0.022,1.875l0.663,0.627c1.586-0.33,2.045-0.733,3.398-1.577
		c-1.538,2.115-6.963,8.71-9.064,10.035C691.272,230.78,693.241,229.15,696.323,224.892z"/>
	<path fill="#F4DFD2" d="M814.957,249.219c1.958-1.238,4.26-1.737,6.469-0.927c0.582,1.361,0.409,0.631-0.003,2.374
		C818.58,250.896,817.424,250.589,814.957,249.219z"/>
	<path fill="#D97D4B" d="M530.618,92.716c9.978-19.543,24.478-44.068,48.987-46.104c13.184-1.095,23.551,0.581,33.98,9.179
		c4.681,2.379,10.356,7.724,12.665,12.533c2.745,3.327,7.766,11.772,9.075,15.842c3.658,6.416,4.191,14.416,6.12,21.09
		c2.168,7.506,8.712,20.741,13.204,27.09c3.138,3.429,7.833,7.818,9.938,11.641c-3.254,0.675-5.801,1.221-9.11,1.563
		c-16.144,1.494-31.417,0.939-47.53,1.423c-4.236,0.127-10.792,4.152-15.313,5.01l-1.898,0.635
		c-0.222-1.347-0.664-2.293-1.161-3.554l-0.475,0.509c-0.562,0.606-1.851,2.347-2.302,2.271c-5.21-0.852-4.003-2.209-9.584-0.831
		l-0.946,1.226l-0.95,0.011c-6.597-3.063-12.271-6.139-18.701-9.341c-7.719-1.299-47.314-7.024-49.067-13.863
		c1.255-2.516,11.055-15.616,13.597-19.348c0.648-1.275,1.176-2.004,1.977-3.163C525.706,102.082,528.183,97.272,530.618,92.716z"/>
	<path fill="#F9FAFA" d="M549.001,89.01c10.399-5.743,22.056-19.84,24.543-31.533c0.204-0.962-0.095-0.511,0.782-1.153
		c2.913,1.133,4.625,7.956,6.033,10.756c4.889,9.715,13.104,16.19,23.089,20.157c0.683-0.797,1.354-2.107,1.903-3.055
		c-4.352-6.383-7.437-12.727-8.697-20.471l0.484-0.182c2.282,2.707,2.358,5.313,4.173,8.23c2.461,4.294,4.29,7.255,7.144,11.258
		c1.795,2.518,5.538,7.205,6.807,9.72l6.163,2.796c0.146,0.138,0.291,0.276,0.438,0.414c4.945,4.63,13.076,2.585,14.053,10.505
		c0.846,6.854-4.71,13.149-8.597,18.058c-8.007,10.106-14.577,16.698-26.952,20.895c-0.755,0.256-10.535,3.425-10.717,3.51
		c-15.887,0.123-18.41-1.134-31.537-10.369c-4.587-4.075-9.012-8.559-12.189-13.835c-2.087-6.252-11.633-19.946-6.985-26.906
		C540.073,96.098,547.032,90.629,549.001,89.01z"/>
	<path fill="#DF7D53" d="M605.352,84.181c2.644,2.902,5.047,5.567,7.885,8.278c-3.667-2.223-5.865-3.612-9.788-5.225
		C604.131,86.438,604.802,85.128,605.352,84.181z"/>
	<path fill="#040505" d="M581.406,99.864c1.281,0.37,0.854,0.167,1.904,0.959c0.566,1.499,0.569,1.582,0.49,3.2l-0.21,4.545
		c-4.967,4.961-2.577,7.18,3.25,8.566l0.734,0.17l0.239,0.873l-0.951,0.875c-0.298,0.021-0.595,0.046-0.893,0.068
		c-12.699-0.748-4.986-8.963-4.279-13.827C580.458,102.203,580.382,102.576,581.406,99.864z"/>
	<path fill="#040505" d="M573.363,124.936c1.299,0.886,3.253,5.013,6.334,7.761c5.258-0.749,6.642-1.04,10.249-5.376
		c1.59-0.324,0.896-0.479,2.17,0.353l0.122,1.14c-5.815,5.784-13.731,8.633-19.387-0.393
		C572.044,127.135,572.782,126.157,573.363,124.936z"/>
	<path fill="#040505" d="M605.983,101.562c1.446,0.035,0.748-0.05,2.181,0.812c1.59,2.785,0.374,5.435-1.526,7.667
		c-0.933-0.353-1.082-0.495-1.946-1.007C602.652,105.391,602.774,104.013,605.983,101.562z"/>
	<path fill="#040505" d="M560.228,98.375c4.51,2.022,4.185,4.95,1.193,8.236c-2.148-0.558-2.441-0.89-3.186-2.831
		C558.371,101.438,559.109,100.475,560.228,98.375z"/>
	<path fill="#D18C67" d="M536.394,104.756c0.672-3.422,3.691-17.547,7.885-17.64l0.805,1.813c1.572,0.926,1.539,0.489,3.918,0.081
		c-1.969,1.619-8.928,7.089-10.063,8.793c-4.646,6.96,4.898,20.654,6.985,26.906c-3.077-1.51-2.446-2.052-4.268-4.477
		c-2.417-3.22-5.76,2.679-8.979,2.637c1.29-2.409,7.319-5.025,6.594-7.489c-0.93-3.142-0.853-7.093-3.101-9.357L536.394,104.756z"/>
	<path fill="#D18C67" d="M558.112,138.544c13.127,9.235,15.651,10.492,31.537,10.369l-0.076,0.148l-0.475,0.509
		c-0.562,0.607-1.851,2.347-2.302,2.271c-5.21-0.852-4.003-2.209-9.584-0.83l-0.946,1.225l-0.95,0.011
		c-6.597-3.063-12.271-6.139-18.701-9.341l0.478-0.464c4.835,1.115,13.533,7.302,16.35,7.707c1.288-0.638,1.493-0.627,2.928-0.542
		C572.176,147.909,559.517,143.132,558.112,138.544z"/>
	<path fill="#DF7D53" d="M654.651,132.344c3.138,3.43,7.833,7.819,9.938,11.642c-3.254,0.675-5.801,1.221-9.11,1.563l-2.58-2.563
		c1.375-1.333,0.533-0.859,2.83-1.021C658.819,138.6,654.879,137.049,654.651,132.344z"/>
	<path fill="#DF7D53" d="M530.618,92.716c-0.158,2.494-1.014,5.097-0.493,6.881l1.731,1.835l-0.992,1.117l-0.976,0.548l0.035,1.821
		c-2.323,1.276-0.425-1.678-5.66,1.604l-1.145,0.012C525.706,102.082,528.183,97.272,530.618,92.716z"/>
	<path fill="#D18C67" d="M613.587,55.791c4.681,2.379,10.356,7.724,12.665,12.533c-2.203-2.152-3.852-3.603-6.618-5.042
		C616.148,61.469,615.775,58.915,613.587,55.791z"/>
	<path fill="#CB6F49" d="M597.139,63.529c1.845-0.209,3.845-0.698,5.393,0.136c0.585,1.956-0.967,5.492-1.22,8.097
		C599.498,68.844,599.422,66.236,597.139,63.529z"/>
	<path fill="#D18C67" d="M523.12,106.532l1.144-0.012c5.236-3.28,3.338-0.326,5.661-1.604l-0.036-1.821l0.977-0.548
		c0.311,0.885,0.876,2.326,1.068,3.188c-1.241,0.718-9.514,3.878-10.789,3.96C521.793,108.42,522.319,107.691,523.12,106.532z"/>
	<path fill="#EFF2ED" d="M582.104,54.51c3.444,2.861,9.849,17.506,11.919,21.951C588.474,73.257,584.529,60.775,582.104,54.51z"/>
	<path fill="#F4DFD2" d="M561.948,63.797l0.215,0.253c-0.248,2.439-4.382,6.692-6.104,8.607l-0.139-0.088
		c0.464-1.824,1.026-3.676,1.552-5.488C559.125,65.629,560.087,65.017,561.948,63.797z"/>
	<path fill="#E4AA47" d="M524.164,122.047c2.068,1.136,1.943,0.576,3.084,2.355c-0.863,1.63-0.762,1.167-2.864,2.144l-1.997,0.162
		l-0.448-0.62C522.654,124.594,523.317,123.478,524.164,122.047z"/>
	<path fill="#FABDA9" d="M647.563,136.112c1.483,0.74,4.371,4.695,5.035,6.384C649.813,140.92,648.33,139.211,647.563,136.112z"/>
	<path fill="#FABDA9" d="M545.413,76.481l0.742,0.414c-0.041,1.456-1.162,2.544-2.127,3.937c-0.206-0.121-0.711-0.674-0.907-0.872
		C543.229,78.558,544.405,77.61,545.413,76.481z"/>
	<path fill="#D18C67" d="M636.893,126.188l0.469,0.604c-0.286,1.475-1.334,2.108-2.5,3.158l-0.815-0.657
		C634.311,127.928,635.535,127.357,636.893,126.188z"/>
	<path fill="#D18C67" d="M628.125,131.969c1.569,0.805,2.46,3.615,2.998,5.25C628.574,135.428,628.256,135.087,628.125,131.969z"/>
	<path fill="#DC9F3F" d="M401.723,303.489c-5.688-3.756-11.174-8.229-17.104-11.949c-10.411-6.528-23.094-11.331-34.602-15.701
		c-7.021-2.466-14.256-3.358-21.57-4.848c-24.015-4.885-48.563-6.356-72.93-8.199c-3.567-0.269-9.729,0.521-13.557,0.627
		l-34.323,0.88c-7.57,0.228-15.215,0.094-22.763,0.411c-30.911,1.313-61.655,4.05-92.364,7.794c-7.652,1.019-16.526,1.1-24.01,2.277
		c-13.292,2.093-24.574,5.196-38.16,3.16c-3.565-0.534-14.208,4.969-18.839,2.454c-2.463-1.338-2.758-3.769-1.35-5.663
		c3.104-1.527,32.697-3.675,37.788-4.22c8.002-0.855,15.999-2.505,24.014-3.485c9.233-1.131,18.526-1.646,27.766-2.682
		c3.547-0.398,6.997-1.448,10.528-1.807c2.966-0.3,6.011,0.246,8.99,0.036c6.798-0.479,13.531-2.22,20.306-2.886
		c11.643-1.146,23.77-1.849,35.458-2.243c3.927-0.132,7.876,0.249,11.793,0.03c6.352-0.355,19.981-2.724,25.375-1.499
		c5.004,1.134,9.352-0.585,14.326-0.73c3.206-0.094,6.441,0.41,9.651,0.485c6.518,0.152,14.357-1.2,20.565,0.896
		c2.019,0.684,3.207,1.112,5.316,0.414c7.656-2.533,49.36,3.525,60.255,4.494c2.854,0.264,5.51,0.503,8.348,0.923
		c12.765,2.144,22.918,5.126,34.496,10.999c3.276,1.661,8.305,2.755,11.88,4.423c8.854,4.122,17.988,9.699,25.688,15.718
		c4.617-3.747,14.67-9.611,20.067-12.614c33.164-17.964,77.726-19.091,114.728-19.918c6.633-0.148,14.008-0.273,20.597-0.011
		c4.974-0.462,9.946-0.476,14.911,0.083l4.634,0.408c6.17-1.786,35.543-0.313,43.452-0.302l77.682,0.411
		c12.398,0.075,31.112-0.438,43.356,0.745c7.25-0.239,10.943-0.481,18.131,0.777c0.662,0.156,1.323,0.295,1.987,0.44
		c6.48,1.439,13.878,0.674,20.535,1.095c9.347,0.592,18.577,1.769,27.891,2.564c10.194,0.873,27.699,1.794,37.074,4.239
		c1.406,0.366,2.769,0.69,3.482,2.078c0.627,1.218,0.697,2.434,0.074,3.685c-2.87,5.769-27.501-2.074-33.078-2.89
		c-6.749-0.986-13.83-1.303-20.647-1.788c-23.722-1.69-47.646-3.11-71.438-3.248c-13.567-0.079-27.15,0.945-40.713,0.849
		c-17.153-0.124-34.332-1.241-51.519-1.264c-7.328-0.01-14.651,0.835-22.013,0.828l-56.647-0.153
		c-47.147-0.455-94.915-2.293-136.852,23.501C413.67,296.025,406.531,301.64,401.723,303.489z"/>
	<path fill="#E4AA47" d="M422.767,280.986l-0.181,0.502c-0.857,2.489-0.76,4.947-1.511,6.247c-4.809,2.205-9.664,4.35-14.344,6.818
		c-0.575,0.304-3.341-0.462-4.033-0.953C407.317,289.854,417.37,283.989,422.767,280.986z"/>
	<path fill="#F4CD60" d="M573.003,261.141l4.634,0.408l0.804,0.182l0.278,0.751c-1.089,2.293-0.153,2.969-1.738,5.457
		c-3.096,1.532-4.279-1.701-5.492-4.03L573.003,261.141z"/>
	<path fill="#E4AA47" d="M742.127,262.404c7.25-0.239,10.943-0.481,18.131,0.777c-4.169,3.528-10.399-0.479-15.43-0.236
		C743.655,263.001,743.093,262.993,742.127,262.404z"/>
	<path fill="#F4CD60" d="M322.288,261.539c2.854,0.264,5.51,0.503,8.348,0.923c-2.145,1.087-3.38,2.915-6.026,2.422
		C323.146,263.976,322.985,263.13,322.288,261.539z"/>
	<path fill="#F9D05C" d="M348.651,193.428c6.976-0.949,12.424-0.839,19.476-0.354c1.33,0.146,2.579,0.203,3.855,0.563
		c2.338,0.116,2.6,0.247,4.609-0.755c1.684,0.369,5.274,1.268,6.828,1.388c7.122,0.438,10.212,0.734,17.159-0.42l-2.101,1.233
		l0.019,0.52c6.022,1.103,11.043-3.548,16.535,2.692l2.363,1.617c3.268,2.979,7.813,6.927,10.611,10.189
		c1.37,1.374,1.783,1.764,2.856,3.35c0.919,1.357,2.403,3.401,3.179,4.759c2.85,4.288,5.517,8.281,7.625,12.997
		c3.986,6.95,5.672,8.057,8.233,16.008c0.588,0.905,1.045,1.753,1.796,2.508c-5.246-0.021-10.832,6.214-17.368,5.12
		c-1.286,0.692-2.53,1.442-3.887,1.949c-4.334-0.332-4.285-2.22-8.321-0.552l-2.499,0.486l-1.756-0.498
		c-2.721,1-5.696,0.954-8.629,0.968c-1.504-0.736-3.021-1.75-4.535-1.667c-0.64,2.062-0.571,2.087-2.986,2.017
		c-0.925,1.002-0.81,1.022-1.067,2.396c-1.161,1.171-1.289,1.548-1.914,3.011l-0.466-0.093c0.644-2.279,0.804-1.299,0.073-3.1
		l-1.298-0.548l-0.91,0.74c0.063,1.986-0.056,2.107-1.139,3.716c-1.452,0.56-2.556,1.062-4.103,1.315l-1.543-1.271l-0.22,0.033
		c-2.079-2.505-4.552-4.201-7.333-5.876c-2.667-0.722-3.233-0.927-5.967-0.813c-5.053-1.767-7.992-2.16-11.489-6.073
		c-5.528-1.55-9.487-3.156-15.042-1.822l-2.484-2.659c-1.195-0.552-13.403-3.267-15.894-3.94c-3.416,0.521-1.85,1.229-3.808,2.462
		c-3.297-0.801-10.495-1.941-13.856-2.343c-2.205-0.479-4.94-0.264-7.251-0.207c1.926-7.666,7.622-13.285,12.723-19.154
		c5.584-4.837,9.973-11.154,15.489-16.233C339.118,202.575,343.364,197.596,348.651,193.428z"/>
	<path fill="#F4CD60" d="M393.882,214.544c2.994-2.1,10.364,0.185,13.668,1.011l0.481-0.327c-0.843-1.436-1.994-2.95-1.71-4.515
		c1.429-0.878,1.11-0.588,3.064-0.601c2.107,1.157,2.607,1.356,4.332,2.957l-0.214,0.465c-1.808-0.354-2.306-0.88-3.79-1.938
		c-1.802-0.047-1.157-0.383-2.252,0.517c0.756,3.278,6.067,2.098,8.971,4.485c2.541,0.867,6.388,2.146,8.553,3.632
		c-0.102,0.9-0.142,0.974-0.373,1.848c0.508,1.723,0.407,1.781,1.767,3.049c2.722,0.613,7.77,2.438,10.114,1.739
		c-1.07-3.1-2.241-5.313-2.45-8.655c2.85,4.288,5.517,8.281,7.625,12.997c3.986,6.95,5.672,8.057,8.233,16.009
		c0.588,0.904,1.045,1.753,1.796,2.507c-5.246-0.021-10.832,6.214-17.368,5.121c-1.286,0.691-2.53,1.441-3.887,1.948
		c-4.334-0.332-4.285-2.22-8.321-0.552l-2.499,0.486l-1.756-0.498c-1.38-2.407-2.896-3.825-4.782-5.84l0.126-0.641
		c-2.171,0.74-4.65,0.67-6.813-0.179c-1.226-1.302-1.034-0.587-1.003-2.076c1.342-0.688,1.066-0.443,2.162-1.419l-0.689-0.722
		c-1.081,0.567-1.235,0.563-2.438,0.858c-1.196-0.655-2.331-1.177-3.322-2.105l0.228-0.765l2.206-0.504l-1.063-0.617
		c-1.544-0.428-1.87-0.206-2.62-1.216c0.263-1.579,0.47-2.433,0.887-3.988c-0.188-0.313-0.426-0.79-0.831-1.069
		c-3.519-2.424-8.123-3.591-11.93-5.543c-1.098,0.166-1.986,0.3-2.669,0.404l-0.902-0.083c-0.498-0.973-0.323-0.574-0.726-1.583
		l-0.277-0.707l-1.795-0.766c-5.028-1.044-5.992-1.425-11.189-1.883l-0.752-0.727c-1.343,0.196-1.824,0.229-3.16,0.003
		c-2.854-2.269-3.386-0.479-6.11-1.945l-1.354-3.19l-0.754-0.319c-0.947-2.528-1.195-2.104-3.786-3.396
		c3.293-0.504,7.318-0.902,10.627-0.52c0.49-0.572,2.282-1.076,3.122-1.385c1.128-1.307,0.998-1.422,1.171-3.11
		c4.826-0.008,19.065,3.983,23.691,2.414L393.882,214.544z"/>
	<path fill="#F9E18A" d="M393.882,214.544c2.994-2.1,10.364,0.185,13.668,1.011l0.481-0.327c-0.843-1.436-1.994-2.95-1.71-4.515
		c1.429-0.878,1.11-0.588,3.064-0.601c2.107,1.157,2.607,1.356,4.332,2.957l-0.214,0.465c-1.808-0.354-2.306-0.88-3.79-1.938
		c-1.802-0.047-1.157-0.383-2.252,0.517c0.756,3.278,6.067,2.098,8.971,4.485c2.541,0.867,6.388,2.146,8.553,3.632
		c-0.102,0.9-0.142,0.974-0.373,1.848c0.508,1.723,0.407,1.781,1.767,3.049c2.722,0.613,7.77,2.438,10.114,1.739
		c-1.07-3.1-2.241-5.313-2.45-8.655c2.85,4.288,5.517,8.281,7.625,12.997c-1.265,1.036-1.607,1.375-2.678,2.524
		c-1.75-1.035-2.988-2.496-4.917-2.748c-6.033,2.248-10.358-3.223-12.655-0.758c-0.231,1.475-0.379,1.715-0.245,3.202
		c1.31,1.427,23.295,13.314,25.467,13.961l-1.277,1.145c-0.375,0.071-0.752,0.142-1.127,0.212
		c-10.142-5.949-21.089-10.558-31.246-16.502c-0.971-0.568-1.028-1.41-1.156-1.954c5.909-0.965,2.579-3.532,7.754-5.463
		C418.155,221.735,398.5,217.766,393.882,214.544z"/>
	<path fill="#F4CD60" d="M417.518,222.001c-1.426-1.007-7.517-4.793-7.915-5.183l0.124-0.584c2.202-0.273,3.762,0.438,5.915,1.1
		l0.791-0.735c2.54,0.867,6.388,2.146,8.553,3.632c-0.102,0.9-0.142,0.974-0.373,1.848
		C422.566,221.952,419.639,222.021,417.518,222.001z"/>
	<path fill="#F9E18A" d="M382.853,218.782l1.352-1.175c3.55,0.422,4.271,2.674,6.324,2.555l0.36,0.766
		c-0.517,0.902-0.702,1.194-1.342,2.016c0.666,1.43,1.305,1.943,2.385,3.066c-1.739,0.193-3.097-1.012-4.979-1.05
		c-3.323-0.065-3.68-2.485-5.754-4.438L382.853,218.782z"/>
	<path fill="#F9E18A" d="M365.132,215.694c1.816,0.641,8.305-0.888,12.464,1.025l-1.703,2.069
		c-4.156-2.313-10.279-1.336-14.786-0.609c-0.66,0.623-1.343,1.192-2.063,1.749l-0.754-0.319c-0.948-2.528-1.196-2.104-3.786-3.396
		C357.798,215.71,361.824,215.311,365.132,215.694z"/>
	<path fill="#F9E18A" d="M413.084,250.389c5.411-0.344,2.239,0.083,5.923,2.983c1.616,1.021,2.148,1.191,3.114,2.867l-2.499,0.486
		l-1.756-0.498C416.487,253.821,414.97,252.403,413.084,250.389z"/>
	<path fill="#F9D874" d="M377.595,216.719c1.683,1.403,2.982,1.9,5.259,2.063l-1.652,1.738c-1.626-0.67-3.605-1.207-5.308-1.731
		L377.595,216.719z"/>
	<path fill="#F9E18A" d="M403.629,225.505c2.936,1.055,7.173,5.974,5.713,8.638c-1.965-0.437-1.827-0.821-3.573-2.406
		c-1.379-1.547-5.688-1.035-8.558-3.375l0.103-0.774C399.206,226.269,401.332,226.024,403.629,225.505z"/>
	<path fill="#F9E18A" d="M422.021,246.432c3.967,1.29,4.831,1.263,7.239,4.684c3.475-0.705,2.688-4.49,7.828,1.641l0.063,0.776
		c-0.85,0.168-2.446,0.422-3.184,0.716c-2.032,0.534-3.234,0.213-5.091-0.609c-0.896-0.499-5.706-4.153-7.167-5.158
		C421.707,248.173,421.961,246.788,422.021,246.432z"/>
	<path fill="#F9E18A" d="M420.824,248.597c-2.832-1.707-3.362,0.167-4.459-0.669c-1.9-1.443-7.773-4.445-8.291-6.659
		c0.352-0.085,0.704-0.169,1.056-0.254c3.739,2.048,8.148,3.831,12.125,5.165l0.768,0.252c-0.061,0.355-0.314,1.74-0.312,2.048
		L420.824,248.597z"/>
	<path fill="#F9D874" d="M422.169,240.588c1.227,0.189,8.862,3.167,10.161,3.765l0.577,1.684c-2.356-0.141-7.134-1.798-9.368-2.887
		C422.206,242.497,422.32,241.713,422.169,240.588z"/>
	<path fill="#F9D874" d="M400.973,235.868c4.357,0.283,6.545-0.459,9.401,2.441C407.734,239.101,402.708,237.798,400.973,235.868z"
		/>
	<path fill="#F9D05C" d="M380.9,257.277l3.076-0.952c2.897-4.813,1.677-1.099,5.281-1.261c1.696-2.094,3.361-2.362,5.607-4.583
		l-0.202-1.134c0.436,0.667,0.396,0.33,0.264,0.981l-0.946-1.313c-1.392-0.39-4.983-0.711-6.583-0.9l-0.345-0.64
		c1.465-2.868,1.657-2.611,1.493-5.714l0.891-0.74c3.602-0.698,9.139,0.744,13.038,1.198l1.063,0.617l-2.206,0.504l-0.228,0.765
		c0.99,0.93,2.126,1.45,3.321,2.105c1.203-0.296,1.357-0.291,2.438-0.858l0.688,0.722c-1.095,0.975-0.819,0.729-2.161,1.419
		c-0.031,1.489-0.223,0.774,1.003,2.076c2.163,0.849,4.644,0.919,6.813,0.179l-0.126,0.641c1.886,2.015,3.402,3.433,4.782,5.84
		c-2.721,1-5.696,0.954-8.629,0.968c-1.504-0.736-3.021-1.75-4.535-1.667c-0.64,2.063-0.571,2.087-2.986,2.017
		c-0.925,1.003-0.81,1.022-1.067,2.396c-1.161,1.171-1.289,1.548-1.914,3.011l-0.466-0.093c0.644-2.279,0.804-1.299,0.073-3.1
		l-1.298-0.548l-0.91,0.74c0.063,1.986-0.056,2.107-1.139,3.716c-1.452,0.56-2.556,1.062-4.103,1.315l-1.543-1.271l-0.22,0.033
		c-2.079-2.505-4.552-4.201-7.333-5.876L380.9,257.277z"/>
	<path fill="#F4CD60" d="M389.35,263.713c0.868-3.376-0.603-3.927-0.07-6.445c1.684-0.043,4.446,1.4,7.226,1.86l0.539,0.084
		l-0.91,0.74c0.063,1.986-0.056,2.107-1.139,3.716c-1.452,0.56-2.556,1.062-4.103,1.315L389.35,263.713z"/>
	<path fill="#F9D874" d="M385.311,230.809c0.683-0.104,1.57-0.238,2.669-0.404c3.807,1.952,8.411,3.119,11.93,5.543
		c0.405,0.279,0.644,0.757,0.831,1.069c-0.417,1.557-0.624,2.409-0.887,3.988c0.75,1.01,1.075,0.788,2.62,1.216
		c-3.899-0.454-9.438-1.896-13.038-1.198l-0.891,0.74c0.164,3.103-0.028,2.846-1.493,5.714l0.345,0.64
		c1.6,0.189,5.191,0.512,6.583,0.9l0.946,1.313c0.132-0.651,0.171-0.314-0.264-0.981l0.202,1.134
		c-2.246,2.221-3.911,2.489-5.607,4.583c-3.604,0.162-2.384-3.552-5.281,1.261l-3.076,0.952l0.897,0.593
		c-2.667-0.722-3.233-0.927-5.967-0.813c-5.053-1.767-7.992-2.16-11.489-6.073c-5.528-1.55-9.487-3.156-15.042-1.822l-2.484-2.659
		c1.493-1.059,1.929-0.668,4.039-1.798c0.432-2.02-2.485-2.157-3.898-5.057l0.532-0.448c2.825,0.097,9.324,4.378,10.811,6.897
		c0.671,1.135,0.127,1.645,1.832,2.259l1.13-0.813l1.858,1.669c1.472,0.186,0.816,0.336,2.044-0.415
		c-0.336-1.902-1.936-2.384-3.245-4.303c0.851-2.162,3.609-3.51,5.861-2.964c0.979,1.179,1.881,2.104,2.521,3.497
		c-1.065,2.712-2.42,1.638-3.448,3.954l0.783,0.733c2.863,0.722,15.238,4.561,16.652,4.07l0.184-1.229
		c-1.255-2.459-1.001-2.372-0.032-4.936l0.229-0.593c-1.947-1.152-4.411-2.068-4.589-4.411c1.792-1.962,4.873-1.842,7.292-1.904
		c0.841-1.218,1.315-1.821,2.244-2.925c2.419-0.368,0.729,1.093,3.499,1.563l1.157-0.972c0.175-3.309-6.259-5.437-9.146-5.629
		L385.311,230.809z"/>
	<path fill="#E4AA47" d="M364.342,250.982c4.234-0.355,11.013,1.892,14.071,4.765c0.523,0.491,1.829,1.242,2.486,1.53l0.897,0.593
		c-2.667-0.722-3.233-0.927-5.967-0.813C370.779,255.29,367.839,254.896,364.342,250.982z"/>
	<path fill="#E4AA47" d="M318.729,223.317l-0.005,3.396c-0.685,1.775-1.313,2.826-1.006,4.686c1.475,2.376,3.841,2.551,6.282,1.448
		c-0.093,2.474-0.239,1.823-2.47,4.211c-3.938,1.092-5.749-1.604-8.321-1.209c-0.733,2.139,0.214,3.263,0.977,5.3
		c2.46-1.081,5.099-0.737,7.523,0.333l0.659-0.344c2.662,0.688,5.961,1.07,8.715,1.077l-0.162,0.345
		c-3.416,0.521-1.85,1.229-3.808,2.462c-3.297-0.801-10.495-1.941-13.856-2.344c-2.205-0.479-4.94-0.263-7.251-0.206
		C307.932,234.806,313.629,229.187,318.729,223.317z"/>
	<path fill="#F9E18A" d="M366.509,225.064c1.335,0.227,1.817,0.193,3.16-0.003l0.752,0.727c5.197,0.458,6.161,0.839,11.189,1.883
		l1.795,0.766l0.277,0.707c0.401,1.009,0.228,0.61,0.726,1.583l0.902,0.083l-0.187,1.939l-0.509,0.447
		c-0.703,3.65-7.092,0.752-9.113-0.443c-1.423-0.692-1.938-1.404-3.02-2.543c-1.775,0.065-4.882-2.436-9.407-2.58
		C363.818,225.385,364.506,225.602,366.509,225.064z"/>
	<path fill="#F4CD60" d="M372.484,230.21c0.494-1.751,0.057-0.977,1.54-2.286l2.399,1.827l-0.921,3.002
		C374.081,232.06,373.564,231.348,372.484,230.21z"/>
	<path fill="#F4CD60" d="M417.396,199.912c3.268,2.979,7.813,6.927,10.611,10.189c1.37,1.374,1.783,1.764,2.856,3.35
		c-1.771-0.049-1.92,0.514-3.727-0.114c-0.98-1.104-0.649-1.054-1.852-1.557c-1.472,1.43-2.532,2.862-4.519,3.041
		c-1.512-0.558-1.394-0.541-2.296-1.897c1.192-0.881,2.077-1.557,2.467-2.979l-0.617-0.938c-2.043-0.981-2.557-0.879-4.896-1.024
		c2.24-2.511,1.724-2.272,1.527-5.759L417.396,199.912z"/>
	<path fill="#E4AA47" d="M417.396,199.912c3.268,2.979,7.813,6.927,10.611,10.189c-2.972-0.993-3.893-0.117-6.209-0.883
		c-1.392-4.268-0.563-4.663-4.844-6.996L417.396,199.912z"/>
	<path fill="#F1DEBB" d="M383.42,194.269c7.122,0.438,10.212,0.734,17.159-0.42l-2.101,1.233l0.019,0.52
		c6.022,1.103,11.043-3.548,16.535,2.692c-9.467-2.477-13.909-1.545-23.631-1.358C387.9,197.002,385.831,196.66,383.42,194.269z"/>
	<path fill="#F9D874" d="M328.062,225.944c-0.47-0.197-1.304-0.69-1.776-0.951l-0.113-0.642c2.75-2.14,6.794,0.371,9.491-0.947
		c1.111-4.513,4.555-0.122,8.745-1.594c1.372,1.347,2.388,1.551,3.562,2.801c-5.592-1.575-6.898,1.235-10.977,0.319l-1.577,0.747
		C333.122,225.903,330.902,225.602,328.062,225.944z"/>
	<path fill="#F9E18A" d="M369.424,211.199l-0.654-0.817c1.171-1.458,5.765-0.103,7.376,0.334c5.924,1.606,11.546-1.027,16.972,2.897
		C388.491,215.183,374.251,211.191,369.424,211.199z"/>
	<path fill="#F9D874" d="M353.43,222.714l0.426-0.114c1.924,0.789,4.401,0.587,6.543,0.521c2.726,1.468,3.257-0.322,6.11,1.945
		c-2.003,0.537-2.69,0.321-3.433,2.564l-1.423-0.103c-5.412-3.548-7.479-2.333-13.685-2.916c1.463-0.477,3.261-0.321,5.026-0.763
		L353.43,222.714z"/>
	<path fill="#F9D874" d="M418.473,212.924c-0.202-0.597-0.449-1.323-0.74-2.185c-3.257-1.739-7.877-1.588-9.701-4.944l0.298-0.963
		c1.867-0.033,5.01,2.076,7.099,3.149c2.339,0.146,2.853,0.043,4.896,1.024l0.617,0.938
		C420.551,211.367,419.667,212.043,418.473,212.924z"/>
	<path fill="#F4CD60" d="M328.062,225.944c2.84-0.343,5.06-0.041,7.354-0.267c0.721,2.539,1.227,1.26,2.171,4.181l-0.502,0.476
		c-2.52-0.841-2.179-0.895-4.297,0.455c-1.489-0.039-0.785,0.142-2.051-0.845c-0.114-1.554-0.021-2.021-0.709-3.415L328.062,225.944
		z"/>
	<path fill="#F9E18A" d="M368.126,193.074c1.33,0.146,2.579,0.203,3.855,0.563c-1.294,1.518-1.142,0.732-1.076,2.296
		c0.989,0.442,1.918,0.735,2.968,1.001l-0.133,0.884c-2.125,1.213-7.316,0.793-8.141-2.088l2.258-0.995L368.126,193.074z"/>
	<path fill="#E4AA47" d="M353.855,222.599c-0.296-1.371-0.31-1.302-0.138-2.687l0.729-0.496c1.704,0.441,2.063,0.631,3.844,0.191
		l0.754,0.318l1.354,3.191C358.257,223.186,355.779,223.388,353.855,222.599z"/>
	<path fill="#F9D874" d="M322.37,241.138c2.568-2.249,5.641-1.729,8.667-0.563l0.642,0.897l-0.594,0.741
		C328.331,242.209,325.032,241.826,322.37,241.138z"/>
	<path fill="#F9E18A" d="M344.409,221.811c1.882-0.521,7.171,0.271,9.021,0.902l-0.434,1.136c-1.767,0.44-3.563,0.286-5.026,0.763
		C346.796,223.361,345.781,223.157,344.409,221.811z"/>
	<path fill="#F9D874" d="M346.152,229.251c2.516-1.333,6.074,0.838,9.834-0.107l0.592,0.289l0.351,0.305
		c1.521,1.301,3.701,2.322,4.271,3.567c-1.713,1.385-2.576,0.008-3.46,1.064c1.077,1.29,1.557,1.376,3.073,2.045l0.125,0.824
		c-4.803,3.221-6.688-5.92-11.875-4.172c-0.024,1.464,0.371,1.871,0.988,3.304l-0.657,0.541c-1.367-0.352-1.365-0.412-2.595-1.149
		c-2.814-2.339,0.697-0.356-1.066-3.429c-2.29-0.516-1.714,1.089-6.169-0.099l2.084-0.251
		C343.506,230.278,343.768,230.019,346.152,229.251z"/>
	<path fill="#F4CD60" d="M346.152,229.251c2.516-1.333,6.074,0.838,9.834-0.107l0.592,0.289l-0.671,0.995
		C352.966,231.393,348.369,231.848,346.152,229.251z"/>
	<path fill="#F9D874" d="M388.521,207.726c0.502-1.681-0.018-1.752-1.224-2.752c-0.313,0.054-0.627,0.106-0.938,0.163
		c-5.006,2.192-15.71-3.479-21.54-1.559c-0.753,1.069-0.506,0.798-1.505,1.7c-1.039-0.664-1.596-1.329-2.442-2.207l0.484-0.72
		c2.733-0.439,11.524-0.813,14.701-0.687c1.063,0.042-0.446,1.036,2.103,2.008c0.654-0.531,0.94-0.79,1.555-1.4l0.551-0.553
		l0.907,0.081c1.814,1.865,1.805,2.045,4.025,2.288c1.779-1.003,2.079-1.552,3.937-0.953c0.676,1.356,0.577,1.546,1.844,2.271
		c2.04-0.6,2.324-0.841,4.237-0.219l-0.371,0.692l-0.718-0.208l-0.377,0.505l-1.096-0.341l-0.151,0.159l-0.028,0.002l1.179-0.074
		l0.186,0.833l-1.05,0.436l-0.039,0.308C391.397,207.255,389.912,207.556,388.521,207.726z"/>
	<path fill="#F9E18A" d="M339.564,232.234c4.455,1.188,3.879-0.417,6.169,0.099c1.765,3.071-1.748,1.09,1.066,3.429l-0.791,1.061
		c-3.645,2.553-9.553-0.623-13.026-1.076c-1.155,1.087-1.096,1.067-2.519,1.748c-1.837-0.204-1.22,0.2-2.42-0.748
		c1.126-1.402,0.453-0.779,2.611-1.438c0.406-1.146-0.002-1.258-0.688-2.775l0.485-0.459c0.873,0.333,1.532,0.697,2.338,1.161
		C335.21,232.945,337.399,233.262,339.564,232.234z"/>
	<path fill="#F4CD60" d="M339.564,232.234c4.455,1.188,3.879-0.417,6.169,0.099c1.765,3.071-1.748,1.09,1.066,3.429l-0.791,1.061
		c-1.854-1.086-5.645-0.858-8.074-1.596c-2.06-0.626-3.186-1.111-5.145-1.993C335.21,232.945,337.399,233.262,339.564,232.234z"/>
	<path fill="#F9E18A" d="M349.34,194.51c1.41,0.649,1.318,0.673,2.367,1.854c0.014,1.773-0.035,1.719,0.526,3.381
		c1.429,1.242,3.554,1.219,5.681,1.695l0.458,0.783c-0.546,1.508-1.737,2.041-3.113,2.986c-0.483-0.415-1.471-2.271-2.464-3.298
		c-1.007,0.604-0.804,0.614-1.389,1.65l-0.736-0.415C348.769,200.452,349.2,197.743,349.34,194.51z"/>
	<path fill="#F9E18A" d="M343.728,209.195c2.758-2.24,10.111-2.93,12.597-0.778l-0.238,0.688c-4.005,0.898-9.935-0.686-12.534,1.013
		c-1.544,0.719-4.813,0.244-6.01-1.326l0.354-0.838C340.22,207.153,341.788,207.934,343.728,209.195z"/>
	<path fill="#F9D874" d="M360.118,205.756c0.71-0.01,1.313,0.139,2.029,0.254c0.148,1.531-1.313,2.331-2.376,4.646l0.431,0.681
		l1.383,0.276c0.458-0.619,0.898-1.231,1.343-1.859l2.376,0.374c-1.254,3.387-3.544,4.601-6.826,2.46
		c-1-1.771-0.734-0.824-0.667-2.979C359.212,208.044,359.488,207.745,360.118,205.756z"/>
	<path fill="#F9E18A" d="M388.521,207.726c1.391-0.17,2.876-0.472,4.228-0.227c3.771,1.858,5.451,0.136,7.274,1.098
		c-2.156,2.983-9.125,1.068-12.259,0.245l-0.36-0.635L388.521,207.726z"/>
	<path fill="#F9E18A" d="M395.215,205.188c0.308-1.379,0.69-2.28,1.171-3.602c1.713-0.845,1.789-0.333,4.304,0.18l0.307,1.135
		c-1.677,0.983-3.796,3.295-5.156,3.491l-0.995-0.513L395.215,205.188z"/>
	<path fill="#F9E18A" d="M400.689,201.767c1.833,0.149,3.581,0.028,4.891,1.2l-0.172,0.555c-1.827,0.455-2.617-0.021-4.412-0.62
		L400.689,201.767z"/>
	<path fill="#FABDA9" d="M245.455,83.15c2.137,1.29,2.277,7.347,2.522,9.746c-8.896,5.796-20.229,9.295-29.938,13.575
		l-33.383,14.788c-4.328,1.921-27.202,12.599-30.346,11.558c-21.21-7.021-42.266-15.271-63.218-23.14
		c-9.275-3.484-21.413-6.019-29.999-10.107c-0.406-2.559-0.861-2.694-0.035-4.701c1.993-1.245,5.847-0.956,8.451-1.038
		c-0.465-1.981-1.7-6.301-1.128-7.964c7.174-0.326,46.474,21.298,56.369,25.036c11.86,4.479,19.18,6.803,31.839,9.897
		c16.517-3.809,34.999-13.129,50.438-19.987C220.416,94.863,232.498,90.224,245.455,83.15z"/>
	<path fill="#508D79" d="M210.328,10c9.432,11.483,10.725,12.965,15.129,27.764c-3.328,3.756-0.572,2.527-2.448,6.252
		c-4.99-3.158-8.841-6.305-13.204-10.254l-3.823-3.989c-2.087-2.143-3.702-3.97-5.643-6.242
		c-7.092,5.45-15.553,10.807-24.357,12.934l-0.944,0.365c-3.956,0.789-9.293,2.827-13.08,3.556
		c-9.021,1.734-21.194,4.353-30.24,4.271c-3.839,12.202-5.818,30.881-2.075,43.122c3.282,10.731,5.95,15.187,4.675,27.073
		c-2.311-7.467-5.678-22.721-8.477-28.646c-1.514-0.64-2.178-0.644-3.777-0.845c-6.151-4.939,1.808-9.126,1.904-10.779
		c2.035-34.722-0.481-48.979,38.915-55.342c7.424-2.016,18.065-3.313,25.827-4.366c3.079,0.081,8.014-1.519,11.382-2.265
		C203.277,11.751,207.156,10.602,210.328,10z"/>
	<path fill="#508D79" d="M210.328,10c9.432,11.483,10.725,12.965,15.129,27.764c-3.328,3.756-0.572,2.527-2.448,6.252
		c-4.99-3.158-8.841-6.305-13.204-10.254l-3.823-3.989c-2.087-2.143-3.702-3.97-5.643-6.242
		c-7.092,5.45-15.553,10.807-24.357,12.934l-0.69-0.367c1.789-4.089,5.058-5.087,5.918-7.413c-0.837-1.232-0.717-0.744-0.972-2.097
		c1.196-0.563,2.092-1.165,3.199-1.864c0.256-1.063-0.095-1.113,0.191-2.472c2.619-2.219,4.611-2.429,8.004-3.258
		c0.979,0.604,0.946,0.625,2.05,0.894c2.854-1.909,4.651-4.354,6.41-7.277C203.277,11.751,207.156,10.602,210.328,10z"/>
	<path fill="#72A496" d="M205.982,29.771c2.369-1.171,1.9-1.414,4.004-1.061c1.295,1.818,0.596,3.107-0.181,5.049L205.982,29.771z"
		/>
	<path fill="#72A496" d="M188.709,14.872c3.079,0.081,8.014-1.519,11.382-2.265c-1.759,2.923-3.556,5.368-6.41,7.277
		c-1.104-0.269-1.071-0.291-2.05-0.894c-3.393,0.829-5.385,1.039-8.004,3.258c-0.286,1.357,0.065,1.407-0.191,2.472
		c-2.777-0.311-3.286-0.359-6.024,0.1c0.504-0.627,0.967-1.215,1.459-1.855c-2.106-5.387-10.602-3.315-15.989-3.727
		C170.307,17.223,180.948,15.925,188.709,14.872z"/>
	<path fill="#4D8872" d="M188.709,14.872c3.079,0.081,8.014-1.519,11.382-2.265c-1.759,2.923-3.556,5.368-6.41,7.277
		c-1.104-0.269-1.071-0.291-2.05-0.894l0.576-0.342l-0.367-0.581c-2.787-0.011-3.999,0.436-6.586,1.502l-0.051-1.24
		C187.071,16.982,187.313,16.711,188.709,14.872z"/>
	<path fill="#609B85" d="M177.413,24.82c2.738-0.459,3.247-0.409,6.024-0.1c-1.107,0.699-2.003,1.303-3.199,1.864
		c0.255,1.353,0.135,0.863,0.972,2.097c-0.86,2.326-4.129,3.324-5.918,7.413l0.69,0.367l-0.944,0.365
		c-4.213-1.019-3.735-5.014-7.143-5.694c-9.08-1.813-7.532,4.955-10.811,6.773c-1.35-0.725-1.103-0.694-2.147-1.934l0.099-0.781
		c4.169-1.797,0.199-0.575,3.752-4.241l-1.805,0.324c-0.608-0.857-0.317-0.643-0.25-2.16c1.28-0.494,1.182-0.499,2.526-0.245
		l0.249,1.595c1.569,0.229,0.873,0.382,2.178-0.357c0.512-1.458,0.695-2.547,1.867-3.507c-0.122,1.513-0.196,1.754,0.035,3.292
		l1.071,0.05c1-1.751-0.131-1.423,0.567-3.863c1.131,0.725,0.669,0.536,2.013,0.707c2.261-2.001,2.199-2.044,4.983-2.017
		c1.349,0.943-1.182,5.224-0.08,8.507c1.442,0.752,0.681,0.601,2.382,0.345l0.347-0.887l-0.805-0.463l-0.892-0.495l0.239-0.868
		c1.641,0.058,1.795,0.102,3.473-0.216C178.771,28.799,179.077,26.959,177.413,24.82z"/>
	<path fill="#508D79" d="M337.74,143.731c2.817-6.627,3.854-6.78,10.495-5.538l0.663-0.496c-0.501-3.032,7.802-17.216,9.492-20.365
		c15.327-28.558,75.821-20.21,79.051,13.894c0.408,4.306,2.415,7.968-0.133,11.878l0.502,1.8l-0.604,0.332
		c-2.227-0.897-7.533-10.352-10.247-13.788c-5.493-4.807-7.859-11.45-12.164-15.604c-0.269,3.778-2.248,6.967-5.2,9.263
		c-9.734,7.572-15.813,9.08-27.554,8.438c7.309-2.94,14.292-7.065,19.447-13.151l3.555-4.214c1.355-2.05,5.822-8.514,3.287-10.438
		c-0.506,0.071-1.013,0.141-1.519,0.212c-1.443,2.431-3.89,7.178-5.576,9.126c-12.34,14.248-26.063,16.535-43.199,18.472
		c9.345-5.063,27.335-13.286,32.513-22.411c-0.756-1.479-0.729-1.366-2.098-2.343c-1.975,1.03-4.679,3.319-5.014,3.479
		c-1.526,2.412-2.743,3.71-5.301,5.135l-5.328,3.493c-0.697,0.502-2.158,1.624-2.823,2.016c-7.021,4.702-10.954,9.627-18.479,11.683
		c-0.082,4.973-0.198,6.897-1.738,11.796c-1.843-2.056-4.606-6.284-7.406-3.806c-1.242,3.939,1.142,8.584,4.152,11.125
		c-0.994,4.459-1.954,0.464-1.979,3.569C340.43,155.723,338.71,147.579,337.74,143.731z"/>
	<path fill="#72A496" d="M414.796,115.844l0.048-1.864l0.479,0.776c0.668,1.077,1.155,1.677,1.946,2.661l0.557-0.166l-0.244-0.879
		c-0.274-1.021-0.231-0.617-0.261-1.303c1.063,1.132,1.091,1.919,1.446,3.435c3.014,2.56,4.506-0.365,8.039,0.587
		c2.291,2.557,1.265,6.241,0.609,9.404c1.046,0.577,1.226,0.635,2.367,1.005c-0.731,1.405-1.018,1.209-2.822,1.946
		C421.467,126.64,419.1,119.996,414.796,115.844z"/>
	<path fill="#72A496" d="M370.274,118.029c-0.084-2.486,5.271-6.965,7.874-7.604c-0.771,1.467-2.999,0.766-2.229,3.439
		c3.244,1.139,3.882-0.682,7.52-1.592c-1.526,2.412-2.743,3.71-5.3,5.135l-5.329,3.493c-2.6-1.021-0.999,0.711-3.991-0.854
		l1.692-1.572L370.274,118.029z"/>
	<path fill="#609B85" d="M370.274,118.029c2.146-1.306,3.707-2.766,5.899-2.895c1.231,0.995,1.195,0.905,1.966,2.273l-5.329,3.493
		c-2.6-1.021-0.999,0.711-3.991-0.854l1.692-1.572L370.274,118.029z"/>
	<path fill="#EFF2ED" d="M388.453,108.795c1.716-1.246,2.174-1.91,3.465-3.624l0.829-0.32c1.3,0.953,1.21,0.879,1.831,2.376
		c-0.804,1.957-2.125,2.443-4.027,3.911C389.794,109.657,389.821,109.771,388.453,108.795z"/>
	<path fill="#72A496" d="M405.044,116.178c1.297,1.474,2.895,2.697,3.059,4.281c0.168-0.004-2.907-0.863-3.443-0.956l-1.061,2.089
		c-1.266-0.238-1.175-0.282-2.108-1.2L405.044,116.178z"/>
	<path fill="#4D8872" d="M369.987,122.918c-0.652-0.465-1.252-0.971-1.877-1.474l-0.048-0.948l0.757-0.445
		c2.992,1.563,1.393-0.169,3.991,0.853C372.113,121.404,370.652,122.526,369.987,122.918z"/>
	<path fill="#DC9F3F" d="M259.786,238.796c6.211-0.196,11.069,0.077,17.27,0.436c3.83,0.018,6.492,0.086,10.188,0.423
		c4.268,0.391,15.314,3.681,18.765,2.818c2.311-0.057,5.046-0.272,7.251,0.207c3.361,0.4,10.561,1.541,13.856,2.343
		c1.958-1.232,0.392-1.939,3.808-2.462c2.489,0.675,14.697,3.39,15.894,3.94l2.484,2.659c5.555-1.334,9.514,0.272,15.042,1.822
		c3.497,3.913,6.438,4.308,11.489,6.073c2.732-0.112,3.3,0.093,5.967,0.813c2.781,1.675,5.254,3.371,7.333,5.876l0.22-0.033
		l1.543,1.271c1.547-0.255,2.649-0.757,4.103-1.315c1.098,0.78,2.134,1.502,3.264,2.243l0.11,0.969l-1.122,1.238l-0.544,0.479
		c1.001,0.979,1.706,1.248,2.934,1.882c1.831,0.6,2.201,1.698,3.825,2.975l2.617-0.858c1.569,0.135,3.464,0.194,4.76-0.724
		l0.132-0.947l-1.598-1.813c1.372,0.256,1.156,0.096,2.249,0.71c2.588,1.455,7.626-1.217,11.918-1.361
		c-1.996,1.144-7.294,3.99-8.566,5.271c-6.728,6.753-3.272,6.604-11.945,9.746c-1.546-0.975-3.348-2.043-4.831-3.066
		c-3.779-3.035-7.13-5.642-11.078-8.49c-2.428-1.406-5.676-3.848-8.52-5.555c-5.829-2.557-11.848-5.132-17.735-7.534
		c-4.055-0.161-10.162-0.978-13.252-3.782c-0.216-0.312-0.646-0.411-1.095-0.625c-5.35,1.405-10.978-0.676-16.261-1.694
		c-8.092-1.563-16.229-1.931-24.39-3.034c-2.837-0.384-7.564-1.718-10.209-1.704c-15.617,0.081-32.041-1.324-47.581-1.196
		c2.532-4.566,4.051-2.735,1.303-7.377C252.951,239.536,256.348,239.744,259.786,238.796z"/>
	<path fill="#E4AA47" d="M409.374,269.111c1.372,0.256,1.156,0.096,2.249,0.71c2.588,1.455,7.626-1.217,11.918-1.361
		c-1.996,1.144-7.294,3.99-8.566,5.271c-6.728,6.753-3.272,6.604-11.945,9.746c-1.546-0.975-3.348-2.043-4.831-3.066l1.613-2.111
		c0.016-1.533-1.39-2.969-2.388-4.288l0.184-1.088c1.568-1.328,0.746-1.131,2.401-1.109c0.854,0.834,1.639,1.634,2.466,2.491
		l0.988-0.851l2.617-0.857c1.569,0.134,3.464,0.193,4.76-0.725l0.132-0.947L409.374,269.111z"/>
	<path fill="#F4CD60" d="M327.115,245.021c1.958-1.232,0.392-1.939,3.808-2.462c2.489,0.675,14.697,3.39,15.894,3.94l2.484,2.659
		c-2.227-0.079-4.521-1.022-6.793-1.388C337.234,246.929,332.343,246.227,327.115,245.021z"/>
	<path fill="#F4CD60" d="M375.832,257.056c2.732-0.112,3.3,0.093,5.967,0.813c2.781,1.675,5.254,3.371,7.333,5.876
		c-6.398,3.394-8.2-2.646-12.762-6.271L375.832,257.056z"/>
	<path fill="#F4CD60" d="M347.612,255.049c7.293-1.309,8.613-2.419,13.252,3.782C356.809,258.67,350.702,257.854,347.612,255.049z"
		/>
	<path fill="#E4AA47" d="M394.996,263.668c1.098,0.78,2.134,1.502,3.264,2.243l0.11,0.969l-1.122,1.238l-0.544,0.479
		c1.001,0.979,1.706,1.249,2.933,1.882c-6.28,0.01-4.058-0.963-8.314-5.087l-0.428-0.409
		C392.44,264.729,393.543,264.227,394.996,263.668z"/>
	<path fill="#F4CD60" d="M378.599,266.365l0.685-0.52c2.092,0.858,3.491,2.214,4.828,1.967c-0.639-1.121-0.68-1.055-1.561-2.041
		l0.031-0.986c2.752,0.238,4.457,4.616,4.535,7.135C384.691,270.513,381.443,268.072,378.599,266.365z"/>
	<path fill="#4D8872" d="M617.215,181.787c10.786-8.987,46.099-21.731,59.791-25.551c0.138,8.766,0.313,9.618-7.467,12.696
		l-5.639,2.439c-11.688,4.776-34.363,14.354-45.28,20.296C617.136,188.264,617.648,185.325,617.215,181.787z"/>
	<path fill="#508D79" d="M663.9,171.373l0.664-1.755l-0.312-0.677c-1.635,0.484-1.098,0.59-2.558,0.275l-0.194-1.241
		c1.929-1.997,6.168-0.759,8.037,0.957L663.9,171.373z"/>
	<path fill="#72A496" d="M628.377,177.175c2.734,1.65,3.438,1.772,3.771,4.999c-1.708-2.136-2.264-1.555-4-3.428L628.377,177.175z"
		/>
	<path fill="#4F8972" d="M346.515,153.716l1.053-1.133c0.927,0.333,1.771,0.735,2.011,1.872
		c5.116,24.317,26.417,44.146,52.183,35.957c12.084-3.839,19.563-10.285,25.346-21.622c1.103-2.13,3.212-7.482,4.544-8.757
		c2.188,0.079,4.948,1.182,6.588-0.396c1.862-1.796,2.568-5.669,2.025-8.093c-2.625-1.965-4.3,1.074-7.106,0.63
		c-0.381-2.171,0.878-5.395,3.294-5.772c4.036-0.634,7.619,2.327,7.881,6.392c0.039,2.779-1.307,6.975-3.3,9.005
		c-2.403,2.536-6.753,1.183-8.208,2.928c-1.467,1.758-2.305,6.254-3.588,8.487c-7.258,12.652-15.444,16.89-28.658,20.638
		c-6.947,1.154-10.037,0.856-17.159,0.42c-1.554-0.12-5.146-1.019-6.828-1.388c-27.415-10.724-23.876-30.365-32.058-35.597
		C344.56,154.179,345.52,158.174,346.515,153.716z"/>
	<path fill="#4F8972" d="M283.645,178.743c1.179,1.007,1.561,1.479,2.566,2.627c0.678,3.347-0.554,6.621-1.884,9.618
		c3.303,10.57,15.779,38.265,15.607,46.936l-0.035-0.398l-0.89,0.932c-5.176-4.842-16.542-38.928-18.59-47.442
		C282.092,186.435,282.669,183.465,283.645,178.743z"/>
	<path fill="#4F7771" d="M590.734,152.615l1.898-0.635l0.135,0.707c1.635,8.419,7.935,8.517,14.521,12.945
		c3.897,2.619,12.07,9.665,10.67,14.654l-0.936,0.624c-3.658-0.923-4.122-4.442-7.353-7.541
		c-4.269-4.095-12.015-9.688-17.059-12.493L590.734,152.615z"/>
	<path fill="#4D8872" d="M223.008,44.015c1.876-3.725-0.88-2.496,2.448-6.252c2.254,7.337,6.695,26.063,5.977,33.396
		c-3.396,1.67-3.236,3.313-3.527,6.774C226.585,71.521,226.528,50.034,223.008,44.015z"/>
	<path fill="#4F8972" d="M263.534,145.643l6.418,1.484c10.063,5.625,15.035,9.465,16.499,21.618c-3.192,1.27,0.125,0.987-3.23,2.067
		c-2.919-14.043-8.239-18.714-22.017-22.17C262.042,147.445,262.61,146.748,263.534,145.643z"/>
	<path fill="#354C4B" d="M183.428,55.043c0.145,0.064,0.294,0.119,0.435,0.192c3.887,2.03-0.809,20.164,0.95,24.42
		c1.161,2.811,4.801,3.661,7.395,4.577c-0.711,8.894-10.775,10.588-16.971,4.333c-0.786-1.146-1.34-1.678-1.084-2.98
		c0.259-0.039,14.216,11.277,14.677-0.563c-3.85-1.251-5.168-1.719-5.826-5.979c-1.192-7.709,0.143-15.377,0.234-23.087
		C183.302,55.653,183.365,55.349,183.428,55.043z"/>
	
		<linearGradient id="SVGID_3_" gradientUnits="userSpaceOnUse" x1="816.668" y1="-12.9121" x2="820.9189" y2="-22.3687" gradientTransform="matrix(1 0 0 1 -565.3203 183.0801)">
		<stop  offset="0" style="stop-color:#667D6E"/>
		<stop  offset="1" style="stop-color:#5A8D80"/>
	</linearGradient>
	<path fill="url(#SVGID_3_)" d="M244.13,159.813c5.291-2.302,19.403,1.948,22.617,7.159l-0.497,0.489
		c-6.007-0.351-9.702-3.665-19.166-3.904c-1.118,0.777-3.038,2.03-3.968,2.896l-1.275,1.235
		C239.242,164.173,240.384,161.469,244.13,159.813z"/>
	<path fill="#4F8972" d="M241.841,167.688l1.275-1.235c5.965,1.238,19.125,3.597,23.796,8.588c0.596,0.638,0.343,1.053,0.279,2.112
		c-0.39,0.391-0.815,1.092-1.313,0.85c-7.387-3.593-14.551-5.358-22.278-7.649C242.878,168.938,242.889,168.849,241.841,167.688z"/>
	<path fill="#4F8972" d="M247.995,151.154l0.373-0.12c6.098,1.298,9.34,1.315,14.744,4.725c-0.5,2.226-0.089,2.03-1.459,3.321
		c-8.764-3.829-9.794-1.44-17.063-3.327c0.886-0.063,1.527-0.16,2.402-0.285C248.725,153.05,246.418,153.627,247.995,151.154z"/>
	<path fill="#354C4B" d="M379.386,163.949c3.875,2.05,2.226,4.625,4.483,7.2c4.671,5.327,10.007-1.214,13.443-3.702l0.877,0.176
		l0.615,1.438C391.68,179.438,376.913,175.4,379.386,163.949z"/>
	<path fill="#4F8972" d="M202.343,64.099c5.727-0.141,9.744,3.751,4.802,8.699C200.865,74.283,198.654,68.697,202.343,64.099z"/>
	<path fill="#4F8972" d="M231.432,71.159c0.172,4.732,0.772,12.882,0.336,17.258c-1.151,1.07-1.064,0.998-2.614,1.305
		c-1.748-1.61-1.248-9.065-1.249-11.787C228.196,74.473,228.037,72.829,231.432,71.159z"/>
	<path fill="#4F8972" d="M156.797,64.62c6.084,0.257,7.476,5.125,3.491,9.501C152.402,74.936,153.925,69.08,156.797,64.62z"/>
	<path fill="#2C393A" d="M385.999,145.844l0.935,0.429c2.449,2.831-1.216,8.316-0.174,12.242c1.546,1.356,2.571,1.086,4.886,1.292
		l0.132,0.896C380.748,164.422,384.892,151.594,385.999,145.844z"/>
	<path fill="#4F8972" d="M409.914,144.997c1.354,0.4,1.354,0.483,2.539,1.291c1.756,2.918,1.886,4.767-0.684,7.201
		C406.006,152.064,406.357,148.77,409.914,144.997z"/>
	<path fill="#4F8972" d="M263.112,155.76c2.751,1.169,6.534,2.75,8.334,5.172c-0.258,1.479-0.627,1.258-2.312,2.467
		c-1.276-0.206-5.529-3.312-7.481-4.317C263.023,157.789,262.612,157.983,263.112,155.76z"/>
	<path fill="#4F7771" d="M283.22,170.813c3.355-1.08,0.038-0.799,3.23-2.067c0.838,5.318,0.663,7.311-0.238,12.624
		c-1.007-1.147-1.389-1.62-2.566-2.627C283.319,176.748,283.555,173.407,283.22,170.813z"/>
	<path fill="#354C4B" d="M367.282,145.108c1.589-0.674,3.426,0.046,4.134,1.62c0.709,1.575,0.029,3.426-1.53,4.169
		c-1.039,0.494-2.264,0.388-3.2-0.278c-0.938-0.666-1.442-1.787-1.318-2.931C365.491,146.544,366.223,145.559,367.282,145.108z"/>
	<path fill="#2C393A" d="M163.926,104.046c2.699,0.714,5.199,2.495,8.766,2.386c0.864-0.026,2.116,0.215,2.955,0.418l0.186,1.035
		C171.553,109.094,165.228,109.315,163.926,104.046z"/>
</g>
<g>
	<path fill="#508D79" d="M124.338,362.136c-0.3-1.05-0.8-2.2-1.35-3.551c-11.151,4.851-12.951,5.801-14.101,6.751
		c-0.45-1-1.7-2.75-2.45-3.45c0.899-0.8,2.1-2.2,2.1-4.65v-31.652h8.251c-0.551-1.399-1.301-3.1-2.051-4.4l4.551-0.949
		c1,1.649,2.1,3.8,2.65,5.35h6.55v20.951h-15.301v11.301l7.95-3.2c-1-1.899-2-3.75-3-5.35l4-1.7c2.5,3.9,5.301,9.2,6.451,12.5
		L124.338,362.136z M113.188,329.733v4.25h10.751v-4.25H113.188z M123.938,342.334v-4.4h-10.751v4.4H123.938z M149.89,359.936
		c0,2.5-0.5,3.9-2,4.65c-1.55,0.8-3.9,0.899-7.551,0.899c-0.25-1.25-0.8-3.399-1.45-4.6c2.4,0.1,4.801,0.05,5.451,0.05
		c0.75,0,1.05-0.25,1.05-1v-10.001h-9.4c-0.601,5.7-2.101,11.601-5.15,15.951c-0.801-0.8-2.7-2-3.851-2.5
		c4.65-6.551,5.051-16.102,5.051-23.302v-17.751h17.851V359.936z M145.39,345.734v-7.801h-8.9v2.15c0,1.75-0.051,3.65-0.15,5.65
		H145.39z M136.489,326.533v7.251h8.9v-7.251H136.489z"/>
	<path fill="#508D79" d="M182.238,331.934h-16.102v-3.7h8.101c-0.95-1.85-2.65-4.45-4.2-6.351l3.9-1.6c1.8,1.95,3.65,4.6,4.5,6.45
		l-3.3,1.5h7.101V331.934z M181.388,345.335h-13.7v-3.65h13.7V345.335z M180.938,363.086h-9.2v2.2h-3.7v-16.802h12.9V363.086z
		 M168.137,338.685v-3.65h12.852v3.65H168.137z M171.737,352.185v7.251h5.45v-7.251H171.737z M202.439,358.686
		c3.55,1.399,7.3,3.1,9.7,4.25l-2.5,3.101c-2.45-1.351-6.5-3.351-10.15-4.9l1.85-2.45h-9.25l3.2,1.9
		c-2.801,2.1-7.4,4.25-11.151,5.35c-0.699-0.8-2.05-2.1-2.95-2.85c3.601-0.95,7.751-2.801,10.001-4.4h-5.65v-14.701h24.052v14.701
		H202.439z M194.839,325.533h-11.15v-3.05h11.15v-2.5h4.5v2.5h11.851v3.05h-11.851v2.101h10.551v2.899h-24.552v-2.899h9.501V325.533
		z M183.938,332.233h26.951v10.151h-26.951V332.233z M187.639,339.884h4.25v-5.149h-4.25V339.884z M189.639,348.385h15.65v-1.8
		h-15.65V348.385z M189.639,352.185h15.65v-1.85h-15.65V352.185z M189.639,356.135h15.65v-2h-15.65V356.135z M199.639,339.884
		v-5.149h-4.75v5.149H199.639z M206.989,334.734h-4.35v5.149h4.35V334.734z"/>
	<path fill="#508D79" d="M239.888,343.935c-0.8,4.45-2.45,9-4.55,12.601c0.85,0.45,1.85,1.25,3.4,2.101c3.45,2,8.1,2.3,13.851,2.3
		c5.95,0,14.501-0.45,20.151-1.15c-0.601,1.25-1.4,3.601-1.45,4.9c-3.801,0.25-13.001,0.55-18.901,0.55
		c-6.45,0-10.751-0.5-14.451-2.6c-2-1.101-3.8-2.7-4.9-2.7c-1.1,0-2.899,3.15-4.3,6.05l-3.101-4.399c1.45-1.9,3-3.501,4.4-4.551
		l-0.05-0.05c2.15-2.601,3.851-6.4,4.851-10.051h-7.051c1.4-2.95,3.05-7.051,4.5-10.9h-5.75v-4.2h11.801
		c-1.3,3.55-2.9,7.65-4.351,11.101h2.5l0.65-0.15L239.888,343.935z M232.688,329.733c-0.8-2.15-2.601-5.7-3.8-8.351l4-1.45
		c1.3,2.601,3.05,5.951,4,8.051L232.688,329.733z M271.34,329.334h-31.452v-3.65h14.001c-0.7-1.4-1.75-3.301-2.8-4.7l4.45-1.45
		c1.3,1.649,2.75,3.9,3.45,5.35l-2.301,0.801h14.651V329.334z M243.138,345.135h24.302v12.15h-24.302V345.135z M267.09,335.584
		h-23.401v-3.45h23.401V335.584z M243.688,338.634h23.401v3.45h-23.401V338.634z M247.538,353.835h15.352v-5.25h-15.352V353.835z"/>
	<path fill="#508D79" d="M331.939,339.884v5.101h-45.502v-5.101H331.939z"/>
	<path fill="#508D79" d="M370.889,334.233c-4.65,8.951-12.301,16.251-20.751,20.802c-0.601-0.95-2.001-2.95-2.9-3.8
		c4.95-2.351,9.551-5.601,13.301-9.651c-8.701,0.551-10.201,0.801-11.201,1.2c-0.25-0.899-0.95-3.05-1.45-4.25
		c0.95-0.15,1.851-0.95,3.001-2.05c0.8-0.801,3-3.351,5.05-6.251h-9.15v-4.25h12.351c-0.5-1.65-1.5-3.601-2.5-5.2l4.4-1.05
		c1.3,1.85,2.6,4.45,3.1,6.25h10.001v4.25h-12.9c-2,2.75-4.251,5.501-6.551,7.801l9.101-0.4c1.1-1.5,2.05-3.1,2.851-4.75
		L370.889,334.233z M374.139,343.834c-2,3.501-4.45,6.701-7.25,9.651c2.85,2.399,6.25,5.4,8,7.351l-3.35,3.05
		c-1.601-1.95-4.801-5-7.601-7.501c-4.301,3.851-9.201,7.051-14.251,9.501c-0.55-1-1.95-3.05-2.851-3.95
		c9.551-4.05,18.201-11.001,23.052-19.701L374.139,343.834z M381.489,353.285h-4.4v-27.702h4.4V353.285z M390.439,320.583v39.603
		c0,2.75-0.649,4.05-2.3,4.75c-1.7,0.7-4.4,0.851-8.601,0.8c-0.2-1.199-0.9-3.2-1.5-4.399c2.851,0.1,5.75,0.1,6.65,0.05
		c0.8-0.05,1.15-0.3,1.15-1.2v-39.603H390.439z"/>
</g>
<g>
	<path fill="#508D79" d="M496.952,348.635v16.851h-4.2v-16.851h-9.4v-3.95h9.4v-4.2h-9.95v-3.95h13.601
		c0.75-2.25,1.649-5.301,2.1-7.4l4.2,0.85c-0.85,2.2-1.6,4.601-2.399,6.551h5.05v3.95h-8.4v4.2h7.851v3.95H496.952z
		 M491.151,351.235c-1.199,3.8-3.149,8.05-4.899,10.7c-0.75-0.6-2.351-1.75-3.301-2.25c1.75-2.5,3.4-6.101,4.351-9.501
		L491.151,351.235z M504.452,328.783h-20.701v-3.9h8.451c-0.5-1.25-1.051-2.5-1.601-3.55l4.351-1.15c0.8,1.351,1.7,3.2,2.35,4.7
		h7.15V328.783z M488.302,336.184c-0.2-1.649-0.95-4.2-1.7-6.1l3.65-0.75c0.85,1.85,1.6,4.25,1.85,5.85L488.302,336.184z
		 M502.202,358.985c-0.7-2-2.399-5.101-3.75-7.4l3.05-1.55c1.4,2.25,3.101,5.2,3.851,7.1L502.202,358.985z M524.304,361.186
		c0.9,0,1.101-0.7,1.2-6.351c0.8,0.75,2.65,1.45,3.75,1.75c-0.35,6.9-1.399,8.601-4.4,8.601h-3.35c-3.601,0-4.4-1.3-4.4-5.351v-9.4
		h-3.101c-0.7,7.451-2.649,12.601-10.25,15.551c-0.45-1.05-1.65-2.649-2.601-3.45c6.5-2.3,8.001-6.2,8.501-12.101h-2.9v-28.352
		h19.451v28.352h-4.851v9.4c0,1.15,0.101,1.351,0.9,1.351H524.304z M510.953,330.334h10.9v-4.2h-10.9V330.334z M510.953,338.334
		h10.9v-4.3h-10.9V338.334z M510.953,346.335h10.9v-4.301h-10.9V346.335z"/>
	<path fill="#508D79" d="M588.204,346.435h-19.852v13.65c0,2.851-0.7,4.251-2.8,4.951c-2.101,0.75-5.4,0.85-10.051,0.85
		c-0.3-1.35-1.2-3.5-2-4.8c3.8,0.149,7.551,0.149,8.65,0.1c1.05-0.05,1.351-0.3,1.351-1.2v-13.551h-20.151v-4.65h20.151v-7.05
		c3.7-1.751,8.05-4.451,11.301-7.051h-26.502v-4.551h31.602l1.051-0.25l3.5,2.7c-4.251,4.101-10.401,8.601-16.102,11.601v4.601
		h19.852V346.435z"/>
	<path fill="#508D79" d="M627.853,349.984c-0.6,2.851-1.85,5.501-4.15,7.851c6.4,2.501,14.802,3.051,25.402,3.15
		c-0.851,1.101-1.7,3.051-1.95,4.601c-11.201-0.4-20.302-1.25-27.302-4.7c-3.25,2.05-7.801,3.75-13.901,5.05
		c-0.55-1.05-1.8-3.05-2.85-4.1c5.45-0.95,9.4-2.2,12.4-3.65c-2.25-1.7-4.15-3.851-5.8-6.45l4.05-1.601
		c1.55,2.25,3.4,4.051,5.601,5.5c1.899-1.699,2.95-3.6,3.55-5.65h-14.4v-19.701h15.15v-3.6h-19.551v-4.2h43.253v4.2h-18.852v3.6
		h15.701v19.701H627.853z M612.902,338.334h10.75v-4.25h-10.75V338.334z M623.553,346.185c0.1-0.8,0.1-1.6,0.1-2.45v-1.8h-10.75
		v4.25H623.553z M639.604,341.935h-11.101v1.85c0,0.851,0,1.601-0.1,2.4h11.2V341.935z M628.503,334.084v4.25h11.101v-4.25H628.503z
		"/>
	<path fill="#508D79" d="M678.452,343.984h4.551v5.15c0,5.101-0.801,12.351-4.501,17.351c-0.85-0.75-2.899-2.05-3.9-2.5
		c0.751-1,1.4-2.149,1.9-3.35c-4.65,0.6-9.25,1.149-12.801,1.55l-0.5-3.351c3.7-0.3,9.001-0.85,14.351-1.449
		c0.2-0.7,0.351-1.351,0.45-2.051h-12.45v-3h12.801c0.05-0.9,0.1-1.75,0.1-2.55h-14.001v-3.15h14.001V343.984z M707.304,331.983
		h-43.202v-3.25h5.101c-0.9-0.6-1.9-1.2-2.751-1.45c2.601-2.1,4.4-4.8,5.4-7.101l4.251,0.7c-0.351,0.75-0.7,1.4-1.051,2.101h8.4v-3
		h4.701v3h15.551v3.1h-15.551v2.65h19.15V331.983z M669.151,343.234v-9.15h34.053v9.15H669.151z M673.152,326.083
		c-0.65,0.95-1.4,1.801-2.251,2.65h12.551v-2.65H673.152z M673.652,340.185h24.801v-3.101h-24.801V340.185z M708.404,361.485
		h-15.001v4.45h-4.601v-21.801h4.601v2.5h13.65v3.1h-13.65v2.65h12.601v3.051h-12.601v2.75h15.001V361.485z"/>
	<path fill="#508D79" d="M737.052,343.385c-1.199,4.7-2.85,9.601-4.85,13.4c0.75,0.5,1.7,1.2,3,2c3.4,2.101,7.95,2.4,13.801,2.4
		c6.051,0,14.4-0.45,19.951-1.15c-0.55,1.301-1.3,3.551-1.35,4.801c-3.9,0.25-12.951,0.55-18.802,0.55c-6.5,0-10.801-0.55-14.4-2.65
		c-2-1.149-3.851-2.9-4.851-2.9c-1.15,0-2.851,3.251-4.15,6.301l-3.15-4.351c2.051-2.7,4.101-4.85,5.9-5.65
		c1.4-2.6,2.65-6.05,3.551-9.4h-6.801c1.2-2.9,2.75-6.9,4.051-10.7h-5.951v-4.2h11.651c-1.2,3.45-2.65,7.45-4.001,10.851h3.601
		l0.7-0.2L737.052,343.385z M728.701,329.983c-0.6-2.15-1.8-5.601-2.649-8.2l4.3-1.15c0.851,2.551,2.101,5.751,2.7,7.851
		L728.701,329.983z M746.053,338.634c-0.4,6.201-1.65,13.352-5.301,18.451c-0.8-0.8-2.899-2.3-4-2.85
		c4.301-6.051,4.75-14.501,4.75-20.651v-10.65c7.651-0.4,16.502-1.301,21.401-2.9l3.801,3.45c-5.5,1.75-13.301,2.65-20.501,3.1
		v7.051v0.65h21.751v4.35h-8.501v19.852h-4.7v-19.852H746.053z"/>
</g>
</svg>
