<?xml version="1.0" encoding="utf-8"?>
<!-- Generator: Adobe Illustrator 16.0.0, SVG Export Plug-In . SVG Version: 6.00 Build 0)  -->
<!DOCTYPE svg PUBLIC "-//W3C//DTD SVG 1.1//EN" "http://www.w3.org/Graphics/SVG/1.1/DTD/svg11.dtd">
<svg version="1.1" id="圖層_1" xmlns="http://www.w3.org/2000/svg" xmlns:xlink="http://www.w3.org/1999/xlink" x="0px" y="0px"
	 width="250px" height="250px" viewBox="5.25 -3.25 250 250" enable-background="new 5.25 -3.25 250 250" xml:space="preserve">
<g>
	<path fill="#DC9F3F" d="M79.841,11.627l0.267-0.083c1.355,0.182,5.6,4.575,6.543,5.909c8.813,12.475,19.062,23.534,28.415,35.564
		c10.417,13.399,20.492,29.712,34.877,38.578c6.016,2.094,12.824,2.309,19.129,2.784c8.779,0.204,18.579,1.858,27.292,1.654
		c18.911-0.44,36.563-0.265,55.455,0.885c-2.487,6.746-6.467,11.48-9.892,17.655c-22.858,41.212-46.269,81.985-68.511,123.586
		l-1.381,1.304c-9.239,2.71-27.886-9.671-36.715-13.261c-12.473-5.073-25.161-12.958-37.334-18.08l-0.684-0.284
		c-3.205,2.36-4.581,3.355-7.321,6.246c-24.124-5.833-14.266-18.706-26.479-30.923c-10.475-10.479-24.351-20.987-35.121-31.799
		c-6.442-6.465-13.196-11.536-19.586-18.766c3.177-9.417,9.085-16.62,13.367-25.259c8.24-16.624,18.141-31.628,27.43-47.519
		l19.88-34.692c2.19-3.757,5.646-9.279,8.239-12.965C78.546,11.953,79.258,11.774,79.841,11.627z"/>
	<path fill="#EFF2ED" d="M123.462,100.558c1.166,0.93,0.851,0.313,1.15,1.771c-3.688,7.789-7.296,16.682-12.11,23.78
		c-8.378,12.354-21.562,45.99-33.077,54.084l-0.758-0.399c-0.211-1.408,0.491-3.104,1.248-4.227
		C96.12,151.513,107.715,124.768,123.462,100.558z"/>
	<path fill="#EFF2ED" d="M109.468,181.964c5.778-12.096,11.177-21.632,18.362-32.828c5.628-8.772,10.19-20.404,17.477-28.008
		c-2.413,14.347-14.321,28.923-21.398,41.399c-4.872,8.59-6.964,13.621-13.304,21.257L109.468,181.964z"/>
	<path fill="#E4AA47" d="M66.946,68.927c2.322,0.834,6.012,2.957,7.989,4.509l-0.106,0.645c-1.396,0.164-3.376-1.28-4.741-2.075
		l-0.722,0.475l-0.428,2.278c-0.802,1.481-1.267,2.724-1.889,4.281l-0.788,0.331l-0.144,0.516l0.242,0.468l-0.454,0.249l-0.005,0.42
		C65.598,77.27,68.792,74.512,66.946,68.927z"/>
	<path fill="#E4AA47" d="M107.463,199.999c0.96,0.729,1.796,2.071,1.767,3.317c-0.075,3.147,1.563,2.579,2.67,4.671
		c-1.364,0.894-2.063,0.699-3.808,0.863l-1.118-0.016l-0.426-0.686c1.469-1.994,2.179-2.687,1.489-5.207
		c-1.237-0.899-0.986-0.461-1.661-1.7L107.463,199.999z"/>
	<path fill="#F4CD60" d="M59.642,101.596c1.761,0.156,3.833,0.821,4.706,2.52l-0.644,1.999l-1.194-0.069
		C60.532,103.364,59.989,105.575,59.642,101.596z"/>
	<path fill="#F1DEBB" d="M104.376,189.649c0.878-1.563,3.992-6.591,5.091-7.685l1.137,1.821
		C108.708,185.89,106.484,187.765,104.376,189.649z"/>
	<path fill="#F4CD60" d="M72.617,63.766c1.728,0.315,3.248,2.398,4,3.962c-1.169-0.229-1.746-0.478-2.86-0.874
		C72.428,65.197,72.881,66.151,72.617,63.766z"/>
	<path fill="#F4CD60" d="M70.561,147.888c0.401,0.5,0.167,0.138,0.434,1.231c-1.213,1.338-1.81,1.835-3.204,2.984l-0.489-0.525
		C67.7,150.008,69.183,149.131,70.561,147.888z"/>
	<path fill="#F4CD60" d="M193.64,163.25l0.674,0.76c-0.4,1.501-1.314,1.864-2.677,3.106l-0.38-0.436
		C191.545,165.167,192.461,164.606,193.64,163.25z"/>
	<path fill="#E4AA47" d="M115.067,205.424c2.481,0.058,3.224,0.164,5.417,1.271C117.561,207.151,117.305,207.505,115.067,205.424z"
		/>
	<path fill="#E4AA47" d="M36.792,81.133c2.398,0.461,2.875,1.096,4.155,3.11C38.525,83.457,38.238,83.146,36.792,81.133z"/>
	<path fill="#4F8972" d="M93.996,7.375c7.151,3.664,6.537,5.134,11.381,10.534c3.181,3.544,16.155,25.267,19.075,26.31
		c1.882-3.378-2.828-2.714-1.86-7.048c0.318-1.431-7.701-8.448-7.822-12.528c-0.03-1.053-10.271-11.187-11.337-12.901
		c-1.795-2.277,1.748-7.616,3.926-8.727c2.073,1.067,46.497,71.691,49.457,78.131c5.299-1.936,13.848-4.464,19.252-6.272
		c13.093-4.379,44.662-16.191,57.068-16.861c-0.03,3.054,0.023,5.684,0.156,8.736c0.341,3.073,1.834,5.682,5.028,6.026l0.335,7.185
		c-1.636,0.617-2.929,0.889-4.098,2.204c2.524,1.383,9.186-0.241,11.927-0.838c-0.7,2.291-1.93,8.338-3.913,9.602
		c-3.704,2.359-37.162,1.162-43.848,1.152c-5.551,0.066-13.494-0.835-19.266-1.223l-9.493-0.349
		c-11.731-0.45-17.893,3.42-13.835-11.524c-1.294,1.891-3.905,4.647-4.056,6.673c-0.107,1.436,0.169,0.723-0.628,1.867
		c-8.459-2.097-32.177-36.592-38.996-44.519c-7.652-8.896-16.551-20.856-24.539-29.513C90.292,10.67,91.091,9.614,93.996,7.375z"/>
	<path fill="#4F8972" d="M233.288,81.261l1.271,0.903c2.524,1.383,9.186-0.241,11.927-0.838c-0.7,2.291-1.93,8.338-3.913,9.602
		c-3.704,2.359-37.162,1.162-43.848,1.152l0.321-1.343c3.229,0.004,2.004-1.197,3.254-2.106c4.731-3.437,18.452-2.498,22.372-6.557
		l0.215-0.231C228.177,82.18,229.994,81.51,233.288,81.261z"/>
	<path fill="#609B85" d="M224.887,81.842c3.29,0.338,5.107-0.333,8.401-0.581C230.734,84.102,227.851,83.43,224.887,81.842z"/>
	<path fill="#EFF2ED" d="M199.045,90.737c0.77-1.022,2.534-4.564,3.655-4.571c6.369-0.036,12.643-4.068,18.65-5.063
		c1.443,0.81,1.763,0.819,3.321,0.971c-3.92,4.059-17.641,3.12-22.372,6.557C201.049,89.54,202.274,90.741,199.045,90.737z"/>
	<path fill="#EFF2ED" d="M233.292,66.749c0.341,3.073,1.834,5.682,5.028,6.026c-4.716,0.023-11.75,0.904-16.574,1.394l0.335-0.209
		l0.564-0.341c3.571-2.208,5.51-2.25,9.523-3.4C233.512,68.836,233.087,69.296,233.292,66.749z"/>
	<path fill="#609B85" d="M169.965,90.508l-0.338-2.362c3.763-2.143,6.67,1.966,9.832,2.711L169.965,90.508z"/>
	<path fill="#F9FAFA" d="M193.846,80.113c5.32-2.335,22.138-8.509,27.427-7.393c-1.32,4.472-20.129,5.684-25.646,9.427
		c-0.942-0.135-0.704-0.121-1.598-0.57L193.846,80.113z"/>
	<path fill="#609B85" d="M195.627,82.147c-2.233,2.271-3.732,4.729-7.483,2.46c-0.989-1.53-0.787-0.722-0.752-2.468
		c1.324-1.776,4.41-2.358,6.454-2.026l0.184,1.464C194.923,82.026,194.686,82.012,195.627,82.147z"/>
</g>
</svg>
